# Blender 4.5.3 LTS
# www.blender.org
mtllib kagi.mtl
o Cube
v 0.076822 0.101154 2.992419
v 0.065581 0.267309 2.978079
v -0.461882 0.101154 3.316401
v 0.073677 0.267309 2.978877
v 0.019692 0.267687 2.856896
v -0.461882 0.278982 3.316401
v 0.620940 0.278982 3.316401
v 0.081463 0.267309 2.981238
v 0.620940 0.101154 3.316401
v 0.111469 0.267687 2.856896
v 0.076822 0.278982 3.316401
v 0.088638 0.267309 2.985074
v 0.076822 0.101154 3.316401
v -0.236335 0.278982 2.992419
v -0.236335 0.101154 2.992419
v 0.094927 0.267309 2.990235
v -0.236335 0.278982 3.316401
v -0.236335 0.101154 3.316401
v 0.100088 0.267309 2.996524
v 0.423697 0.101154 2.992419
v 0.423697 0.278982 2.992419
v 0.103923 0.267309 3.003699
v 0.378878 0.101154 3.316401
v 0.378878 0.278982 3.316401
v 0.106285 0.267309 3.011484
v 0.107082 0.267309 3.019581
v 0.106285 0.267309 3.027678
v 0.103923 0.267309 3.035463
v 0.100088 0.267309 3.042638
v 0.620940 0.278982 3.049500
v 0.094927 0.267309 3.048927
v 0.539461 0.278982 2.941415
v 0.439474 0.278982 2.992419
v 0.088638 0.267309 3.054088
v 0.610024 0.278982 3.014126
v 0.580200 0.278982 2.974564
v 0.539461 0.101154 2.941415
v 0.081463 0.267309 3.057923
v 0.620940 0.101154 3.049500
v 0.439474 0.101154 2.992419
v 0.073677 0.267309 3.060285
v 0.580200 0.101154 2.974564
v 0.065581 0.267309 3.061083
v 0.610024 0.101154 3.014126
v -0.381053 0.278982 2.941313
v 0.057484 0.267309 3.060285
v -0.461882 0.278982 3.049500
v -0.280416 0.278982 2.992419
v 0.049699 0.267309 3.057923
v -0.421468 0.278982 2.974513
v -0.451053 0.278982 3.014112
v 0.042524 0.267309 3.054088
v -0.461882 0.101154 3.049500
v -0.381053 0.101154 2.941313
v 0.036235 0.267309 3.048927
v -0.280416 0.101154 2.992419
v -0.451053 0.101154 3.014112
v 0.031073 0.267309 3.042638
v -0.421468 0.101154 2.974513
v -0.004007 0.101154 2.702919
v 0.027238 0.267309 3.035463
v 0.158300 0.101154 2.702816
v 0.076822 0.101154 2.708894
v 0.024876 0.267309 3.027678
v 0.047324 0.101154 2.684199
v 0.106732 0.101154 2.684162
v 0.024079 0.267309 3.019581
v 0.158300 0.278982 2.702816
v -0.004007 0.278982 2.702919
v 0.024876 0.267309 3.011484
v 0.076822 0.278982 2.708894
v 0.106732 0.278982 2.684162
v 0.027238 0.267309 3.003699
v 0.047324 0.278982 2.684199
v 0.031073 0.267309 2.996524
v 0.036235 0.267309 2.990235
v 0.042524 0.267309 2.985074
v 0.049699 0.267309 2.981238
v 0.057484 0.267309 2.978877
v 0.081463 0.278982 3.057923
v 0.076822 0.278982 3.059331
v 0.094927 0.278982 3.048927
v 0.088638 0.278982 3.054088
v 0.096719 0.278982 2.992419
v 0.107082 0.278982 3.019581
v 0.106285 0.278982 3.027678
v 0.106285 0.278982 3.011484
v 0.103923 0.278982 3.035463
v 0.103923 0.278982 3.003699
v 0.100088 0.278982 2.996524
v 0.100088 0.278982 3.042638
v 0.034442 0.278982 2.992419
v 0.036235 0.278982 2.990235
v 0.042524 0.278982 2.985074
v 0.024079 0.278982 3.019581
v 0.024876 0.278982 3.027678
v 0.024876 0.278982 3.011484
v 0.031073 0.278982 2.996524
v 0.027238 0.278982 3.035463
v 0.027238 0.278982 3.003699
v 0.031073 0.278982 3.042638
v 0.049699 0.278982 3.057923
v 0.042524 0.278982 3.054088
v 0.036235 0.278982 3.048927
v 0.057484 0.278982 3.060285
v 0.073677 0.278982 3.060285
v 0.065581 0.278982 3.061083
v 0.094927 0.278982 2.990235
v 0.088638 0.278982 2.985074
v 0.076822 0.278982 2.856896
v 0.019692 0.278982 2.856896
v 0.047560 0.278982 2.982382
v 0.083601 0.278982 2.982382
v 0.111469 0.278982 2.856896
v 0.065581 0.267687 2.978079
v 0.073677 0.267687 2.978877
v 0.081463 0.267687 2.981238
v 0.083601 0.267687 2.982382
v 0.047560 0.267687 2.982382
v 0.049699 0.267687 2.981238
v 0.057484 0.267687 2.978877
v -0.461882 0.101154 3.409721
v -0.461882 0.178782 3.558407
v -0.461882 0.103100 3.442806
v -0.461882 0.108842 3.474233
v -0.461882 0.118090 3.502425
v -0.461882 0.130382 3.525968
v -0.461882 0.145100 3.543682
v -0.461882 0.161508 3.554679
v -0.461882 0.201354 3.558407
v -0.461882 0.278982 3.409721
v -0.461882 0.218628 3.554679
v -0.461882 0.235035 3.543682
v -0.461882 0.249754 3.525968
v -0.461882 0.262046 3.502425
v -0.461882 0.271294 3.474233
v -0.461882 0.277035 3.442806
v -0.236335 0.278982 3.409721
v -0.236335 0.201354 3.558407
v -0.236335 0.277035 3.442806
v -0.236335 0.271294 3.474233
v -0.236335 0.262046 3.502425
v -0.236335 0.249754 3.525968
v -0.236335 0.235035 3.543682
v -0.236335 0.218628 3.554679
v -0.236335 0.178782 3.558407
v -0.236335 0.101154 3.409721
v -0.236335 0.161508 3.554679
v -0.236335 0.145100 3.543682
v -0.236335 0.130382 3.525968
v -0.236335 0.118090 3.502425
v -0.236335 0.108842 3.474233
v -0.236335 0.103100 3.442806
v 0.620940 0.278982 3.392325
v 0.620940 0.201354 3.541011
v 0.620940 0.277035 3.425411
v 0.620940 0.271294 3.456837
v 0.620940 0.262046 3.485029
v 0.620940 0.249754 3.508572
v 0.620940 0.235035 3.526286
v 0.620940 0.218628 3.537283
v 0.620940 0.178782 3.541011
v 0.620940 0.101154 3.392325
v 0.620940 0.161508 3.537283
v 0.620940 0.145100 3.526286
v 0.620940 0.130382 3.508572
v 0.620940 0.118090 3.485029
v 0.620940 0.108842 3.456837
v 0.620940 0.103100 3.425411
v 0.378878 0.101154 3.392325
v 0.378878 0.178782 3.541011
v 0.378878 0.103100 3.425411
v 0.378878 0.108842 3.456837
v 0.378878 0.118090 3.485029
v 0.378878 0.130382 3.508572
v 0.378878 0.145100 3.526286
v 0.378878 0.161508 3.537283
v 0.378878 0.201354 3.541011
v 0.378878 0.278982 3.392325
v 0.378878 0.218628 3.537283
v 0.378878 0.235035 3.526286
v 0.378878 0.249754 3.508572
v 0.378878 0.262046 3.485029
v 0.378878 0.271294 3.456837
v 0.378878 0.277035 3.425411
vn -0.0000 -1.0000 -0.0000
vn -0.0000 1.0000 -0.0000
vn 0.9884 -0.0000 -0.1521
vn 1.0000 -0.0000 -0.0000
vn -0.9885 -0.0000 -0.1509
vn -1.0000 -0.0000 -0.0000
vn -0.5824 -0.0000 -0.8129
vn -0.4277 -0.0000 -0.9039
vn -0.0000 -0.1069 0.9943
vn -0.0000 0.1069 0.9943
vn -0.0000 -0.0000 1.0000
vn -0.0000 0.9996 0.0293
vn -0.0000 -0.9996 0.0293
vn -0.8857 -0.0000 -0.4642
vn -0.7152 -0.0000 -0.6990
vn 0.8841 -0.0000 -0.4674
vn 0.7119 -0.0000 -0.7022
vn 0.5787 -0.0000 -0.8155
vn 0.4247 -0.0000 -0.9053
vn 0.3402 -0.0000 -0.9404
vn -0.0006 -0.0000 -1.0000
vn -0.3426 -0.0000 -0.9395
vn -0.0980 -0.0000 0.9952
vn -0.1834 -0.0000 0.9830
vn -0.3705 -0.0000 0.9288
vn -0.5467 -0.0000 0.8373
vn -0.4714 -0.0000 0.8819
vn -0.7015 -0.0000 0.7127
vn -0.8284 -0.0000 0.5602
vn -0.7730 -0.0000 0.6344
vn -0.9225 -0.0000 0.3860
vn -0.9804 -0.0000 0.1968
vn -0.9804 -0.0000 -0.1968
vn -0.9225 -0.0000 -0.3860
vn -0.8284 -0.0000 -0.5602
vn -0.7015 -0.0000 -0.7127
vn -0.5467 -0.0000 -0.8373
vn -0.3705 -0.0000 -0.9288
vn -0.1834 -0.0000 -0.9830
vn -0.2903 -0.0000 -0.9569
vn -0.0980 -0.0000 -0.9952
vn 0.0980 -0.0000 -0.9952
vn 0.1834 -0.0000 -0.9830
vn 0.3705 -0.0000 -0.9288
vn 0.5467 -0.0000 -0.8373
vn 0.7015 -0.0000 -0.7127
vn 0.8284 -0.0000 -0.5602
vn 0.9225 -0.0000 -0.3860
vn 0.9804 -0.0000 -0.1968
vn 0.9804 -0.0000 0.1968
vn 0.9225 -0.0000 0.3860
vn 0.8284 -0.0000 0.5602
vn 0.7730 -0.0000 0.6344
vn 0.7015 -0.0000 0.7127
vn 0.5467 -0.0000 0.8373
vn 0.3705 -0.0000 0.9288
vn 0.4714 -0.0000 0.8819
vn 0.1834 -0.0000 0.9830
vn 0.0980 -0.0000 0.9952
vn -0.9762 -0.0000 -0.2168
vn 0.9762 -0.0000 -0.2168
vn -0.0000 0.4006 0.9163
vn -0.0000 0.6780 0.7351
vn -0.0000 0.8366 0.5477
vn -0.0000 0.9232 0.3844
vn -0.0000 0.9698 0.2438
vn -0.0000 0.9930 0.1183
vn -0.0000 -0.9930 0.1183
vn -0.0000 -0.9698 0.2438
vn -0.0000 -0.9232 0.3844
vn -0.0000 -0.8366 0.5477
vn -0.0000 -0.6780 0.7351
vn -0.0000 -0.4006 0.9163
vt 0.318846 0.637692
vt 0.375000 0.791897
vt 0.375000 0.795539
vt 0.375000 0.875625
vt 0.062845 0.146743
vt 0.056154 0.112308
vt 0.625000 0.750000
vt 0.625000 0.791897
vt 0.625000 0.795539
vt 0.375000 0.750000
vt 0.375000 0.795539
vt 0.625000 1.000000
vt 0.375000 1.000000
vt 0.625000 0.947926
vt 0.625000 0.958103
vt 0.318734 0.849957
vt 0.531223 0.849957
vt 0.093777 0.150043
vt 0.056266 0.150043
vt 0.375000 0.958103
vt 0.375000 0.947926
vt 0.484133 0.947926
vt 0.515867 0.947926
vt 0.515867 1.000000
vt 0.484133 1.000000
vt 0.625000 0.875625
vt 0.625000 0.874516
vt 0.625000 0.871031
vt 0.625000 0.870209
vt 0.625000 0.869280
vt 0.625000 0.868703
vt 0.625000 0.868494
vt 0.625000 0.868663
vt 0.625000 0.869203
vt 0.625000 0.870098
vt 0.625000 0.871314
vt 0.625000 0.872806
vt 0.376321 0.527226
vt 0.104741 0.146743
vt 0.625000 0.885409
vt 0.620993 0.879381
vt 0.611522 0.864661
vt 0.606582 0.856577
vt 0.376321 0.540416
vt 0.625000 0.886187
vt 0.625000 0.876351
vt 0.625000 0.878220
vt 0.625000 0.880090
vt 0.625000 0.881887
vt 0.625000 0.883544
vt 0.625000 0.884996
vt 0.625000 0.886187
vt 0.625000 0.887073
vt 0.625000 0.887618
vt 0.625000 0.887802
vt 0.625000 0.887618
vt 0.625000 0.887073
vt 0.611522 0.854014
vt 0.620993 0.865831
vt 0.531410 0.637692
vt 0.093590 0.112308
vt 0.376321 0.519226
vt 0.606582 0.848256
vt 0.624088 0.947926
vt 0.621397 0.947926
vt 0.617064 0.947926
vt 0.583910 0.947926
vt 0.563218 0.947926
vt 0.540151 0.947926
vt 0.459849 0.947926
vt 0.436782 0.947926
vt 0.416090 0.947926
vt 0.382936 0.947926
vt 0.378603 0.947926
vt 0.375912 0.947926
vt 0.624088 0.750000
vt 0.621397 0.750000
vt 0.617064 0.750000
vt 0.583910 0.750000
vt 0.563218 0.750000
vt 0.540151 0.750000
vt 0.515867 0.750000
vt 0.484133 0.750000
vt 0.459849 0.750000
vt 0.436782 0.750000
vt 0.416090 0.750000
vt 0.382936 0.750000
vt 0.378603 0.750000
vt 0.375912 0.750000
vt 0.515867 0.795539
vt 0.484133 0.795539
vt 0.375912 0.795539
vt 0.378603 0.795539
vt 0.382937 0.795539
vt 0.416090 0.795539
vt 0.436782 0.795539
vt 0.459849 0.795539
vt 0.540151 0.795539
vt 0.563218 0.795539
vt 0.583910 0.795539
vt 0.617064 0.795539
vt 0.621397 0.795539
vt 0.624088 0.795539
vt 0.625000 0.750000
vt 0.625000 0.750000
vt 0.353645 0.707291
vt 0.399851 0.785129
vt 0.446160 0.850351
vt 0.589360 0.942976
vt 0.647101 1.047066
vt 0.687908 1.134337
vt 0.375000 1.000000
vt 0.375000 1.000000
vt 0.032656 0.087083
vt 0.024418 0.065115
vt 0.033760 0.090026
vt 0.054318 0.065182
vt 0.040616 0.048739
vt 0.056154 0.067385
vt 0.353616 0.942976
vt 0.589409 0.707291
vt 0.032591 0.065182
vt 0.054427 0.087083
vt 0.000000 0.000000
vt 0.540151 1.000000
vt 0.563218 1.000000
vt 0.583910 1.000000
vt 0.617064 1.000000
vt 0.621397 1.000000
vt 0.624088 1.000000
vt 0.375912 1.000000
vt 0.378603 1.000000
vt 0.382936 1.000000
vt 0.416090 1.000000
vt 0.436782 1.000000
vt 0.459849 1.000000
s 1
usemtl hontai
f 37/1/1 40/2/1 20/3/1 1/4/1 63/5/1 62/6/1
f 30/7/2 33/8/2 21/9/2 24/9/2 7/7/2
f 39/10/1 9/10/1 23/11/1 20/3/1 40/2/1
f 39/10/3 30/7/3 7/7/4 9/10/4
f 47/12/5 53/13/5 3/13/6 6/12/6
f 47/12/2 6/12/2 17/14/2 14/14/2 48/15/2
f 54/16/7 45/17/7 69/18/8 60/19/8
f 53/13/1 56/20/1 15/21/1 18/21/1 3/13/1
f 146/22/9 139/23/10 130/24/10 123/25/9
f 23/11/11 24/9/11 11/26/11 13/4/11
f 80/27/2 81/26/2 11/26/2 24/9/2 21/9/2 84/28/2 90/29/2 89/30/2 87/31/2 85/32/2 86/33/2 88/34/2 91/35/2 82/36/2 83/37/2
f 60/19/1 63/5/1 1/4/1 15/21/1 56/20/1 54/16/1
f 110/38/2 71/39/2 69/18/2 45/17/2 48/15/2 14/14/2 92/40/2 93/41/2 94/42/2 112/43/2 111/44/2
f 15/21/1 1/4/1 13/4/1 18/21/1
f 98/45/2 92/40/2 14/14/2 17/14/2 11/26/2 81/26/2 106/46/2 107/47/2 105/48/2 102/49/2 103/50/2 104/51/2 101/52/2 99/53/2 96/54/2 95/55/2 97/56/2 100/57/2
f 13/4/11 11/26/11 17/14/11 18/21/11
f 109/58/2 108/59/2 84/28/2 21/9/2 33/8/2 32/60/2 68/61/2 71/39/2 110/38/2 114/62/2 113/63/2
f 1/4/1 20/3/1 23/11/1 13/4/1
f 17/14/2 6/12/2 131/12/12 138/14/12
f 18/21/4 17/14/4 138/14/4 140/64/4 141/65/4 142/66/4 143/67/4 144/68/4 145/69/4 139/23/4 146/22/4 148/70/4 149/71/4 150/72/4 151/73/4 152/74/4 153/75/4 147/21/4
f 3/13/1 18/21/1 147/21/13 122/13/13
f 9/10/4 7/7/4 154/7/4 156/76/4 157/77/4 158/78/4 159/79/4 160/80/4 161/81/4 155/82/4 162/83/4 164/84/4 165/85/4 166/86/4 167/87/4 168/88/4 169/89/4 163/10/4
f 23/11/1 9/10/1 163/10/13 170/11/13
f 162/83/9 155/82/10 178/90/10 171/91/9
f 24/9/6 23/11/6 170/11/6 172/92/6 173/93/6 174/94/6 175/95/6 176/96/6 177/97/6 171/91/6 178/90/6 180/98/6 181/99/6 182/100/6 183/101/6 184/102/6 185/103/6 179/9/6
f 7/7/2 24/9/2 179/9/12 154/7/12
f 30/7/2 35/104/2 33/8/2
f 35/104/2 36/105/2 33/8/2
f 36/105/2 32/105/2 33/8/2
f 37/1/1 42/106/1 40/2/1
f 42/106/1 44/107/1 40/2/1
f 44/107/1 39/108/1 40/2/1
f 45/17/2 50/109/2 48/15/2
f 50/109/2 51/110/2 48/15/2
f 51/110/2 47/111/2 48/15/2
f 53/13/1 57/13/1 56/20/1
f 57/13/1 59/112/1 56/20/1
f 59/112/1 54/113/1 56/20/1
f 60/19/1 65/114/1 63/5/1
f 65/114/1 66/115/1 63/5/1
f 66/115/1 62/116/1 63/5/1
f 68/61/2 72/117/2 71/39/2
f 72/117/2 74/118/2 71/39/2
f 74/118/2 69/119/2 71/39/2
f 53/13/5 47/12/5 51/12/14 57/13/14
f 57/13/14 51/12/14 50/109/15 59/120/15
f 59/120/15 50/109/15 45/17/7 54/16/7
f 30/7/3 39/10/3 44/10/16 35/104/16
f 35/104/16 44/10/16 42/106/17 36/121/17
f 36/121/17 42/106/17 37/1/18 32/60/18
f 68/61/19 62/6/19 66/122/20 72/117/20
f 72/117/21 66/122/21 65/114/21 74/123/21
f 74/123/22 65/114/22 60/19/8 69/18/8
f 62/6/19 68/61/19 32/60/18 37/1/18
f 115/124/23 2/124/23 4/124/24 116/124/24
f 116/124/24 4/124/24 8/124/25 117/124/25
f 117/124/25 8/124/25 12/124/26 109/124/26 113/124/27 118/124/27
f 12/124/26 16/124/28 108/124/28 109/124/26
f 108/124/28 16/124/28 19/124/29 90/124/29 84/124/30
f 19/124/29 22/124/31 89/124/31 90/124/29
f 22/124/31 25/124/32 87/124/32 89/124/31
f 25/124/32 26/124/6 85/124/6 87/124/32
f 26/124/6 27/124/33 86/124/33 85/124/6
f 27/124/33 28/124/34 88/124/34 86/124/33
f 28/124/34 29/124/35 91/124/35 88/124/34
f 29/124/35 31/124/36 82/124/36 91/124/35
f 31/124/36 34/124/37 83/124/37 82/124/36
f 34/124/37 38/124/38 80/124/38 83/124/37
f 80/124/38 38/124/38 41/124/39 106/124/39 81/124/40
f 41/124/39 43/124/41 107/124/41 106/124/39
f 43/124/42 46/124/43 105/124/43 107/124/42
f 46/124/43 49/124/44 102/124/44 105/124/43
f 102/124/44 49/124/44 52/124/45 103/124/45
f 103/124/45 52/124/45 55/124/46 104/124/46
f 104/124/46 55/124/46 58/124/47 101/124/47
f 101/124/47 58/124/47 61/124/48 99/124/48
f 99/124/48 61/124/48 64/124/49 96/124/49
f 96/124/49 64/124/49 67/124/4 95/124/4
f 95/124/4 67/124/4 70/124/50 97/124/50
f 97/124/50 70/124/50 73/124/51 100/124/51
f 100/124/51 73/124/51 75/124/52 98/124/52
f 92/124/53 98/124/52 75/124/52 76/124/54 93/124/54
f 93/124/54 76/124/54 77/124/55 94/124/55
f 94/124/55 77/124/55 78/124/56 120/124/56 119/124/57 112/124/57
f 8/124/2 4/124/2 2/124/2 79/124/2 78/124/2 77/124/2 76/124/2 75/124/2 73/124/2 70/124/2 67/124/2 64/124/2 61/124/2 58/124/2 55/124/2 52/124/2 49/124/2 46/124/2 43/124/2 41/124/2 38/124/2 34/124/2 31/124/2 29/124/2 28/124/2 27/124/2 26/124/2 25/124/2 22/124/2 19/124/2 16/124/2 12/124/2
f 120/124/56 78/124/56 79/124/58 121/124/58
f 121/124/58 79/124/58 2/124/59 115/124/59
f 118/124/2 10/124/2 5/124/2 119/124/2 120/124/2 121/124/2 115/124/2 116/124/2 117/124/2
f 114/124/60 10/124/60 118/124/60 113/124/60
f 5/124/61 111/124/61 112/124/61 119/124/61
f 111/124/11 5/124/11 10/124/11 114/124/11 110/124/11
f 130/24/10 139/23/10 145/69/62 132/125/62
f 132/125/62 145/69/62 144/68/63 133/126/63
f 133/126/63 144/68/63 143/67/64 134/127/64
f 134/127/64 143/67/64 142/66/65 135/128/65
f 135/128/65 142/66/65 141/65/66 136/129/66
f 136/129/66 141/65/66 140/64/67 137/130/67
f 137/130/67 140/64/67 138/14/12 131/12/12
f 122/13/13 147/21/13 153/75/68 124/131/68
f 124/131/68 153/75/68 152/74/69 125/132/69
f 125/132/69 152/74/69 151/73/70 126/133/70
f 126/133/70 151/73/70 150/72/71 127/134/71
f 127/134/71 150/72/71 149/71/72 128/135/72
f 128/135/72 149/71/72 148/70/73 129/136/73
f 129/136/73 148/70/73 146/22/9 123/25/9
f 154/7/12 179/9/12 185/103/67 156/76/67
f 156/76/67 185/103/67 184/102/66 157/77/66
f 157/77/66 184/102/66 183/101/65 158/78/65
f 158/78/65 183/101/65 182/100/64 159/79/64
f 159/79/64 182/100/64 181/99/63 160/80/63
f 160/80/63 181/99/63 180/98/62 161/81/62
f 161/81/62 180/98/62 178/90/10 155/82/10
f 162/83/9 171/91/9 177/97/73 164/84/73
f 164/84/73 177/97/73 176/96/72 165/85/72
f 165/85/72 176/96/72 175/95/71 166/86/71
f 166/86/71 175/95/71 174/94/70 167/87/70
f 167/87/70 174/94/70 173/93/69 168/88/69
f 168/88/69 173/93/69 172/92/68 169/89/68
f 169/89/68 172/92/68 170/11/13 163/10/13
f 6/12/6 3/13/6 122/13/6 124/131/6 125/132/6 126/133/6 127/134/6 128/135/6 129/136/6 123/25/6 130/24/6 132/125/6 133/126/6 134/127/6 135/128/6 136/129/6 137/130/6 131/12/6
o 円柱
v 0.524832 0.198231 3.378348
v -0.343541 0.198475 3.378348
v 0.524835 0.208519 3.379361
v -0.343538 0.208762 3.379361
v 0.524838 0.218410 3.382362
v -0.343535 0.218654 3.382362
v 0.524841 0.227527 3.387234
v -0.343532 0.227770 3.387234
v 0.524843 0.235517 3.393792
v -0.343530 0.235760 3.393792
v 0.524845 0.242075 3.401783
v -0.343528 0.242318 3.401783
v 0.524846 0.246948 3.410899
v -0.343527 0.247191 3.410899
v 0.524847 0.249948 3.420791
v -0.343526 0.250192 3.420791
v 0.524847 0.250962 3.431078
v -0.343526 0.251205 3.431078
v 0.524847 0.249948 3.441365
v -0.343526 0.250192 3.441365
v 0.524846 0.246948 3.451257
v -0.343527 0.247191 3.451257
v 0.524845 0.242075 3.460373
v -0.343528 0.242318 3.460373
v 0.524843 0.235517 3.468364
v -0.343530 0.235760 3.468364
v 0.524841 0.227527 3.474921
v -0.343532 0.227770 3.474921
v 0.524838 0.218410 3.479794
v -0.343535 0.218654 3.479794
v 0.524835 0.208519 3.482795
v -0.343538 0.208762 3.482795
v 0.524832 0.198231 3.483808
v -0.343541 0.198475 3.483808
v 0.524830 0.187944 3.482795
v -0.343544 0.188188 3.482795
v 0.524827 0.178053 3.479794
v -0.343546 0.178296 3.479794
v 0.524824 0.168936 3.474921
v -0.343549 0.169179 3.474921
v 0.524822 0.160946 3.468364
v -0.343551 0.161189 3.468364
v 0.524820 0.154388 3.460373
v -0.343553 0.154631 3.460373
v 0.524819 0.149515 3.451257
v -0.343554 0.149759 3.451257
v 0.524818 0.146515 3.441365
v -0.343555 0.146758 3.441365
v 0.524818 0.145501 3.431078
v -0.343555 0.145745 3.431078
v 0.524818 0.146515 3.420791
v -0.343555 0.146758 3.420791
v 0.524819 0.149515 3.410899
v -0.343554 0.149759 3.410899
v 0.524820 0.154388 3.401783
v -0.343553 0.154631 3.401783
v 0.524822 0.160946 3.393792
v -0.343551 0.161189 3.393792
v 0.524824 0.168936 3.387234
v -0.343549 0.169179 3.387234
v 0.524827 0.178053 3.382362
v -0.343546 0.178296 3.382362
v 0.524830 0.187944 3.379361
v -0.343544 0.188188 3.379361
vn -0.0000 -0.0000 -1.0000
vn 0.0001 0.1951 -0.9808
vn 0.0001 0.3827 -0.9239
vn 0.0002 0.5556 -0.8315
vn 0.0002 0.7071 -0.7071
vn 0.0002 0.8315 -0.5556
vn 0.0003 0.9239 -0.3827
vn 0.0003 0.9808 -0.1951
vn 0.0003 1.0000 -0.0000
vn 0.0003 0.9808 0.1951
vn 0.0003 0.9239 0.3827
vn 0.0002 0.8315 0.5556
vn 0.0002 0.7071 0.7071
vn 0.0002 0.5556 0.8315
vn 0.0001 0.3827 0.9239
vn 0.0001 0.1951 0.9808
vn -0.0000 -0.0000 1.0000
vn -0.0001 -0.1951 0.9808
vn -0.0001 -0.3827 0.9239
vn -0.0002 -0.5556 0.8315
vn -0.0002 -0.7071 0.7071
vn -0.0002 -0.8315 0.5556
vn -0.0003 -0.9239 0.3827
vn -0.0003 -0.9808 0.1951
vn -0.0003 -1.0000 -0.0000
vn -0.0003 -0.9808 -0.1951
vn -0.0003 -0.9239 -0.3827
vn -0.0002 -0.8315 -0.5556
vn -0.0002 -0.7071 -0.7071
vn -0.0002 -0.5556 -0.8315
vn -0.0001 -0.3827 -0.9239
vn -1.0000 0.0003 -0.0000
vn -0.0001 -0.1951 -0.9808
vn 1.0000 -0.0003 -0.0000
vt 1.000000 0.500000
vt 1.000000 1.000000
vt 0.968750 1.000000
vt 0.968750 0.500000
vt 0.937500 1.000000
vt 0.937500 0.500000
vt 0.906250 1.000000
vt 0.906250 0.500000
vt 0.875000 1.000000
vt 0.875000 0.500000
vt 0.843750 1.000000
vt 0.843750 0.500000
vt 0.812500 1.000000
vt 0.812500 0.500000
vt 0.781250 1.000000
vt 0.781250 0.500000
vt 0.750000 1.000000
vt 0.750000 0.500000
vt 0.718750 1.000000
vt 0.718750 0.500000
vt 0.687500 1.000000
vt 0.687500 0.500000
vt 0.656250 1.000000
vt 0.656250 0.500000
vt 0.625000 1.000000
vt 0.625000 0.500000
vt 0.593750 1.000000
vt 0.593750 0.500000
vt 0.562500 1.000000
vt 0.562500 0.500000
vt 0.531250 1.000000
vt 0.531250 0.500000
vt 0.500000 1.000000
vt 0.500000 0.500000
vt 0.468750 1.000000
vt 0.468750 0.500000
vt 0.437500 1.000000
vt 0.437500 0.500000
vt 0.406250 1.000000
vt 0.406250 0.500000
vt 0.375000 1.000000
vt 0.375000 0.500000
vt 0.343750 1.000000
vt 0.343750 0.500000
vt 0.312500 1.000000
vt 0.312500 0.500000
vt 0.281250 1.000000
vt 0.281250 0.500000
vt 0.250000 1.000000
vt 0.250000 0.500000
vt 0.218750 1.000000
vt 0.218750 0.500000
vt 0.187500 1.000000
vt 0.187500 0.500000
vt 0.156250 1.000000
vt 0.156250 0.500000
vt 0.125000 1.000000
vt 0.125000 0.500000
vt 0.093750 1.000000
vt 0.093750 0.500000
vt 0.062500 1.000000
vt 0.062500 0.500000
vt 0.296822 0.485388
vt 0.250000 0.490000
vt 0.203178 0.485388
vt 0.158156 0.471731
vt 0.116663 0.449553
vt 0.080294 0.419706
vt 0.050447 0.383337
vt 0.028269 0.341844
vt 0.014612 0.296822
vt 0.010000 0.250000
vt 0.014612 0.203178
vt 0.028269 0.158156
vt 0.050447 0.116663
vt 0.080294 0.080294
vt 0.116663 0.050447
vt 0.158156 0.028269
vt 0.203178 0.014612
vt 0.250000 0.010000
vt 0.296822 0.014612
vt 0.341844 0.028269
vt 0.383337 0.050447
vt 0.419706 0.080294
vt 0.449553 0.116663
vt 0.471731 0.158156
vt 0.485388 0.203178
vt 0.490000 0.250000
vt 0.485388 0.296822
vt 0.471731 0.341844
vt 0.449553 0.383337
vt 0.419706 0.419706
vt 0.383337 0.449553
vt 0.341844 0.471731
vt 0.031250 1.000000
vt 0.031250 0.500000
vt 0.000000 1.000000
vt 0.000000 0.500000
vt 0.750000 0.490000
vt 0.796822 0.485388
vt 0.841844 0.471731
vt 0.883337 0.449553
vt 0.919706 0.419706
vt 0.949553 0.383337
vt 0.971731 0.341844
vt 0.985388 0.296822
vt 0.990000 0.250000
vt 0.985388 0.203178
vt 0.971731 0.158156
vt 0.949553 0.116663
vt 0.919706 0.080294
vt 0.883337 0.050447
vt 0.841844 0.028269
vt 0.796822 0.014612
vt 0.750000 0.010000
vt 0.703178 0.014612
vt 0.658156 0.028269
vt 0.616663 0.050447
vt 0.580294 0.080294
vt 0.550447 0.116663
vt 0.528269 0.158156
vt 0.514612 0.203178
vt 0.510000 0.250000
vt 0.514612 0.296822
vt 0.528269 0.341844
vt 0.550447 0.383337
vt 0.580294 0.419706
vt 0.616663 0.449553
vt 0.658156 0.471731
vt 0.703178 0.485388
s 1
usemtl kinzoku
f 186/137/74 187/138/74 189/139/75 188/140/75
f 188/140/75 189/139/75 191/141/76 190/142/76
f 190/142/76 191/141/76 193/143/77 192/144/77
f 192/144/77 193/143/77 195/145/78 194/146/78
f 194/146/78 195/145/78 197/147/79 196/148/79
f 196/148/79 197/147/79 199/149/80 198/150/80
f 198/150/80 199/149/80 201/151/81 200/152/81
f 200/152/81 201/151/81 203/153/82 202/154/82
f 202/154/82 203/153/82 205/155/83 204/156/83
f 204/156/83 205/155/83 207/157/84 206/158/84
f 206/158/84 207/157/84 209/159/85 208/160/85
f 208/160/85 209/159/85 211/161/86 210/162/86
f 210/162/86 211/161/86 213/163/87 212/164/87
f 212/164/87 213/163/87 215/165/88 214/166/88
f 214/166/88 215/165/88 217/167/89 216/168/89
f 216/168/89 217/167/89 219/169/90 218/170/90
f 218/170/90 219/169/90 221/171/91 220/172/91
f 220/172/91 221/171/91 223/173/92 222/174/92
f 222/174/92 223/173/92 225/175/93 224/176/93
f 224/176/93 225/175/93 227/177/94 226/178/94
f 226/178/94 227/177/94 229/179/95 228/180/95
f 228/180/95 229/179/95 231/181/96 230/182/96
f 230/182/96 231/181/96 233/183/97 232/184/97
f 232/184/97 233/183/97 235/185/98 234/186/98
f 234/186/98 235/185/98 237/187/99 236/188/99
f 236/188/99 237/187/99 239/189/100 238/190/100
f 238/190/100 239/189/100 241/191/101 240/192/101
f 240/192/101 241/191/101 243/193/102 242/194/102
f 242/194/102 243/193/102 245/195/103 244/196/103
f 244/196/103 245/195/103 247/197/104 246/198/104
f 189/199/105 187/200/105 249/201/105 247/202/105 245/203/105 243/204/105 241/205/105 239/206/105 237/207/105 235/208/105 233/209/105 231/210/105 229/211/105 227/212/105 225/213/105 223/214/105 221/215/105 219/216/105 217/217/105 215/218/105 213/219/105 211/220/105 209/221/105 207/222/105 205/223/105 203/224/105 201/225/105 199/226/105 197/227/105 195/228/105 193/229/105 191/230/105
f 246/198/104 247/197/104 249/231/106 248/232/106
f 248/232/106 249/231/106 187/233/74 186/234/74
f 186/235/107 188/236/107 190/237/107 192/238/107 194/239/107 196/240/107 198/241/107 200/242/107 202/243/107 204/244/107 206/245/107 208/246/107 210/247/107 212/248/107 214/249/107 216/250/107 218/251/107 220/252/107 222/253/107 224/254/107 226/255/107 228/256/107 230/257/107 232/258/107 234/259/107 236/260/107 238/261/107 240/262/107 242/263/107 244/264/107 246/265/107 248/266/107
o 円柱.002
v 0.065581 0.268214 2.978079
v 0.065581 0.268785 2.978079
v 0.073677 0.268214 2.978877
v 0.073677 0.268785 2.978877
v 0.081463 0.268214 2.981238
v 0.081463 0.268785 2.981238
v 0.088638 0.268214 2.985074
v 0.088638 0.268785 2.985074
v 0.094927 0.268214 2.990235
v 0.094927 0.268785 2.990235
v 0.100088 0.268214 2.996524
v 0.100088 0.268785 2.996524
v 0.103923 0.268214 3.003699
v 0.103923 0.268785 3.003699
v 0.106285 0.268214 3.011484
v 0.106285 0.268785 3.011484
v 0.107082 0.268214 3.019581
v 0.107082 0.268785 3.019581
v 0.106285 0.268214 3.027677
v 0.106285 0.268785 3.027677
v 0.103923 0.268214 3.035463
v 0.103923 0.268785 3.035463
v 0.100088 0.268214 3.042638
v 0.100088 0.268785 3.042638
v 0.094927 0.268214 3.048927
v 0.094927 0.268785 3.048927
v 0.088638 0.268214 3.054088
v 0.088638 0.268785 3.054088
v 0.081463 0.268214 3.057923
v 0.081463 0.268785 3.057923
v 0.073677 0.268214 3.060285
v 0.073677 0.268785 3.060285
v 0.065581 0.268214 3.061082
v 0.065581 0.268785 3.061082
v 0.057484 0.268214 3.060285
v 0.057484 0.268785 3.060285
v 0.049699 0.268214 3.057923
v 0.049699 0.268785 3.057923
v 0.042524 0.268214 3.054088
v 0.042524 0.268785 3.054088
v 0.036235 0.268214 3.048927
v 0.036235 0.268785 3.048927
v 0.031073 0.268214 3.042638
v 0.031073 0.268785 3.042638
v 0.027238 0.268214 3.035463
v 0.027238 0.268785 3.035463
v 0.024876 0.268214 3.027677
v 0.024876 0.268785 3.027677
v 0.024079 0.268214 3.019581
v 0.024079 0.268785 3.019581
v 0.024876 0.268214 3.011484
v 0.024876 0.268785 3.011484
v 0.027238 0.268214 3.003699
v 0.027238 0.268785 3.003699
v 0.031073 0.268214 2.996524
v 0.031073 0.268785 2.996524
v 0.036235 0.268214 2.990235
v 0.036235 0.268785 2.990235
v 0.042524 0.268214 2.985074
v 0.042524 0.268785 2.985074
v 0.049699 0.268214 2.981238
v 0.049699 0.268785 2.981238
v 0.057484 0.268214 2.978877
v 0.057484 0.268785 2.978877
vn -0.0000 -0.0000 -1.0000
vn 0.1951 -0.0000 -0.9808
vn 0.3827 -0.0000 -0.9239
vn 0.5556 -0.0000 -0.8315
vn 0.7071 -0.0000 -0.7071
vn 0.8315 -0.0000 -0.5556
vn 0.9239 -0.0000 -0.3827
vn 0.9808 -0.0000 -0.1951
vn 1.0000 -0.0000 -0.0000
vn 0.9808 -0.0000 0.1951
vn 0.9239 -0.0000 0.3827
vn 0.8315 -0.0000 0.5556
vn 0.7071 -0.0000 0.7071
vn 0.5556 -0.0000 0.8315
vn 0.3827 -0.0000 0.9239
vn 0.1951 -0.0000 0.9808
vn -0.0000 -0.0000 1.0000
vn -0.1951 -0.0000 0.9808
vn -0.3827 -0.0000 0.9239
vn -0.5556 -0.0000 0.8315
vn -0.7071 -0.0000 0.7071
vn -0.8315 -0.0000 0.5556
vn -0.9239 -0.0000 0.3827
vn -0.9808 -0.0000 0.1951
vn -1.0000 -0.0000 -0.0000
vn -0.9808 -0.0000 -0.1951
vn -0.9239 -0.0000 -0.3827
vn -0.8315 -0.0000 -0.5556
vn -0.7071 -0.0000 -0.7071
vn -0.5556 -0.0000 -0.8315
vn -0.3827 -0.0000 -0.9239
vn -0.0000 1.0000 -0.0000
vn -0.1951 -0.0000 -0.9808
vn -0.0000 -1.0000 -0.0000
vt 1.000000 0.500000
vt 1.000000 1.000000
vt 0.968750 1.000000
vt 0.968750 0.500000
vt 0.937500 1.000000
vt 0.937500 0.500000
vt 0.906250 1.000000
vt 0.906250 0.500000
vt 0.875000 1.000000
vt 0.875000 0.500000
vt 0.843750 1.000000
vt 0.843750 0.500000
vt 0.812500 1.000000
vt 0.812500 0.500000
vt 0.781250 1.000000
vt 0.781250 0.500000
vt 0.750000 1.000000
vt 0.750000 0.500000
vt 0.718750 1.000000
vt 0.718750 0.500000
vt 0.687500 1.000000
vt 0.687500 0.500000
vt 0.656250 1.000000
vt 0.656250 0.500000
vt 0.625000 1.000000
vt 0.625000 0.500000
vt 0.593750 1.000000
vt 0.593750 0.500000
vt 0.562500 1.000000
vt 0.562500 0.500000
vt 0.531250 1.000000
vt 0.531250 0.500000
vt 0.500000 1.000000
vt 0.500000 0.500000
vt 0.468750 1.000000
vt 0.468750 0.500000
vt 0.437500 1.000000
vt 0.437500 0.500000
vt 0.406250 1.000000
vt 0.406250 0.500000
vt 0.375000 1.000000
vt 0.375000 0.500000
vt 0.343750 1.000000
vt 0.343750 0.500000
vt 0.312500 1.000000
vt 0.312500 0.500000
vt 0.281250 1.000000
vt 0.281250 0.500000
vt 0.250000 1.000000
vt 0.250000 0.500000
vt 0.218750 1.000000
vt 0.218750 0.500000
vt 0.187500 1.000000
vt 0.187500 0.500000
vt 0.156250 1.000000
vt 0.156250 0.500000
vt 0.125000 1.000000
vt 0.125000 0.500000
vt 0.093750 1.000000
vt 0.093750 0.500000
vt 0.062500 1.000000
vt 0.062500 0.500000
vt 0.296822 0.485388
vt 0.250000 0.490000
vt 0.203178 0.485388
vt 0.158156 0.471731
vt 0.116663 0.449553
vt 0.080294 0.419706
vt 0.050447 0.383337
vt 0.028269 0.341844
vt 0.014612 0.296822
vt 0.010000 0.250000
vt 0.014612 0.203178
vt 0.028269 0.158156
vt 0.050447 0.116663
vt 0.080294 0.080294
vt 0.116663 0.050447
vt 0.158156 0.028269
vt 0.203178 0.014612
vt 0.250000 0.010000
vt 0.296822 0.014612
vt 0.341844 0.028269
vt 0.383337 0.050447
vt 0.419706 0.080294
vt 0.449553 0.116663
vt 0.471731 0.158156
vt 0.485388 0.203178
vt 0.490000 0.250000
vt 0.485388 0.296822
vt 0.471731 0.341844
vt 0.449553 0.383337
vt 0.419706 0.419706
vt 0.383337 0.449553
vt 0.341844 0.471731
vt 0.031250 1.000000
vt 0.031250 0.500000
vt 0.000000 1.000000
vt 0.000000 0.500000
vt 0.750000 0.490000
vt 0.796822 0.485388
vt 0.841844 0.471731
vt 0.883337 0.449553
vt 0.919706 0.419706
vt 0.949553 0.383337
vt 0.971731 0.341844
vt 0.985388 0.296822
vt 0.990000 0.250000
vt 0.985388 0.203178
vt 0.971731 0.158156
vt 0.949553 0.116663
vt 0.919706 0.080294
vt 0.883337 0.050447
vt 0.841844 0.028269
vt 0.796822 0.014612
vt 0.750000 0.010000
vt 0.703178 0.014612
vt 0.658156 0.028269
vt 0.616663 0.050447
vt 0.580294 0.080294
vt 0.550447 0.116663
vt 0.528269 0.158156
vt 0.514612 0.203178
vt 0.510000 0.250000
vt 0.514612 0.296822
vt 0.528269 0.341844
vt 0.550447 0.383337
vt 0.580294 0.419706
vt 0.616663 0.449553
vt 0.658156 0.471731
vt 0.703178 0.485388
s 1
usemtl kagiana
f 250/267/108 251/268/108 253/269/109 252/270/109
f 252/270/109 253/269/109 255/271/110 254/272/110
f 254/272/110 255/271/110 257/273/111 256/274/111
f 256/274/111 257/273/111 259/275/112 258/276/112
f 258/276/112 259/275/112 261/277/113 260/278/113
f 260/278/113 261/277/113 263/279/114 262/280/114
f 262/280/114 263/279/114 265/281/115 264/282/115
f 264/282/115 265/281/115 267/283/116 266/284/116
f 266/284/116 267/283/116 269/285/117 268/286/117
f 268/286/117 269/285/117 271/287/118 270/288/118
f 270/288/118 271/287/118 273/289/119 272/290/119
f 272/290/119 273/289/119 275/291/120 274/292/120
f 274/292/120 275/291/120 277/293/121 276/294/121
f 276/294/121 277/293/121 279/295/122 278/296/122
f 278/296/122 279/295/122 281/297/123 280/298/123
f 280/298/123 281/297/123 283/299/124 282/300/124
f 282/300/124 283/299/124 285/301/125 284/302/125
f 284/302/125 285/301/125 287/303/126 286/304/126
f 286/304/126 287/303/126 289/305/127 288/306/127
f 288/306/127 289/305/127 291/307/128 290/308/128
f 290/308/128 291/307/128 293/309/129 292/310/129
f 292/310/129 293/309/129 295/311/130 294/312/130
f 294/312/130 295/311/130 297/313/131 296/314/131
f 296/314/131 297/313/131 299/315/132 298/316/132
f 298/316/132 299/315/132 301/317/133 300/318/133
f 300/318/133 301/317/133 303/319/134 302/320/134
f 302/320/134 303/319/134 305/321/135 304/322/135
f 304/322/135 305/321/135 307/323/136 306/324/136
f 306/324/136 307/323/136 309/325/137 308/326/137
f 308/326/137 309/325/137 311/327/138 310/328/138
f 253/329/139 251/330/139 313/331/139 311/332/139 309/333/139 307/334/139 305/335/139 303/336/139 301/337/139 299/338/139 297/339/139 295/340/139 293/341/139 291/342/139 289/343/139 287/344/139 285/345/139 283/346/139 281/347/139 279/348/139 277/349/139 275/350/139 273/351/139 271/352/139 269/353/139 267/354/139 265/355/139 263/356/139 261/357/139 259/358/139 257/359/139 255/360/139
f 310/328/138 311/327/138 313/361/140 312/362/140
f 312/362/140 313/361/140 251/363/108 250/364/108
f 250/365/141 252/366/141 254/367/141 256/368/141 258/369/141 260/370/141 262/371/141 264/372/141 266/373/141 268/374/141 270/375/141 272/376/141 274/377/141 276/378/141 278/379/141 280/380/141 282/381/141 284/382/141 286/383/141 288/384/141 290/385/141 292/386/141 294/387/141 296/388/141 298/389/141 300/390/141 302/391/141 304/392/141 306/393/141 308/394/141 310/395/141 312/396/141
o 平面
v 0.048046 0.268738 2.984571
v 0.083115 0.268738 2.984571
v 0.019692 0.268738 2.856896
v 0.111469 0.268738 2.856896
vn -0.0000 1.0000 -0.0000
vt 0.000000 0.000000
vt 1.000000 0.000000
vt 1.000000 1.000000
vt 0.000000 1.000000
s 1
usemtl kagiana
f 314/397/142 315/398/142 317/399/142 316/400/142
o 平面.001
v -0.048052 0.279158 3.069033
v 0.178128 0.279158 3.069033
v -0.140731 0.279158 2.943519
v 0.270807 0.279158 2.943519
v 0.065038 0.279158 2.816741
v 0.024079 0.279158 3.019581
v 0.024876 0.279158 3.027677
v 0.024876 0.279158 3.011484
v 0.027238 0.279158 3.035463
v 0.042524 0.279158 3.054088
v 0.036235 0.279158 3.048927
v 0.031073 0.279158 3.042638
v 0.057484 0.279158 3.060285
v 0.073677 0.279158 3.060285
v 0.065581 0.279158 3.061082
v 0.088638 0.279158 3.054088
v 0.100088 0.279158 3.042638
v 0.094927 0.279158 3.048927
v 0.081463 0.279158 3.057923
v 0.049699 0.279158 3.057923
v 0.027238 0.279158 3.003699
v 0.036235 0.279158 2.990235
v 0.031073 0.279158 2.996524
v 0.042524 0.279158 2.985074
v 0.088638 0.279158 2.985074
v 0.100088 0.279158 2.996524
v 0.094927 0.279158 2.990235
v 0.107082 0.279158 3.019581
v 0.106285 0.279158 3.011484
v 0.103923 0.279158 3.035463
v 0.106285 0.279158 3.027677
v 0.103923 0.279158 3.003699
v 0.111469 0.279158 2.856896
v 0.019692 0.279158 2.856896
v 0.083601 0.279158 2.982381
v 0.047560 0.279158 2.982381
v 0.156697 0.279158 3.059338
v 0.250754 0.279158 2.931164
v 0.090022 0.279158 2.856896
v 0.046189 0.279158 2.828355
v 0.235647 0.279158 2.951751
v 0.108758 0.279158 2.869101
v -0.124838 0.279158 2.965043
v 0.022563 0.279158 2.869821
v 0.042569 0.279158 2.856896
v 0.085356 0.279158 2.829260
v 0.066389 0.279158 2.841508
v -0.121043 0.279158 2.931388
v -0.105255 0.279158 2.952393
v -0.017590 0.279158 3.069033
v -0.025245 0.279158 3.058864
v 0.077479 0.279158 3.059132
v 0.053476 0.279158 3.059069
v -0.017590 0.285192 3.069033
v 0.178128 0.285192 3.069033
v -0.124838 0.285192 2.965043
v -0.140731 0.285192 2.943519
v 0.270807 0.285192 2.943519
v 0.085356 0.285192 2.829260
v 0.065038 0.285192 2.816741
v 0.057484 0.285192 3.060285
v 0.065581 0.285192 3.061082
v 0.042569 0.285192 2.856896
v 0.019692 0.285192 2.856896
v 0.046189 0.285192 2.828355
v 0.073677 0.285192 3.060285
v 0.156697 0.285192 3.059338
v 0.250754 0.285192 2.931164
v 0.235647 0.285192 2.951751
v 0.111469 0.285192 2.856896
v 0.090022 0.285192 2.856896
v -0.121043 0.285192 2.931388
v 0.108758 0.285192 2.869101
v 0.066389 0.285192 2.841508
v -0.048052 0.285192 3.069033
v 0.022563 0.285192 2.869821
v -0.105255 0.285192 2.952393
v -0.025245 0.285192 3.058864
v 0.077479 0.285192 3.059132
v 0.053476 0.285192 3.059069
v -0.017590 0.290568 3.069033
v 0.178128 0.290568 3.069033
v -0.124838 0.290568 2.965043
v -0.140731 0.290568 2.943519
v 0.270807 0.290568 2.943519
v 0.085356 0.290568 2.829260
v 0.065038 0.290568 2.816741
v 0.057484 0.290568 3.060285
v 0.065581 0.290568 3.061082
v 0.042569 0.290568 2.856896
v 0.019692 0.290568 2.856896
v 0.046189 0.290568 2.828355
v 0.073677 0.290568 3.060285
v 0.156697 0.290568 3.059338
v 0.250754 0.290568 2.931164
v 0.235647 0.290568 2.951751
v 0.111469 0.290568 2.856896
v 0.090022 0.290568 2.856896
v -0.121043 0.290568 2.931388
v 0.108758 0.290568 2.869101
v 0.066389 0.290568 2.841508
v -0.048052 0.290568 3.069033
v 0.022563 0.290568 2.869821
v -0.105255 0.290568 2.952393
v -0.025245 0.290568 3.058864
v 0.077479 0.290568 3.059132
v 0.053476 0.290568 3.059069
vn -0.0000 1.0000 -0.0000
vn -0.5245 -0.0000 -0.8514
vn 0.7994 -0.0000 -0.6008
vn 0.0980 -0.0000 -0.9952
vn -0.8045 -0.0000 0.5940
vn -0.5458 -0.0000 0.8379
vn -0.5457 -0.0000 0.8380
vn -0.0000 -0.0000 1.0000
vn -0.9762 -0.0000 -0.2168
vn 0.0026 -0.0000 -1.0000
vn 0.5245 -0.0000 -0.8514
vn 0.9762 -0.0000 -0.2168
vn 0.8045 -0.0000 0.5940
vn 0.5426 -0.0000 0.8400
vn -0.8062 -0.0000 -0.5916
vn -0.2903 -0.0000 -0.9569
vn 0.2903 -0.0000 -0.9569
vn -0.0980 -0.0000 -0.9952
vt 0.360161 0.152273
vt 0.348195 0.193997
vt 0.105477 0.058766
vt 0.450086 0.057053
vt 0.433905 0.063647
vt 0.403986 0.085790
vt 0.379005 0.115705
vt 0.578402 0.464477
vt 0.601098 0.440222
vt 0.621291 0.409276
vt 0.638243 0.372305
vt 0.651114 0.330468
vt 0.658977 0.285428
vt 0.660905 0.239247
vt 0.656136 0.194175
vt 0.900691 0.056079
vt 0.943149 0.848388
vt 0.609104 0.921319
vt 0.561179 0.476615
vt 0.000000 0.000000
vt 0.052328 0.840269
vt 0.561465 0.968854
vt 0.503632 0.985646
vt 0.444637 0.968022
vt 0.393883 0.917023
vt 0.343289 0.238996
vt 0.345076 0.285107
vt 0.352808 0.330090
vt 0.365564 0.371894
vt 0.382421 0.408863
vt 0.402541 0.439840
vt 0.425184 0.464157
vt 0.442382 0.476358
vt 0.553722 0.056704
vt 0.644293 0.152389
vt 0.625547 0.115773
vt 0.600640 0.085826
vt 0.570771 0.063664
vt 0.951274 1.000000
vt 1.000000 1.000000
vt 0.549371 1.000000
vt 0.614267 0.969230
vt 1.000000 0.000000
vt 0.500000 1.000000
vt 0.454198 1.000000
vt 0.047841 1.000000
vt 0.388314 0.967622
vt 0.000000 1.000000
vt 0.000000 0.828510
vt 0.134682 0.000000
vt 0.537449 0.050062
vt 0.502357 0.045475
vt 0.467256 0.050055
s 0
usemtl kinn
f 329/401/143 326/402/143 368/403/143 370/404/143 337/405/143 327/406/143 328/407/143
f 342/408/143 344/409/143 343/410/143 349/411/143 346/412/143 345/413/143 348/414/143 347/415/143 354/416/143 358/417/143 359/418/143 352/419/143
f 377/420/144 382/420/144 409/420/144 404/420/144
f 322/420/144 357/420/144 382/420/144 377/420/144
f 368/403/145 366/421/145 394/421/145 395/403/145
f 356/422/143 364/423/143 362/424/143
f 332/420/146 330/420/146 378/420/146 379/420/146
f 320/420/147 360/420/147 373/420/147 374/420/147
f 359/418/148 358/417/148 386/417/148 390/418/148
f 361/425/143 366/421/143 368/403/143 326/402/143 324/426/143 323/427/143 325/428/143 338/429/143 340/430/143 339/431/143 341/432/143 353/433/143
f 364/423/149 356/422/149 388/422/149 391/423/149
f 367/420/150 319/420/150 372/420/150 371/420/150
f 350/420/151 359/420/151 390/420/151 387/420/151
f 370/404/152 368/403/152 395/403/152 397/404/152
f 369/434/143 354/416/143 347/415/143 334/435/143 335/436/143 333/437/143 336/438/143
f 397/404/152 395/403/152 422/403/152 424/404/152
f 385/420/153 376/420/153 403/420/153 412/420/153
f 381/420/150 380/420/150 407/420/150 408/420/150
f 392/420/150 371/420/150 398/420/150 419/420/150
f 382/420/144 389/420/144 416/420/144 409/420/144
f 384/416/152 396/434/152 423/434/152 411/416/152
f 393/420/154 381/420/154 408/420/154 420/420/154
f 379/420/146 378/420/146 405/420/146 406/420/146
f 319/420/155 321/420/155 375/420/155 372/420/155
f 321/420/153 355/420/153 385/420/153 375/420/153
f 362/424/156 364/423/156 391/423/156 380/424/156
f 363/420/153 322/420/153 377/420/153 376/420/153
f 358/417/157 354/416/157 384/416/157 386/417/157
f 360/420/147 318/420/147 392/420/147 373/420/147
f 369/420/158 331/420/158 383/420/158 396/420/158
f 356/420/150 350/420/150 387/420/150 388/420/150
f 365/420/144 320/420/144 374/420/144 389/420/144
f 361/420/154 351/420/154 381/420/154 393/420/154
f 330/420/159 370/420/159 397/420/159 378/420/159
f 331/420/160 332/420/160 379/420/160 383/420/160
f 357/420/144 365/420/144 389/420/144 382/420/144
f 366/421/156 361/425/156 393/425/156 394/421/156
f 354/416/152 369/434/152 396/434/152 384/416/152
f 318/420/150 367/420/150 371/420/150 392/420/150
f 351/420/150 362/420/150 380/420/150 381/420/150
f 355/420/153 363/420/153 376/420/153 385/420/153
f 412/439/143 413/417/143 402/440/143
f 417/418/143 413/417/143 412/439/143 403/441/143 418/423/143 415/422/143 414/442/143
f 402/440/143 413/417/143 411/416/143 399/443/143
f 418/423/143 403/441/143 404/444/143 409/445/143
f 407/424/143 418/423/143 409/445/143 416/446/143 421/421/143 420/425/143 408/447/143
f 421/421/143 416/446/143 401/448/143 400/449/143
f 422/403/143 421/421/143 400/449/143 419/420/143
f 398/450/143 422/403/143 419/420/143
f 424/404/143 422/403/143 398/450/143 399/443/143 411/416/143 423/434/143 410/451/143 406/452/143 405/453/143
f 391/423/149 388/422/149 415/422/149 418/423/149
f 387/420/151 390/420/151 417/420/151 414/420/151
f 383/420/160 379/420/160 406/420/160 410/420/160
f 371/420/150 372/420/150 399/420/150 398/420/150
f 390/418/148 386/417/148 413/417/148 417/418/148
f 395/403/145 394/421/145 421/421/145 422/403/145
f 380/424/156 391/423/156 418/423/156 407/424/156
f 374/420/147 373/420/147 400/420/147 401/420/147
f 375/420/153 385/420/153 412/420/153 402/420/153
f 372/420/155 375/420/155 402/420/155 399/420/155
f 396/420/158 383/420/158 410/420/158 423/420/158
f 386/417/157 384/416/157 411/416/157 413/417/157
f 389/420/144 374/420/144 401/420/144 416/420/144
f 376/420/153 377/420/153 404/420/153 403/420/153
f 373/420/147 392/420/147 419/420/147 400/420/147
f 378/420/159 397/420/159 424/420/159 405/420/159
f 388/420/150 387/420/150 414/420/150 415/420/150
f 394/421/156 393/425/156 420/425/156 421/421/156
