# Blender 4.5.3 LTS
# www.blender.org
mtllib noroinohuda.mtl
o 平面
v -0.013653 5.389221 1.000000
v 0.013653 0.060746 1.000000
v -0.013653 5.389221 -1.000000
v 0.013653 0.060746 -1.000000
v -0.006289 3.952261 -1.000000
v -0.007004 4.091653 -1.000000
v -0.006953 4.141955 -0.649272
v -0.000639 2.849586 1.000000
v -0.000329 2.789172 1.000000
v -0.000585 2.839047 0.804455
v 0.013653 0.060746 -0.566791
v 0.013653 0.060746 -0.617987
v 0.012631 0.260198 -0.573722
v 0.008555 1.055632 -1.000000
v 0.008208 1.123242 -1.000000
v 0.008301 1.105271 -0.907157
v 0.012738 0.239370 1.000000
v 0.013138 0.161337 1.000000
v 0.012717 0.276644 0.832352
v 0.008009 1.162223 1.000000
v 0.008344 1.096776 1.000000
v 0.008074 1.149410 0.875215
v 0.002297 2.276694 1.000000
v 0.002660 2.206000 1.000000
v 0.001575 2.243780 0.760231
v -0.013102 5.281685 1.000000
v -0.012586 5.180949 1.000000
v -0.012826 5.215907 0.838211
v -0.012573 5.155372 0.747531
v -0.013653 5.389221 -0.149696
v -0.013653 5.389221 -0.087414
v -0.012965 5.199754 -0.099547
v -0.013653 5.389221 -0.779600
v -0.013653 5.389221 -0.695130
v -0.012882 5.238687 -0.779359
v -0.008117 4.308825 1.000000
v -0.007838 4.254417 1.000000
v -0.008002 4.286425 0.903703
v -0.009698 4.617318 -1.000000
v -0.009905 4.657814 -1.000000
v -0.009743 4.626256 -0.920934
v -0.001299 2.978462 -1.000000
v -0.001539 3.025332 -1.000000
v -0.001659 3.048708 -0.900471
v 0.002663 2.205424 -1.000000
v 0.002265 2.283029 -1.000000
v 0.003011 2.137512 -0.884434
vn 1.0000 0.0051 -0.0000
vt 0.001589 0.992889
vt 0.001685 0.972418
vt 0.087816 0.966627
vt 0.133319 0.960452
vt 0.001774 0.953242
vt 0.002548 0.787221
vt 0.050335 0.784333
vt 0.002596 0.776863
vt 0.003842 0.509434
vt 0.060827 0.509069
vt 0.003896 0.497934
vt 0.004351 0.400377
vt 0.114636 0.387085
vt 0.004413 0.386919
vt 0.005339 0.188221
vt 0.067250 0.187565
vt 0.005398 0.175763
vt 0.006158 0.036091
vt 0.044306 0.032325
vt 0.006227 0.021237
vt 0.006317 0.002088
vt 0.783519 0.000922
vt 0.786780 0.038990
vt 0.808914 0.001654
vt 0.998411 0.007111
vt 0.997528 0.196501
vt 0.951430 0.204624
vt 0.997468 0.209372
vt 0.996508 0.415380
vt 0.939242 0.400801
vt 0.996439 0.430153
vt 0.995822 0.562539
vt 0.923488 0.574489
vt 0.995781 0.571461
vt 0.994958 0.747915
vt 0.810702 0.758673
vt 0.994834 0.774450
vt 0.994368 0.874518
vt 0.955140 0.875090
vt 0.994332 0.882227
vt 0.993683 0.999482
vt 0.884355 0.996334
vt 0.848852 0.966651
vt 0.842453 0.995127
vt 0.571893 0.996755
vt 0.547092 0.979793
vt 0.540998 0.995865
s 0
usemtl マテリアル
f 1/1/1 26/2/1 28/3/1 29/4/1 27/5/1 36/6/1 38/7/1 37/8/1 8/9/1 10/10/1 9/11/1 23/12/1 25/13/1 24/14/1 20/15/1 22/16/1 21/17/1 17/18/1 19/19/1 18/20/1 2/21/1 11/22/1 13/23/1 12/24/1 4/25/1 14/26/1 16/27/1 15/28/1 45/29/1 47/30/1 46/31/1 42/32/1 44/33/1 43/34/1 5/35/1 7/36/1 6/37/1 39/38/1 41/39/1 40/40/1 3/41/1 33/42/1 35/43/1 34/44/1 30/45/1 32/46/1 31/47/1
f 40/40/1 41/39/1 39/38/1
