# Blender 4.5.3 LTS
# www.blender.org
mtllib enpitu.mtl
o 円柱
v 0.248128 0.021876 -0.097730
v 0.248128 2.550895 -0.097730
v 0.328852 0.021876 -0.051124
v 0.328852 2.550895 -0.051124
v 0.328852 0.021876 0.042088
v 0.328852 2.550895 0.042088
v 0.248128 0.021876 0.088693
v 0.248128 2.550895 0.088693
v 0.167404 0.021876 0.042088
v 0.167404 2.550895 0.042088
v 0.167404 0.021876 -0.051124
v 0.167404 2.550895 -0.051124
v 0.288490 2.436241 0.065390
v 0.207766 2.436241 0.065390
v 0.167404 2.436241 -0.004518
v 0.207766 2.436241 -0.074427
v 0.288490 2.436241 -0.074427
v 0.328852 2.436241 -0.004518
vn 0.5000 -0.0000 -0.8660
vn 1.0000 -0.0000 -0.0000
vn 0.5000 -0.0000 0.8660
vn -0.5000 -0.0000 0.8660
vn -1.0000 -0.0000 -0.0000
vn -0.5000 -0.0000 -0.8660
vn -0.0000 -1.0000 -0.0000
vt 0.530860 0.394274
vt 0.530860 0.787609
vt 0.433878 0.769777
vt 0.336896 0.787609
vt 0.336896 0.394274
vt 0.725451 0.394274
vt 0.725451 0.787609
vt 0.628469 0.769777
vt 0.531487 0.787609
vt 0.531487 0.394274
vt 0.194278 0.388869
vt 0.194278 0.782203
vt 0.097296 0.764371
vt 0.000313 0.782203
vt 0.000313 0.388869
vt 0.920042 0.000313
vt 0.920042 0.393648
vt 0.823060 0.375816
vt 0.726078 0.393648
vt 0.726078 0.000313
vt 0.725451 0.000313
vt 0.725451 0.393648
vt 0.628469 0.375816
vt 0.531487 0.393648
vt 0.531487 0.000313
vt 0.530860 0.000313
vt 0.530860 0.393648
vt 0.433878 0.375816
vt 0.336896 0.393648
vt 0.336896 0.000313
vt 0.336269 0.097296
vt 0.336269 0.291260
vt 0.168291 0.388242
vt 0.000313 0.291260
vt 0.000313 0.097296
vt 0.168291 0.000313
s 0
usemtl enpitu
f 1/1/1 2/2/1 17/3/1 4/4/1 3/5/1
f 3/6/2 4/7/2 18/8/2 6/9/2 5/10/2
f 5/11/3 6/12/3 13/13/3 8/14/3 7/15/3
f 7/16/4 8/17/4 14/18/4 10/19/4 9/20/4
f 9/21/5 10/22/5 15/23/5 12/24/5 11/25/5
f 11/26/6 12/27/6 16/28/6 2/29/6 1/30/6
f 1/31/7 3/32/7 5/33/7 7/34/7 9/35/7 11/36/7
o 円柱.001
v 0.248128 0.021520 -0.095874
v 0.248128 0.034104 -0.095874
v 0.327245 0.021520 -0.050196
v 0.327245 0.034104 -0.050196
v 0.327245 0.021520 0.041160
v 0.327245 0.034104 0.041160
v 0.248128 0.021520 0.086838
v 0.248128 0.034104 0.086838
v 0.169011 0.021520 0.041160
v 0.169011 0.034104 0.041160
v 0.169011 0.021520 -0.050196
v 0.169011 0.034104 -0.050196
vn 0.5000 -0.0000 -0.8660
vn 1.0000 -0.0000 -0.0000
vn 0.5000 -0.0000 0.8660
vn -0.5000 -0.0000 0.8660
vn -0.0000 1.0000 -0.0000
vn -1.0000 -0.0000 -0.0000
vn -0.5000 -0.0000 -0.8660
vn -0.0000 -1.0000 -0.0000
vt 1.000000 0.500000
vt 1.000000 1.000000
vt 0.833333 1.000000
vt 0.833333 0.500000
vt 0.666667 1.000000
vt 0.666667 0.500000
vt 0.500000 1.000000
vt 0.500000 0.500000
vt 0.333333 1.000000
vt 0.333333 0.500000
vt 0.457846 0.370000
vt 0.250000 0.490000
vt 0.042154 0.370000
vt 0.042154 0.130000
vt 0.250000 0.010000
vt 0.457846 0.130000
vt 0.166667 1.000000
vt 0.166667 0.500000
vt -0.000000 1.000000
vt -0.000000 0.500000
vt 0.750000 0.490000
vt 0.957846 0.370000
vt 0.957846 0.130000
vt 0.750000 0.010000
vt 0.542154 0.130000
vt 0.542154 0.370000
s 0
usemtl マテリアル.001
f 19/37/8 20/38/8 22/39/8 21/40/8
f 21/40/9 22/39/9 24/41/9 23/42/9
f 23/42/10 24/41/10 26/43/10 25/44/10
f 25/44/11 26/43/11 28/45/11 27/46/11
f 22/47/12 20/48/12 30/49/12 28/50/12 26/51/12 24/52/12
f 27/46/13 28/45/13 30/53/13 29/54/13
f 29/54/14 30/53/14 20/55/14 19/56/14
f 19/57/15 21/58/15 23/59/15 25/60/15 27/61/15 29/62/15
o 円柱.002
v 0.248128 0.021335 -0.037795
v 0.248128 0.055959 -0.037795
v 0.255047 0.021335 -0.037067
v 0.255047 0.055959 -0.037067
v 0.261663 0.021335 -0.034918
v 0.261663 0.055959 -0.034918
v 0.267687 0.021335 -0.031439
v 0.267687 0.055959 -0.031439
v 0.272857 0.021335 -0.026784
v 0.272857 0.055959 -0.026784
v 0.276946 0.021335 -0.021156
v 0.276946 0.055959 -0.021156
v 0.279776 0.021335 -0.014801
v 0.279776 0.055959 -0.014801
v 0.281222 0.021335 -0.007997
v 0.281222 0.055959 -0.007997
v 0.281222 0.021335 -0.001040
v 0.281222 0.055959 -0.001040
v 0.279776 0.021335 0.005765
v 0.279776 0.055959 0.005765
v 0.276946 0.021335 0.012120
v 0.276946 0.055959 0.012120
v 0.272857 0.021335 0.017748
v 0.272857 0.055959 0.017748
v 0.267687 0.021335 0.022403
v 0.267687 0.055959 0.022403
v 0.261663 0.021335 0.025881
v 0.261663 0.055959 0.025881
v 0.255047 0.021335 0.028031
v 0.255047 0.055959 0.028031
v 0.248128 0.021335 0.028758
v 0.248128 0.055959 0.028758
v 0.241209 0.021335 0.028031
v 0.241209 0.055959 0.028031
v 0.234593 0.021335 0.025881
v 0.234593 0.055959 0.025881
v 0.228569 0.021335 0.022403
v 0.228569 0.055959 0.022403
v 0.223399 0.021335 0.017748
v 0.223399 0.055959 0.017748
v 0.219310 0.021335 0.012120
v 0.219310 0.055959 0.012120
v 0.216480 0.021335 0.005765
v 0.216480 0.055959 0.005765
v 0.215034 0.021335 -0.001040
v 0.215034 0.055959 -0.001040
v 0.215034 0.021335 -0.007997
v 0.215034 0.055959 -0.007997
v 0.216480 0.021335 -0.014801
v 0.216480 0.055959 -0.014801
v 0.219310 0.021335 -0.021156
v 0.219310 0.055959 -0.021156
v 0.223399 0.021335 -0.026784
v 0.223399 0.055959 -0.026784
v 0.228569 0.021335 -0.031439
v 0.228569 0.055959 -0.031439
v 0.234593 0.021335 -0.034918
v 0.234593 0.055959 -0.034918
v 0.241209 0.021335 -0.037067
v 0.241209 0.055959 -0.037067
vn 0.1045 -0.0000 -0.9945
vn 0.3090 -0.0000 -0.9511
vn 0.5000 -0.0000 -0.8660
vn 0.6691 -0.0000 -0.7431
vn 0.8090 -0.0000 -0.5878
vn 0.9135 -0.0000 -0.4067
vn 0.9781 -0.0000 -0.2079
vn 1.0000 -0.0000 -0.0000
vn 0.9781 -0.0000 0.2079
vn 0.9135 -0.0000 0.4067
vn 0.8090 -0.0000 0.5878
vn 0.6691 -0.0000 0.7431
vn 0.5000 -0.0000 0.8660
vn 0.3090 -0.0000 0.9511
vn 0.1045 -0.0000 0.9945
vn -0.1045 -0.0000 0.9945
vn -0.3090 -0.0000 0.9511
vn -0.5000 -0.0000 0.8660
vn -0.6691 -0.0000 0.7431
vn -0.8090 -0.0000 0.5878
vn -0.9135 -0.0000 0.4067
vn -0.9781 -0.0000 0.2079
vn -1.0000 -0.0000 -0.0000
vn -0.9781 -0.0000 -0.2079
vn -0.9135 -0.0000 -0.4067
vn -0.8090 -0.0000 -0.5878
vn -0.6691 -0.0000 -0.7431
vn -0.5000 -0.0000 -0.8660
vn -0.0000 1.0000 -0.0000
vn -0.3090 -0.0000 -0.9511
vn -0.1045 -0.0000 -0.9945
vn -0.0000 -1.0000 -0.0000
vt 1.000000 0.500000
vt 1.000000 1.000000
vt 0.966667 1.000000
vt 0.966667 0.500000
vt 0.933333 1.000000
vt 0.933333 0.500000
vt 0.900000 1.000000
vt 0.900000 0.500000
vt 0.866667 1.000000
vt 0.866667 0.500000
vt 0.833333 1.000000
vt 0.833333 0.500000
vt 0.800000 1.000000
vt 0.800000 0.500000
vt 0.766666 1.000000
vt 0.766666 0.500000
vt 0.733333 1.000000
vt 0.733333 0.500000
vt 0.700000 1.000000
vt 0.700000 0.500000
vt 0.666666 1.000000
vt 0.666666 0.500000
vt 0.633333 1.000000
vt 0.633333 0.500000
vt 0.600000 1.000000
vt 0.600000 0.500000
vt 0.566666 1.000000
vt 0.566666 0.500000
vt 0.533333 1.000000
vt 0.533333 0.500000
vt 0.500000 1.000000
vt 0.500000 0.500000
vt 0.466666 1.000000
vt 0.466666 0.500000
vt 0.433333 1.000000
vt 0.433333 0.500000
vt 0.400000 1.000000
vt 0.400000 0.500000
vt 0.366666 1.000000
vt 0.366666 0.500000
vt 0.333333 1.000000
vt 0.333333 0.500000
vt 0.300000 1.000000
vt 0.300000 0.500000
vt 0.266666 1.000000
vt 0.266666 0.500000
vt 0.233333 1.000000
vt 0.233333 0.500000
vt 0.200000 1.000000
vt 0.200000 0.500000
vt 0.166666 1.000000
vt 0.166666 0.500000
vt 0.133333 1.000000
vt 0.133333 0.500000
vt 0.100000 1.000000
vt 0.100000 0.500000
vt 0.066666 1.000000
vt 0.066666 0.500000
vt 0.299899 0.484755
vt 0.250000 0.490000
vt 0.200101 0.484755
vt 0.152383 0.469251
vt 0.108932 0.444164
vt 0.071645 0.410591
vt 0.042154 0.370000
vt 0.021746 0.324164
vt 0.011315 0.275087
vt 0.011315 0.224913
vt 0.021746 0.175836
vt 0.042154 0.130000
vt 0.071645 0.089409
vt 0.108932 0.055836
vt 0.152383 0.030749
vt 0.200101 0.015245
vt 0.250000 0.010000
vt 0.299899 0.015245
vt 0.347617 0.030749
vt 0.391068 0.055836
vt 0.428355 0.089409
vt 0.457846 0.130000
vt 0.478254 0.175836
vt 0.488685 0.224913
vt 0.488685 0.275087
vt 0.478254 0.324164
vt 0.457846 0.370000
vt 0.428355 0.410591
vt 0.391068 0.444164
vt 0.347617 0.469251
vt 0.033333 1.000000
vt 0.033333 0.500000
vt -0.000000 1.000000
vt -0.000000 0.500000
vt 0.750000 0.490000
vt 0.799899 0.484755
vt 0.847617 0.469251
vt 0.891068 0.444164
vt 0.928355 0.410591
vt 0.957846 0.370000
vt 0.978254 0.324164
vt 0.988685 0.275087
vt 0.988685 0.224913
vt 0.978254 0.175836
vt 0.957846 0.130000
vt 0.928355 0.089409
vt 0.891068 0.055836
vt 0.847617 0.030749
vt 0.799899 0.015245
vt 0.750000 0.010000
vt 0.700101 0.015245
vt 0.652383 0.030749
vt 0.608932 0.055836
vt 0.571645 0.089409
vt 0.542154 0.130000
vt 0.521746 0.175836
vt 0.511315 0.224913
vt 0.511315 0.275087
vt 0.521746 0.324164
vt 0.542154 0.370000
vt 0.571645 0.410591
vt 0.608932 0.444164
vt 0.652383 0.469251
vt 0.700101 0.484755
s 0
usemtl マテリアル
f 31/63/16 32/64/16 34/65/16 33/66/16
f 33/66/17 34/65/17 36/67/17 35/68/17
f 35/68/18 36/67/18 38/69/18 37/70/18
f 37/70/19 38/69/19 40/71/19 39/72/19
f 39/72/20 40/71/20 42/73/20 41/74/20
f 41/74/21 42/73/21 44/75/21 43/76/21
f 43/76/22 44/75/22 46/77/22 45/78/22
f 45/78/23 46/77/23 48/79/23 47/80/23
f 47/80/24 48/79/24 50/81/24 49/82/24
f 49/82/25 50/81/25 52/83/25 51/84/25
f 51/84/26 52/83/26 54/85/26 53/86/26
f 53/86/27 54/85/27 56/87/27 55/88/27
f 55/88/28 56/87/28 58/89/28 57/90/28
f 57/90/29 58/89/29 60/91/29 59/92/29
f 59/92/30 60/91/30 62/93/30 61/94/30
f 61/94/31 62/93/31 64/95/31 63/96/31
f 63/96/32 64/95/32 66/97/32 65/98/32
f 65/98/33 66/97/33 68/99/33 67/100/33
f 67/100/34 68/99/34 70/101/34 69/102/34
f 69/102/35 70/101/35 72/103/35 71/104/35
f 71/104/36 72/103/36 74/105/36 73/106/36
f 73/106/37 74/105/37 76/107/37 75/108/37
f 75/108/38 76/107/38 78/109/38 77/110/38
f 77/110/39 78/109/39 80/111/39 79/112/39
f 79/112/40 80/111/40 82/113/40 81/114/40
f 81/114/41 82/113/41 84/115/41 83/116/41
f 83/116/42 84/115/42 86/117/42 85/118/42
f 85/118/43 86/117/43 88/119/43 87/120/43
f 34/121/44 32/122/44 90/123/44 88/124/44 86/125/44 84/126/44 82/127/44 80/128/44 78/129/44 76/130/44 74/131/44 72/132/44 70/133/44 68/134/44 66/135/44 64/136/44 62/137/44 60/138/44 58/139/44 56/140/44 54/141/44 52/142/44 50/143/44 48/144/44 46/145/44 44/146/44 42/147/44 40/148/44 38/149/44 36/150/44
f 87/120/45 88/119/45 90/151/45 89/152/45
f 89/152/46 90/151/46 32/153/46 31/154/46
f 31/155/47 33/156/47 35/157/47 37/158/47 39/159/47 41/160/47 43/161/47 45/162/47 47/163/47 49/164/47 51/165/47 53/166/47 55/167/47 57/168/47 59/169/47 61/170/47 63/171/47 65/172/47 67/173/47 69/174/47 71/175/47 73/176/47 75/177/47 77/178/47 79/179/47 81/180/47 83/181/47 85/182/47 87/183/47 89/184/47
o 円柱.004
v 0.328852 2.528930 -0.051124
v 0.328852 2.386080 -0.004518
v 0.328852 2.528930 0.042088
v 0.248128 2.528930 -0.097730
v 0.288490 2.386080 -0.074427
v 0.207766 2.386080 -0.074427
v 0.328852 2.528930 -0.051124
v 0.328852 2.528930 0.042088
v 0.248128 2.528930 0.088693
v 0.167404 2.528930 -0.051124
v 0.167404 2.528930 0.042088
v 0.167404 2.386080 -0.004518
v 0.207766 2.386080 0.065390
v 0.288490 2.386080 0.065390
v 0.268552 2.822584 -0.016310
v 0.248128 2.814445 -0.029850
v 0.227513 2.821558 -0.016420
v 0.248128 2.822511 0.019081
v 0.227383 2.820858 0.007459
v 0.268357 2.823629 0.007161
v 0.268552 2.822584 -0.016310
v 0.268357 2.823629 0.007161
v 0.268552 2.822584 -0.016310
v 0.248128 2.814445 -0.029850
v 0.227513 2.821558 -0.016420
v 0.248128 2.822511 0.019081
v 0.227383 2.820858 0.007459
v 0.268357 2.823629 0.007161
v 0.268552 2.822584 -0.016310
v 0.268357 2.823629 0.007161
vn 0.9892 0.1463 -0.0001
vn 0.4938 0.1463 -0.8572
vn -0.4939 0.1462 -0.8571
vn 0.4945 0.1463 0.8568
vn -0.4948 0.1463 0.8566
vn -0.9892 0.1463 0.0001
vt 0.509180 0.884311
vt 0.591577 0.830143
vt 0.680837 0.788235
vt 0.680837 0.938669
vt 0.637819 0.963231
vt 0.726078 0.596287
vt 0.815338 0.638195
vt 0.897735 0.692363
vt 0.772728 0.769054
vt 0.726078 0.746721
vt 0.897735 0.903611
vt 0.815338 0.957779
vt 0.726078 0.999687
vt 0.726078 0.849729
vt 0.772728 0.826920
vt 0.000313 0.782830
vt 0.089573 0.824737
vt 0.171970 0.878905
vt 0.043331 0.957825
vt 0.000313 0.933229
vt 0.726078 0.490350
vt 0.808476 0.436182
vt 0.897735 0.394274
vt 0.897735 0.544674
vt 0.853622 0.568597
vt 0.508553 0.893546
vt 0.426156 0.947714
vt 0.336896 0.989622
vt 0.336896 0.839989
vt 0.380733 0.815129
s 0
usemtl マテリアル.001
f 93/185/48 92/186/48 91/187/48 111/188/48 112/189/48
f 97/190/49 95/191/49 94/192/49 106/193/49 105/194/49
f 94/195/50 96/196/50 100/197/50 107/198/50 106/199/50
f 99/200/51 104/201/51 98/202/51 110/203/51 108/204/51
f 101/205/52 103/206/52 99/207/52 108/208/52 109/209/52
f 100/210/53 102/211/53 101/212/53 109/213/53 107/214/53
l 113 114
l 114 115
l 117 116
l 115 117
l 116 118
l 120 119
o 円柱.003
v 0.248128 2.962350 -0.004518
v 0.248128 2.962350 -0.004518
v 0.268552 2.822057 -0.016310
v 0.248128 2.813918 -0.029850
v 0.227513 2.821031 -0.016420
v 0.248128 2.821983 0.019081
v 0.227383 2.820331 0.007459
v 0.268357 2.823102 0.007161
v 0.268552 2.822057 -0.016310
v 0.268357 2.823102 0.007161
vn 0.5059 0.1451 -0.8503
vn -0.5044 0.1453 -0.8512
vn -0.4924 0.1443 0.8583
vn -0.9895 0.1444 -0.0012
vn 0.4965 0.1439 0.8561
vn 0.9896 0.1439 0.0018
vt 0.726078 0.746721
vt 0.772728 0.769054
vt 0.726078 0.797674
vt 0.772728 0.826920
vt 0.726078 0.849729
vt 0.726078 0.798300
vt 0.853622 0.568597
vt 0.897735 0.544674
vt 0.897735 0.595661
vt 0.380733 0.815129
vt 0.336896 0.839989
vt 0.336896 0.788235
vt 0.000313 0.933229
vt 0.043331 0.957825
vt 0.000313 0.984216
vt 0.637819 0.963231
vt 0.680837 0.938669
vt 0.680837 0.989621
s 0
usemtl マテリアル
f 123/215/54 124/216/54 122/217/54
f 124/218/55 125/219/55 122/220/55
f 127/221/56 126/222/56 122/223/56
f 125/224/57 127/225/57 122/226/57
f 126/227/58 128/228/58 122/229/58
f 130/230/59 129/231/59 121/232/59
o テキスト
v 0.330378 0.448804 0.027908
v 0.330822 0.422636 0.027908
v 0.330899 0.418104 0.027704
v 0.330968 0.414058 0.027121
v 0.331028 0.410480 0.026197
v 0.331082 0.407352 0.024974
v 0.331127 0.404659 0.023491
v 0.331166 0.402381 0.021787
v 0.331198 0.400501 0.019904
v 0.331223 0.399002 0.017880
v 0.331243 0.397867 0.015757
v 0.331256 0.397078 0.013574
v 0.331264 0.396617 0.011370
v 0.331266 0.396468 0.009187
v 0.331264 0.396611 0.006876
v 0.331257 0.397034 0.004680
v 0.331245 0.397729 0.002608
v 0.331229 0.398688 0.000668
v 0.331208 0.399901 -0.001132
v 0.331183 0.401360 -0.002784
v 0.331155 0.403057 -0.004279
v 0.331122 0.404983 -0.005610
v 0.331085 0.407130 -0.006768
v 0.331045 0.409488 -0.007745
v 0.331002 0.412051 -0.008533
v 0.330955 0.414808 -0.009123
v 0.330955 0.414808 -0.009328
v 0.330987 0.412911 -0.010111
v 0.331016 0.411189 -0.010969
v 0.331043 0.409641 -0.011906
v 0.331066 0.408264 -0.012925
v 0.331087 0.407056 -0.014027
v 0.331104 0.406015 -0.015217
v 0.331119 0.405140 -0.016497
v 0.331131 0.404428 -0.017870
v 0.331141 0.403878 -0.019338
v 0.331147 0.403487 -0.020905
v 0.331151 0.403255 -0.022574
v 0.331152 0.403177 -0.024346
v 0.331150 0.403325 -0.026557
v 0.331142 0.403775 -0.028744
v 0.331129 0.404535 -0.030875
v 0.331111 0.405613 -0.032918
v 0.331087 0.407017 -0.034841
v 0.331058 0.408755 -0.036612
v 0.331022 0.410836 -0.038199
v 0.330981 0.413267 -0.039570
v 0.330934 0.416057 -0.040692
v 0.330880 0.419214 -0.041533
v 0.330820 0.422746 -0.042061
v 0.330754 0.426662 -0.042244
v 0.330378 0.448804 -0.042244
v 0.330564 0.437845 -0.033192
v 0.330735 0.427780 -0.033192
v 0.330775 0.425404 -0.033100
v 0.330811 0.423300 -0.032833
v 0.330842 0.421455 -0.032403
v 0.330869 0.419857 -0.031825
v 0.330892 0.418493 -0.031110
v 0.330912 0.417352 -0.030274
v 0.330928 0.416420 -0.029328
v 0.330940 0.415686 -0.028285
v 0.330949 0.415136 -0.027160
v 0.330956 0.414759 -0.025966
v 0.330959 0.414542 -0.024715
v 0.330961 0.414472 -0.023420
v 0.330959 0.414582 -0.021622
v 0.330953 0.414912 -0.019983
v 0.330944 0.415463 -0.018501
v 0.330931 0.416237 -0.017176
v 0.330914 0.417234 -0.016009
v 0.330893 0.418456 -0.014999
v 0.330868 0.419904 -0.014145
v 0.330840 0.421580 -0.013447
v 0.330808 0.423483 -0.012904
v 0.330771 0.425617 -0.012518
v 0.330731 0.427980 -0.012286
v 0.330687 0.430576 -0.012209
v 0.330564 0.437845 -0.012209
v 0.330564 0.437845 -0.003157
v 0.330788 0.424649 -0.003157
v 0.330835 0.421897 -0.003064
v 0.330877 0.419398 -0.002792
v 0.330915 0.417151 -0.002350
v 0.330949 0.415152 -0.001747
v 0.330979 0.413397 -0.000993
v 0.331005 0.411886 -0.000097
v 0.331026 0.410615 0.000933
v 0.331044 0.409581 0.002085
v 0.331057 0.408781 0.003353
v 0.331067 0.408213 0.004725
v 0.331073 0.407875 0.006192
v 0.331075 0.407762 0.007747
v 0.331073 0.407838 0.009067
v 0.331069 0.408079 0.010391
v 0.331062 0.408505 0.011696
v 0.331051 0.409138 0.012958
v 0.331037 0.409997 0.014157
v 0.331018 0.411103 0.015268
v 0.330995 0.412478 0.016271
v 0.330966 0.414141 0.017141
v 0.330933 0.416113 0.017858
v 0.330894 0.418415 0.018397
v 0.330849 0.421067 0.018737
v 0.330797 0.424090 0.018856
v 0.330564 0.437845 0.018856
v 0.330091 0.465691 -0.042244
v 0.329905 0.476650 -0.042244
v 0.329905 0.476650 -0.011694
v 0.329179 0.519369 -0.011694
v 0.329179 0.519369 -0.042244
v 0.328993 0.530329 -0.042244
v 0.328993 0.530329 0.027908
v 0.329179 0.519369 0.027908
v 0.329179 0.519369 -0.002642
v 0.329905 0.476650 -0.002642
v 0.329905 0.476650 0.027908
v 0.330091 0.465691 0.027908
vn 0.9999 0.0170 -0.0000
vt 0.000000 0.000000
vt 0.495238 0.000000
vt 0.485714 0.000000
vt 0.476190 0.000000
vt 0.466667 0.000000
vt 0.457143 0.000000
vt 0.447619 0.000000
vt 0.438095 0.000000
vt 0.428571 0.000000
vt 0.419048 0.000000
vt 0.409524 0.000000
vt 0.504762 0.000000
vt 0.400000 0.000000
vt 0.742857 0.000000
vt 0.514286 0.000000
vt 0.523810 0.000000
vt 0.390476 0.000000
vt 0.533333 0.000000
vt 0.542857 0.000000
vt 0.552381 0.000000
vt 0.561905 0.000000
vt 0.380952 0.000000
vt 0.571429 0.000000
vt 0.580952 0.000000
vt 0.371429 0.000000
vt 0.590476 0.000000
vt 0.600000 0.000000
vt 0.361905 0.000000
vt 0.609524 0.000000
vt 0.619048 0.000000
vt 0.352381 0.000000
vt 0.628571 0.000000
vt 0.342857 0.000000
vt 0.638095 0.000000
vt 0.333333 0.000000
vt 0.647619 0.000000
vt 0.323810 0.000000
vt 0.657143 0.000000
vt 0.314286 0.000000
vt 0.666667 0.000000
vt 0.304762 0.000000
vt 0.676190 0.000000
vt 0.295238 0.000000
vt 0.685714 0.000000
vt 0.695238 0.000000
vt 0.285714 0.000000
vt 0.704762 0.000000
vt 0.276190 0.000000
vt 0.714286 0.000000
vt 0.723810 0.000000
vt 0.733333 0.000000
vt 0.752381 0.000000
vt 0.266667 0.000000
vt 0.257143 0.000000
vt 0.247619 0.000000
vt 0.238095 0.000000
vt 0.228571 0.000000
vt 0.219048 0.000000
vt 0.209524 0.000000
vt 0.200000 0.000000
vt 0.190476 0.000000
vt 0.761905 0.000000
vt 0.180952 0.000000
vt 1.000000 0.000000
vt 0.771429 0.000000
vt 0.780952 0.000000
vt 0.790476 0.000000
vt 0.171429 0.000000
vt 0.800000 0.000000
vt 0.809524 0.000000
vt 0.161905 0.000000
vt 0.819048 0.000000
vt 0.828571 0.000000
vt 0.152381 0.000000
vt 0.838095 0.000000
vt 0.847619 0.000000
vt 0.142857 0.000000
vt 0.857143 0.000000
vt 0.133333 0.000000
vt 0.866667 0.000000
vt 0.876190 0.000000
vt 0.123810 0.000000
vt 0.885714 0.000000
vt 0.895238 0.000000
vt 0.114286 0.000000
vt 0.904762 0.000000
vt 0.104762 0.000000
vt 0.914286 0.000000
vt 0.923810 0.000000
vt 0.095238 0.000000
vt 0.933333 0.000000
vt 0.942857 0.000000
vt 0.085714 0.000000
vt 0.952381 0.000000
vt 0.961905 0.000000
vt 0.971429 0.000000
vt 0.076190 0.000000
vt 0.980952 0.000000
vt 0.990476 0.000000
vt 0.066667 0.000000
vt 0.057143 0.000000
vt 0.047619 0.000000
vt 0.038095 0.000000
vt 0.028571 0.000000
vt 0.019048 0.000000
vt 0.009524 0.000000
vt 0.545455 0.000000
vt 0.363636 0.000000
vt 0.454545 0.000000
vt 0.272727 0.000000
vt 0.181818 0.000000
vt 0.090909 0.000000
vt 0.727273 0.000000
vt 0.818182 0.000000
vt 0.636364 0.000000
vt 0.909091 0.000000
s 0
usemtl マテリアル.003
f 131/233/60 183/234/60 182/235/60
f 183/234/60 181/236/60 182/235/60
f 183/234/60 180/237/60 181/236/60
f 183/234/60 179/238/60 180/237/60
f 183/234/60 178/239/60 179/238/60
f 183/234/60 177/240/60 178/239/60
f 183/234/60 176/241/60 177/240/60
f 183/234/60 175/242/60 176/241/60
f 183/234/60 174/243/60 175/242/60
f 183/234/60 184/244/60 174/243/60
f 184/244/60 173/245/60 174/243/60
f 131/233/60 209/246/60 183/234/60
f 185/247/60 173/245/60 184/244/60
f 186/248/60 173/245/60 185/247/60
f 186/248/60 172/249/60 173/245/60
f 187/250/60 172/249/60 186/248/60
f 188/251/60 172/249/60 187/250/60
f 189/252/60 172/249/60 188/251/60
f 190/253/60 172/249/60 189/252/60
f 190/253/60 171/254/60 172/249/60
f 191/255/60 171/254/60 190/253/60
f 192/256/60 171/254/60 191/255/60
f 192/256/60 170/257/60 171/254/60
f 193/258/60 170/257/60 192/256/60
f 194/259/60 170/257/60 193/258/60
f 194/259/60 169/260/60 170/257/60
f 195/261/60 169/260/60 194/259/60
f 196/262/60 169/260/60 195/261/60
f 196/262/60 168/263/60 169/260/60
f 197/264/60 168/263/60 196/262/60
f 197/264/60 167/265/60 168/263/60
f 198/266/60 167/265/60 197/264/60
f 198/266/60 166/267/60 167/265/60
f 199/268/60 166/267/60 198/266/60
f 199/268/60 165/269/60 166/267/60
f 200/270/60 165/269/60 199/268/60
f 200/270/60 164/271/60 165/269/60
f 201/272/60 164/271/60 200/270/60
f 201/272/60 163/273/60 164/271/60
f 202/274/60 163/273/60 201/272/60
f 202/274/60 162/275/60 163/273/60
f 203/276/60 162/275/60 202/274/60
f 204/277/60 162/275/60 203/276/60
f 204/277/60 161/278/60 162/275/60
f 205/279/60 161/278/60 204/277/60
f 205/279/60 160/280/60 161/278/60
f 206/281/60 160/280/60 205/279/60
f 207/282/60 160/280/60 206/281/60
f 208/283/60 160/280/60 207/282/60
f 131/233/60 210/284/60 209/246/60
f 210/284/60 208/283/60 209/246/60
f 210/284/60 160/280/60 208/283/60
f 210/284/60 159/285/60 160/280/60
f 210/284/60 158/286/60 159/285/60
f 210/284/60 157/287/60 158/286/60
f 210/284/60 156/288/60 157/287/60
f 210/284/60 155/289/60 156/288/60
f 210/284/60 154/290/60 155/289/60
f 210/284/60 153/291/60 154/290/60
f 210/284/60 152/292/60 153/291/60
f 210/284/60 151/293/60 152/292/60
f 210/284/60 211/294/60 151/293/60
f 211/294/60 150/295/60 151/293/60
f 131/233/60 236/296/60 210/284/60
f 212/297/60 150/295/60 211/294/60
f 213/298/60 150/295/60 212/297/60
f 214/299/60 150/295/60 213/298/60
f 214/299/60 149/300/60 150/295/60
f 215/301/60 149/300/60 214/299/60
f 216/302/60 149/300/60 215/301/60
f 216/302/60 148/303/60 149/300/60
f 217/304/60 148/303/60 216/302/60
f 218/305/60 148/303/60 217/304/60
f 218/305/60 147/306/60 148/303/60
f 219/307/60 147/306/60 218/305/60
f 220/308/60 147/306/60 219/307/60
f 220/308/60 146/309/60 147/306/60
f 221/310/60 146/309/60 220/308/60
f 221/310/60 145/311/60 146/309/60
f 222/312/60 145/311/60 221/310/60
f 223/313/60 145/311/60 222/312/60
f 223/313/60 144/314/60 145/311/60
f 224/315/60 144/314/60 223/313/60
f 225/316/60 144/314/60 224/315/60
f 225/316/60 143/317/60 144/314/60
f 226/318/60 143/317/60 225/316/60
f 226/318/60 142/319/60 143/317/60
f 227/320/60 142/319/60 226/318/60
f 228/321/60 142/319/60 227/320/60
f 228/321/60 141/322/60 142/319/60
f 229/323/60 141/322/60 228/321/60
f 230/324/60 141/322/60 229/323/60
f 230/324/60 140/325/60 141/322/60
f 231/326/60 140/325/60 230/324/60
f 232/327/60 140/325/60 231/326/60
f 233/328/60 140/325/60 232/327/60
f 233/328/60 139/329/60 140/325/60
f 234/330/60 139/329/60 233/328/60
f 235/331/60 139/329/60 234/330/60
f 131/233/60 235/331/60 236/296/60
f 131/233/60 139/329/60 235/331/60
f 131/233/60 138/332/60 139/329/60
f 131/233/60 137/333/60 138/332/60
f 131/233/60 136/334/60 137/333/60
f 131/233/60 135/335/60 136/334/60
f 131/233/60 134/336/60 135/335/60
f 131/233/60 133/337/60 134/336/60
f 131/233/60 132/338/60 133/337/60
f 243/339/60 241/340/60 242/341/60
f 243/339/60 240/342/60 241/340/60
f 239/343/60 237/233/60 238/344/60
f 239/343/60 248/296/60 237/233/60
f 243/339/60 245/345/60 240/342/60
f 245/345/60 239/343/60 240/342/60
f 245/345/60 246/346/60 239/343/60
f 246/346/60 248/296/60 239/343/60
f 243/339/60 244/347/60 245/345/60
f 247/348/60 248/296/60 246/346/60
o テキスト.001
v 0.167091 0.448793 -0.037692
v 0.167271 0.422622 -0.037702
v 0.167298 0.418089 -0.037500
v 0.167313 0.414042 -0.036918
v 0.167318 0.410463 -0.035996
v 0.167313 0.407335 -0.034775
v 0.167299 0.404640 -0.033292
v 0.167278 0.402361 -0.031590
v 0.167250 0.400480 -0.029708
v 0.167216 0.398980 -0.027686
v 0.167178 0.397844 -0.025563
v 0.167136 0.397053 -0.023381
v 0.167092 0.396592 -0.021178
v 0.167045 0.396441 -0.018995
v 0.166994 0.396583 -0.016685
v 0.166944 0.397005 -0.014489
v 0.166894 0.397699 -0.012418
v 0.166845 0.398657 -0.010478
v 0.166798 0.399869 -0.008677
v 0.166752 0.401328 -0.007025
v 0.166708 0.403024 -0.005530
v 0.166666 0.404950 -0.004198
v 0.166626 0.407096 -0.003040
v 0.166588 0.409454 -0.002062
v 0.166554 0.412017 -0.001274
v 0.166522 0.414774 -0.000683
v 0.166517 0.414774 -0.000477
v 0.166513 0.412876 0.000304
v 0.166507 0.411154 0.001162
v 0.166497 0.409605 0.002098
v 0.166484 0.408227 0.003116
v 0.166469 0.407018 0.004218
v 0.166450 0.405977 0.005407
v 0.166428 0.405101 0.006686
v 0.166404 0.404388 0.008058
v 0.166375 0.403837 0.009526
v 0.166344 0.403446 0.011092
v 0.166310 0.403212 0.012760
v 0.166272 0.403134 0.014533
v 0.166223 0.403281 0.016743
v 0.166172 0.403730 0.018929
v 0.166121 0.404488 0.021060
v 0.166069 0.405565 0.023103
v 0.166018 0.406968 0.025027
v 0.165967 0.408706 0.026798
v 0.165918 0.410786 0.028385
v 0.165872 0.413217 0.029756
v 0.165828 0.416007 0.030879
v 0.165788 0.419164 0.031721
v 0.165753 0.422696 0.032250
v 0.165722 0.426612 0.032435
v 0.165569 0.448757 0.032443
v 0.165841 0.437801 0.023389
v 0.165910 0.427735 0.023386
v 0.165929 0.425359 0.023293
v 0.165949 0.423254 0.023025
v 0.165971 0.421409 0.022594
v 0.165995 0.419811 0.022015
v 0.166019 0.418448 0.021301
v 0.166045 0.417307 0.020464
v 0.166072 0.416376 0.019518
v 0.166100 0.415642 0.018475
v 0.166128 0.415093 0.017351
v 0.166157 0.414716 0.016156
v 0.166185 0.414500 0.014905
v 0.166214 0.414431 0.013611
v 0.166252 0.414541 0.011814
v 0.166285 0.414872 0.010174
v 0.166314 0.415424 0.008693
v 0.166337 0.416199 0.007369
v 0.166356 0.417197 0.006203
v 0.166369 0.418420 0.005193
v 0.166378 0.419868 0.004340
v 0.166381 0.421544 0.003642
v 0.166380 0.423448 0.003101
v 0.166374 0.425582 0.002715
v 0.166362 0.427946 0.002484
v 0.166346 0.430542 0.002408
v 0.166296 0.437812 0.002411
v 0.166493 0.437817 -0.006639
v 0.166583 0.424619 -0.006644
v 0.166604 0.421867 -0.006738
v 0.166628 0.419368 -0.007011
v 0.166653 0.417121 -0.007453
v 0.166679 0.415121 -0.008057
v 0.166708 0.413367 -0.008811
v 0.166738 0.411856 -0.009708
v 0.166769 0.410585 -0.010738
v 0.166801 0.409552 -0.011890
v 0.166834 0.408753 -0.013158
v 0.166868 0.408186 -0.014530
v 0.166902 0.407848 -0.015997
v 0.166936 0.407736 -0.017551
v 0.166964 0.407813 -0.018871
v 0.166991 0.408054 -0.020195
v 0.167017 0.408481 -0.021499
v 0.167040 0.409114 -0.022761
v 0.167060 0.409974 -0.023959
v 0.167076 0.411081 -0.025070
v 0.167089 0.412457 -0.026071
v 0.167096 0.414120 -0.026941
v 0.167098 0.416093 -0.027657
v 0.167094 0.418395 -0.028195
v 0.167083 0.421048 -0.028534
v 0.167065 0.424071 -0.028651
v 0.166970 0.437828 -0.028646
v 0.165453 0.465645 0.032449
v 0.165377 0.476606 0.032453
v 0.166040 0.476622 0.001911
v 0.165746 0.519346 0.001926
v 0.165083 0.519331 0.032469
v 0.165008 0.530291 0.032473
v 0.166529 0.530328 -0.037662
v 0.166605 0.519367 -0.037666
v 0.165942 0.519351 -0.007123
v 0.166236 0.476627 -0.007139
v 0.166899 0.476643 -0.037682
v 0.166975 0.465682 -0.037686
vn -0.9997 -0.0069 -0.0217
vt 0.000000 0.000000
vt 0.495238 0.000000
vt 0.485714 0.000000
vt 0.476190 0.000000
vt 0.466667 0.000000
vt 0.457143 0.000000
vt 0.447619 0.000000
vt 0.438095 0.000000
vt 0.428571 0.000000
vt 0.419048 0.000000
vt 0.409524 0.000000
vt 0.504762 0.000000
vt 0.400000 0.000000
vt 0.742857 0.000000
vt 0.514286 0.000000
vt 0.523810 0.000000
vt 0.390476 0.000000
vt 0.533333 0.000000
vt 0.542857 0.000000
vt 0.552381 0.000000
vt 0.561905 0.000000
vt 0.380952 0.000000
vt 0.571429 0.000000
vt 0.580952 0.000000
vt 0.371429 0.000000
vt 0.590476 0.000000
vt 0.600000 0.000000
vt 0.361905 0.000000
vt 0.609524 0.000000
vt 0.619048 0.000000
vt 0.352381 0.000000
vt 0.628571 0.000000
vt 0.342857 0.000000
vt 0.638095 0.000000
vt 0.333333 0.000000
vt 0.647619 0.000000
vt 0.323810 0.000000
vt 0.657143 0.000000
vt 0.314286 0.000000
vt 0.666667 0.000000
vt 0.304762 0.000000
vt 0.676190 0.000000
vt 0.295238 0.000000
vt 0.685714 0.000000
vt 0.695238 0.000000
vt 0.285714 0.000000
vt 0.704762 0.000000
vt 0.276190 0.000000
vt 0.714286 0.000000
vt 0.723810 0.000000
vt 0.733333 0.000000
vt 0.752381 0.000000
vt 0.266667 0.000000
vt 0.257143 0.000000
vt 0.247619 0.000000
vt 0.238095 0.000000
vt 0.228571 0.000000
vt 0.219048 0.000000
vt 0.209524 0.000000
vt 0.200000 0.000000
vt 0.190476 0.000000
vt 0.761905 0.000000
vt 0.180952 0.000000
vt 1.000000 0.000000
vt 0.771429 0.000000
vt 0.780952 0.000000
vt 0.790476 0.000000
vt 0.171429 0.000000
vt 0.800000 0.000000
vt 0.809524 0.000000
vt 0.161905 0.000000
vt 0.819048 0.000000
vt 0.828571 0.000000
vt 0.152381 0.000000
vt 0.838095 0.000000
vt 0.847619 0.000000
vt 0.142857 0.000000
vt 0.857143 0.000000
vt 0.133333 0.000000
vt 0.866667 0.000000
vt 0.876190 0.000000
vt 0.123810 0.000000
vt 0.885714 0.000000
vt 0.895238 0.000000
vt 0.114286 0.000000
vt 0.904762 0.000000
vt 0.104762 0.000000
vt 0.914286 0.000000
vt 0.923810 0.000000
vt 0.095238 0.000000
vt 0.933333 0.000000
vt 0.942857 0.000000
vt 0.085714 0.000000
vt 0.952381 0.000000
vt 0.961905 0.000000
vt 0.971429 0.000000
vt 0.076190 0.000000
vt 0.980952 0.000000
vt 0.990476 0.000000
vt 0.066667 0.000000
vt 0.057143 0.000000
vt 0.047619 0.000000
vt 0.038095 0.000000
vt 0.028571 0.000000
vt 0.019048 0.000000
vt 0.009524 0.000000
vt 0.545455 0.000000
vt 0.363636 0.000000
vt 0.454545 0.000000
vt 0.272727 0.000000
vt 0.181818 0.000000
vt 0.090909 0.000000
vt 0.727273 0.000000
vt 0.818182 0.000000
vt 0.636364 0.000000
vt 0.909091 0.000000
s 0
usemtl マテリアル.005
f 249/349/61 301/350/61 300/351/61
f 301/350/61 299/352/61 300/351/61
f 301/350/61 298/353/61 299/352/61
f 301/350/61 297/354/61 298/353/61
f 301/350/61 296/355/61 297/354/61
f 301/350/61 295/356/61 296/355/61
f 301/350/61 294/357/61 295/356/61
f 301/350/61 293/358/61 294/357/61
f 301/350/61 292/359/61 293/358/61
f 301/350/61 302/360/61 292/359/61
f 302/360/61 291/361/61 292/359/61
f 249/349/61 327/362/61 301/350/61
f 303/363/61 291/361/61 302/360/61
f 304/364/61 291/361/61 303/363/61
f 304/364/61 290/365/61 291/361/61
f 305/366/61 290/365/61 304/364/61
f 306/367/61 290/365/61 305/366/61
f 307/368/61 290/365/61 306/367/61
f 308/369/61 290/365/61 307/368/61
f 308/369/61 289/370/61 290/365/61
f 309/371/61 289/370/61 308/369/61
f 310/372/61 289/370/61 309/371/61
f 310/372/61 288/373/61 289/370/61
f 311/374/61 288/373/61 310/372/61
f 312/375/61 288/373/61 311/374/61
f 312/375/61 287/376/61 288/373/61
f 313/377/61 287/376/61 312/375/61
f 314/378/61 287/376/61 313/377/61
f 314/378/61 286/379/61 287/376/61
f 315/380/61 286/379/61 314/378/61
f 315/380/61 285/381/61 286/379/61
f 316/382/61 285/381/61 315/380/61
f 316/382/61 284/383/61 285/381/61
f 317/384/61 284/383/61 316/382/61
f 317/384/61 283/385/61 284/383/61
f 318/386/61 283/385/61 317/384/61
f 318/386/61 282/387/61 283/385/61
f 319/388/61 282/387/61 318/386/61
f 319/388/61 281/389/61 282/387/61
f 320/390/61 281/389/61 319/388/61
f 320/390/61 280/391/61 281/389/61
f 321/392/61 280/391/61 320/390/61
f 322/393/61 280/391/61 321/392/61
f 322/393/61 279/394/61 280/391/61
f 323/395/61 279/394/61 322/393/61
f 323/395/61 278/396/61 279/394/61
f 324/397/61 278/396/61 323/395/61
f 325/398/61 278/396/61 324/397/61
f 326/399/61 278/396/61 325/398/61
f 249/349/61 328/400/61 327/362/61
f 328/400/61 326/399/61 327/362/61
f 328/400/61 278/396/61 326/399/61
f 328/400/61 277/401/61 278/396/61
f 328/400/61 276/402/61 277/401/61
f 328/400/61 275/403/61 276/402/61
f 328/400/61 274/404/61 275/403/61
f 328/400/61 273/405/61 274/404/61
f 328/400/61 272/406/61 273/405/61
f 328/400/61 271/407/61 272/406/61
f 328/400/61 270/408/61 271/407/61
f 328/400/61 269/409/61 270/408/61
f 328/400/61 329/410/61 269/409/61
f 329/410/61 268/411/61 269/409/61
f 249/349/61 354/412/61 328/400/61
f 330/413/61 268/411/61 329/410/61
f 331/414/61 268/411/61 330/413/61
f 332/415/61 268/411/61 331/414/61
f 332/415/61 267/416/61 268/411/61
f 333/417/61 267/416/61 332/415/61
f 334/418/61 267/416/61 333/417/61
f 334/418/61 266/419/61 267/416/61
f 335/420/61 266/419/61 334/418/61
f 336/421/61 266/419/61 335/420/61
f 336/421/61 265/422/61 266/419/61
f 337/423/61 265/422/61 336/421/61
f 338/424/61 265/422/61 337/423/61
f 338/424/61 264/425/61 265/422/61
f 339/426/61 264/425/61 338/424/61
f 339/426/61 263/427/61 264/425/61
f 340/428/61 263/427/61 339/426/61
f 341/429/61 263/427/61 340/428/61
f 341/429/61 262/430/61 263/427/61
f 342/431/61 262/430/61 341/429/61
f 343/432/61 262/430/61 342/431/61
f 343/432/61 261/433/61 262/430/61
f 344/434/61 261/433/61 343/432/61
f 344/434/61 260/435/61 261/433/61
f 345/436/61 260/435/61 344/434/61
f 346/437/61 260/435/61 345/436/61
f 346/437/61 259/438/61 260/435/61
f 347/439/61 259/438/61 346/437/61
f 348/440/61 259/438/61 347/439/61
f 348/440/61 258/441/61 259/438/61
f 349/442/61 258/441/61 348/440/61
f 350/443/61 258/441/61 349/442/61
f 351/444/61 258/441/61 350/443/61
f 351/444/61 257/445/61 258/441/61
f 352/446/61 257/445/61 351/444/61
f 353/447/61 257/445/61 352/446/61
f 249/349/61 353/447/61 354/412/61
f 249/349/61 257/445/61 353/447/61
f 249/349/61 256/448/61 257/445/61
f 249/349/61 255/449/61 256/448/61
f 249/349/61 254/450/61 255/449/61
f 249/349/61 253/451/61 254/450/61
f 249/349/61 252/452/61 253/451/61
f 249/349/61 251/453/61 252/452/61
f 249/349/61 250/454/61 251/453/61
f 361/455/61 359/456/61 360/457/61
f 361/455/61 358/458/61 359/456/61
f 357/459/61 355/349/61 356/460/61
f 357/459/61 366/412/61 355/349/61
f 361/455/61 363/461/61 358/458/61
f 363/461/61 357/459/61 358/458/61
f 363/461/61 364/462/61 357/459/61
f 364/462/61 366/412/61 357/459/61
f 361/455/61 362/463/61 363/461/61
f 365/464/61 366/412/61 364/462/61
