# Blender 4.5.3 LTS
# www.blender.org
mtllib kagi.mtl
o 立方体.003
v -0.360237 0.059603 -0.172876
v -0.360237 0.102717 -0.172876
v -0.360237 0.059603 -0.243661
v -0.360237 0.102717 -0.243661
v -0.235512 0.059603 -0.172876
v -0.235512 0.102717 -0.172876
v -0.235512 0.059603 -0.243661
v -0.235512 0.102717 -0.243661
vn -1.0000 -0.0000 -0.0000
vn -0.0000 -0.0000 -1.0000
vn 1.0000 -0.0000 -0.0000
vn -0.0000 -0.0000 1.0000
vn -0.0000 -1.0000 -0.0000
vn -0.0000 1.0000 -0.0000
vt 0.375000 0.000000
vt 0.625000 0.000000
vt 0.625000 0.250000
vt 0.375000 0.250000
vt 0.625000 0.500000
vt 0.375000 0.500000
vt 0.625000 0.750000
vt 0.375000 0.750000
vt 0.625000 1.000000
vt 0.375000 1.000000
vt 0.125000 0.500000
vt 0.125000 0.750000
vt 0.875000 0.500000
vt 0.875000 0.750000
s 0
usemtl kagi
f 1/1/1 2/2/1 4/3/1 3/4/1
f 3/4/2 4/3/2 8/5/2 7/6/2
f 7/6/3 8/5/3 6/7/3 5/8/3
f 5/8/4 6/7/4 2/9/4 1/10/4
f 3/11/5 7/6/5 5/8/5 1/12/5
f 8/5/6 4/13/6 2/14/6 6/7/6
o 立方体.002
v -0.423297 0.059603 -0.242957
v -0.423297 0.102717 -0.242957
v -0.423297 0.059603 -0.313742
v -0.423297 0.102717 -0.313742
v -0.245804 0.059603 -0.242957
v -0.245804 0.102717 -0.242957
v -0.245804 0.059603 -0.313742
v -0.245804 0.102717 -0.313742
vn -1.0000 -0.0000 -0.0000
vn -0.0000 -0.0000 -1.0000
vn 1.0000 -0.0000 -0.0000
vn -0.0000 -0.0000 1.0000
vn -0.0000 -1.0000 -0.0000
vn -0.0000 1.0000 -0.0000
vt 0.375000 0.000000
vt 0.625000 0.000000
vt 0.625000 0.250000
vt 0.375000 0.250000
vt 0.625000 0.500000
vt 0.375000 0.500000
vt 0.625000 0.750000
vt 0.375000 0.750000
vt 0.625000 1.000000
vt 0.375000 1.000000
vt 0.125000 0.500000
vt 0.125000 0.750000
vt 0.875000 0.500000
vt 0.875000 0.750000
s 0
usemtl kagi
f 9/15/7 10/16/7 12/17/7 11/18/7
f 11/18/8 12/17/8 16/19/8 15/20/8
f 15/20/9 16/19/9 14/21/9 13/22/9
f 13/22/10 14/21/10 10/23/10 9/24/10
f 11/25/11 15/20/11 13/22/11 9/26/11
f 16/19/12 12/27/12 10/28/12 14/21/12
o 立方体.001
v -0.386016 0.056854 -0.303827
v -0.386016 0.102652 -0.303827
v -0.386016 0.056854 -0.398913
v -0.386016 0.102652 -0.398913
v -0.298495 0.056854 -0.303827
v -0.298495 0.102652 -0.303827
v -0.298495 0.056854 -0.398913
v -0.298495 0.102652 -0.398913
vn -1.0000 -0.0000 -0.0000
vn -0.0000 -0.0000 -1.0000
vn 1.0000 -0.0000 -0.0000
vn -0.0000 -0.0000 1.0000
vn -0.0000 -1.0000 -0.0000
vn -0.0000 1.0000 -0.0000
vt 0.375000 0.000000
vt 0.625000 0.000000
vt 0.625000 0.250000
vt 0.375000 0.250000
vt 0.625000 0.500000
vt 0.375000 0.500000
vt 0.625000 0.750000
vt 0.375000 0.750000
vt 0.625000 1.000000
vt 0.375000 1.000000
vt 0.125000 0.500000
vt 0.125000 0.750000
vt 0.875000 0.500000
vt 0.875000 0.750000
s 0
usemtl kagi
f 17/29/13 18/30/13 20/31/13 19/32/13
f 19/32/14 20/31/14 24/33/14 23/34/14
f 23/34/15 24/33/15 22/35/15 21/36/15
f 21/36/16 22/35/16 18/37/16 17/38/16
f 19/39/17 23/34/17 21/36/17 17/40/17
f 24/33/18 20/41/18 18/42/18 22/35/18
o 立方体
v -0.452266 0.057149 -0.380763
v -0.452266 0.105170 -0.380763
v -0.452266 0.057149 -0.486333
v -0.452266 0.105170 -0.486333
v -0.274770 0.057149 -0.380763
v -0.274770 0.105170 -0.380763
v -0.274770 0.057149 -0.486333
v -0.274770 0.105170 -0.486333
vn -1.0000 -0.0000 -0.0000
vn -0.0000 -0.0000 -1.0000
vn 1.0000 -0.0000 -0.0000
vn -0.0000 -0.0000 1.0000
vn -0.0000 -1.0000 -0.0000
vn -0.0000 1.0000 -0.0000
vt 0.375000 0.000000
vt 0.625000 0.000000
vt 0.625000 0.250000
vt 0.375000 0.250000
vt 0.625000 0.500000
vt 0.375000 0.500000
vt 0.625000 0.750000
vt 0.375000 0.750000
vt 0.625000 1.000000
vt 0.375000 1.000000
vt 0.125000 0.500000
vt 0.125000 0.750000
vt 0.875000 0.500000
vt 0.875000 0.750000
s 0
usemtl kagi
f 25/43/19 26/44/19 28/45/19 27/46/19
f 27/46/20 28/45/20 32/47/20 31/48/20
f 31/48/21 32/47/21 30/49/21 29/50/21
f 29/50/22 30/49/22 26/51/22 25/52/22
f 27/53/23 31/48/23 29/50/23 25/54/23
f 32/47/24 28/55/24 26/56/24 30/49/24
o 円柱.001
v -0.264575 0.033629 0.276948
v -0.264575 0.033478 -0.575613
v -0.255691 0.034504 0.276947
v -0.255691 0.034353 -0.575613
v -0.247150 0.037095 0.276947
v -0.247150 0.036944 -0.575614
v -0.239277 0.041303 0.276946
v -0.239277 0.041152 -0.575614
v -0.232377 0.046966 0.276945
v -0.232377 0.046815 -0.575615
v -0.226714 0.053866 0.276944
v -0.226714 0.053715 -0.575617
v -0.222507 0.061738 0.276943
v -0.222507 0.061587 -0.575618
v -0.219915 0.070280 0.276941
v -0.219915 0.070129 -0.575619
v -0.219040 0.079164 0.276939
v -0.219040 0.079012 -0.575621
v -0.219915 0.088047 0.276938
v -0.219915 0.087896 -0.575623
v -0.222507 0.096589 0.276936
v -0.222507 0.096437 -0.575624
v -0.226714 0.104461 0.276935
v -0.226714 0.104310 -0.575626
v -0.232377 0.111361 0.276934
v -0.232377 0.111210 -0.575627
v -0.239277 0.117024 0.276933
v -0.239277 0.116873 -0.575628
v -0.247150 0.121232 0.276932
v -0.247150 0.121080 -0.575629
v -0.255691 0.123823 0.276932
v -0.255691 0.123672 -0.575629
v -0.264575 0.124698 0.276931
v -0.264575 0.124547 -0.575629
v -0.273458 0.123823 0.276932
v -0.273458 0.123672 -0.575629
v -0.282000 0.121232 0.276932
v -0.282000 0.121080 -0.575629
v -0.289872 0.117024 0.276933
v -0.289872 0.116873 -0.575628
v -0.296772 0.111361 0.276934
v -0.296772 0.111210 -0.575627
v -0.302435 0.104461 0.276935
v -0.302435 0.104310 -0.575626
v -0.306643 0.096589 0.276936
v -0.306643 0.096437 -0.575624
v -0.309234 0.088047 0.276938
v -0.309234 0.087896 -0.575623
v -0.310109 0.079164 0.276939
v -0.310109 0.079012 -0.575621
v -0.309234 0.070280 0.276941
v -0.309234 0.070129 -0.575619
v -0.306643 0.061738 0.276943
v -0.306643 0.061587 -0.575618
v -0.302435 0.053866 0.276944
v -0.302435 0.053715 -0.575617
v -0.296772 0.046966 0.276945
v -0.296772 0.046815 -0.575615
v -0.289872 0.041303 0.276946
v -0.289872 0.041152 -0.575614
v -0.282000 0.037095 0.276947
v -0.282000 0.036944 -0.575614
v -0.273458 0.034504 0.276947
v -0.273458 0.034353 -0.575613
vn -0.0000 -1.0000 0.0002
vn 0.1951 -0.9808 0.0002
vn 0.3827 -0.9239 0.0002
vn 0.5556 -0.8315 0.0001
vn 0.7071 -0.7071 0.0001
vn 0.8315 -0.5556 0.0001
vn 0.9239 -0.3827 0.0001
vn 0.9808 -0.1951 -0.0000
vn 1.0000 -0.0000 -0.0000
vn 0.9808 0.1951 -0.0000
vn 0.9239 0.3827 -0.0001
vn 0.8315 0.5556 -0.0001
vn 0.7071 0.7071 -0.0001
vn 0.5556 0.8315 -0.0001
vn 0.3827 0.9239 -0.0002
vn 0.1951 0.9808 -0.0002
vn -0.0000 1.0000 -0.0002
vn -0.1951 0.9808 -0.0002
vn -0.3827 0.9239 -0.0002
vn -0.5556 0.8315 -0.0001
vn -0.7071 0.7071 -0.0001
vn -0.8315 0.5556 -0.0001
vn -0.9239 0.3827 -0.0001
vn -0.9808 0.1951 -0.0000
vn -1.0000 -0.0000 -0.0000
vn -0.9808 -0.1951 -0.0000
vn -0.9239 -0.3827 0.0001
vn -0.8315 -0.5556 0.0001
vn -0.7071 -0.7071 0.0001
vn -0.5556 -0.8315 0.0001
vn -0.3827 -0.9239 0.0002
vn -0.0000 -0.0002 -1.0000
vn -0.1951 -0.9808 0.0002
vn -0.0000 0.0002 1.0000
vt 1.000000 0.500000
vt 1.000000 1.000000
vt 0.968750 1.000000
vt 0.968750 0.500000
vt 0.937500 1.000000
vt 0.937500 0.500000
vt 0.906250 1.000000
vt 0.906250 0.500000
vt 0.875000 1.000000
vt 0.875000 0.500000
vt 0.843750 1.000000
vt 0.843750 0.500000
vt 0.812500 1.000000
vt 0.812500 0.500000
vt 0.781250 1.000000
vt 0.781250 0.500000
vt 0.750000 1.000000
vt 0.750000 0.500000
vt 0.718750 1.000000
vt 0.718750 0.500000
vt 0.687500 1.000000
vt 0.687500 0.500000
vt 0.656250 1.000000
vt 0.656250 0.500000
vt 0.625000 1.000000
vt 0.625000 0.500000
vt 0.593750 1.000000
vt 0.593750 0.500000
vt 0.562500 1.000000
vt 0.562500 0.500000
vt 0.531250 1.000000
vt 0.531250 0.500000
vt 0.500000 1.000000
vt 0.500000 0.500000
vt 0.468750 1.000000
vt 0.468750 0.500000
vt 0.437500 1.000000
vt 0.437500 0.500000
vt 0.406250 1.000000
vt 0.406250 0.500000
vt 0.375000 1.000000
vt 0.375000 0.500000
vt 0.343750 1.000000
vt 0.343750 0.500000
vt 0.312500 1.000000
vt 0.312500 0.500000
vt 0.281250 1.000000
vt 0.281250 0.500000
vt 0.250000 1.000000
vt 0.250000 0.500000
vt 0.218750 1.000000
vt 0.218750 0.500000
vt 0.187500 1.000000
vt 0.187500 0.500000
vt 0.156250 1.000000
vt 0.156250 0.500000
vt 0.125000 1.000000
vt 0.125000 0.500000
vt 0.093750 1.000000
vt 0.093750 0.500000
vt 0.062500 1.000000
vt 0.062500 0.500000
vt 0.296822 0.485388
vt 0.250000 0.490000
vt 0.203178 0.485388
vt 0.158156 0.471731
vt 0.116663 0.449553
vt 0.080294 0.419706
vt 0.050447 0.383337
vt 0.028269 0.341844
vt 0.014612 0.296822
vt 0.010000 0.250000
vt 0.014612 0.203178
vt 0.028269 0.158156
vt 0.050447 0.116663
vt 0.080294 0.080294
vt 0.116663 0.050447
vt 0.158156 0.028269
vt 0.203178 0.014612
vt 0.250000 0.010000
vt 0.296822 0.014612
vt 0.341844 0.028269
vt 0.383337 0.050447
vt 0.419706 0.080294
vt 0.449553 0.116663
vt 0.471731 0.158156
vt 0.485388 0.203178
vt 0.490000 0.250000
vt 0.485388 0.296822
vt 0.471731 0.341844
vt 0.449553 0.383337
vt 0.419706 0.419706
vt 0.383337 0.449553
vt 0.341844 0.471731
vt 0.031250 1.000000
vt 0.031250 0.500000
vt 0.000000 1.000000
vt 0.000000 0.500000
vt 0.750000 0.490000
vt 0.796822 0.485388
vt 0.841844 0.471731
vt 0.883337 0.449553
vt 0.919706 0.419706
vt 0.949553 0.383337
vt 0.971731 0.341844
vt 0.985388 0.296822
vt 0.990000 0.250000
vt 0.985388 0.203178
vt 0.971731 0.158156
vt 0.949553 0.116663
vt 0.919706 0.080294
vt 0.883337 0.050447
vt 0.841844 0.028269
vt 0.796822 0.014612
vt 0.750000 0.010000
vt 0.703178 0.014612
vt 0.658156 0.028269
vt 0.616663 0.050447
vt 0.580294 0.080294
vt 0.550447 0.116663
vt 0.528269 0.158156
vt 0.514612 0.203178
vt 0.510000 0.250000
vt 0.514612 0.296822
vt 0.528269 0.341844
vt 0.550447 0.383337
vt 0.580294 0.419706
vt 0.616663 0.449553
vt 0.658156 0.471731
vt 0.703178 0.485388
s 1
usemtl kagi
f 33/57/25 34/58/25 36/59/26 35/60/26
f 35/60/26 36/59/26 38/61/27 37/62/27
f 37/62/27 38/61/27 40/63/28 39/64/28
f 39/64/28 40/63/28 42/65/29 41/66/29
f 41/66/29 42/65/29 44/67/30 43/68/30
f 43/68/30 44/67/30 46/69/31 45/70/31
f 45/70/31 46/69/31 48/71/32 47/72/32
f 47/72/32 48/71/32 50/73/33 49/74/33
f 49/74/33 50/73/33 52/75/34 51/76/34
f 51/76/34 52/75/34 54/77/35 53/78/35
f 53/78/35 54/77/35 56/79/36 55/80/36
f 55/80/36 56/79/36 58/81/37 57/82/37
f 57/82/37 58/81/37 60/83/38 59/84/38
f 59/84/38 60/83/38 62/85/39 61/86/39
f 61/86/39 62/85/39 64/87/40 63/88/40
f 63/88/40 64/87/40 66/89/41 65/90/41
f 65/90/41 66/89/41 68/91/42 67/92/42
f 67/92/42 68/91/42 70/93/43 69/94/43
f 69/94/43 70/93/43 72/95/44 71/96/44
f 71/96/44 72/95/44 74/97/45 73/98/45
f 73/98/45 74/97/45 76/99/46 75/100/46
f 75/100/46 76/99/46 78/101/47 77/102/47
f 77/102/47 78/101/47 80/103/48 79/104/48
f 79/104/48 80/103/48 82/105/49 81/106/49
f 81/106/49 82/105/49 84/107/50 83/108/50
f 83/108/50 84/107/50 86/109/51 85/110/51
f 85/110/51 86/109/51 88/111/52 87/112/52
f 87/112/52 88/111/52 90/113/53 89/114/53
f 89/114/53 90/113/53 92/115/54 91/116/54
f 91/116/54 92/115/54 94/117/55 93/118/55
f 36/119/56 34/120/56 96/121/56 94/122/56 92/123/56 90/124/56 88/125/56 86/126/56 84/127/56 82/128/56 80/129/56 78/130/56 76/131/56 74/132/56 72/133/56 70/134/56 68/135/56 66/136/56 64/137/56 62/138/56 60/139/56 58/140/56 56/141/56 54/142/56 52/143/56 50/144/56 48/145/56 46/146/56 44/147/56 42/148/56 40/149/56 38/150/56
f 93/118/55 94/117/55 96/151/57 95/152/57
f 95/152/57 96/151/57 34/153/25 33/154/25
f 33/155/58 35/156/58 37/157/58 39/158/58 41/159/58 43/160/58 45/161/58 47/162/58 49/163/58 51/164/58 53/165/58 55/166/58 57/167/58 59/168/58 61/169/58 63/170/58 65/171/58 67/172/58 69/173/58 71/174/58 73/175/58 75/176/58 77/177/58 79/178/58 81/179/58 83/180/58 85/181/58 87/182/58 89/183/58 91/184/58 93/185/58 95/186/58
o トーラス
v 0.007838 0.084909 0.502207
v 0.000492 0.112326 0.502207
v -0.019579 0.132396 0.502207
v -0.046995 0.139743 0.502207
v -0.074412 0.132396 0.502207
v -0.094482 0.112326 0.502207
v -0.101829 0.084909 0.502207
v -0.094482 0.057493 0.502207
v -0.074412 0.037422 0.502207
v -0.046995 0.030076 0.502207
v -0.019579 0.037422 0.502207
v 0.000492 0.057493 0.502207
v 0.005492 0.084909 0.466421
v -0.001791 0.112326 0.467380
v -0.021690 0.132396 0.469999
v -0.048872 0.139743 0.473578
v -0.076054 0.132396 0.477156
v -0.095953 0.112326 0.479776
v -0.103236 0.084909 0.480735
v -0.095953 0.057493 0.479776
v -0.076054 0.037422 0.477156
v -0.048872 0.030076 0.473578
v -0.021690 0.037422 0.469999
v -0.001791 0.057493 0.467380
v -0.001504 0.084909 0.431247
v -0.008600 0.112326 0.433149
v -0.027987 0.132396 0.438343
v -0.054469 0.139743 0.445439
v -0.080951 0.132396 0.452535
v -0.100338 0.112326 0.457730
v -0.107434 0.084909 0.459631
v -0.100338 0.057493 0.457730
v -0.080951 0.037422 0.452535
v -0.054469 0.030076 0.445439
v -0.027987 0.037422 0.438343
v -0.008600 0.057493 0.433149
v -0.013032 0.084909 0.397288
v -0.019819 0.112326 0.400099
v -0.038361 0.132396 0.407780
v -0.063691 0.139743 0.418271
v -0.089021 0.132396 0.428763
v -0.107563 0.112326 0.436444
v -0.114350 0.084909 0.439255
v -0.107563 0.057493 0.436444
v -0.089021 0.037422 0.428763
v -0.063691 0.030076 0.418271
v -0.038361 0.037422 0.407780
v -0.019819 0.057493 0.400099
v -0.028893 0.084909 0.365123
v -0.035256 0.112326 0.368797
v -0.052637 0.132396 0.378832
v -0.076380 0.139743 0.392540
v -0.100124 0.132396 0.406248
v -0.117505 0.112326 0.416284
v -0.123867 0.084909 0.419957
v -0.117505 0.057493 0.416284
v -0.100124 0.037422 0.406248
v -0.076380 0.030076 0.392540
v -0.052637 0.037422 0.378832
v -0.035256 0.057493 0.368797
v -0.048818 0.084909 0.335305
v -0.054646 0.112326 0.339777
v -0.070569 0.132396 0.351995
v -0.092320 0.139743 0.368685
v -0.114071 0.132396 0.385375
v -0.129994 0.112326 0.397593
v -0.135822 0.084909 0.402065
v -0.129994 0.057493 0.397593
v -0.114071 0.037422 0.385375
v -0.092320 0.030076 0.368685
v -0.070569 0.037422 0.351995
v -0.054646 0.057493 0.339777
v -0.072464 0.084909 0.308342
v -0.077658 0.112326 0.313536
v -0.091850 0.132396 0.327728
v -0.111237 0.139743 0.347115
v -0.130623 0.132396 0.366501
v -0.144815 0.112326 0.380693
v -0.150009 0.084909 0.385888
v -0.144815 0.057493 0.380693
v -0.130623 0.037422 0.366501
v -0.111237 0.030076 0.347115
v -0.091850 0.037422 0.327728
v -0.077658 0.057493 0.313536
v -0.099426 0.084909 0.284696
v -0.103899 0.112326 0.290524
v -0.116117 0.132396 0.306447
v -0.132807 0.139743 0.328198
v -0.149497 0.132396 0.349949
v -0.161715 0.112326 0.365872
v -0.166187 0.084909 0.371700
v -0.161715 0.057493 0.365872
v -0.149497 0.037422 0.349949
v -0.132807 0.030076 0.328198
v -0.116117 0.037422 0.306447
v -0.103899 0.057493 0.290524
v -0.129245 0.084909 0.264772
v -0.132918 0.112326 0.271134
v -0.142954 0.132396 0.288515
v -0.156662 0.139743 0.312259
v -0.170370 0.132396 0.336002
v -0.180405 0.112326 0.353384
v -0.184078 0.084909 0.359746
v -0.180405 0.057493 0.353384
v -0.170370 0.037422 0.336002
v -0.156662 0.030076 0.312259
v -0.142954 0.037422 0.288515
v -0.132918 0.057493 0.271134
v -0.161409 0.084909 0.248910
v -0.164221 0.112326 0.255697
v -0.171901 0.132396 0.274240
v -0.182393 0.139743 0.299569
v -0.192885 0.132396 0.324899
v -0.200566 0.112326 0.343442
v -0.203377 0.084909 0.350229
v -0.200566 0.057493 0.343442
v -0.192885 0.037422 0.324899
v -0.182393 0.030076 0.299569
v -0.171901 0.037422 0.274240
v -0.164221 0.057493 0.255697
v -0.195369 0.084909 0.237382
v -0.197270 0.112326 0.244478
v -0.202465 0.132396 0.263865
v -0.209561 0.139743 0.290347
v -0.216657 0.132396 0.316830
v -0.221851 0.112326 0.336216
v -0.223753 0.084909 0.343312
v -0.221851 0.057493 0.336216
v -0.216657 0.037422 0.316830
v -0.209561 0.030076 0.290347
v -0.202465 0.037422 0.263865
v -0.197270 0.057493 0.244478
v -0.230543 0.084909 0.230386
v -0.231501 0.112326 0.237669
v -0.234121 0.132396 0.257568
v -0.237700 0.139743 0.284750
v -0.241278 0.132396 0.311932
v -0.243898 0.112326 0.331831
v -0.244857 0.084909 0.339114
v -0.243898 0.057493 0.331831
v -0.241278 0.037422 0.311932
v -0.237700 0.030076 0.284750
v -0.234121 0.037422 0.257568
v -0.231501 0.057493 0.237669
v -0.266328 0.084909 0.228040
v -0.266328 0.112326 0.235387
v -0.266328 0.132396 0.255457
v -0.266328 0.139743 0.282874
v -0.266328 0.132396 0.310290
v -0.266328 0.112326 0.330361
v -0.266328 0.084909 0.337707
v -0.266328 0.057493 0.330361
v -0.266328 0.037422 0.310290
v -0.266328 0.030076 0.282874
v -0.266328 0.037422 0.255457
v -0.266328 0.057493 0.235387
v -0.302114 0.084909 0.230386
v -0.301155 0.112326 0.237669
v -0.298536 0.132396 0.257568
v -0.294957 0.139743 0.284750
v -0.291378 0.132396 0.311932
v -0.288759 0.112326 0.331831
v -0.287800 0.084909 0.339114
v -0.288759 0.057493 0.331831
v -0.291378 0.037422 0.311932
v -0.294957 0.030076 0.284750
v -0.298536 0.037422 0.257568
v -0.301155 0.057493 0.237669
v -0.337288 0.084909 0.237382
v -0.335386 0.112326 0.244478
v -0.330192 0.132396 0.263865
v -0.323096 0.139743 0.290347
v -0.316000 0.132396 0.316830
v -0.310805 0.112326 0.336216
v -0.308904 0.084909 0.343312
v -0.310805 0.057493 0.336216
v -0.316000 0.037422 0.316830
v -0.323096 0.030076 0.290347
v -0.330192 0.037422 0.263865
v -0.335386 0.057493 0.244478
v -0.371247 0.084909 0.248910
v -0.368436 0.112326 0.255697
v -0.360755 0.132396 0.274240
v -0.350263 0.139743 0.299569
v -0.339772 0.132396 0.324899
v -0.332091 0.112326 0.343442
v -0.329280 0.084909 0.350229
v -0.332091 0.057493 0.343442
v -0.339772 0.037422 0.324899
v -0.350263 0.030076 0.299569
v -0.360755 0.037422 0.274240
v -0.368436 0.057493 0.255697
v -0.403411 0.084909 0.264772
v -0.399738 0.112326 0.271134
v -0.389703 0.132396 0.288515
v -0.375995 0.139743 0.312259
v -0.362287 0.132396 0.336002
v -0.352251 0.112326 0.353384
v -0.348578 0.084909 0.359746
v -0.352251 0.057493 0.353384
v -0.362287 0.037422 0.336002
v -0.375995 0.030076 0.312259
v -0.389703 0.037422 0.288515
v -0.399738 0.057493 0.271134
v -0.433230 0.084909 0.284696
v -0.428758 0.112326 0.290524
v -0.416540 0.132396 0.306447
v -0.399850 0.139743 0.328198
v -0.383160 0.132396 0.349949
v -0.370942 0.112326 0.365872
v -0.366469 0.084909 0.371700
v -0.370942 0.057493 0.365872
v -0.383160 0.037422 0.349949
v -0.399850 0.030076 0.328198
v -0.416540 0.037422 0.306447
v -0.428758 0.057493 0.290524
v -0.460193 0.084909 0.308342
v -0.454999 0.112326 0.313536
v -0.440807 0.132396 0.327728
v -0.421420 0.139743 0.347115
v -0.402034 0.132396 0.366501
v -0.387842 0.112326 0.380693
v -0.382647 0.084909 0.385888
v -0.387842 0.057493 0.380693
v -0.402034 0.037422 0.366501
v -0.421420 0.030076 0.347115
v -0.440807 0.037422 0.327728
v -0.454999 0.057493 0.313536
v -0.483839 0.084909 0.335305
v -0.478011 0.112326 0.339777
v -0.462088 0.132396 0.351995
v -0.440337 0.139743 0.368685
v -0.418586 0.132396 0.385375
v -0.402663 0.112326 0.397593
v -0.396835 0.084909 0.402065
v -0.402663 0.057493 0.397593
v -0.418586 0.037422 0.385375
v -0.440337 0.030076 0.368685
v -0.462088 0.037422 0.351995
v -0.478011 0.057493 0.339777
v -0.503763 0.084909 0.365123
v -0.497401 0.112326 0.368797
v -0.480020 0.132396 0.378832
v -0.456276 0.139743 0.392540
v -0.432533 0.132396 0.406248
v -0.415151 0.112326 0.416284
v -0.408789 0.084909 0.419957
v -0.415151 0.057493 0.416284
v -0.432533 0.037422 0.406248
v -0.456276 0.030076 0.392540
v -0.480020 0.037422 0.378832
v -0.497401 0.057493 0.368797
v -0.519625 0.084909 0.397288
v -0.512838 0.112326 0.400099
v -0.494295 0.132396 0.407780
v -0.468966 0.139743 0.418271
v -0.443636 0.132396 0.428763
v -0.425093 0.112326 0.436444
v -0.418306 0.084909 0.439255
v -0.425093 0.057493 0.436444
v -0.443636 0.037422 0.428763
v -0.468966 0.030076 0.418271
v -0.494295 0.037422 0.407780
v -0.512838 0.057493 0.400099
v -0.531153 0.084909 0.431247
v -0.524057 0.112326 0.433149
v -0.504670 0.132396 0.438343
v -0.478188 0.139743 0.445439
v -0.451705 0.132396 0.452535
v -0.432319 0.112326 0.457730
v -0.425223 0.084909 0.459631
v -0.432319 0.057493 0.457730
v -0.451705 0.037422 0.452535
v -0.478188 0.030076 0.445439
v -0.504670 0.037422 0.438343
v -0.524057 0.057493 0.433149
v -0.538149 0.084909 0.466421
v -0.530866 0.112326 0.467380
v -0.510967 0.132396 0.469999
v -0.483785 0.139743 0.473578
v -0.456603 0.132396 0.477156
v -0.436704 0.112326 0.479776
v -0.429421 0.084909 0.480735
v -0.436704 0.057493 0.479776
v -0.456603 0.037422 0.477156
v -0.483785 0.030076 0.473578
v -0.510967 0.037422 0.469999
v -0.530866 0.057493 0.467380
v -0.540495 0.084909 0.502207
v -0.533148 0.112326 0.502207
v -0.513078 0.132396 0.502207
v -0.485661 0.139743 0.502207
v -0.458245 0.132396 0.502207
v -0.438174 0.112326 0.502207
v -0.430828 0.084909 0.502207
v -0.438174 0.057493 0.502207
v -0.458245 0.037422 0.502207
v -0.485661 0.030076 0.502207
v -0.513078 0.037422 0.502207
v -0.533148 0.057493 0.502207
v -0.538149 0.084909 0.537992
v -0.530866 0.112326 0.537034
v -0.510967 0.132396 0.534414
v -0.483785 0.139743 0.530835
v -0.456603 0.132396 0.527257
v -0.436704 0.112326 0.524637
v -0.429421 0.084909 0.523678
v -0.436704 0.057493 0.524637
v -0.456603 0.037422 0.527257
v -0.483785 0.030076 0.530835
v -0.510967 0.037422 0.534414
v -0.530866 0.057493 0.537034
v -0.531153 0.084909 0.573166
v -0.524057 0.112326 0.571265
v -0.504670 0.132396 0.566070
v -0.478188 0.139743 0.558974
v -0.451705 0.132396 0.551878
v -0.432319 0.112326 0.546684
v -0.425223 0.084909 0.544782
v -0.432319 0.057493 0.546684
v -0.451705 0.037422 0.551878
v -0.478188 0.030076 0.558974
v -0.504670 0.037422 0.566070
v -0.524057 0.057493 0.571265
v -0.519625 0.084909 0.607125
v -0.512838 0.112326 0.604314
v -0.494295 0.132396 0.596633
v -0.468966 0.139743 0.586142
v -0.443636 0.132396 0.575650
v -0.425093 0.112326 0.567969
v -0.418306 0.084909 0.565158
v -0.425093 0.057493 0.567969
v -0.443636 0.037422 0.575650
v -0.468966 0.030076 0.586142
v -0.494295 0.037422 0.596633
v -0.512838 0.057493 0.604314
v -0.503763 0.084909 0.639290
v -0.497401 0.112326 0.635616
v -0.480020 0.132396 0.625581
v -0.456276 0.139743 0.611873
v -0.432533 0.132396 0.598165
v -0.415151 0.112326 0.588130
v -0.408789 0.084909 0.584456
v -0.415151 0.057493 0.588130
v -0.432533 0.037422 0.598165
v -0.456276 0.030076 0.611873
v -0.480020 0.037422 0.625581
v -0.497401 0.057493 0.635616
v -0.483839 0.084909 0.669108
v -0.478011 0.112326 0.664636
v -0.462088 0.132396 0.652418
v -0.440337 0.139743 0.635728
v -0.418586 0.132396 0.619038
v -0.402663 0.112326 0.606820
v -0.396835 0.084909 0.602348
v -0.402663 0.057493 0.606820
v -0.418586 0.037422 0.619038
v -0.440337 0.030076 0.635728
v -0.462088 0.037422 0.652418
v -0.478011 0.057493 0.664636
v -0.460193 0.084909 0.696071
v -0.454999 0.112326 0.690877
v -0.440807 0.132396 0.676685
v -0.421420 0.139743 0.657298
v -0.402034 0.132396 0.637912
v -0.387842 0.112326 0.623720
v -0.382647 0.084909 0.618525
v -0.387842 0.057493 0.623720
v -0.402034 0.037422 0.637912
v -0.421420 0.030076 0.657298
v -0.440807 0.037422 0.676685
v -0.454999 0.057493 0.690877
v -0.433230 0.084909 0.719717
v -0.428758 0.112326 0.713889
v -0.416540 0.132396 0.697966
v -0.399850 0.139743 0.676215
v -0.383160 0.132396 0.654464
v -0.370942 0.112326 0.638541
v -0.366470 0.084909 0.632713
v -0.370942 0.057493 0.638541
v -0.383160 0.037422 0.654464
v -0.399850 0.030076 0.676215
v -0.416540 0.037422 0.697966
v -0.428758 0.057493 0.713889
v -0.403411 0.084909 0.739642
v -0.399738 0.112326 0.733279
v -0.389703 0.132396 0.715898
v -0.375995 0.139743 0.692155
v -0.362287 0.132396 0.668411
v -0.352251 0.112326 0.651030
v -0.348578 0.084909 0.644668
v -0.352251 0.057493 0.651030
v -0.362287 0.037422 0.668411
v -0.375995 0.030076 0.692155
v -0.389703 0.037422 0.715898
v -0.399738 0.057493 0.733279
v -0.371247 0.084909 0.755503
v -0.368436 0.112326 0.748716
v -0.360755 0.132396 0.730173
v -0.350263 0.139743 0.704844
v -0.339772 0.132396 0.679514
v -0.332091 0.112326 0.660972
v -0.329280 0.084909 0.654185
v -0.332091 0.057493 0.660972
v -0.339772 0.037422 0.679514
v -0.350263 0.030076 0.704844
v -0.360755 0.037422 0.730173
v -0.368436 0.057493 0.748716
v -0.337288 0.084909 0.767031
v -0.335387 0.112326 0.759935
v -0.330192 0.132396 0.740548
v -0.323096 0.139743 0.714066
v -0.316000 0.132396 0.687584
v -0.310805 0.112326 0.668197
v -0.308904 0.084909 0.661101
v -0.310805 0.057493 0.668197
v -0.316000 0.037422 0.687584
v -0.323096 0.030076 0.714066
v -0.330192 0.037422 0.740548
v -0.335387 0.057493 0.759935
v -0.302114 0.084909 0.774027
v -0.301156 0.112326 0.766744
v -0.298536 0.132396 0.746845
v -0.294957 0.139743 0.719663
v -0.291379 0.132396 0.692481
v -0.288759 0.112326 0.672582
v -0.287800 0.084909 0.665299
v -0.288759 0.057493 0.672582
v -0.291379 0.037422 0.692481
v -0.294957 0.030076 0.719663
v -0.298536 0.037422 0.746845
v -0.301156 0.057493 0.766744
v -0.266328 0.084909 0.776373
v -0.266328 0.112326 0.769027
v -0.266328 0.132396 0.748956
v -0.266328 0.139743 0.721540
v -0.266328 0.132396 0.694123
v -0.266328 0.112326 0.674053
v -0.266328 0.084909 0.666706
v -0.266328 0.057493 0.674053
v -0.266328 0.037422 0.694123
v -0.266328 0.030076 0.721540
v -0.266328 0.037422 0.748956
v -0.266328 0.057493 0.769027
v -0.230543 0.084909 0.774027
v -0.231501 0.112326 0.766744
v -0.234121 0.132396 0.746845
v -0.237700 0.139743 0.719663
v -0.241278 0.132396 0.692481
v -0.243898 0.112326 0.672582
v -0.244857 0.084909 0.665299
v -0.243898 0.057493 0.672582
v -0.241278 0.037422 0.692481
v -0.237700 0.030076 0.719663
v -0.234121 0.037422 0.746845
v -0.231501 0.057493 0.766744
v -0.195369 0.084909 0.767031
v -0.197270 0.112326 0.759935
v -0.202465 0.132396 0.740548
v -0.209561 0.139743 0.714066
v -0.216657 0.132396 0.687584
v -0.221851 0.112326 0.668197
v -0.223753 0.084909 0.661101
v -0.221851 0.057493 0.668197
v -0.216657 0.037422 0.687584
v -0.209561 0.030076 0.714066
v -0.202465 0.037422 0.740548
v -0.197270 0.057493 0.759935
v -0.161409 0.084909 0.755503
v -0.164221 0.112326 0.748716
v -0.171901 0.132396 0.730173
v -0.182393 0.139743 0.704844
v -0.192885 0.132396 0.679514
v -0.200566 0.112326 0.660972
v -0.203377 0.084909 0.654185
v -0.200566 0.057493 0.660972
v -0.192885 0.037422 0.679514
v -0.182393 0.030076 0.704844
v -0.171901 0.037422 0.730173
v -0.164221 0.057493 0.748716
v -0.129245 0.084909 0.739641
v -0.132918 0.112326 0.733279
v -0.142954 0.132396 0.715898
v -0.156662 0.139743 0.692155
v -0.170370 0.132396 0.668411
v -0.180405 0.112326 0.651030
v -0.184078 0.084909 0.644668
v -0.180405 0.057493 0.651030
v -0.170370 0.037422 0.668411
v -0.156662 0.030076 0.692155
v -0.142954 0.037422 0.715898
v -0.132918 0.057493 0.733279
v -0.099427 0.084909 0.719717
v -0.103899 0.112326 0.713889
v -0.116117 0.132396 0.697966
v -0.132807 0.139743 0.676215
v -0.149497 0.132396 0.654464
v -0.161715 0.112326 0.638541
v -0.166187 0.084909 0.632713
v -0.161715 0.057493 0.638541
v -0.149497 0.037422 0.654464
v -0.132807 0.030076 0.676215
v -0.116117 0.037422 0.697966
v -0.103899 0.057493 0.713889
v -0.072464 0.084909 0.696072
v -0.077658 0.112326 0.690877
v -0.091850 0.132396 0.676685
v -0.111237 0.139743 0.657299
v -0.130623 0.132396 0.637912
v -0.144815 0.112326 0.623720
v -0.150010 0.084909 0.618526
v -0.144815 0.057493 0.623720
v -0.130623 0.037422 0.637912
v -0.111237 0.030076 0.657299
v -0.091850 0.037422 0.676685
v -0.077658 0.057493 0.690877
v -0.048818 0.084909 0.669108
v -0.054646 0.112326 0.664636
v -0.070569 0.132396 0.652418
v -0.092320 0.139743 0.635728
v -0.114071 0.132396 0.619038
v -0.129994 0.112326 0.606820
v -0.135822 0.084909 0.602348
v -0.129994 0.057493 0.606820
v -0.114071 0.037422 0.619038
v -0.092320 0.030076 0.635728
v -0.070569 0.037422 0.652418
v -0.054646 0.057493 0.664636
v -0.028893 0.084909 0.639290
v -0.035256 0.112326 0.635617
v -0.052637 0.132396 0.625581
v -0.076380 0.139743 0.611873
v -0.100124 0.132396 0.598165
v -0.117505 0.112326 0.588130
v -0.123867 0.084909 0.584456
v -0.117505 0.057493 0.588130
v -0.100124 0.037422 0.598165
v -0.076380 0.030076 0.611873
v -0.052637 0.037422 0.625581
v -0.035256 0.057493 0.635617
v -0.013032 0.084909 0.607126
v -0.019819 0.112326 0.604314
v -0.038361 0.132396 0.596634
v -0.063691 0.139743 0.586142
v -0.089021 0.132396 0.575650
v -0.107563 0.112326 0.567969
v -0.114350 0.084909 0.565158
v -0.107563 0.057493 0.567969
v -0.089021 0.037422 0.575650
v -0.063691 0.030076 0.586142
v -0.038361 0.037422 0.596634
v -0.019819 0.057493 0.604314
v -0.001504 0.084909 0.573166
v -0.008600 0.112326 0.571265
v -0.027987 0.132396 0.566070
v -0.054469 0.139743 0.558974
v -0.080951 0.132396 0.551878
v -0.100338 0.112326 0.546684
v -0.107434 0.084909 0.544782
v -0.100338 0.057493 0.546684
v -0.080951 0.037422 0.551878
v -0.054469 0.030076 0.558974
v -0.027987 0.037422 0.566070
v -0.008600 0.057493 0.571265
v 0.005492 0.084909 0.537992
v -0.001791 0.112326 0.537034
v -0.021690 0.132396 0.534414
v -0.048872 0.139743 0.530835
v -0.076054 0.132396 0.527257
v -0.095953 0.112326 0.524637
v -0.103236 0.084909 0.523678
v -0.095953 0.057493 0.524637
v -0.076054 0.037422 0.527257
v -0.048872 0.030076 0.530835
v -0.021690 0.037422 0.534414
v -0.001791 0.057493 0.537034
vn 1.0000 -0.0000 -0.0000
vn 0.8687 0.4954 -0.0000
vn 0.5080 0.8614 -0.0000
vn 0.0108 0.9999 -0.0000
vn -0.4918 0.8707 -0.0000
vn -0.8633 0.5047 -0.0000
vn -1.0000 -0.0000 -0.0000
vn -0.8633 -0.5047 -0.0000
vn -0.4918 -0.8707 -0.0000
vn 0.0108 -0.9999 -0.0000
vn 0.5080 -0.8614 -0.0000
vn 0.8687 -0.4954 -0.0000
vn 0.9914 -0.0000 -0.1305
vn 0.8612 0.4954 -0.1134
vn 0.5036 0.8614 -0.0663
vn 0.0107 0.9999 -0.0014
vn -0.4876 0.8707 0.0642
vn -0.8559 0.5047 0.1127
vn -0.9914 -0.0000 0.1305
vn -0.8559 -0.5047 0.1127
vn -0.4876 -0.8707 0.0642
vn 0.0107 -0.9999 -0.0014
vn 0.5036 -0.8614 -0.0663
vn 0.8612 -0.4954 -0.1134
vn 0.9659 -0.0000 -0.2588
vn 0.8391 0.4954 -0.2248
vn 0.4907 0.8614 -0.1315
vn 0.0104 0.9999 -0.0028
vn -0.4751 0.8707 0.1273
vn -0.8339 0.5047 0.2234
vn -0.9659 -0.0000 0.2588
vn -0.8339 -0.5047 0.2234
vn -0.4751 -0.8707 0.1273
vn 0.0104 -0.9999 -0.0028
vn 0.4907 -0.8614 -0.1315
vn 0.8391 -0.4954 -0.2248
vn 0.9239 -0.0000 -0.3827
vn 0.8025 0.4954 -0.3324
vn 0.4693 0.8614 -0.1944
vn 0.0100 0.9999 -0.0041
vn -0.4544 0.8707 0.1882
vn -0.7976 0.5047 0.3304
vn -0.9239 -0.0000 0.3827
vn -0.7976 -0.5047 0.3304
vn -0.4544 -0.8707 0.1882
vn 0.0100 -0.9999 -0.0041
vn 0.4693 -0.8614 -0.1944
vn 0.8025 -0.4954 -0.3324
vn 0.8660 -0.0000 -0.5000
vn 0.7523 0.4954 -0.4343
vn 0.4399 0.8614 -0.2540
vn 0.0093 0.9999 -0.0054
vn -0.4259 0.8707 0.2459
vn -0.7476 0.5047 0.4316
vn -0.8660 -0.0000 0.5000
vn -0.7476 -0.5047 0.4316
vn -0.4259 -0.8707 0.2459
vn 0.0093 -0.9999 -0.0054
vn 0.4399 -0.8614 -0.2540
vn 0.7523 -0.4954 -0.4343
vn 0.7934 -0.0000 -0.6088
vn 0.6892 0.4954 -0.5288
vn 0.4030 0.8614 -0.3092
vn 0.0085 0.9999 -0.0066
vn -0.3902 0.8707 0.2994
vn -0.6849 0.5047 0.5255
vn -0.7934 -0.0000 0.6088
vn -0.6849 -0.5047 0.5255
vn -0.3902 -0.8707 0.2994
vn 0.0085 -0.9999 -0.0066
vn 0.4030 -0.8614 -0.3092
vn 0.6892 -0.4954 -0.5288
vn 0.7071 -0.0000 -0.7071
vn 0.6142 0.4954 -0.6142
vn 0.3592 0.8614 -0.3592
vn 0.0076 0.9999 -0.0076
vn -0.3478 0.8707 0.3478
vn -0.6104 0.5047 0.6104
vn -0.7071 -0.0000 0.7071
vn -0.6104 -0.5047 0.6104
vn -0.3478 -0.8707 0.3478
vn 0.0076 -0.9999 -0.0076
vn 0.3592 -0.8614 -0.3592
vn 0.6142 -0.4954 -0.6142
vn 0.6088 -0.0000 -0.7934
vn 0.5288 0.4954 -0.6892
vn 0.3092 0.8614 -0.4030
vn 0.0066 0.9999 -0.0085
vn -0.2994 0.8707 0.3902
vn -0.5255 0.5047 0.6849
vn -0.6088 -0.0000 0.7934
vn -0.5255 -0.5047 0.6849
vn -0.2994 -0.8707 0.3902
vn 0.0066 -0.9999 -0.0085
vn 0.3092 -0.8614 -0.4030
vn 0.5288 -0.4954 -0.6892
vn 0.5000 -0.0000 -0.8660
vn 0.4343 0.4954 -0.7523
vn 0.2540 0.8614 -0.4399
vn 0.0054 0.9999 -0.0093
vn -0.2459 0.8707 0.4259
vn -0.4316 0.5047 0.7476
vn -0.5000 -0.0000 0.8660
vn -0.4316 -0.5047 0.7476
vn -0.2459 -0.8707 0.4259
vn 0.0054 -0.9999 -0.0093
vn 0.2540 -0.8614 -0.4399
vn 0.4343 -0.4954 -0.7523
vn 0.3827 -0.0000 -0.9239
vn 0.3324 0.4954 -0.8025
vn 0.1944 0.8614 -0.4693
vn 0.0041 0.9999 -0.0100
vn -0.1882 0.8707 0.4544
vn -0.3304 0.5047 0.7976
vn -0.3827 -0.0000 0.9239
vn -0.3304 -0.5047 0.7976
vn -0.1882 -0.8707 0.4544
vn 0.0041 -0.9999 -0.0100
vn 0.1944 -0.8614 -0.4693
vn 0.3324 -0.4954 -0.8025
vn 0.2588 -0.0000 -0.9659
vn 0.2248 0.4954 -0.8391
vn 0.1315 0.8614 -0.4907
vn 0.0028 0.9999 -0.0104
vn -0.1273 0.8707 0.4751
vn -0.2234 0.5047 0.8339
vn -0.2588 -0.0000 0.9659
vn -0.2234 -0.5047 0.8339
vn -0.1273 -0.8707 0.4751
vn 0.0028 -0.9999 -0.0104
vn 0.1315 -0.8614 -0.4907
vn 0.2248 -0.4954 -0.8391
vn 0.1305 -0.0000 -0.9914
vn 0.1134 0.4954 -0.8612
vn 0.0663 0.8614 -0.5036
vn 0.0014 0.9999 -0.0107
vn -0.0642 0.8707 0.4876
vn -0.1127 0.5047 0.8559
vn -0.1305 -0.0000 0.9914
vn -0.1127 -0.5047 0.8559
vn -0.0642 -0.8707 0.4876
vn 0.0014 -0.9999 -0.0107
vn 0.0663 -0.8614 -0.5036
vn 0.1134 -0.4954 -0.8612
vn -0.0000 -0.0000 -1.0000
vn -0.0000 0.4954 -0.8687
vn -0.0000 0.8614 -0.5080
vn -0.0000 0.9999 -0.0108
vn -0.0000 0.8707 0.4918
vn -0.0000 0.5047 0.8633
vn -0.0000 -0.0000 1.0000
vn -0.0000 -0.5047 0.8633
vn -0.0000 -0.8707 0.4918
vn -0.0000 -0.9999 -0.0108
vn -0.0000 -0.8614 -0.5080
vn -0.0000 -0.4954 -0.8687
vn -0.1305 -0.0000 -0.9914
vn -0.1134 0.4954 -0.8612
vn -0.0663 0.8614 -0.5036
vn -0.0014 0.9999 -0.0107
vn 0.0642 0.8707 0.4876
vn 0.1127 0.5047 0.8559
vn 0.1305 -0.0000 0.9914
vn 0.1127 -0.5047 0.8559
vn 0.0642 -0.8707 0.4876
vn -0.0014 -0.9999 -0.0107
vn -0.0663 -0.8614 -0.5036
vn -0.1134 -0.4954 -0.8612
vn -0.2588 -0.0000 -0.9659
vn -0.2248 0.4954 -0.8391
vn -0.1315 0.8614 -0.4907
vn -0.0028 0.9999 -0.0104
vn 0.1273 0.8707 0.4751
vn 0.2234 0.5047 0.8339
vn 0.2588 -0.0000 0.9659
vn 0.2234 -0.5047 0.8339
vn 0.1273 -0.8707 0.4751
vn -0.0028 -0.9999 -0.0104
vn -0.1315 -0.8614 -0.4907
vn -0.2248 -0.4954 -0.8391
vn -0.3827 -0.0000 -0.9239
vn -0.3324 0.4954 -0.8025
vn -0.1944 0.8614 -0.4693
vn -0.0041 0.9999 -0.0100
vn 0.1882 0.8707 0.4544
vn 0.3304 0.5047 0.7976
vn 0.3827 -0.0000 0.9239
vn 0.3304 -0.5047 0.7976
vn 0.1882 -0.8707 0.4544
vn -0.0041 -0.9999 -0.0100
vn -0.1944 -0.8614 -0.4693
vn -0.3324 -0.4954 -0.8025
vn -0.5000 -0.0000 -0.8660
vn -0.4343 0.4954 -0.7523
vn -0.2540 0.8614 -0.4399
vn -0.0054 0.9999 -0.0093
vn 0.2459 0.8707 0.4259
vn 0.4316 0.5047 0.7476
vn 0.5000 -0.0000 0.8660
vn 0.4316 -0.5047 0.7476
vn 0.2459 -0.8707 0.4259
vn -0.0054 -0.9999 -0.0093
vn -0.2540 -0.8614 -0.4399
vn -0.4343 -0.4954 -0.7523
vn -0.6088 -0.0000 -0.7934
vn -0.5288 0.4954 -0.6892
vn -0.3092 0.8614 -0.4030
vn -0.0066 0.9999 -0.0085
vn 0.2994 0.8707 0.3902
vn 0.5255 0.5047 0.6849
vn 0.6088 -0.0000 0.7934
vn 0.5255 -0.5047 0.6849
vn 0.2994 -0.8707 0.3902
vn -0.0066 -0.9999 -0.0085
vn -0.3092 -0.8614 -0.4030
vn -0.5288 -0.4954 -0.6892
vn -0.7071 -0.0000 -0.7071
vn -0.6142 0.4954 -0.6142
vn -0.3592 0.8614 -0.3592
vn -0.0076 0.9999 -0.0076
vn 0.3478 0.8707 0.3478
vn 0.6104 0.5047 0.6104
vn 0.7071 -0.0000 0.7071
vn 0.6104 -0.5047 0.6104
vn 0.3478 -0.8707 0.3478
vn -0.0076 -0.9999 -0.0076
vn -0.3592 -0.8614 -0.3592
vn -0.6142 -0.4954 -0.6142
vn -0.7934 -0.0000 -0.6088
vn -0.6892 0.4954 -0.5288
vn -0.4030 0.8614 -0.3092
vn -0.0085 0.9999 -0.0066
vn 0.3902 0.8707 0.2994
vn 0.6849 0.5047 0.5255
vn 0.7934 -0.0000 0.6088
vn 0.6849 -0.5047 0.5255
vn 0.3902 -0.8707 0.2994
vn -0.0085 -0.9999 -0.0066
vn -0.4030 -0.8614 -0.3092
vn -0.6892 -0.4954 -0.5288
vn -0.8660 -0.0000 -0.5000
vn -0.7523 0.4954 -0.4343
vn -0.4399 0.8614 -0.2540
vn -0.0093 0.9999 -0.0054
vn 0.4259 0.8707 0.2459
vn 0.7476 0.5047 0.4316
vn 0.8660 -0.0000 0.5000
vn 0.7476 -0.5047 0.4316
vn 0.4259 -0.8707 0.2459
vn -0.0093 -0.9999 -0.0054
vn -0.4399 -0.8614 -0.2540
vn -0.7523 -0.4954 -0.4343
vn -0.9239 -0.0000 -0.3827
vn -0.8025 0.4954 -0.3324
vn -0.4693 0.8614 -0.1944
vn -0.0100 0.9999 -0.0041
vn 0.4544 0.8707 0.1882
vn 0.7976 0.5047 0.3304
vn 0.9239 -0.0000 0.3827
vn 0.7976 -0.5047 0.3304
vn 0.4544 -0.8707 0.1882
vn -0.0100 -0.9999 -0.0041
vn -0.4693 -0.8614 -0.1944
vn -0.8025 -0.4954 -0.3324
vn -0.9659 -0.0000 -0.2588
vn -0.8391 0.4954 -0.2248
vn -0.4907 0.8614 -0.1315
vn -0.0104 0.9999 -0.0028
vn 0.4751 0.8707 0.1273
vn 0.8339 0.5047 0.2234
vn 0.9659 -0.0000 0.2588
vn 0.8339 -0.5047 0.2234
vn 0.4751 -0.8707 0.1273
vn -0.0104 -0.9999 -0.0028
vn -0.4907 -0.8614 -0.1315
vn -0.8391 -0.4954 -0.2248
vn -0.9914 -0.0000 -0.1305
vn -0.8612 0.4954 -0.1134
vn -0.5036 0.8614 -0.0663
vn -0.0107 0.9999 -0.0014
vn 0.4876 0.8707 0.0642
vn 0.8559 0.5047 0.1127
vn 0.9914 -0.0000 0.1305
vn 0.8559 -0.5047 0.1127
vn 0.4876 -0.8707 0.0642
vn -0.0107 -0.9999 -0.0014
vn -0.5036 -0.8614 -0.0663
vn -0.8612 -0.4954 -0.1134
vn -0.8687 0.4954 -0.0000
vn -0.5080 0.8614 -0.0000
vn -0.0108 0.9999 -0.0000
vn 0.4918 0.8707 -0.0000
vn 0.8633 0.5047 -0.0000
vn 0.8633 -0.5047 -0.0000
vn 0.4918 -0.8707 -0.0000
vn -0.0108 -0.9999 -0.0000
vn -0.5080 -0.8614 -0.0000
vn -0.8687 -0.4954 -0.0000
vn -0.8612 0.4954 0.1134
vn -0.5036 0.8614 0.0663
vn -0.0107 0.9999 0.0014
vn 0.4876 0.8707 -0.0642
vn 0.8559 0.5047 -0.1127
vn 0.8559 -0.5047 -0.1127
vn 0.4876 -0.8707 -0.0642
vn -0.0107 -0.9999 0.0014
vn -0.5036 -0.8614 0.0663
vn -0.8612 -0.4954 0.1134
vn -0.8391 0.4954 0.2248
vn -0.4907 0.8614 0.1315
vn -0.0104 0.9999 0.0028
vn 0.4751 0.8707 -0.1273
vn 0.8339 0.5047 -0.2234
vn 0.8339 -0.5047 -0.2234
vn 0.4751 -0.8707 -0.1273
vn -0.0104 -0.9999 0.0028
vn -0.4907 -0.8614 0.1315
vn -0.8391 -0.4954 0.2248
vn -0.8025 0.4954 0.3324
vn -0.4693 0.8614 0.1944
vn -0.0100 0.9999 0.0041
vn 0.4544 0.8707 -0.1882
vn 0.7976 0.5047 -0.3304
vn 0.7976 -0.5047 -0.3304
vn 0.4544 -0.8707 -0.1882
vn -0.0100 -0.9999 0.0041
vn -0.4693 -0.8614 0.1944
vn -0.8025 -0.4954 0.3324
vn -0.7523 0.4954 0.4343
vn -0.4399 0.8614 0.2540
vn -0.0093 0.9999 0.0054
vn 0.4259 0.8707 -0.2459
vn 0.7476 0.5047 -0.4316
vn 0.7476 -0.5047 -0.4316
vn 0.4259 -0.8707 -0.2459
vn -0.0093 -0.9999 0.0054
vn -0.4399 -0.8614 0.2540
vn -0.7523 -0.4954 0.4343
vn -0.6892 0.4954 0.5288
vn -0.4030 0.8614 0.3092
vn -0.0085 0.9999 0.0066
vn 0.3902 0.8707 -0.2994
vn 0.6849 0.5047 -0.5255
vn 0.6849 -0.5047 -0.5255
vn 0.3902 -0.8707 -0.2994
vn -0.0085 -0.9999 0.0066
vn -0.4030 -0.8614 0.3092
vn -0.6892 -0.4954 0.5288
vn -0.6142 0.4954 0.6142
vn -0.3592 0.8614 0.3592
vn -0.0076 0.9999 0.0076
vn 0.3478 0.8707 -0.3478
vn 0.6104 0.5047 -0.6104
vn 0.6104 -0.5047 -0.6104
vn 0.3478 -0.8707 -0.3478
vn -0.0076 -0.9999 0.0076
vn -0.3592 -0.8614 0.3592
vn -0.6142 -0.4954 0.6142
vn -0.5288 0.4954 0.6892
vn -0.3092 0.8614 0.4030
vn -0.0066 0.9999 0.0085
vn 0.2994 0.8707 -0.3902
vn 0.5255 0.5047 -0.6849
vn 0.5255 -0.5047 -0.6849
vn 0.2994 -0.8707 -0.3902
vn -0.0066 -0.9999 0.0085
vn -0.3092 -0.8614 0.4030
vn -0.5288 -0.4954 0.6892
vn -0.4343 0.4954 0.7523
vn -0.2540 0.8614 0.4399
vn -0.0054 0.9999 0.0093
vn 0.2459 0.8707 -0.4259
vn 0.4316 0.5047 -0.7476
vn 0.4316 -0.5047 -0.7476
vn 0.2459 -0.8707 -0.4259
vn -0.0054 -0.9999 0.0093
vn -0.2540 -0.8614 0.4399
vn -0.4343 -0.4954 0.7523
vn -0.3324 0.4954 0.8025
vn -0.1944 0.8614 0.4693
vn -0.0041 0.9999 0.0100
vn 0.1882 0.8707 -0.4544
vn 0.3304 0.5047 -0.7976
vn 0.3304 -0.5047 -0.7976
vn 0.1882 -0.8707 -0.4544
vn -0.0041 -0.9999 0.0100
vn -0.1944 -0.8614 0.4693
vn -0.3324 -0.4954 0.8025
vn -0.2248 0.4954 0.8391
vn -0.1315 0.8614 0.4907
vn -0.0028 0.9999 0.0104
vn 0.1273 0.8707 -0.4751
vn 0.2234 0.5047 -0.8339
vn 0.2234 -0.5047 -0.8339
vn 0.1273 -0.8707 -0.4751
vn -0.0028 -0.9999 0.0104
vn -0.1315 -0.8614 0.4907
vn -0.2248 -0.4954 0.8391
vn -0.1134 0.4954 0.8612
vn -0.0663 0.8614 0.5036
vn -0.0014 0.9999 0.0107
vn 0.0642 0.8707 -0.4876
vn 0.1127 0.5047 -0.8559
vn 0.1127 -0.5047 -0.8559
vn 0.0642 -0.8707 -0.4876
vn -0.0014 -0.9999 0.0107
vn -0.0663 -0.8614 0.5036
vn -0.1134 -0.4954 0.8612
vn -0.0000 0.4954 0.8687
vn -0.0000 0.8614 0.5080
vn -0.0000 0.9999 0.0108
vn -0.0000 0.8707 -0.4918
vn -0.0000 0.5047 -0.8633
vn -0.0000 -0.5047 -0.8633
vn -0.0000 -0.8707 -0.4918
vn -0.0000 -0.9999 0.0108
vn -0.0000 -0.8614 0.5080
vn -0.0000 -0.4954 0.8687
vn 0.1134 0.4954 0.8612
vn 0.0663 0.8614 0.5036
vn 0.0014 0.9999 0.0107
vn -0.0642 0.8707 -0.4876
vn -0.1127 0.5047 -0.8559
vn -0.1127 -0.5047 -0.8559
vn -0.0642 -0.8707 -0.4876
vn 0.0014 -0.9999 0.0107
vn 0.0663 -0.8614 0.5036
vn 0.1134 -0.4954 0.8612
vn 0.2248 0.4954 0.8391
vn 0.1315 0.8614 0.4907
vn 0.0028 0.9999 0.0104
vn -0.1273 0.8707 -0.4751
vn -0.2234 0.5047 -0.8339
vn -0.2234 -0.5047 -0.8339
vn -0.1273 -0.8707 -0.4751
vn 0.0028 -0.9999 0.0104
vn 0.1315 -0.8614 0.4907
vn 0.2248 -0.4954 0.8391
vn 0.3324 0.4954 0.8025
vn 0.1944 0.8614 0.4693
vn 0.0041 0.9999 0.0100
vn -0.1882 0.8707 -0.4544
vn -0.3304 0.5047 -0.7976
vn -0.3304 -0.5047 -0.7976
vn -0.1882 -0.8707 -0.4544
vn 0.0041 -0.9999 0.0100
vn 0.1944 -0.8614 0.4693
vn 0.3324 -0.4954 0.8025
vn 0.4343 0.4954 0.7523
vn 0.2540 0.8614 0.4399
vn 0.0054 0.9999 0.0093
vn -0.2459 0.8707 -0.4259
vn -0.4316 0.5047 -0.7476
vn -0.4316 -0.5047 -0.7476
vn -0.2459 -0.8707 -0.4259
vn 0.0054 -0.9999 0.0093
vn 0.2540 -0.8614 0.4399
vn 0.4343 -0.4954 0.7523
vn 0.5288 0.4954 0.6892
vn 0.3092 0.8614 0.4030
vn 0.0066 0.9999 0.0085
vn -0.2994 0.8707 -0.3902
vn -0.5255 0.5047 -0.6849
vn -0.5255 -0.5047 -0.6849
vn -0.2994 -0.8707 -0.3902
vn 0.0066 -0.9999 0.0085
vn 0.3092 -0.8614 0.4030
vn 0.5288 -0.4954 0.6892
vn 0.6142 0.4954 0.6142
vn 0.3592 0.8614 0.3592
vn 0.0076 0.9999 0.0076
vn -0.3478 0.8707 -0.3478
vn -0.6104 0.5047 -0.6104
vn -0.6104 -0.5047 -0.6104
vn -0.3478 -0.8707 -0.3478
vn 0.0076 -0.9999 0.0076
vn 0.3592 -0.8614 0.3592
vn 0.6142 -0.4954 0.6142
vn 0.6892 0.4954 0.5288
vn 0.4030 0.8614 0.3092
vn 0.0085 0.9999 0.0066
vn -0.3902 0.8707 -0.2994
vn -0.6849 0.5047 -0.5255
vn -0.6849 -0.5047 -0.5255
vn -0.3902 -0.8707 -0.2994
vn 0.0085 -0.9999 0.0066
vn 0.4030 -0.8614 0.3092
vn 0.6892 -0.4954 0.5288
vn 0.7523 0.4954 0.4343
vn 0.4399 0.8614 0.2540
vn 0.0093 0.9999 0.0054
vn -0.4259 0.8707 -0.2459
vn -0.7476 0.5047 -0.4316
vn -0.7476 -0.5047 -0.4316
vn -0.4259 -0.8707 -0.2459
vn 0.0093 -0.9999 0.0054
vn 0.4399 -0.8614 0.2540
vn 0.7523 -0.4954 0.4343
vn 0.8025 0.4954 0.3324
vn 0.4693 0.8614 0.1944
vn 0.0100 0.9999 0.0041
vn -0.4544 0.8707 -0.1882
vn -0.7976 0.5047 -0.3304
vn -0.7976 -0.5047 -0.3304
vn -0.4544 -0.8707 -0.1882
vn 0.0100 -0.9999 0.0041
vn 0.4693 -0.8614 0.1944
vn 0.8025 -0.4954 0.3324
vn 0.8391 0.4954 0.2248
vn 0.4907 0.8614 0.1315
vn 0.0104 0.9999 0.0028
vn -0.4751 0.8707 -0.1273
vn -0.8339 0.5047 -0.2234
vn -0.8339 -0.5047 -0.2234
vn -0.4751 -0.8707 -0.1273
vn 0.0104 -0.9999 0.0028
vn 0.4907 -0.8614 0.1315
vn 0.8391 -0.4954 0.2248
vn 0.8612 0.4954 0.1134
vn 0.5036 0.8614 0.0663
vn 0.0107 0.9999 0.0014
vn -0.4876 0.8707 -0.0642
vn -0.8559 0.5047 -0.1127
vn -0.8559 -0.5047 -0.1127
vn -0.4876 -0.8707 -0.0642
vn 0.0107 -0.9999 0.0014
vn 0.5036 -0.8614 0.0663
vn 0.8612 -0.4954 0.1134
vt 0.500000 0.500000
vt 0.520833 0.500000
vt 0.520833 0.583333
vt 0.500000 0.583333
vt 0.520833 0.666667
vt 0.500000 0.666667
vt 0.520833 0.750000
vt 0.500000 0.750000
vt 0.520833 0.833333
vt 0.500000 0.833333
vt 0.520833 0.916667
vt 0.500000 0.916667
vt 0.520833 1.000000
vt 0.500000 1.000000
vt 0.500000 0.000000
vt 0.520833 0.000000
vt 0.520833 0.083333
vt 0.500000 0.083333
vt 0.520833 0.166667
vt 0.500000 0.166667
vt 0.520833 0.250000
vt 0.500000 0.250000
vt 0.520833 0.333333
vt 0.500000 0.333333
vt 0.520833 0.416667
vt 0.500000 0.416667
vt 0.541667 0.500000
vt 0.541667 0.583333
vt 0.541667 0.666667
vt 0.541667 0.750000
vt 0.541667 0.833333
vt 0.541667 0.916667
vt 0.541667 1.000000
vt 0.541667 0.000000
vt 0.541667 0.083333
vt 0.541667 0.166667
vt 0.541667 0.250000
vt 0.541667 0.333333
vt 0.541667 0.416667
vt 0.562500 0.500000
vt 0.562500 0.583333
vt 0.562500 0.666667
vt 0.562500 0.750000
vt 0.562500 0.833333
vt 0.562500 0.916667
vt 0.562500 1.000000
vt 0.562500 0.000000
vt 0.562500 0.083333
vt 0.562500 0.166667
vt 0.562500 0.250000
vt 0.562500 0.333333
vt 0.562500 0.416667
vt 0.583333 0.500000
vt 0.583333 0.583333
vt 0.583333 0.666667
vt 0.583333 0.750000
vt 0.583333 0.833333
vt 0.583333 0.916667
vt 0.583333 1.000000
vt 0.583333 0.000000
vt 0.583333 0.083333
vt 0.583333 0.166667
vt 0.583333 0.250000
vt 0.583333 0.333333
vt 0.583333 0.416667
vt 0.604167 0.500000
vt 0.604167 0.583333
vt 0.604167 0.666667
vt 0.604167 0.750000
vt 0.604167 0.833333
vt 0.604167 0.916667
vt 0.604167 1.000000
vt 0.604167 0.000000
vt 0.604167 0.083333
vt 0.604167 0.166667
vt 0.604167 0.250000
vt 0.604167 0.333333
vt 0.604167 0.416667
vt 0.625000 0.500000
vt 0.625000 0.583333
vt 0.625000 0.666667
vt 0.625000 0.750000
vt 0.625000 0.833333
vt 0.625000 0.916667
vt 0.625000 1.000000
vt 0.625000 0.000000
vt 0.625000 0.083333
vt 0.625000 0.166667
vt 0.625000 0.250000
vt 0.625000 0.333333
vt 0.625000 0.416667
vt 0.645833 0.500000
vt 0.645833 0.583333
vt 0.645833 0.666667
vt 0.645833 0.750000
vt 0.645833 0.833333
vt 0.645833 0.916667
vt 0.645833 1.000000
vt 0.645833 0.000000
vt 0.645833 0.083333
vt 0.645833 0.166667
vt 0.645833 0.250000
vt 0.645833 0.333333
vt 0.645833 0.416667
vt 0.666667 0.500000
vt 0.666667 0.583333
vt 0.666667 0.666667
vt 0.666667 0.750000
vt 0.666667 0.833333
vt 0.666667 0.916667
vt 0.666667 1.000000
vt 0.666667 0.000000
vt 0.666667 0.083333
vt 0.666667 0.166667
vt 0.666667 0.250000
vt 0.666667 0.333333
vt 0.666667 0.416667
vt 0.687500 0.500000
vt 0.687500 0.583333
vt 0.687500 0.666667
vt 0.687500 0.750000
vt 0.687500 0.833333
vt 0.687500 0.916667
vt 0.687500 1.000000
vt 0.687500 0.000000
vt 0.687500 0.083333
vt 0.687500 0.166667
vt 0.687500 0.250000
vt 0.687500 0.333333
vt 0.687500 0.416667
vt 0.708333 0.500000
vt 0.708333 0.583333
vt 0.708333 0.666667
vt 0.708333 0.750000
vt 0.708333 0.833333
vt 0.708333 0.916667
vt 0.708333 1.000000
vt 0.708333 0.000000
vt 0.708333 0.083333
vt 0.708333 0.166667
vt 0.708333 0.250000
vt 0.708333 0.333333
vt 0.708333 0.416667
vt 0.729167 0.500000
vt 0.729167 0.583333
vt 0.729167 0.666667
vt 0.729167 0.750000
vt 0.729167 0.833333
vt 0.729167 0.916667
vt 0.729167 1.000000
vt 0.729167 0.000000
vt 0.729167 0.083333
vt 0.729167 0.166667
vt 0.729167 0.250000
vt 0.729167 0.333333
vt 0.729167 0.416667
vt 0.750000 0.500000
vt 0.750000 0.583333
vt 0.750000 0.666667
vt 0.750000 0.750000
vt 0.750000 0.833333
vt 0.750000 0.916667
vt 0.750000 1.000000
vt 0.750000 0.000000
vt 0.750000 0.083333
vt 0.750000 0.166667
vt 0.750000 0.250000
vt 0.750000 0.333333
vt 0.750000 0.416667
vt 0.770833 0.500000
vt 0.770833 0.583333
vt 0.770833 0.666667
vt 0.770833 0.750000
vt 0.770833 0.833333
vt 0.770833 0.916667
vt 0.770833 1.000000
vt 0.770833 0.000000
vt 0.770833 0.083333
vt 0.770833 0.166667
vt 0.770833 0.250000
vt 0.770833 0.333333
vt 0.770833 0.416667
vt 0.791667 0.500000
vt 0.791667 0.583333
vt 0.791667 0.666667
vt 0.791667 0.750000
vt 0.791667 0.833333
vt 0.791667 0.916667
vt 0.791667 1.000000
vt 0.791667 0.000000
vt 0.791667 0.083333
vt 0.791667 0.166667
vt 0.791667 0.250000
vt 0.791667 0.333333
vt 0.791667 0.416667
vt 0.812500 0.500000
vt 0.812500 0.583333
vt 0.812500 0.666667
vt 0.812500 0.750000
vt 0.812500 0.833333
vt 0.812500 0.916667
vt 0.812500 1.000000
vt 0.812500 0.000000
vt 0.812500 0.083333
vt 0.812500 0.166667
vt 0.812500 0.250000
vt 0.812500 0.333333
vt 0.812500 0.416667
vt 0.833333 0.500000
vt 0.833333 0.583333
vt 0.833333 0.666667
vt 0.833333 0.750000
vt 0.833333 0.833333
vt 0.833333 0.916667
vt 0.833333 1.000000
vt 0.833333 0.000000
vt 0.833333 0.083333
vt 0.833333 0.166667
vt 0.833333 0.250000
vt 0.833333 0.333333
vt 0.833333 0.416667
vt 0.854167 0.500000
vt 0.854167 0.583333
vt 0.854167 0.666667
vt 0.854167 0.750000
vt 0.854167 0.833333
vt 0.854167 0.916667
vt 0.854167 1.000000
vt 0.854167 0.000000
vt 0.854167 0.083333
vt 0.854167 0.166667
vt 0.854167 0.250000
vt 0.854167 0.333333
vt 0.854167 0.416667
vt 0.875000 0.500000
vt 0.875000 0.583333
vt 0.875000 0.666667
vt 0.875000 0.750000
vt 0.875000 0.833333
vt 0.875000 0.916667
vt 0.875000 1.000000
vt 0.875000 0.000000
vt 0.875000 0.083333
vt 0.875000 0.166667
vt 0.875000 0.250000
vt 0.875000 0.333333
vt 0.875000 0.416667
vt 0.895833 0.500000
vt 0.895833 0.583333
vt 0.895833 0.666667
vt 0.895833 0.750000
vt 0.895833 0.833333
vt 0.895833 0.916667
vt 0.895833 1.000000
vt 0.895833 0.000000
vt 0.895833 0.083333
vt 0.895833 0.166667
vt 0.895833 0.250000
vt 0.895833 0.333333
vt 0.895833 0.416667
vt 0.916667 0.500000
vt 0.916667 0.583333
vt 0.916667 0.666667
vt 0.916667 0.750000
vt 0.916667 0.833333
vt 0.916667 0.916667
vt 0.916667 1.000000
vt 0.916667 0.000000
vt 0.916667 0.083333
vt 0.916667 0.166667
vt 0.916667 0.250000
vt 0.916667 0.333333
vt 0.916667 0.416667
vt 0.937500 0.500000
vt 0.937500 0.583333
vt 0.937500 0.666667
vt 0.937500 0.750000
vt 0.937500 0.833333
vt 0.937500 0.916667
vt 0.937500 1.000000
vt 0.937500 0.000000
vt 0.937500 0.083333
vt 0.937500 0.166667
vt 0.937500 0.250000
vt 0.937500 0.333333
vt 0.937500 0.416667
vt 0.958333 0.500000
vt 0.958333 0.583333
vt 0.958333 0.666667
vt 0.958333 0.750000
vt 0.958333 0.833333
vt 0.958333 0.916667
vt 0.958333 1.000000
vt 0.958333 0.000000
vt 0.958333 0.083333
vt 0.958333 0.166667
vt 0.958333 0.250000
vt 0.958333 0.333333
vt 0.958333 0.416667
vt 0.979167 0.500000
vt 0.979167 0.583333
vt 0.979167 0.666667
vt 0.979167 0.750000
vt 0.979167 0.833333
vt 0.979167 0.916667
vt 0.979167 1.000000
vt 0.979167 0.000000
vt 0.979167 0.083333
vt 0.979167 0.166667
vt 0.979167 0.250000
vt 0.979167 0.333333
vt 0.979167 0.416667
vt 1.000000 0.500000
vt 1.000000 0.583333
vt 1.000000 0.666667
vt 1.000000 0.750000
vt 1.000000 0.833333
vt 1.000000 0.916667
vt 1.000000 1.000000
vt 1.000000 0.000000
vt 1.000000 0.083333
vt 1.000000 0.166667
vt 1.000000 0.250000
vt 1.000000 0.333333
vt 1.000000 0.416667
vt 0.000000 0.500000
vt 0.020833 0.500000
vt 0.020833 0.583333
vt 0.000000 0.583333
vt 0.020833 0.666667
vt 0.000000 0.666667
vt 0.020833 0.750000
vt 0.000000 0.750000
vt 0.020833 0.833333
vt 0.000000 0.833333
vt 0.020833 0.916667
vt 0.000000 0.916667
vt 0.020833 1.000000
vt 0.000000 1.000000
vt 0.000000 0.000000
vt 0.020833 0.000000
vt 0.020833 0.083333
vt 0.000000 0.083333
vt 0.020833 0.166667
vt 0.000000 0.166667
vt 0.020833 0.250000
vt 0.000000 0.250000
vt 0.020833 0.333333
vt 0.000000 0.333333
vt 0.020833 0.416667
vt 0.000000 0.416667
vt 0.041667 0.500000
vt 0.041667 0.583333
vt 0.041667 0.666667
vt 0.041667 0.750000
vt 0.041667 0.833333
vt 0.041667 0.916667
vt 0.041667 1.000000
vt 0.041667 0.000000
vt 0.041667 0.083333
vt 0.041667 0.166667
vt 0.041667 0.250000
vt 0.041667 0.333333
vt 0.041667 0.416667
vt 0.062500 0.500000
vt 0.062500 0.583333
vt 0.062500 0.666667
vt 0.062500 0.750000
vt 0.062500 0.833333
vt 0.062500 0.916667
vt 0.062500 1.000000
vt 0.062500 0.000000
vt 0.062500 0.083333
vt 0.062500 0.166667
vt 0.062500 0.250000
vt 0.062500 0.333333
vt 0.062500 0.416667
vt 0.083333 0.500000
vt 0.083333 0.583333
vt 0.083333 0.666667
vt 0.083333 0.750000
vt 0.083333 0.833333
vt 0.083333 0.916667
vt 0.083333 1.000000
vt 0.083333 0.000000
vt 0.083333 0.083333
vt 0.083333 0.166667
vt 0.083333 0.250000
vt 0.083333 0.333333
vt 0.083333 0.416667
vt 0.104167 0.500000
vt 0.104167 0.583333
vt 0.104167 0.666667
vt 0.104167 0.750000
vt 0.104167 0.833333
vt 0.104167 0.916667
vt 0.104167 1.000000
vt 0.104167 0.000000
vt 0.104167 0.083333
vt 0.104167 0.166667
vt 0.104167 0.250000
vt 0.104167 0.333333
vt 0.104167 0.416667
vt 0.125000 0.500000
vt 0.125000 0.583333
vt 0.125000 0.666667
vt 0.125000 0.750000
vt 0.125000 0.833333
vt 0.125000 0.916667
vt 0.125000 1.000000
vt 0.125000 0.000000
vt 0.125000 0.083333
vt 0.125000 0.166667
vt 0.125000 0.250000
vt 0.125000 0.333333
vt 0.125000 0.416667
vt 0.145833 0.500000
vt 0.145833 0.583333
vt 0.145833 0.666667
vt 0.145833 0.750000
vt 0.145833 0.833333
vt 0.145833 0.916667
vt 0.145833 1.000000
vt 0.145833 0.000000
vt 0.145833 0.083333
vt 0.145833 0.166667
vt 0.145833 0.250000
vt 0.145833 0.333333
vt 0.145833 0.416667
vt 0.166667 0.500000
vt 0.166667 0.583333
vt 0.166667 0.666667
vt 0.166667 0.750000
vt 0.166667 0.833333
vt 0.166667 0.916667
vt 0.166667 1.000000
vt 0.166667 0.000000
vt 0.166667 0.083333
vt 0.166667 0.166667
vt 0.166667 0.250000
vt 0.166667 0.333333
vt 0.166667 0.416667
vt 0.187500 0.500000
vt 0.187500 0.583333
vt 0.187500 0.666667
vt 0.187500 0.750000
vt 0.187500 0.833333
vt 0.187500 0.916667
vt 0.187500 1.000000
vt 0.187500 0.000000
vt 0.187500 0.083333
vt 0.187500 0.166667
vt 0.187500 0.250000
vt 0.187500 0.333333
vt 0.187500 0.416667
vt 0.208333 0.500000
vt 0.208333 0.583333
vt 0.208333 0.666667
vt 0.208333 0.750000
vt 0.208333 0.833333
vt 0.208333 0.916667
vt 0.208333 1.000000
vt 0.208333 0.000000
vt 0.208333 0.083333
vt 0.208333 0.166667
vt 0.208333 0.250000
vt 0.208333 0.333333
vt 0.208333 0.416667
vt 0.229167 0.500000
vt 0.229167 0.583333
vt 0.229167 0.666667
vt 0.229167 0.750000
vt 0.229167 0.833333
vt 0.229167 0.916667
vt 0.229167 1.000000
vt 0.229167 0.000000
vt 0.229167 0.083333
vt 0.229167 0.166667
vt 0.229167 0.250000
vt 0.229167 0.333333
vt 0.229167 0.416667
vt 0.250000 0.500000
vt 0.250000 0.583333
vt 0.250000 0.666667
vt 0.250000 0.750000
vt 0.250000 0.833333
vt 0.250000 0.916667
vt 0.250000 1.000000
vt 0.250000 0.000000
vt 0.250000 0.083333
vt 0.250000 0.166667
vt 0.250000 0.250000
vt 0.250000 0.333333
vt 0.250000 0.416667
vt 0.270833 0.500000
vt 0.270833 0.583333
vt 0.270833 0.666667
vt 0.270833 0.750000
vt 0.270833 0.833333
vt 0.270833 0.916667
vt 0.270833 1.000000
vt 0.270833 0.000000
vt 0.270833 0.083333
vt 0.270833 0.166667
vt 0.270833 0.250000
vt 0.270833 0.333333
vt 0.270833 0.416667
vt 0.291667 0.500000
vt 0.291667 0.583333
vt 0.291667 0.666667
vt 0.291667 0.750000
vt 0.291667 0.833333
vt 0.291667 0.916667
vt 0.291667 1.000000
vt 0.291667 0.000000
vt 0.291667 0.083333
vt 0.291667 0.166667
vt 0.291667 0.250000
vt 0.291667 0.333333
vt 0.291667 0.416667
vt 0.312500 0.500000
vt 0.312500 0.583333
vt 0.312500 0.666667
vt 0.312500 0.750000
vt 0.312500 0.833333
vt 0.312500 0.916667
vt 0.312500 1.000000
vt 0.312500 0.000000
vt 0.312500 0.083333
vt 0.312500 0.166667
vt 0.312500 0.250000
vt 0.312500 0.333333
vt 0.312500 0.416667
vt 0.333333 0.500000
vt 0.333333 0.583333
vt 0.333333 0.666667
vt 0.333333 0.750000
vt 0.333333 0.833333
vt 0.333333 0.916667
vt 0.333333 1.000000
vt 0.333333 0.000000
vt 0.333333 0.083333
vt 0.333333 0.166667
vt 0.333333 0.250000
vt 0.333333 0.333333
vt 0.333333 0.416667
vt 0.354167 0.500000
vt 0.354167 0.583333
vt 0.354167 0.666667
vt 0.354167 0.750000
vt 0.354167 0.833333
vt 0.354167 0.916667
vt 0.354167 1.000000
vt 0.354167 0.000000
vt 0.354167 0.083333
vt 0.354167 0.166667
vt 0.354167 0.250000
vt 0.354167 0.333333
vt 0.354167 0.416667
vt 0.375000 0.500000
vt 0.375000 0.583333
vt 0.375000 0.666667
vt 0.375000 0.750000
vt 0.375000 0.833333
vt 0.375000 0.916667
vt 0.375000 1.000000
vt 0.375000 0.000000
vt 0.375000 0.083333
vt 0.375000 0.166667
vt 0.375000 0.250000
vt 0.375000 0.333333
vt 0.375000 0.416667
vt 0.395833 0.500000
vt 0.395833 0.583333
vt 0.395833 0.666667
vt 0.395833 0.750000
vt 0.395833 0.833333
vt 0.395833 0.916667
vt 0.395833 1.000000
vt 0.395833 0.000000
vt 0.395833 0.083333
vt 0.395833 0.166667
vt 0.395833 0.250000
vt 0.395833 0.333333
vt 0.395833 0.416667
vt 0.416667 0.500000
vt 0.416667 0.583333
vt 0.416667 0.666667
vt 0.416667 0.750000
vt 0.416667 0.833333
vt 0.416667 0.916667
vt 0.416667 1.000000
vt 0.416667 0.000000
vt 0.416667 0.083333
vt 0.416667 0.166667
vt 0.416667 0.250000
vt 0.416667 0.333333
vt 0.416667 0.416667
vt 0.437500 0.500000
vt 0.437500 0.583333
vt 0.437500 0.666667
vt 0.437500 0.750000
vt 0.437500 0.833333
vt 0.437500 0.916667
vt 0.437500 1.000000
vt 0.437500 0.000000
vt 0.437500 0.083333
vt 0.437500 0.166667
vt 0.437500 0.250000
vt 0.437500 0.333333
vt 0.437500 0.416667
vt 0.458333 0.500000
vt 0.458333 0.583333
vt 0.458333 0.666667
vt 0.458333 0.750000
vt 0.458333 0.833333
vt 0.458333 0.916667
vt 0.458333 1.000000
vt 0.458333 0.000000
vt 0.458333 0.083333
vt 0.458333 0.166667
vt 0.458333 0.250000
vt 0.458333 0.333333
vt 0.458333 0.416667
vt 0.479167 0.500000
vt 0.479167 0.583333
vt 0.479167 0.666667
vt 0.479167 0.750000
vt 0.479167 0.833333
vt 0.479167 0.916667
vt 0.479167 1.000000
vt 0.479167 0.000000
vt 0.479167 0.083333
vt 0.479167 0.166667
vt 0.479167 0.250000
vt 0.479167 0.333333
vt 0.479167 0.416667
s 1
usemtl kagi
f 97/187/59 109/188/71 110/189/72 98/190/60
f 98/190/60 110/189/72 111/191/73 99/192/61
f 99/192/61 111/191/73 112/193/74 100/194/62
f 100/194/62 112/193/74 113/195/75 101/196/63
f 101/196/63 113/195/75 114/197/76 102/198/64
f 102/198/64 114/197/76 115/199/77 103/200/65
f 103/201/65 115/202/77 116/203/78 104/204/66
f 104/204/66 116/203/78 117/205/79 105/206/67
f 105/206/67 117/205/79 118/207/80 106/208/68
f 106/208/68 118/207/80 119/209/81 107/210/69
f 107/210/69 119/209/81 120/211/82 108/212/70
f 108/212/70 120/211/82 109/188/71 97/187/59
f 109/188/71 121/213/83 122/214/84 110/189/72
f 110/189/72 122/214/84 123/215/85 111/191/73
f 111/191/73 123/215/85 124/216/86 112/193/74
f 112/193/74 124/216/86 125/217/87 113/195/75
f 113/195/75 125/217/87 126/218/88 114/197/76
f 114/197/76 126/218/88 127/219/89 115/199/77
f 115/202/77 127/220/89 128/221/90 116/203/78
f 116/203/78 128/221/90 129/222/91 117/205/79
f 117/205/79 129/222/91 130/223/92 118/207/80
f 118/207/80 130/223/92 131/224/93 119/209/81
f 119/209/81 131/224/93 132/225/94 120/211/82
f 120/211/82 132/225/94 121/213/83 109/188/71
f 121/213/83 133/226/95 134/227/96 122/214/84
f 122/214/84 134/227/96 135/228/97 123/215/85
f 123/215/85 135/228/97 136/229/98 124/216/86
f 124/216/86 136/229/98 137/230/99 125/217/87
f 125/217/87 137/230/99 138/231/100 126/218/88
f 126/218/88 138/231/100 139/232/101 127/219/89
f 127/220/89 139/233/101 140/234/102 128/221/90
f 128/221/90 140/234/102 141/235/103 129/222/91
f 129/222/91 141/235/103 142/236/104 130/223/92
f 130/223/92 142/236/104 143/237/105 131/224/93
f 131/224/93 143/237/105 144/238/106 132/225/94
f 132/225/94 144/238/106 133/226/95 121/213/83
f 133/226/95 145/239/107 146/240/108 134/227/96
f 134/227/96 146/240/108 147/241/109 135/228/97
f 135/228/97 147/241/109 148/242/110 136/229/98
f 136/229/98 148/242/110 149/243/111 137/230/99
f 137/230/99 149/243/111 150/244/112 138/231/100
f 138/231/100 150/244/112 151/245/113 139/232/101
f 139/233/101 151/246/113 152/247/114 140/234/102
f 140/234/102 152/247/114 153/248/115 141/235/103
f 141/235/103 153/248/115 154/249/116 142/236/104
f 142/236/104 154/249/116 155/250/117 143/237/105
f 143/237/105 155/250/117 156/251/118 144/238/106
f 144/238/106 156/251/118 145/239/107 133/226/95
f 145/239/107 157/252/119 158/253/120 146/240/108
f 146/240/108 158/253/120 159/254/121 147/241/109
f 147/241/109 159/254/121 160/255/122 148/242/110
f 148/242/110 160/255/122 161/256/123 149/243/111
f 149/243/111 161/256/123 162/257/124 150/244/112
f 150/244/112 162/257/124 163/258/125 151/245/113
f 151/246/113 163/259/125 164/260/126 152/247/114
f 152/247/114 164/260/126 165/261/127 153/248/115
f 153/248/115 165/261/127 166/262/128 154/249/116
f 154/249/116 166/262/128 167/263/129 155/250/117
f 155/250/117 167/263/129 168/264/130 156/251/118
f 156/251/118 168/264/130 157/252/119 145/239/107
f 157/252/119 169/265/131 170/266/132 158/253/120
f 158/253/120 170/266/132 171/267/133 159/254/121
f 159/254/121 171/267/133 172/268/134 160/255/122
f 160/255/122 172/268/134 173/269/135 161/256/123
f 161/256/123 173/269/135 174/270/136 162/257/124
f 162/257/124 174/270/136 175/271/137 163/258/125
f 163/259/125 175/272/137 176/273/138 164/260/126
f 164/260/126 176/273/138 177/274/139 165/261/127
f 165/261/127 177/274/139 178/275/140 166/262/128
f 166/262/128 178/275/140 179/276/141 167/263/129
f 167/263/129 179/276/141 180/277/142 168/264/130
f 168/264/130 180/277/142 169/265/131 157/252/119
f 169/265/131 181/278/143 182/279/144 170/266/132
f 170/266/132 182/279/144 183/280/145 171/267/133
f 171/267/133 183/280/145 184/281/146 172/268/134
f 172/268/134 184/281/146 185/282/147 173/269/135
f 173/269/135 185/282/147 186/283/148 174/270/136
f 174/270/136 186/283/148 187/284/149 175/271/137
f 175/272/137 187/285/149 188/286/150 176/273/138
f 176/273/138 188/286/150 189/287/151 177/274/139
f 177/274/139 189/287/151 190/288/152 178/275/140
f 178/275/140 190/288/152 191/289/153 179/276/141
f 179/276/141 191/289/153 192/290/154 180/277/142
f 180/277/142 192/290/154 181/278/143 169/265/131
f 181/278/143 193/291/155 194/292/156 182/279/144
f 182/279/144 194/292/156 195/293/157 183/280/145
f 183/280/145 195/293/157 196/294/158 184/281/146
f 184/281/146 196/294/158 197/295/159 185/282/147
f 185/282/147 197/295/159 198/296/160 186/283/148
f 186/283/148 198/296/160 199/297/161 187/284/149
f 187/285/149 199/298/161 200/299/162 188/286/150
f 188/286/150 200/299/162 201/300/163 189/287/151
f 189/287/151 201/300/163 202/301/164 190/288/152
f 190/288/152 202/301/164 203/302/165 191/289/153
f 191/289/153 203/302/165 204/303/166 192/290/154
f 192/290/154 204/303/166 193/291/155 181/278/143
f 193/291/155 205/304/167 206/305/168 194/292/156
f 194/292/156 206/305/168 207/306/169 195/293/157
f 195/293/157 207/306/169 208/307/170 196/294/158
f 196/294/158 208/307/170 209/308/171 197/295/159
f 197/295/159 209/308/171 210/309/172 198/296/160
f 198/296/160 210/309/172 211/310/173 199/297/161
f 199/298/161 211/311/173 212/312/174 200/299/162
f 200/299/162 212/312/174 213/313/175 201/300/163
f 201/300/163 213/313/175 214/314/176 202/301/164
f 202/301/164 214/314/176 215/315/177 203/302/165
f 203/302/165 215/315/177 216/316/178 204/303/166
f 204/303/166 216/316/178 205/304/167 193/291/155
f 205/304/167 217/317/179 218/318/180 206/305/168
f 206/305/168 218/318/180 219/319/181 207/306/169
f 207/306/169 219/319/181 220/320/182 208/307/170
f 208/307/170 220/320/182 221/321/183 209/308/171
f 209/308/171 221/321/183 222/322/184 210/309/172
f 210/309/172 222/322/184 223/323/185 211/310/173
f 211/311/173 223/324/185 224/325/186 212/312/174
f 212/312/174 224/325/186 225/326/187 213/313/175
f 213/313/175 225/326/187 226/327/188 214/314/176
f 214/314/176 226/327/188 227/328/189 215/315/177
f 215/315/177 227/328/189 228/329/190 216/316/178
f 216/316/178 228/329/190 217/317/179 205/304/167
f 217/317/179 229/330/191 230/331/192 218/318/180
f 218/318/180 230/331/192 231/332/193 219/319/181
f 219/319/181 231/332/193 232/333/194 220/320/182
f 220/320/182 232/333/194 233/334/195 221/321/183
f 221/321/183 233/334/195 234/335/196 222/322/184
f 222/322/184 234/335/196 235/336/197 223/323/185
f 223/324/185 235/337/197 236/338/198 224/325/186
f 224/325/186 236/338/198 237/339/199 225/326/187
f 225/326/187 237/339/199 238/340/200 226/327/188
f 226/327/188 238/340/200 239/341/201 227/328/189
f 227/328/189 239/341/201 240/342/202 228/329/190
f 228/329/190 240/342/202 229/330/191 217/317/179
f 229/330/191 241/343/203 242/344/204 230/331/192
f 230/331/192 242/344/204 243/345/205 231/332/193
f 231/332/193 243/345/205 244/346/206 232/333/194
f 232/333/194 244/346/206 245/347/207 233/334/195
f 233/334/195 245/347/207 246/348/208 234/335/196
f 234/335/196 246/348/208 247/349/209 235/336/197
f 235/337/197 247/350/209 248/351/210 236/338/198
f 236/338/198 248/351/210 249/352/211 237/339/199
f 237/339/199 249/352/211 250/353/212 238/340/200
f 238/340/200 250/353/212 251/354/213 239/341/201
f 239/341/201 251/354/213 252/355/214 240/342/202
f 240/342/202 252/355/214 241/343/203 229/330/191
f 241/343/203 253/356/215 254/357/216 242/344/204
f 242/344/204 254/357/216 255/358/217 243/345/205
f 243/345/205 255/358/217 256/359/218 244/346/206
f 244/346/206 256/359/218 257/360/219 245/347/207
f 245/347/207 257/360/219 258/361/220 246/348/208
f 246/348/208 258/361/220 259/362/221 247/349/209
f 247/350/209 259/363/221 260/364/222 248/351/210
f 248/351/210 260/364/222 261/365/223 249/352/211
f 249/352/211 261/365/223 262/366/224 250/353/212
f 250/353/212 262/366/224 263/367/225 251/354/213
f 251/354/213 263/367/225 264/368/226 252/355/214
f 252/355/214 264/368/226 253/356/215 241/343/203
f 253/356/215 265/369/227 266/370/228 254/357/216
f 254/357/216 266/370/228 267/371/229 255/358/217
f 255/358/217 267/371/229 268/372/230 256/359/218
f 256/359/218 268/372/230 269/373/231 257/360/219
f 257/360/219 269/373/231 270/374/232 258/361/220
f 258/361/220 270/374/232 271/375/233 259/362/221
f 259/363/221 271/376/233 272/377/234 260/364/222
f 260/364/222 272/377/234 273/378/235 261/365/223
f 261/365/223 273/378/235 274/379/236 262/366/224
f 262/366/224 274/379/236 275/380/237 263/367/225
f 263/367/225 275/380/237 276/381/238 264/368/226
f 264/368/226 276/381/238 265/369/227 253/356/215
f 265/369/227 277/382/239 278/383/240 266/370/228
f 266/370/228 278/383/240 279/384/241 267/371/229
f 267/371/229 279/384/241 280/385/242 268/372/230
f 268/372/230 280/385/242 281/386/243 269/373/231
f 269/373/231 281/386/243 282/387/244 270/374/232
f 270/374/232 282/387/244 283/388/245 271/375/233
f 271/376/233 283/389/245 284/390/246 272/377/234
f 272/377/234 284/390/246 285/391/247 273/378/235
f 273/378/235 285/391/247 286/392/248 274/379/236
f 274/379/236 286/392/248 287/393/249 275/380/237
f 275/380/237 287/393/249 288/394/250 276/381/238
f 276/381/238 288/394/250 277/382/239 265/369/227
f 277/382/239 289/395/251 290/396/252 278/383/240
f 278/383/240 290/396/252 291/397/253 279/384/241
f 279/384/241 291/397/253 292/398/254 280/385/242
f 280/385/242 292/398/254 293/399/255 281/386/243
f 281/386/243 293/399/255 294/400/256 282/387/244
f 282/387/244 294/400/256 295/401/257 283/388/245
f 283/389/245 295/402/257 296/403/258 284/390/246
f 284/390/246 296/403/258 297/404/259 285/391/247
f 285/391/247 297/404/259 298/405/260 286/392/248
f 286/392/248 298/405/260 299/406/261 287/393/249
f 287/393/249 299/406/261 300/407/262 288/394/250
f 288/394/250 300/407/262 289/395/251 277/382/239
f 289/395/251 301/408/263 302/409/264 290/396/252
f 290/396/252 302/409/264 303/410/265 291/397/253
f 291/397/253 303/410/265 304/411/266 292/398/254
f 292/398/254 304/411/266 305/412/267 293/399/255
f 293/399/255 305/412/267 306/413/268 294/400/256
f 294/400/256 306/413/268 307/414/269 295/401/257
f 295/402/257 307/415/269 308/416/270 296/403/258
f 296/403/258 308/416/270 309/417/271 297/404/259
f 297/404/259 309/417/271 310/418/272 298/405/260
f 298/405/260 310/418/272 311/419/273 299/406/261
f 299/406/261 311/419/273 312/420/274 300/407/262
f 300/407/262 312/420/274 301/408/263 289/395/251
f 301/408/263 313/421/275 314/422/276 302/409/264
f 302/409/264 314/422/276 315/423/277 303/410/265
f 303/410/265 315/423/277 316/424/278 304/411/266
f 304/411/266 316/424/278 317/425/279 305/412/267
f 305/412/267 317/425/279 318/426/280 306/413/268
f 306/413/268 318/426/280 319/427/281 307/414/269
f 307/415/269 319/428/281 320/429/282 308/416/270
f 308/416/270 320/429/282 321/430/283 309/417/271
f 309/417/271 321/430/283 322/431/284 310/418/272
f 310/418/272 322/431/284 323/432/285 311/419/273
f 311/419/273 323/432/285 324/433/286 312/420/274
f 312/420/274 324/433/286 313/421/275 301/408/263
f 313/421/275 325/434/287 326/435/288 314/422/276
f 314/422/276 326/435/288 327/436/289 315/423/277
f 315/423/277 327/436/289 328/437/290 316/424/278
f 316/424/278 328/437/290 329/438/291 317/425/279
f 317/425/279 329/438/291 330/439/292 318/426/280
f 318/426/280 330/439/292 331/440/293 319/427/281
f 319/428/281 331/441/293 332/442/294 320/429/282
f 320/429/282 332/442/294 333/443/295 321/430/283
f 321/430/283 333/443/295 334/444/296 322/431/284
f 322/431/284 334/444/296 335/445/297 323/432/285
f 323/432/285 335/445/297 336/446/298 324/433/286
f 324/433/286 336/446/298 325/434/287 313/421/275
f 325/434/287 337/447/299 338/448/300 326/435/288
f 326/435/288 338/448/300 339/449/301 327/436/289
f 327/436/289 339/449/301 340/450/302 328/437/290
f 328/437/290 340/450/302 341/451/303 329/438/291
f 329/438/291 341/451/303 342/452/304 330/439/292
f 330/439/292 342/452/304 343/453/305 331/440/293
f 331/441/293 343/454/305 344/455/306 332/442/294
f 332/442/294 344/455/306 345/456/307 333/443/295
f 333/443/295 345/456/307 346/457/308 334/444/296
f 334/444/296 346/457/308 347/458/309 335/445/297
f 335/445/297 347/458/309 348/459/310 336/446/298
f 336/446/298 348/459/310 337/447/299 325/434/287
f 337/447/299 349/460/311 350/461/312 338/448/300
f 338/448/300 350/461/312 351/462/313 339/449/301
f 339/449/301 351/462/313 352/463/314 340/450/302
f 340/450/302 352/463/314 353/464/315 341/451/303
f 341/451/303 353/464/315 354/465/316 342/452/304
f 342/452/304 354/465/316 355/466/317 343/453/305
f 343/454/305 355/467/317 356/468/318 344/455/306
f 344/455/306 356/468/318 357/469/319 345/456/307
f 345/456/307 357/469/319 358/470/320 346/457/308
f 346/457/308 358/470/320 359/471/321 347/458/309
f 347/458/309 359/471/321 360/472/322 348/459/310
f 348/459/310 360/472/322 349/460/311 337/447/299
f 349/460/311 361/473/323 362/474/324 350/461/312
f 350/461/312 362/474/324 363/475/325 351/462/313
f 351/462/313 363/475/325 364/476/326 352/463/314
f 352/463/314 364/476/326 365/477/327 353/464/315
f 353/464/315 365/477/327 366/478/328 354/465/316
f 354/465/316 366/478/328 367/479/329 355/466/317
f 355/467/317 367/480/329 368/481/330 356/468/318
f 356/468/318 368/481/330 369/482/331 357/469/319
f 357/469/319 369/482/331 370/483/332 358/470/320
f 358/470/320 370/483/332 371/484/333 359/471/321
f 359/471/321 371/484/333 372/485/334 360/472/322
f 360/472/322 372/485/334 361/473/323 349/460/311
f 361/473/323 373/486/335 374/487/336 362/474/324
f 362/474/324 374/487/336 375/488/337 363/475/325
f 363/475/325 375/488/337 376/489/338 364/476/326
f 364/476/326 376/489/338 377/490/339 365/477/327
f 365/477/327 377/490/339 378/491/340 366/478/328
f 366/478/328 378/491/340 379/492/341 367/479/329
f 367/480/329 379/493/341 380/494/342 368/481/330
f 368/481/330 380/494/342 381/495/343 369/482/331
f 369/482/331 381/495/343 382/496/344 370/483/332
f 370/483/332 382/496/344 383/497/345 371/484/333
f 371/484/333 383/497/345 384/498/346 372/485/334
f 372/485/334 384/498/346 373/486/335 361/473/323
f 373/486/335 385/499/65 386/500/347 374/487/336
f 374/487/336 386/500/347 387/501/348 375/488/337
f 375/488/337 387/501/348 388/502/349 376/489/338
f 376/489/338 388/502/349 389/503/350 377/490/339
f 377/490/339 389/503/350 390/504/351 378/491/340
f 378/491/340 390/504/351 391/505/59 379/492/341
f 379/493/341 391/506/59 392/507/352 380/494/342
f 380/494/342 392/507/352 393/508/353 381/495/343
f 381/495/343 393/508/353 394/509/354 382/496/344
f 382/496/344 394/509/354 395/510/355 383/497/345
f 383/497/345 395/510/355 396/511/356 384/498/346
f 384/498/346 396/511/356 385/499/65 373/486/335
f 385/512/65 397/513/77 398/514/357 386/515/347
f 386/515/347 398/514/357 399/516/358 387/517/348
f 387/517/348 399/516/358 400/518/359 388/519/349
f 388/519/349 400/518/359 401/520/360 389/521/350
f 389/521/350 401/520/360 402/522/361 390/523/351
f 390/523/351 402/522/361 403/524/71 391/525/59
f 391/526/59 403/527/71 404/528/362 392/529/352
f 392/529/352 404/528/362 405/530/363 393/531/353
f 393/531/353 405/530/363 406/532/364 394/533/354
f 394/533/354 406/532/364 407/534/365 395/535/355
f 395/535/355 407/534/365 408/536/366 396/537/356
f 396/537/356 408/536/366 397/513/77 385/512/65
f 397/513/77 409/538/89 410/539/367 398/514/357
f 398/514/357 410/539/367 411/540/368 399/516/358
f 399/516/358 411/540/368 412/541/369 400/518/359
f 400/518/359 412/541/369 413/542/370 401/520/360
f 401/520/360 413/542/370 414/543/371 402/522/361
f 402/522/361 414/543/371 415/544/83 403/524/71
f 403/527/71 415/545/83 416/546/372 404/528/362
f 404/528/362 416/546/372 417/547/373 405/530/363
f 405/530/363 417/547/373 418/548/374 406/532/364
f 406/532/364 418/548/374 419/549/375 407/534/365
f 407/534/365 419/549/375 420/550/376 408/536/366
f 408/536/366 420/550/376 409/538/89 397/513/77
f 409/538/89 421/551/101 422/552/377 410/539/367
f 410/539/367 422/552/377 423/553/378 411/540/368
f 411/540/368 423/553/378 424/554/379 412/541/369
f 412/541/369 424/554/379 425/555/380 413/542/370
f 413/542/370 425/555/380 426/556/381 414/543/371
f 414/543/371 426/556/381 427/557/95 415/544/83
f 415/545/83 427/558/95 428/559/382 416/546/372
f 416/546/372 428/559/382 429/560/383 417/547/373
f 417/547/373 429/560/383 430/561/384 418/548/374
f 418/548/374 430/561/384 431/562/385 419/549/375
f 419/549/375 431/562/385 432/563/386 420/550/376
f 420/550/376 432/563/386 421/551/101 409/538/89
f 421/551/101 433/564/113 434/565/387 422/552/377
f 422/552/377 434/565/387 435/566/388 423/553/378
f 423/553/378 435/566/388 436/567/389 424/554/379
f 424/554/379 436/567/389 437/568/390 425/555/380
f 425/555/380 437/568/390 438/569/391 426/556/381
f 426/556/381 438/569/391 439/570/107 427/557/95
f 427/558/95 439/571/107 440/572/392 428/559/382
f 428/559/382 440/572/392 441/573/393 429/560/383
f 429/560/383 441/573/393 442/574/394 430/561/384
f 430/561/384 442/574/394 443/575/395 431/562/385
f 431/562/385 443/575/395 444/576/396 432/563/386
f 432/563/386 444/576/396 433/564/113 421/551/101
f 433/564/113 445/577/125 446/578/397 434/565/387
f 434/565/387 446/578/397 447/579/398 435/566/388
f 435/566/388 447/579/398 448/580/399 436/567/389
f 436/567/389 448/580/399 449/581/400 437/568/390
f 437/568/390 449/581/400 450/582/401 438/569/391
f 438/569/391 450/582/401 451/583/119 439/570/107
f 439/571/107 451/584/119 452/585/402 440/572/392
f 440/572/392 452/585/402 453/586/403 441/573/393
f 441/573/393 453/586/403 454/587/404 442/574/394
f 442/574/394 454/587/404 455/588/405 443/575/395
f 443/575/395 455/588/405 456/589/406 444/576/396
f 444/576/396 456/589/406 445/577/125 433/564/113
f 445/577/125 457/590/137 458/591/407 446/578/397
f 446/578/397 458/591/407 459/592/408 447/579/398
f 447/579/398 459/592/408 460/593/409 448/580/399
f 448/580/399 460/593/409 461/594/410 449/581/400
f 449/581/400 461/594/410 462/595/411 450/582/401
f 450/582/401 462/595/411 463/596/131 451/583/119
f 451/584/119 463/597/131 464/598/412 452/585/402
f 452/585/402 464/598/412 465/599/413 453/586/403
f 453/586/403 465/599/413 466/600/414 454/587/404
f 454/587/404 466/600/414 467/601/415 455/588/405
f 455/588/405 467/601/415 468/602/416 456/589/406
f 456/589/406 468/602/416 457/590/137 445/577/125
f 457/590/137 469/603/149 470/604/417 458/591/407
f 458/591/407 470/604/417 471/605/418 459/592/408
f 459/592/408 471/605/418 472/606/419 460/593/409
f 460/593/409 472/606/419 473/607/420 461/594/410
f 461/594/410 473/607/420 474/608/421 462/595/411
f 462/595/411 474/608/421 475/609/143 463/596/131
f 463/597/131 475/610/143 476/611/422 464/598/412
f 464/598/412 476/611/422 477/612/423 465/599/413
f 465/599/413 477/612/423 478/613/424 466/600/414
f 466/600/414 478/613/424 479/614/425 467/601/415
f 467/601/415 479/614/425 480/615/426 468/602/416
f 468/602/416 480/615/426 469/603/149 457/590/137
f 469/603/149 481/616/161 482/617/427 470/604/417
f 470/604/417 482/617/427 483/618/428 471/605/418
f 471/605/418 483/618/428 484/619/429 472/606/419
f 472/606/419 484/619/429 485/620/430 473/607/420
f 473/607/420 485/620/430 486/621/431 474/608/421
f 474/608/421 486/621/431 487/622/155 475/609/143
f 475/610/143 487/623/155 488/624/432 476/611/422
f 476/611/422 488/624/432 489/625/433 477/612/423
f 477/612/423 489/625/433 490/626/434 478/613/424
f 478/613/424 490/626/434 491/627/435 479/614/425
f 479/614/425 491/627/435 492/628/436 480/615/426
f 480/615/426 492/628/436 481/616/161 469/603/149
f 481/616/161 493/629/173 494/630/437 482/617/427
f 482/617/427 494/630/437 495/631/438 483/618/428
f 483/618/428 495/631/438 496/632/439 484/619/429
f 484/619/429 496/632/439 497/633/440 485/620/430
f 485/620/430 497/633/440 498/634/441 486/621/431
f 486/621/431 498/634/441 499/635/167 487/622/155
f 487/623/155 499/636/167 500/637/442 488/624/432
f 488/624/432 500/637/442 501/638/443 489/625/433
f 489/625/433 501/638/443 502/639/444 490/626/434
f 490/626/434 502/639/444 503/640/445 491/627/435
f 491/627/435 503/640/445 504/641/446 492/628/436
f 492/628/436 504/641/446 493/629/173 481/616/161
f 493/629/173 505/642/185 506/643/447 494/630/437
f 494/630/437 506/643/447 507/644/448 495/631/438
f 495/631/438 507/644/448 508/645/449 496/632/439
f 496/632/439 508/645/449 509/646/450 497/633/440
f 497/633/440 509/646/450 510/647/451 498/634/441
f 498/634/441 510/647/451 511/648/179 499/635/167
f 499/636/167 511/649/179 512/650/452 500/637/442
f 500/637/442 512/650/452 513/651/453 501/638/443
f 501/638/443 513/651/453 514/652/454 502/639/444
f 502/639/444 514/652/454 515/653/455 503/640/445
f 503/640/445 515/653/455 516/654/456 504/641/446
f 504/641/446 516/654/456 505/642/185 493/629/173
f 505/642/185 517/655/197 518/656/457 506/643/447
f 506/643/447 518/656/457 519/657/458 507/644/448
f 507/644/448 519/657/458 520/658/459 508/645/449
f 508/645/449 520/658/459 521/659/460 509/646/450
f 509/646/450 521/659/460 522/660/461 510/647/451
f 510/647/451 522/660/461 523/661/191 511/648/179
f 511/649/179 523/662/191 524/663/462 512/650/452
f 512/650/452 524/663/462 525/664/463 513/651/453
f 513/651/453 525/664/463 526/665/464 514/652/454
f 514/652/454 526/665/464 527/666/465 515/653/455
f 515/653/455 527/666/465 528/667/466 516/654/456
f 516/654/456 528/667/466 517/655/197 505/642/185
f 517/655/197 529/668/209 530/669/467 518/656/457
f 518/656/457 530/669/467 531/670/468 519/657/458
f 519/657/458 531/670/468 532/671/469 520/658/459
f 520/658/459 532/671/469 533/672/470 521/659/460
f 521/659/460 533/672/470 534/673/471 522/660/461
f 522/660/461 534/673/471 535/674/203 523/661/191
f 523/662/191 535/675/203 536/676/472 524/663/462
f 524/663/462 536/676/472 537/677/473 525/664/463
f 525/664/463 537/677/473 538/678/474 526/665/464
f 526/665/464 538/678/474 539/679/475 527/666/465
f 527/666/465 539/679/475 540/680/476 528/667/466
f 528/667/466 540/680/476 529/668/209 517/655/197
f 529/668/209 541/681/221 542/682/477 530/669/467
f 530/669/467 542/682/477 543/683/478 531/670/468
f 531/670/468 543/683/478 544/684/479 532/671/469
f 532/671/469 544/684/479 545/685/480 533/672/470
f 533/672/470 545/685/480 546/686/481 534/673/471
f 534/673/471 546/686/481 547/687/215 535/674/203
f 535/675/203 547/688/215 548/689/482 536/676/472
f 536/676/472 548/689/482 549/690/483 537/677/473
f 537/677/473 549/690/483 550/691/484 538/678/474
f 538/678/474 550/691/484 551/692/485 539/679/475
f 539/679/475 551/692/485 552/693/486 540/680/476
f 540/680/476 552/693/486 541/681/221 529/668/209
f 541/681/221 553/694/233 554/695/487 542/682/477
f 542/682/477 554/695/487 555/696/488 543/683/478
f 543/683/478 555/696/488 556/697/489 544/684/479
f 544/684/479 556/697/489 557/698/490 545/685/480
f 545/685/480 557/698/490 558/699/491 546/686/481
f 546/686/481 558/699/491 559/700/227 547/687/215
f 547/688/215 559/701/227 560/702/492 548/689/482
f 548/689/482 560/702/492 561/703/493 549/690/483
f 549/690/483 561/703/493 562/704/494 550/691/484
f 550/691/484 562/704/494 563/705/495 551/692/485
f 551/692/485 563/705/495 564/706/496 552/693/486
f 552/693/486 564/706/496 553/694/233 541/681/221
f 553/694/233 565/707/245 566/708/497 554/695/487
f 554/695/487 566/708/497 567/709/498 555/696/488
f 555/696/488 567/709/498 568/710/499 556/697/489
f 556/697/489 568/710/499 569/711/500 557/698/490
f 557/698/490 569/711/500 570/712/501 558/699/491
f 558/699/491 570/712/501 571/713/239 559/700/227
f 559/701/227 571/714/239 572/715/502 560/702/492
f 560/702/492 572/715/502 573/716/503 561/703/493
f 561/703/493 573/716/503 574/717/504 562/704/494
f 562/704/494 574/717/504 575/718/505 563/705/495
f 563/705/495 575/718/505 576/719/506 564/706/496
f 564/706/496 576/719/506 565/707/245 553/694/233
f 565/707/245 577/720/257 578/721/507 566/708/497
f 566/708/497 578/721/507 579/722/508 567/709/498
f 567/709/498 579/722/508 580/723/509 568/710/499
f 568/710/499 580/723/509 581/724/510 569/711/500
f 569/711/500 581/724/510 582/725/511 570/712/501
f 570/712/501 582/725/511 583/726/251 571/713/239
f 571/714/239 583/727/251 584/728/512 572/715/502
f 572/715/502 584/728/512 585/729/513 573/716/503
f 573/716/503 585/729/513 586/730/514 574/717/504
f 574/717/504 586/730/514 587/731/515 575/718/505
f 575/718/505 587/731/515 588/732/516 576/719/506
f 576/719/506 588/732/516 577/720/257 565/707/245
f 577/720/257 589/733/269 590/734/517 578/721/507
f 578/721/507 590/734/517 591/735/518 579/722/508
f 579/722/508 591/735/518 592/736/519 580/723/509
f 580/723/509 592/736/519 593/737/520 581/724/510
f 581/724/510 593/737/520 594/738/521 582/725/511
f 582/725/511 594/738/521 595/739/263 583/726/251
f 583/727/251 595/740/263 596/741/522 584/728/512
f 584/728/512 596/741/522 597/742/523 585/729/513
f 585/729/513 597/742/523 598/743/524 586/730/514
f 586/730/514 598/743/524 599/744/525 587/731/515
f 587/731/515 599/744/525 600/745/526 588/732/516
f 588/732/516 600/745/526 589/733/269 577/720/257
f 589/733/269 601/746/281 602/747/527 590/734/517
f 590/734/517 602/747/527 603/748/528 591/735/518
f 591/735/518 603/748/528 604/749/529 592/736/519
f 592/736/519 604/749/529 605/750/530 593/737/520
f 593/737/520 605/750/530 606/751/531 594/738/521
f 594/738/521 606/751/531 607/752/275 595/739/263
f 595/740/263 607/753/275 608/754/532 596/741/522
f 596/741/522 608/754/532 609/755/533 597/742/523
f 597/742/523 609/755/533 610/756/534 598/743/524
f 598/743/524 610/756/534 611/757/535 599/744/525
f 599/744/525 611/757/535 612/758/536 600/745/526
f 600/745/526 612/758/536 601/746/281 589/733/269
f 601/746/281 613/759/293 614/760/537 602/747/527
f 602/747/527 614/760/537 615/761/538 603/748/528
f 603/748/528 615/761/538 616/762/539 604/749/529
f 604/749/529 616/762/539 617/763/540 605/750/530
f 605/750/530 617/763/540 618/764/541 606/751/531
f 606/751/531 618/764/541 619/765/287 607/752/275
f 607/753/275 619/766/287 620/767/542 608/754/532
f 608/754/532 620/767/542 621/768/543 609/755/533
f 609/755/533 621/768/543 622/769/544 610/756/534
f 610/756/534 622/769/544 623/770/545 611/757/535
f 611/757/535 623/770/545 624/771/546 612/758/536
f 612/758/536 624/771/546 613/759/293 601/746/281
f 613/759/293 625/772/305 626/773/547 614/760/537
f 614/760/537 626/773/547 627/774/548 615/761/538
f 615/761/538 627/774/548 628/775/549 616/762/539
f 616/762/539 628/775/549 629/776/550 617/763/540
f 617/763/540 629/776/550 630/777/551 618/764/541
f 618/764/541 630/777/551 631/778/299 619/765/287
f 619/766/287 631/779/299 632/780/552 620/767/542
f 620/767/542 632/780/552 633/781/553 621/768/543
f 621/768/543 633/781/553 634/782/554 622/769/544
f 622/769/544 634/782/554 635/783/555 623/770/545
f 623/770/545 635/783/555 636/784/556 624/771/546
f 624/771/546 636/784/556 625/772/305 613/759/293
f 625/772/305 637/785/317 638/786/557 626/773/547
f 626/773/547 638/786/557 639/787/558 627/774/548
f 627/774/548 639/787/558 640/788/559 628/775/549
f 628/775/549 640/788/559 641/789/560 629/776/550
f 629/776/550 641/789/560 642/790/561 630/777/551
f 630/777/551 642/790/561 643/791/311 631/778/299
f 631/779/299 643/792/311 644/793/562 632/780/552
f 632/780/552 644/793/562 645/794/563 633/781/553
f 633/781/553 645/794/563 646/795/564 634/782/554
f 634/782/554 646/795/564 647/796/565 635/783/555
f 635/783/555 647/796/565 648/797/566 636/784/556
f 636/784/556 648/797/566 637/785/317 625/772/305
f 637/785/317 649/798/329 650/799/567 638/786/557
f 638/786/557 650/799/567 651/800/568 639/787/558
f 639/787/558 651/800/568 652/801/569 640/788/559
f 640/788/559 652/801/569 653/802/570 641/789/560
f 641/789/560 653/802/570 654/803/571 642/790/561
f 642/790/561 654/803/571 655/804/323 643/791/311
f 643/792/311 655/805/323 656/806/572 644/793/562
f 644/793/562 656/806/572 657/807/573 645/794/563
f 645/794/563 657/807/573 658/808/574 646/795/564
f 646/795/564 658/808/574 659/809/575 647/796/565
f 647/796/565 659/809/575 660/810/576 648/797/566
f 648/797/566 660/810/576 649/798/329 637/785/317
f 649/798/329 661/811/341 662/812/577 650/799/567
f 650/799/567 662/812/577 663/813/578 651/800/568
f 651/800/568 663/813/578 664/814/579 652/801/569
f 652/801/569 664/814/579 665/815/580 653/802/570
f 653/802/570 665/815/580 666/816/581 654/803/571
f 654/803/571 666/816/581 667/817/335 655/804/323
f 655/805/323 667/818/335 668/819/582 656/806/572
f 656/806/572 668/819/582 669/820/583 657/807/573
f 657/807/573 669/820/583 670/821/584 658/808/574
f 658/808/574 670/821/584 671/822/585 659/809/575
f 659/809/575 671/822/585 672/823/586 660/810/576
f 660/810/576 672/823/586 661/811/341 649/798/329
f 661/811/341 97/187/59 98/190/60 662/812/577
f 662/812/577 98/190/60 99/192/61 663/813/578
f 663/813/578 99/192/61 100/194/62 664/814/579
f 664/814/579 100/194/62 101/196/63 665/815/580
f 665/815/580 101/196/63 102/198/64 666/816/581
f 666/816/581 102/198/64 103/200/65 667/817/335
f 667/818/335 103/201/65 104/204/66 668/819/582
f 668/819/582 104/204/66 105/206/67 669/820/583
f 669/820/583 105/206/67 106/208/68 670/821/584
f 670/821/584 106/208/68 107/210/69 671/822/585
f 671/822/585 107/210/69 108/212/70 672/823/586
f 672/823/586 108/212/70 97/187/59 661/811/341
