# Blender 4.5.3 LTS
# www.blender.org
mtllib kanaduti.mtl
o 円柱
v 0.000000 8.927580 2.145205
v 0.000000 8.927554 -2.145197
v 0.122441 8.939639 2.145205
v 0.122441 8.939613 -2.145197
v 0.240176 8.975354 2.145204
v 0.240176 8.975328 -2.145197
v 0.348681 9.033351 2.145204
v 0.348681 9.033325 -2.145198
v 0.443787 9.111403 2.145203
v 0.443787 9.111377 -2.145198
v 0.521838 9.206509 2.145203
v 0.521838 9.206483 -2.145199
v 0.579836 9.315014 2.145202
v 0.579836 9.314988 -2.145199
v 0.615550 9.432749 2.145201
v 0.615550 9.432723 -2.145200
v 0.627610 9.555190 2.145201
v 0.627610 9.555163 -2.145201
v 0.615550 9.677630 2.145200
v 0.615550 9.677605 -2.145201
v 0.579836 9.795365 2.145199
v 0.579836 9.795340 -2.145202
v 0.521838 9.903871 2.145199
v 0.521838 9.903845 -2.145203
v 0.443787 9.998977 2.145198
v 0.443787 9.998951 -2.145203
v 0.348681 10.077028 2.145198
v 0.348681 10.077003 -2.145204
v 0.240176 10.135025 2.145197
v 0.240176 10.134999 -2.145204
v 0.122441 10.170740 2.145197
v 0.122441 10.170714 -2.145205
v 0.000000 10.182799 2.145197
v 0.000000 10.182774 -2.145205
v -0.122441 10.170740 2.145197
v -0.122441 10.170714 -2.145205
v -0.240176 10.135025 2.145197
v -0.240176 10.134999 -2.145204
v -0.348681 10.077028 2.145198
v -0.348681 10.077003 -2.145204
v -0.443787 9.998977 2.145198
v -0.443787 9.998951 -2.145203
v -0.521838 9.903871 2.145199
v -0.521838 9.903845 -2.145203
v -0.579836 9.795365 2.145199
v -0.579836 9.795340 -2.145202
v -0.615550 9.677630 2.145200
v -0.615550 9.677605 -2.145201
v -0.627610 9.555190 2.145201
v -0.627610 9.555163 -2.145201
v -0.615550 9.432749 2.145201
v -0.615550 9.432723 -2.145200
v -0.579836 9.315014 2.145202
v -0.579836 9.314988 -2.145199
v -0.521838 9.206509 2.145203
v -0.521838 9.206483 -2.145199
v -0.443787 9.111403 2.145203
v -0.443787 9.111377 -2.145198
v -0.348681 9.033351 2.145204
v -0.348681 9.033325 -2.145198
v -0.240176 8.975354 2.145204
v -0.240176 8.975328 -2.145197
v -0.122441 8.939639 2.145205
v -0.122441 8.939613 -2.145197
v 0.000000 8.927567 0.000004
v 0.122441 8.939627 0.000004
v 0.240176 8.975341 0.000003
v 0.348681 9.033339 0.000003
v 0.443787 9.111390 0.000003
v 0.521838 9.206495 0.000002
v 0.579836 9.315001 0.000001
v 0.615550 9.432736 0.000001
v 0.627610 9.555177 0.000000
v 0.615550 9.677617 -0.000001
v 0.579836 9.795353 -0.000001
v 0.521838 9.903858 -0.000002
v 0.443787 9.998963 -0.000003
v 0.348681 10.077015 -0.000003
v 0.240176 10.135013 -0.000003
v 0.122441 10.170727 -0.000004
v 0.000000 10.182786 -0.000004
v -0.122441 10.170727 -0.000004
v -0.240176 10.135013 -0.000003
v -0.348681 10.077015 -0.000003
v -0.443787 9.998963 -0.000003
v -0.521838 9.903858 -0.000002
v -0.579836 9.795353 -0.000001
v -0.615550 9.677617 -0.000001
v -0.627610 9.555177 0.000000
v -0.615550 9.432736 0.000001
v -0.579836 9.315001 0.000001
v -0.521838 9.206495 0.000002
v -0.443787 9.111390 0.000003
v -0.348681 9.033339 0.000003
v -0.240176 8.975341 0.000003
v -0.122441 8.939627 0.000004
v 0.105568 9.024458 1.072605
v 0.207078 9.055251 1.072604
v 0.300631 9.105256 1.072604
v 0.382631 9.172551 1.072604
v 0.449926 9.254551 1.072603
v 0.499931 9.348104 1.072602
v 0.530724 9.449615 1.072601
v 0.541122 9.555182 1.072601
v 0.530724 9.660749 1.072600
v 0.499931 9.762260 1.072599
v 0.449926 9.855813 1.072599
v 0.382631 9.937813 1.072598
v 0.300631 10.005109 1.072598
v 0.207078 10.055114 1.072597
v 0.105568 10.085906 1.072597
v -0.000000 10.096304 1.072597
v -0.105568 10.085906 1.072597
v -0.207078 10.055114 1.072597
v -0.300631 10.005109 1.072598
v -0.382631 9.937813 1.072598
v -0.449926 9.855813 1.072599
v -0.499931 9.762260 1.072599
v -0.530724 9.660749 1.072600
v -0.541122 9.555182 1.072601
v -0.530724 9.449615 1.072601
v -0.499931 9.348104 1.072602
v -0.449926 9.254551 1.072603
v -0.382631 9.172551 1.072604
v -0.300631 9.105256 1.072604
v -0.207078 9.055251 1.072604
v -0.105568 9.024458 1.072605
v -0.000000 9.014061 1.072605
v 0.122441 8.939636 1.608904
v 0.240176 8.975350 1.608904
v 0.348681 9.033348 1.608904
v 0.443787 9.111400 1.608903
v 0.521838 9.206505 1.608903
v 0.579836 9.315011 1.608902
v 0.615550 9.432746 1.608901
v 0.627610 9.555186 1.608901
v 0.615550 9.677627 1.608900
v 0.579836 9.795362 1.608899
v 0.521838 9.903868 1.608898
v 0.443787 9.998973 1.608898
v 0.348681 10.077024 1.608897
v 0.240176 10.135022 1.608897
v 0.122441 10.170736 1.608897
v 0.000000 10.182796 1.608897
v -0.122441 10.170736 1.608897
v -0.240176 10.135022 1.608897
v -0.348681 10.077024 1.608897
v -0.443787 9.998973 1.608898
v -0.521838 9.903868 1.608898
v -0.579836 9.795362 1.608899
v -0.615550 9.677627 1.608900
v -0.627610 9.555186 1.608901
v -0.615550 9.432746 1.608901
v -0.579836 9.315011 1.608902
v -0.521838 9.206505 1.608903
v -0.443787 9.111400 1.608903
v -0.348681 9.033348 1.608904
v -0.240176 8.975350 1.608904
v -0.122441 8.939636 1.608904
v 0.000000 8.927577 1.608904
v 0.000000 8.927570 0.536304
v 0.122441 8.939630 0.536304
v 0.240176 8.975345 0.536304
v 0.348681 9.033341 0.536303
v 0.443787 9.111393 0.536303
v 0.521838 9.206499 0.536302
v 0.579836 9.315004 0.536302
v 0.615550 9.432739 0.536301
v 0.627610 9.555180 0.536300
v 0.615550 9.677621 0.536299
v 0.579836 9.795356 0.536299
v 0.521838 9.903861 0.536298
v 0.443787 9.998967 0.536298
v 0.348681 10.077018 0.536297
v 0.240176 10.135015 0.536297
v 0.122441 10.170731 0.536296
v 0.000000 10.182790 0.536296
v -0.122441 10.170731 0.536296
v -0.240176 10.135015 0.536297
v -0.348681 10.077018 0.536297
v -0.443787 9.998967 0.536298
v -0.521838 9.903861 0.536298
v -0.579836 9.795356 0.536299
v -0.615550 9.677621 0.536299
v -0.627610 9.555180 0.536300
v -0.615550 9.432739 0.536301
v -0.579836 9.315004 0.536302
v -0.521838 9.206499 0.536302
v -0.443787 9.111393 0.536303
v -0.348681 9.033341 0.536303
v -0.240176 8.975345 0.536304
v -0.122441 8.939630 0.536304
v -0.000000 9.014050 -1.067830
v 0.105568 9.024446 -1.067830
v 0.207078 9.055240 -1.067830
v 0.300631 9.105245 -1.067831
v 0.382631 9.172541 -1.067831
v 0.449926 9.254540 -1.067832
v 0.499931 9.348093 -1.067833
v 0.530724 9.449603 -1.067833
v 0.541122 9.555171 -1.067834
v 0.530724 9.660739 -1.067835
v 0.499931 9.762250 -1.067835
v 0.449926 9.855803 -1.067836
v 0.382631 9.937802 -1.067837
v 0.300631 10.005097 -1.067837
v 0.207078 10.055102 -1.067837
v 0.105568 10.085896 -1.067838
v -0.000000 10.096292 -1.067838
v -0.105568 10.085896 -1.067838
v -0.207078 10.055102 -1.067837
v -0.300631 10.005097 -1.067837
v -0.382631 9.937802 -1.067837
v -0.449926 9.855803 -1.067836
v -0.499931 9.762250 -1.067835
v -0.530724 9.660739 -1.067835
v -0.541122 9.555171 -1.067834
v -0.530724 9.449603 -1.067833
v -0.499931 9.348093 -1.067833
v -0.449926 9.254540 -1.067832
v -0.382631 9.172541 -1.067831
v -0.300631 9.105245 -1.067831
v -0.207078 9.055240 -1.067830
v -0.105568 9.024446 -1.067830
v 0.122441 8.939623 -0.533913
v 0.240176 8.975338 -0.533913
v 0.348681 9.033336 -0.533914
v 0.443787 9.111386 -0.533914
v 0.521838 9.206492 -0.533915
v 0.579836 9.314998 -0.533915
v 0.615550 9.432733 -0.533916
v 0.627610 9.555174 -0.533917
v 0.615550 9.677614 -0.533917
v 0.579836 9.795349 -0.533918
v 0.521838 9.903854 -0.533919
v 0.443787 9.998960 -0.533919
v 0.348681 10.077012 -0.533920
v 0.240176 10.135009 -0.533920
v 0.122441 10.170724 -0.533920
v 0.000000 10.182783 -0.533921
v -0.122441 10.170724 -0.533920
v -0.240176 10.135009 -0.533920
v -0.348681 10.077012 -0.533920
v -0.443787 9.998960 -0.533919
v -0.521838 9.903854 -0.533919
v -0.579836 9.795349 -0.533918
v -0.615550 9.677614 -0.533917
v -0.627610 9.555174 -0.533917
v -0.615550 9.432733 -0.533916
v -0.579836 9.314998 -0.533915
v -0.521838 9.206492 -0.533915
v -0.443787 9.111386 -0.533914
v -0.348681 9.033336 -0.533914
v -0.240176 8.975338 -0.533913
v -0.122441 8.939623 -0.533913
v 0.000000 8.927564 -0.533913
v 0.000000 8.927558 -1.606513
v 0.122441 8.939617 -1.606514
v 0.240176 8.975331 -1.606514
v 0.348681 9.033329 -1.606514
v 0.443787 9.111381 -1.606515
v 0.521838 9.206486 -1.606515
v 0.579836 9.314991 -1.606516
v 0.615550 9.432727 -1.606516
v 0.627610 9.555167 -1.606517
v 0.615550 9.677608 -1.606518
v 0.579836 9.795342 -1.606519
v 0.521838 9.903849 -1.606519
v 0.443787 9.998954 -1.606520
v 0.348681 10.077005 -1.606520
v 0.240176 10.135003 -1.606521
v 0.122441 10.170717 -1.606521
v 0.000000 10.182776 -1.606521
v -0.122441 10.170717 -1.606521
v -0.240176 10.135003 -1.606521
v -0.348681 10.077005 -1.606520
v -0.443787 9.998954 -1.606520
v -0.521838 9.903849 -1.606519
v -0.579836 9.795342 -1.606519
v -0.615550 9.677608 -1.606518
v -0.627610 9.555167 -1.606517
v -0.615550 9.432727 -1.606516
v -0.579836 9.314991 -1.606516
v -0.521838 9.206486 -1.606515
v -0.443787 9.111381 -1.606515
v -0.348681 9.033329 -1.606514
v -0.240176 8.975331 -1.606514
v -0.122441 8.939617 -1.606514
vn -0.0000 -0.9641 0.2657
vn -0.0000 -0.9641 -0.2657
vn 0.1881 -0.9455 0.2657
vn 0.1881 -0.9455 -0.2657
vn 0.3689 -0.8907 0.2657
vn 0.3689 -0.8907 -0.2657
vn 0.5356 -0.8016 0.2657
vn 0.5356 -0.8016 -0.2657
vn 0.6817 -0.6817 0.2657
vn 0.6817 -0.6817 -0.2657
vn 0.8016 -0.5356 0.2657
vn 0.8016 -0.5356 -0.2657
vn 0.8907 -0.3689 0.2657
vn 0.8907 -0.3689 -0.2657
vn 0.9455 -0.1881 0.2657
vn 0.9455 -0.1881 -0.2657
vn 0.9641 -0.0000 0.2657
vn 0.9641 -0.0000 -0.2657
vn 0.9455 0.1881 0.2657
vn 0.9455 0.1881 -0.2657
vn 0.8907 0.3689 0.2657
vn 0.8907 0.3689 -0.2657
vn 0.8016 0.5356 0.2657
vn 0.8016 0.5356 -0.2657
vn 0.6817 0.6817 0.2657
vn 0.6817 0.6817 -0.2657
vn 0.5356 0.8016 0.2657
vn 0.5356 0.8016 -0.2657
vn 0.3689 0.8907 0.2657
vn 0.3689 0.8907 -0.2657
vn 0.1881 0.9455 0.2657
vn 0.1881 0.9455 -0.2657
vn -0.0000 0.9641 0.2657
vn -0.0000 0.9641 -0.2657
vn -0.1881 0.9455 0.2657
vn -0.1881 0.9455 -0.2657
vn -0.3689 0.8907 0.2657
vn -0.3689 0.8907 -0.2657
vn -0.5356 0.8016 0.2657
vn -0.5356 0.8016 -0.2657
vn -0.6817 0.6817 0.2657
vn -0.6817 0.6817 -0.2657
vn -0.8016 0.5356 0.2657
vn -0.8016 0.5356 -0.2657
vn -0.8907 0.3689 0.2657
vn -0.8907 0.3689 -0.2657
vn -0.9455 0.1881 0.2657
vn -0.9455 0.1881 -0.2657
vn -0.9641 -0.0000 0.2657
vn -0.9641 -0.0000 -0.2657
vn -0.9455 -0.1881 0.2657
vn -0.9455 -0.1881 -0.2657
vn -0.8907 -0.3689 0.2657
vn -0.8907 -0.3689 -0.2657
vn -0.8016 -0.5356 0.2657
vn -0.8016 -0.5356 -0.2657
vn -0.6817 -0.6817 0.2657
vn -0.6817 -0.6817 -0.2657
vn -0.5356 -0.8016 0.2657
vn -0.5356 -0.8016 -0.2657
vn -0.3689 -0.8907 0.2657
vn -0.3689 -0.8907 -0.2657
vn -0.1881 -0.9455 0.2657
vn -0.1881 -0.9455 -0.2657
vn -0.0000 -1.0000 -0.0000
vn 0.1951 -0.9808 -0.0000
vn 0.3827 -0.9239 -0.0000
vn 0.5556 -0.8315 -0.0000
vn 0.7071 -0.7071 -0.0000
vn 0.8315 -0.5556 -0.0000
vn 0.9239 -0.3827 -0.0000
vn 0.9808 -0.1951 -0.0000
vn 1.0000 -0.0000 -0.0000
vn 0.9808 0.1951 -0.0000
vn 0.9239 0.3827 -0.0000
vn 0.8315 0.5556 -0.0000
vn 0.7071 0.7071 -0.0000
vn 0.5556 0.8315 -0.0000
vn 0.3827 0.9239 -0.0000
vn 0.1951 0.9808 -0.0000
vn -0.0000 1.0000 -0.0000
vn -0.1951 0.9808 -0.0000
vn -0.3827 0.9239 -0.0000
vn -0.5556 0.8315 -0.0000
vn -0.7071 0.7071 -0.0000
vn -0.8315 0.5556 -0.0000
vn -0.9239 0.3827 -0.0000
vn -0.9808 0.1951 -0.0000
vn -1.0000 -0.0000 -0.0000
vn -0.9808 -0.1951 -0.0000
vn -0.9239 -0.3827 -0.0000
vn -0.8315 -0.5556 -0.0000
vn -0.7071 -0.7071 -0.0000
vn -0.5556 -0.8315 -0.0000
vn -0.3827 -0.9239 -0.0000
vn -0.1951 -0.9808 -0.0000
vn 0.1946 -0.9781 -0.0739
vn 0.3816 -0.9214 -0.0739
vn 0.5541 -0.8292 -0.0739
vn 0.7052 -0.7052 -0.0739
vn 0.8292 -0.5541 -0.0739
vn 0.9214 -0.3816 -0.0739
vn 0.9781 -0.1946 -0.0739
vn 0.9973 -0.0000 -0.0739
vn 0.9781 0.1946 -0.0739
vn 0.9214 0.3816 -0.0739
vn 0.8292 0.5541 -0.0739
vn 0.7052 0.7052 -0.0739
vn 0.5541 0.8292 -0.0739
vn 0.3816 0.9214 -0.0739
vn 0.1946 0.9781 -0.0739
vn -0.0000 0.9973 -0.0739
vn -0.1946 0.9781 -0.0739
vn -0.3816 0.9214 -0.0739
vn -0.5541 0.8292 -0.0739
vn -0.7052 0.7052 -0.0739
vn -0.8292 0.5541 -0.0739
vn -0.9214 0.3816 -0.0739
vn -0.9781 0.1946 -0.0739
vn -0.9973 -0.0000 -0.0739
vn -0.9781 -0.1946 -0.0739
vn -0.9214 -0.3816 -0.0739
vn -0.8292 -0.5541 -0.0739
vn -0.7052 -0.7052 -0.0739
vn -0.5541 -0.8292 -0.0739
vn -0.3816 -0.9214 -0.0739
vn -0.1946 -0.9781 -0.0739
vn -0.0000 -0.9973 -0.0739
vn -0.0000 -0.9973 0.0739
vn 0.1946 -0.9781 0.0739
vn 0.3816 -0.9214 0.0739
vn 0.5541 -0.8292 0.0739
vn 0.7052 -0.7052 0.0739
vn 0.8292 -0.5541 0.0739
vn 0.9214 -0.3816 0.0739
vn 0.9781 -0.1946 0.0739
vn 0.9973 -0.0000 0.0739
vn 0.9781 0.1946 0.0739
vn 0.9214 0.3816 0.0739
vn 0.8292 0.5541 0.0739
vn 0.7052 0.7052 0.0739
vn 0.5541 0.8292 0.0739
vn 0.3816 0.9214 0.0739
vn 0.1946 0.9781 0.0739
vn -0.0000 0.9973 0.0739
vn -0.1946 0.9781 0.0739
vn -0.3816 0.9214 0.0739
vn -0.5541 0.8292 0.0739
vn -0.7052 0.7052 0.0739
vn -0.8292 0.5541 0.0739
vn -0.9214 0.3816 0.0739
vn -0.9781 0.1946 0.0739
vn -0.9973 -0.0000 0.0739
vn -0.9781 -0.1946 0.0739
vn -0.9214 -0.3816 0.0739
vn -0.8292 -0.5541 0.0739
vn -0.7052 -0.7052 0.0739
vn -0.5541 -0.8292 0.0739
vn -0.3816 -0.9214 0.0739
vn -0.1946 -0.9781 0.0739
vn -0.0000 -1.0000 -0.0006
vn 0.1951 -0.9808 -0.0006
vn 0.3827 -0.9239 -0.0006
vn 0.5556 -0.8315 -0.0006
vn 0.7071 -0.7071 -0.0006
vn 0.8315 -0.5556 -0.0006
vn 0.9239 -0.3827 -0.0006
vn 0.9808 -0.1951 -0.0006
vn 1.0000 -0.0000 -0.0006
vn 0.9808 0.1951 -0.0006
vn 0.9239 0.3827 -0.0006
vn 0.8315 0.5556 -0.0006
vn 0.7071 0.7071 -0.0006
vn 0.5556 0.8315 -0.0006
vn 0.3827 0.9239 -0.0006
vn 0.1951 0.9808 -0.0006
vn -0.0000 1.0000 -0.0006
vn -0.1951 0.9808 -0.0006
vn -0.3827 0.9239 -0.0006
vn -0.5556 0.8315 -0.0006
vn -0.7071 0.7071 -0.0006
vn -0.8315 0.5556 -0.0006
vn -0.9239 0.3827 -0.0006
vn -0.9808 0.1951 -0.0006
vn -1.0000 -0.0000 -0.0006
vn -0.9808 -0.1951 -0.0006
vn -0.9239 -0.3827 -0.0006
vn -0.8315 -0.5556 -0.0006
vn -0.7071 -0.7071 -0.0006
vn -0.5556 -0.8315 -0.0006
vn -0.3827 -0.9239 -0.0006
vn -0.1951 -0.9808 -0.0006
vn 0.1946 -0.9781 -0.0742
vn 0.3816 -0.9213 -0.0742
vn 0.5540 -0.8292 -0.0742
vn 0.7052 -0.7052 -0.0742
vn 0.8292 -0.5540 -0.0742
vn 0.9213 -0.3816 -0.0742
vn 0.9781 -0.1946 -0.0742
vn 0.9972 -0.0000 -0.0742
vn 0.9781 0.1946 -0.0742
vn 0.9213 0.3816 -0.0742
vn 0.8292 0.5540 -0.0742
vn 0.7052 0.7052 -0.0742
vn 0.5540 0.8292 -0.0742
vn 0.3816 0.9213 -0.0742
vn 0.1946 0.9781 -0.0742
vn -0.0000 0.9972 -0.0742
vn -0.1946 0.9781 -0.0742
vn -0.3816 0.9213 -0.0742
vn -0.5540 0.8292 -0.0742
vn -0.7052 0.7052 -0.0742
vn -0.8292 0.5540 -0.0742
vn -0.9213 0.3816 -0.0742
vn -0.9781 0.1946 -0.0742
vn -0.9972 -0.0000 -0.0742
vn -0.9781 -0.1946 -0.0742
vn -0.9213 -0.3816 -0.0742
vn -0.8292 -0.5540 -0.0742
vn -0.7052 -0.7052 -0.0742
vn -0.5540 -0.8292 -0.0742
vn -0.3816 -0.9213 -0.0742
vn -0.1946 -0.9781 -0.0742
vn -0.0000 -0.9972 -0.0742
vn -0.0000 -0.9973 0.0736
vn 0.1946 -0.9781 0.0736
vn 0.3816 -0.9214 0.0736
vn 0.5541 -0.8292 0.0736
vn 0.7052 -0.7052 0.0736
vn 0.8292 -0.5541 0.0736
vn 0.9214 -0.3816 0.0736
vn 0.9781 -0.1946 0.0736
vn 0.9973 -0.0000 0.0736
vn 0.9781 0.1946 0.0736
vn 0.9214 0.3816 0.0736
vn 0.8292 0.5541 0.0736
vn 0.7052 0.7052 0.0736
vn 0.5541 0.8292 0.0736
vn 0.3816 0.9214 0.0736
vn 0.1946 0.9781 0.0736
vn -0.0000 0.9973 0.0736
vn -0.1946 0.9781 0.0736
vn -0.3816 0.9214 0.0736
vn -0.5541 0.8292 0.0736
vn -0.7052 0.7052 0.0736
vn -0.8292 0.5541 0.0736
vn -0.9214 0.3816 0.0736
vn -0.9781 0.1946 0.0736
vn -0.9973 -0.0000 0.0736
vn -0.9781 -0.1946 0.0736
vn -0.9214 -0.3816 0.0736
vn -0.8292 -0.5541 0.0736
vn -0.7052 -0.7052 0.0736
vn -0.5541 -0.8292 0.0736
vn -0.3816 -0.9214 0.0736
vn -0.1946 -0.9781 0.0736
vt 1.000000 0.937222
vt 1.000000 1.000000
vt 0.968750 1.000000
vt 0.968750 0.937222
vt 0.937500 1.000000
vt 0.937500 0.937222
vt 0.906250 1.000000
vt 0.906250 0.937222
vt 0.875000 1.000000
vt 0.875000 0.937222
vt 0.843750 1.000000
vt 0.843750 0.937222
vt 0.812500 1.000000
vt 0.812500 0.937222
vt 0.781250 1.000000
vt 0.781250 0.937222
vt 0.750000 1.000000
vt 0.750000 0.937222
vt 0.718750 1.000000
vt 0.718750 0.937222
vt 0.687500 1.000000
vt 0.687500 0.937222
vt 0.656250 1.000000
vt 0.656250 0.937222
vt 0.625000 1.000000
vt 0.625000 0.937222
vt 0.593750 1.000000
vt 0.593750 0.937222
vt 0.562500 1.000000
vt 0.562500 0.937222
vt 0.531250 1.000000
vt 0.531250 0.937222
vt 0.500000 1.000000
vt 0.500000 0.937222
vt 0.468750 1.000000
vt 0.468750 0.937222
vt 0.437500 1.000000
vt 0.437500 0.937222
vt 0.406250 1.000000
vt 0.406250 0.937222
vt 0.375000 1.000000
vt 0.375000 0.937222
vt 0.343750 1.000000
vt 0.343750 0.937222
vt 0.312500 1.000000
vt 0.312500 0.937222
vt 0.281250 1.000000
vt 0.281250 0.937222
vt 0.250000 1.000000
vt 0.250000 0.937222
vt 0.218750 1.000000
vt 0.218750 0.937222
vt 0.187500 1.000000
vt 0.187500 0.937222
vt 0.156250 1.000000
vt 0.156250 0.937222
vt 0.125000 1.000000
vt 0.125000 0.937222
vt 0.093750 1.000000
vt 0.093750 0.937222
vt 0.062500 1.000000
vt 0.062500 0.937222
vt 0.296822 0.485388
vt 0.250000 0.490000
vt 0.203178 0.485388
vt 0.158156 0.471731
vt 0.116663 0.449553
vt 0.080294 0.419706
vt 0.050447 0.383337
vt 0.028269 0.341844
vt 0.014612 0.296822
vt 0.010000 0.250000
vt 0.014612 0.203178
vt 0.028269 0.158156
vt 0.050447 0.116663
vt 0.080294 0.080294
vt 0.116663 0.050447
vt 0.158156 0.028269
vt 0.203178 0.014612
vt 0.250000 0.010000
vt 0.296822 0.014612
vt 0.341844 0.028269
vt 0.383337 0.050447
vt 0.419706 0.080294
vt 0.449553 0.116663
vt 0.471731 0.158156
vt 0.485388 0.203178
vt 0.490000 0.250000
vt 0.485388 0.296822
vt 0.471731 0.341844
vt 0.449553 0.383337
vt 0.419706 0.419706
vt 0.383337 0.449553
vt 0.341844 0.471731
vt 0.031250 1.000000
vt 0.031250 0.937222
vt 0.000000 1.000000
vt 0.000000 0.937222
vt 0.750000 0.490000
vt 0.796822 0.485388
vt 0.841844 0.471731
vt 0.883337 0.449553
vt 0.919706 0.419706
vt 0.949553 0.383337
vt 0.971731 0.341844
vt 0.985388 0.296822
vt 0.990000 0.250000
vt 0.985388 0.203178
vt 0.971731 0.158156
vt 0.949553 0.116663
vt 0.919706 0.080294
vt 0.883337 0.050447
vt 0.841844 0.028269
vt 0.796822 0.014612
vt 0.750000 0.010000
vt 0.703178 0.014612
vt 0.658156 0.028269
vt 0.616663 0.050447
vt 0.580294 0.080294
vt 0.550447 0.116663
vt 0.528269 0.158156
vt 0.514612 0.203178
vt 0.510000 0.250000
vt 0.514612 0.296822
vt 0.528269 0.341844
vt 0.550447 0.383337
vt 0.580294 0.419706
vt 0.616663 0.449553
vt 0.658156 0.471731
vt 0.703178 0.485388
vt 0.031250 0.687500
vt 0.031250 0.750000
vt 0.000000 0.750000
vt 0.000000 0.687500
vt 0.062500 0.687500
vt 0.062500 0.750000
vt 0.093750 0.687500
vt 0.093750 0.750000
vt 0.125000 0.687500
vt 0.125000 0.750000
vt 0.156250 0.687500
vt 0.156250 0.750000
vt 0.187500 0.687500
vt 0.187500 0.750000
vt 0.218750 0.687500
vt 0.218750 0.750000
vt 0.250000 0.687500
vt 0.250000 0.750000
vt 0.281250 0.687500
vt 0.281250 0.750000
vt 0.312500 0.687500
vt 0.312500 0.750000
vt 0.343750 0.687500
vt 0.343750 0.750000
vt 0.375000 0.687500
vt 0.375000 0.750000
vt 0.406250 0.687500
vt 0.406250 0.750000
vt 0.437500 0.687500
vt 0.437500 0.750000
vt 0.468750 0.687500
vt 0.468750 0.750000
vt 0.500000 0.687500
vt 0.500000 0.750000
vt 0.531250 0.687500
vt 0.531250 0.750000
vt 0.562500 0.687500
vt 0.562500 0.750000
vt 0.593750 0.687500
vt 0.593750 0.750000
vt 0.625000 0.687500
vt 0.625000 0.750000
vt 0.656250 0.687500
vt 0.656250 0.750000
vt 0.687500 0.687500
vt 0.687500 0.750000
vt 0.718750 0.687500
vt 0.718750 0.750000
vt 0.750000 0.687500
vt 0.750000 0.750000
vt 0.781250 0.687500
vt 0.781250 0.750000
vt 0.812500 0.687500
vt 0.812500 0.750000
vt 0.843750 0.687500
vt 0.843750 0.750000
vt 0.875000 0.687500
vt 0.875000 0.750000
vt 0.906250 0.687500
vt 0.906250 0.750000
vt 0.937500 0.687500
vt 0.937500 0.750000
vt 0.968750 0.687500
vt 0.968750 0.750000
vt 1.000000 0.687500
vt 1.000000 0.750000
vt 1.000000 0.562500
vt 1.000000 0.625000
vt 0.968750 0.625000
vt 0.968750 0.562500
vt 0.937500 0.625000
vt 0.937500 0.562500
vt 0.906250 0.625000
vt 0.906250 0.562500
vt 0.875000 0.625000
vt 0.875000 0.562500
vt 0.843750 0.625000
vt 0.843750 0.562500
vt 0.812500 0.625000
vt 0.812500 0.562500
vt 0.781250 0.625000
vt 0.781250 0.562500
vt 0.750000 0.625000
vt 0.750000 0.562500
vt 0.718750 0.625000
vt 0.718750 0.562500
vt 0.687500 0.625000
vt 0.687500 0.562500
vt 0.656250 0.625000
vt 0.656250 0.562500
vt 0.625000 0.625000
vt 0.625000 0.562500
vt 0.593750 0.625000
vt 0.593750 0.562500
vt 0.562500 0.625000
vt 0.562500 0.562500
vt 0.531250 0.625000
vt 0.531250 0.562500
vt 0.500000 0.625000
vt 0.500000 0.562500
vt 0.468750 0.625000
vt 0.468750 0.562500
vt 0.437500 0.625000
vt 0.437500 0.562500
vt 0.406250 0.625000
vt 0.406250 0.562500
vt 0.375000 0.625000
vt 0.375000 0.562500
vt 0.343750 0.625000
vt 0.343750 0.562500
vt 0.312500 0.625000
vt 0.312500 0.562500
vt 0.281250 0.625000
vt 0.281250 0.562500
vt 0.250000 0.625000
vt 0.250000 0.562500
vt 0.218750 0.625000
vt 0.218750 0.562500
vt 0.187500 0.625000
vt 0.187500 0.562500
vt 0.156250 0.625000
vt 0.156250 0.562500
vt 0.125000 0.625000
vt 0.125000 0.562500
vt 0.093750 0.625000
vt 0.093750 0.562500
vt 0.062500 0.625000
vt 0.062500 0.562500
vt 0.031250 0.625000
vt 0.031250 0.562500
vt 0.000000 0.625000
vt 0.000000 0.562500
vt 0.031250 0.500000
vt 0.000000 0.500000
vt 0.062500 0.500000
vt 0.093750 0.500000
vt 0.125000 0.500000
vt 0.156250 0.500000
vt 0.187500 0.500000
vt 0.218750 0.500000
vt 0.250000 0.500000
vt 0.281250 0.500000
vt 0.312500 0.500000
vt 0.343750 0.500000
vt 0.375000 0.500000
vt 0.406250 0.500000
vt 0.437500 0.500000
vt 0.468750 0.500000
vt 0.500000 0.500000
vt 0.531250 0.500000
vt 0.562500 0.500000
vt 0.593750 0.500000
vt 0.625000 0.500000
vt 0.656250 0.500000
vt 0.687500 0.500000
vt 0.718750 0.500000
vt 0.750000 0.500000
vt 0.781250 0.500000
vt 0.812500 0.500000
vt 0.843750 0.500000
vt 0.875000 0.500000
vt 0.906250 0.500000
vt 0.937500 0.500000
vt 0.968750 0.500000
vt 1.000000 0.500000
vt 0.031250 0.812222
vt 0.031250 0.874444
vt 0.000000 0.874444
vt 0.000000 0.812222
vt 0.062500 0.812222
vt 0.062500 0.874444
vt 0.093750 0.812222
vt 0.093750 0.874444
vt 0.125000 0.812222
vt 0.125000 0.874444
vt 0.156250 0.812222
vt 0.156250 0.874444
vt 0.187500 0.812222
vt 0.187500 0.874444
vt 0.218750 0.812222
vt 0.218750 0.874444
vt 0.250000 0.812222
vt 0.250000 0.874444
vt 0.281250 0.812222
vt 0.281250 0.874444
vt 0.312500 0.812222
vt 0.312500 0.874444
vt 0.343750 0.812222
vt 0.343750 0.874444
vt 0.375000 0.812222
vt 0.375000 0.874444
vt 0.406250 0.812222
vt 0.406250 0.874444
vt 0.437500 0.812222
vt 0.437500 0.874444
vt 0.468750 0.812222
vt 0.468750 0.874444
vt 0.500000 0.812222
vt 0.500000 0.874444
vt 0.531250 0.812222
vt 0.531250 0.874444
vt 0.562500 0.812222
vt 0.562500 0.874444
vt 0.593750 0.812222
vt 0.593750 0.874444
vt 0.625000 0.812222
vt 0.625000 0.874444
vt 0.656250 0.812222
vt 0.656250 0.874444
vt 0.687500 0.812222
vt 0.687500 0.874444
vt 0.718750 0.812222
vt 0.718750 0.874444
vt 0.750000 0.812222
vt 0.750000 0.874444
vt 0.781250 0.812222
vt 0.781250 0.874444
vt 0.812500 0.812222
vt 0.812500 0.874444
vt 0.843750 0.812222
vt 0.843750 0.874444
vt 0.875000 0.812222
vt 0.875000 0.874444
vt 0.906250 0.812222
vt 0.906250 0.874444
vt 0.937500 0.812222
vt 0.937500 0.874444
vt 0.968750 0.812222
vt 0.968750 0.874444
vt 1.000000 0.812222
vt 1.000000 0.874444
s 1
usemtl マテリアル
f 257/1/225 2/2/2 4/3/4 258/4/226
f 258/4/226 4/3/4 6/5/6 259/6/227
f 259/6/227 6/5/6 8/7/8 260/8/228
f 260/8/228 8/7/8 10/9/10 261/10/229
f 261/10/229 10/9/10 12/11/12 262/12/230
f 262/12/230 12/11/12 14/13/14 263/14/231
f 263/14/231 14/13/14 16/15/16 264/16/232
f 264/16/232 16/15/16 18/17/18 265/18/233
f 265/18/233 18/17/18 20/19/20 266/20/234
f 266/20/234 20/19/20 22/21/22 267/22/235
f 267/22/235 22/21/22 24/23/24 268/24/236
f 268/24/236 24/23/24 26/25/26 269/26/237
f 269/26/237 26/25/26 28/27/28 270/28/238
f 270/28/238 28/27/28 30/29/30 271/30/239
f 271/30/239 30/29/30 32/31/32 272/32/240
f 272/32/240 32/31/32 34/33/34 273/34/241
f 273/34/241 34/33/34 36/35/36 274/36/242
f 274/36/242 36/35/36 38/37/38 275/38/243
f 275/38/243 38/37/38 40/39/40 276/40/244
f 276/40/244 40/39/40 42/41/42 277/42/245
f 277/42/245 42/41/42 44/43/44 278/44/246
f 278/44/246 44/43/44 46/45/46 279/46/247
f 279/46/247 46/45/46 48/47/48 280/48/248
f 280/48/248 48/47/48 50/49/50 281/50/249
f 281/50/249 50/49/50 52/51/52 282/52/250
f 282/52/250 52/51/52 54/53/54 283/54/251
f 283/54/251 54/53/54 56/55/56 284/56/252
f 284/56/252 56/55/56 58/57/58 285/58/253
f 285/58/253 58/57/58 60/59/60 286/60/254
f 286/60/254 60/59/60 62/61/62 287/62/255
f 4/63/4 2/64/2 64/65/64 62/66/62 60/67/60 58/68/58 56/69/56 54/70/54 52/71/52 50/72/50 48/73/48 46/74/46 44/75/44 42/76/42 40/77/40 38/78/38 36/79/36 34/80/34 32/81/32 30/82/30 28/83/28 26/84/26 24/85/24 22/86/22 20/87/20 18/88/18 16/89/16 14/90/14 12/91/12 10/92/10 8/93/8 6/94/6
f 287/62/255 62/61/62 64/95/64 288/96/256
f 288/96/256 64/95/64 2/97/2 257/98/225
f 1/99/1 3/100/3 5/101/5 7/102/7 9/103/9 11/104/11 13/105/13 15/106/15 17/107/17 19/108/19 21/109/21 23/110/23 25/111/25 27/112/27 29/113/29 31/114/31 33/115/33 35/116/35 37/117/37 39/118/39 41/119/41 43/120/43 45/121/45 47/122/47 49/123/49 51/124/51 53/125/53 55/126/55 57/127/57 59/128/59 61/129/61 63/130/63
f 192/131/160 96/132/96 65/133/65 161/134/129
f 191/135/159 95/136/95 96/132/96 192/131/160
f 190/137/158 94/138/94 95/136/95 191/135/159
f 189/139/157 93/140/93 94/138/94 190/137/158
f 188/141/156 92/142/92 93/140/93 189/139/157
f 187/143/155 91/144/91 92/142/92 188/141/156
f 186/145/154 90/146/90 91/144/91 187/143/155
f 185/147/153 89/148/89 90/146/90 186/145/154
f 184/149/152 88/150/88 89/148/89 185/147/153
f 183/151/151 87/152/87 88/150/88 184/149/152
f 182/153/150 86/154/86 87/152/87 183/151/151
f 181/155/149 85/156/85 86/154/86 182/153/150
f 180/157/148 84/158/84 85/156/85 181/155/149
f 179/159/147 83/160/83 84/158/84 180/157/148
f 178/161/146 82/162/82 83/160/83 179/159/147
f 177/163/145 81/164/81 82/162/82 178/161/146
f 176/165/144 80/166/80 81/164/81 177/163/145
f 175/167/143 79/168/79 80/166/80 176/165/144
f 174/169/142 78/170/78 79/168/79 175/167/143
f 173/171/141 77/172/77 78/170/78 174/169/142
f 172/173/140 76/174/76 77/172/77 173/171/141
f 171/175/139 75/176/75 76/174/76 172/173/140
f 170/177/138 74/178/74 75/176/75 171/175/139
f 169/179/137 73/180/73 74/178/74 170/177/138
f 168/181/136 72/182/72 73/180/73 169/179/137
f 167/183/135 71/184/71 72/182/72 168/181/136
f 166/185/134 70/186/70 71/184/71 167/183/135
f 165/187/133 69/188/69 70/186/70 166/185/134
f 164/189/132 68/190/68 69/188/69 165/187/133
f 163/191/131 67/192/67 68/190/68 164/189/132
f 162/193/130 66/194/66 67/192/67 163/191/131
f 161/195/129 65/196/65 66/194/66 162/193/130
f 160/197/128 128/198/65 97/199/66 129/200/97
f 129/200/97 97/199/66 98/201/67 130/202/98
f 130/202/98 98/201/67 99/203/68 131/204/99
f 131/204/99 99/203/68 100/205/69 132/206/100
f 132/206/100 100/205/69 101/207/70 133/208/101
f 133/208/101 101/207/70 102/209/71 134/210/102
f 134/210/102 102/209/71 103/211/72 135/212/103
f 135/212/103 103/211/72 104/213/73 136/214/104
f 136/214/104 104/213/73 105/215/74 137/216/105
f 137/216/105 105/215/74 106/217/75 138/218/106
f 138/218/106 106/217/75 107/219/76 139/220/107
f 139/220/107 107/219/76 108/221/77 140/222/108
f 140/222/108 108/221/77 109/223/78 141/224/109
f 141/224/109 109/223/78 110/225/79 142/226/110
f 142/226/110 110/225/79 111/227/80 143/228/111
f 143/228/111 111/227/80 112/229/81 144/230/112
f 144/230/112 112/229/81 113/231/82 145/232/113
f 145/232/113 113/231/82 114/233/83 146/234/114
f 146/234/114 114/233/83 115/235/84 147/236/115
f 147/236/115 115/235/84 116/237/85 148/238/116
f 148/238/116 116/237/85 117/239/86 149/240/117
f 149/240/117 117/239/86 118/241/87 150/242/118
f 150/242/118 118/241/87 119/243/88 151/244/119
f 151/244/119 119/243/88 120/245/89 152/246/120
f 152/246/120 120/245/89 121/247/90 153/248/121
f 153/248/121 121/247/90 122/249/91 154/250/122
f 154/250/122 122/249/91 123/251/92 155/252/123
f 155/252/123 123/251/92 124/253/93 156/254/124
f 156/254/124 124/253/93 125/255/94 157/256/125
f 157/256/125 125/255/94 126/257/95 158/258/126
f 158/258/126 126/257/95 127/259/96 159/260/127
f 159/260/127 127/259/96 128/261/65 160/262/128
f 63/263/63 159/260/127 160/262/128 1/264/1
f 61/265/61 158/258/126 159/260/127 63/263/63
f 59/266/59 157/256/125 158/258/126 61/265/61
f 57/267/57 156/254/124 157/256/125 59/266/59
f 55/268/55 155/252/123 156/254/124 57/267/57
f 53/269/53 154/250/122 155/252/123 55/268/55
f 51/270/51 153/248/121 154/250/122 53/269/53
f 49/271/49 152/246/120 153/248/121 51/270/51
f 47/272/47 151/244/119 152/246/120 49/271/49
f 45/273/45 150/242/118 151/244/119 47/272/47
f 43/274/43 149/240/117 150/242/118 45/273/45
f 41/275/41 148/238/116 149/240/117 43/274/43
f 39/276/39 147/236/115 148/238/116 41/275/41
f 37/277/37 146/234/114 147/236/115 39/276/39
f 35/278/35 145/232/113 146/234/114 37/277/37
f 33/279/33 144/230/112 145/232/113 35/278/35
f 31/280/31 143/228/111 144/230/112 33/279/33
f 29/281/29 142/226/110 143/228/111 31/280/31
f 27/282/27 141/224/109 142/226/110 29/281/29
f 25/283/25 140/222/108 141/224/109 27/282/27
f 23/284/23 139/220/107 140/222/108 25/283/25
f 21/285/21 138/218/106 139/220/107 23/284/23
f 19/286/19 137/216/105 138/218/106 21/285/21
f 17/287/17 136/214/104 137/216/105 19/286/19
f 15/288/15 135/212/103 136/214/104 17/287/17
f 13/289/13 134/210/102 135/212/103 15/288/15
f 11/290/11 133/208/101 134/210/102 13/289/13
f 9/291/9 132/206/100 133/208/101 11/290/11
f 7/292/7 131/204/99 132/206/100 9/291/9
f 5/293/5 130/202/98 131/204/99 7/292/7
f 3/294/3 129/200/97 130/202/98 5/293/5
f 1/295/1 160/197/128 129/200/97 3/294/3
f 128/198/65 161/195/129 162/193/130 97/199/66
f 97/199/66 162/193/130 163/191/131 98/201/67
f 98/201/67 163/191/131 164/189/132 99/203/68
f 99/203/68 164/189/132 165/187/133 100/205/69
f 100/205/69 165/187/133 166/185/134 101/207/70
f 101/207/70 166/185/134 167/183/135 102/209/71
f 102/209/71 167/183/135 168/181/136 103/211/72
f 103/211/72 168/181/136 169/179/137 104/213/73
f 104/213/73 169/179/137 170/177/138 105/215/74
f 105/215/74 170/177/138 171/175/139 106/217/75
f 106/217/75 171/175/139 172/173/140 107/219/76
f 107/219/76 172/173/140 173/171/141 108/221/77
f 108/221/77 173/171/141 174/169/142 109/223/78
f 109/223/78 174/169/142 175/167/143 110/225/79
f 110/225/79 175/167/143 176/165/144 111/227/80
f 111/227/80 176/165/144 177/163/145 112/229/81
f 112/229/81 177/163/145 178/161/146 113/231/82
f 113/231/82 178/161/146 179/159/147 114/233/83
f 114/233/83 179/159/147 180/157/148 115/235/84
f 115/235/84 180/157/148 181/155/149 116/237/85
f 116/237/85 181/155/149 182/153/150 117/239/86
f 117/239/86 182/153/150 183/151/151 118/241/87
f 118/241/87 183/151/151 184/149/152 119/243/88
f 119/243/88 184/149/152 185/147/153 120/245/89
f 120/245/89 185/147/153 186/145/154 121/247/90
f 121/247/90 186/145/154 187/143/155 122/249/91
f 122/249/91 187/143/155 188/141/156 123/251/92
f 123/251/92 188/141/156 189/139/157 124/253/93
f 124/253/93 189/139/157 190/137/158 125/255/94
f 125/255/94 190/137/158 191/135/159 126/257/95
f 126/257/95 191/135/159 192/131/160 127/259/96
f 127/259/96 192/131/160 161/134/129 128/261/65
f 255/296/223 224/297/192 193/298/161 256/299/224
f 254/300/222 223/301/191 224/297/192 255/296/223
f 253/302/221 222/303/190 223/301/191 254/300/222
f 252/304/220 221/305/189 222/303/190 253/302/221
f 251/306/219 220/307/188 221/305/189 252/304/220
f 250/308/218 219/309/187 220/307/188 251/306/219
f 249/310/217 218/311/186 219/309/187 250/308/218
f 248/312/216 217/313/185 218/311/186 249/310/217
f 247/314/215 216/315/184 217/313/185 248/312/216
f 246/316/214 215/317/183 216/315/184 247/314/215
f 245/318/213 214/319/182 215/317/183 246/316/214
f 244/320/212 213/321/181 214/319/182 245/318/213
f 243/322/211 212/323/180 213/321/181 244/320/212
f 242/324/210 211/325/179 212/323/180 243/322/211
f 241/326/209 210/327/178 211/325/179 242/324/210
f 240/328/208 209/329/177 210/327/178 241/326/209
f 239/330/207 208/331/176 209/329/177 240/328/208
f 238/332/206 207/333/175 208/331/176 239/330/207
f 237/334/205 206/335/174 207/333/175 238/332/206
f 236/336/204 205/337/173 206/335/174 237/334/205
f 235/338/203 204/339/172 205/337/173 236/336/204
f 234/340/202 203/341/171 204/339/172 235/338/203
f 233/342/201 202/343/170 203/341/171 234/340/202
f 232/344/200 201/345/169 202/343/170 233/342/201
f 231/346/199 200/347/168 201/345/169 232/344/200
f 230/348/198 199/349/167 200/347/168 231/346/199
f 229/350/197 198/351/166 199/349/167 230/348/198
f 228/352/196 197/353/165 198/351/166 229/350/197
f 227/354/195 196/355/164 197/353/165 228/352/196
f 226/356/194 195/357/163 196/355/164 227/354/195
f 225/358/193 194/359/162 195/357/163 226/356/194
f 256/360/224 193/361/161 194/359/162 225/358/193
f 65/196/65 256/360/224 225/358/193 66/194/66
f 66/194/66 225/358/193 226/356/194 67/192/67
f 67/192/67 226/356/194 227/354/195 68/190/68
f 68/190/68 227/354/195 228/352/196 69/188/69
f 69/188/69 228/352/196 229/350/197 70/186/70
f 70/186/70 229/350/197 230/348/198 71/184/71
f 71/184/71 230/348/198 231/346/199 72/182/72
f 72/182/72 231/346/199 232/344/200 73/180/73
f 73/180/73 232/344/200 233/342/201 74/178/74
f 74/178/74 233/342/201 234/340/202 75/176/75
f 75/176/75 234/340/202 235/338/203 76/174/76
f 76/174/76 235/338/203 236/336/204 77/172/77
f 77/172/77 236/336/204 237/334/205 78/170/78
f 78/170/78 237/334/205 238/332/206 79/168/79
f 79/168/79 238/332/206 239/330/207 80/166/80
f 80/166/80 239/330/207 240/328/208 81/164/81
f 81/164/81 240/328/208 241/326/209 82/162/82
f 82/162/82 241/326/209 242/324/210 83/160/83
f 83/160/83 242/324/210 243/322/211 84/158/84
f 84/158/84 243/322/211 244/320/212 85/156/85
f 85/156/85 244/320/212 245/318/213 86/154/86
f 86/154/86 245/318/213 246/316/214 87/152/87
f 87/152/87 246/316/214 247/314/215 88/150/88
f 88/150/88 247/314/215 248/312/216 89/148/89
f 89/148/89 248/312/216 249/310/217 90/146/90
f 90/146/90 249/310/217 250/308/218 91/144/91
f 91/144/91 250/308/218 251/306/219 92/142/92
f 92/142/92 251/306/219 252/304/220 93/140/93
f 93/140/93 252/304/220 253/302/221 94/138/94
f 94/138/94 253/302/221 254/300/222 95/136/95
f 95/136/95 254/300/222 255/296/223 96/132/96
f 96/132/96 255/296/223 256/299/224 65/133/65
f 224/297/192 288/96/256 257/98/225 193/298/161
f 223/301/191 287/62/255 288/96/256 224/297/192
f 222/303/190 286/60/254 287/62/255 223/301/191
f 221/305/189 285/58/253 286/60/254 222/303/190
f 220/307/188 284/56/252 285/58/253 221/305/189
f 219/309/187 283/54/251 284/56/252 220/307/188
f 218/311/186 282/52/250 283/54/251 219/309/187
f 217/313/185 281/50/249 282/52/250 218/311/186
f 216/315/184 280/48/248 281/50/249 217/313/185
f 215/317/183 279/46/247 280/48/248 216/315/184
f 214/319/182 278/44/246 279/46/247 215/317/183
f 213/321/181 277/42/245 278/44/246 214/319/182
f 212/323/180 276/40/244 277/42/245 213/321/181
f 211/325/179 275/38/243 276/40/244 212/323/180
f 210/327/178 274/36/242 275/38/243 211/325/179
f 209/329/177 273/34/241 274/36/242 210/327/178
f 208/331/176 272/32/240 273/34/241 209/329/177
f 207/333/175 271/30/239 272/32/240 208/331/176
f 206/335/174 270/28/238 271/30/239 207/333/175
f 205/337/173 269/26/237 270/28/238 206/335/174
f 204/339/172 268/24/236 269/26/237 205/337/173
f 203/341/171 267/22/235 268/24/236 204/339/172
f 202/343/170 266/20/234 267/22/235 203/341/171
f 201/345/169 265/18/233 266/20/234 202/343/170
f 200/347/168 264/16/232 265/18/233 201/345/169
f 199/349/167 263/14/231 264/16/232 200/347/168
f 198/351/166 262/12/230 263/14/231 199/349/167
f 197/353/165 261/10/229 262/12/230 198/351/166
f 196/355/164 260/8/228 261/10/229 197/353/165
f 195/357/163 259/6/227 260/8/228 196/355/164
f 194/359/162 258/4/226 259/6/227 195/357/163
f 193/361/161 257/1/225 258/4/226 194/359/162
o 円柱.001
v 0.000000 0.043801 -0.544438
v -0.201117 10.306495 -0.377703
v 0.106215 0.043801 -0.533977
v 0.208347 0.043801 -0.502995
v 0.302474 0.043801 -0.452684
v 0.384976 0.043801 -0.384976
v 0.452684 0.043801 -0.302474
v 0.502995 0.043801 -0.208347
v 0.533977 0.043801 -0.106215
v 0.544438 0.043801 0.000000
v 0.196521 10.306495 -0.365573
v 0.533977 0.043801 0.106215
v 0.502995 0.043801 0.208347
v 0.452684 0.043801 0.302474
v 0.384976 0.043801 0.384976
v 0.302474 0.043801 0.452684
v 0.208347 0.043801 0.502995
v 0.106215 0.043801 0.533977
v 0.000000 0.043801 0.544438
v 0.201117 10.306495 0.377703
v -0.106215 0.043801 0.533977
v -0.208347 0.043801 0.502995
v -0.302474 0.043801 0.452684
v -0.384976 0.043801 0.384976
v -0.452684 0.043801 0.302474
v -0.502995 0.043801 0.208347
v -0.533977 0.043801 0.106215
v -0.544438 0.043801 0.000000
v -0.196521 10.306495 0.365573
v -0.533977 0.043801 -0.106215
v -0.502995 0.043801 -0.208347
v -0.452684 0.043801 -0.302474
v -0.384976 0.043801 -0.384976
v -0.302474 0.043801 -0.452684
v -0.208347 0.043801 -0.502995
v -0.106215 0.043801 -0.533977
vn -0.0185 -0.0859 -0.9961
vn -0.6483 0.0966 -0.7552
vn 0.1598 -0.0867 -0.9833
vn 0.3790 -0.0883 -0.9212
vn 0.5552 -0.0883 -0.8270
vn 0.7091 -0.0870 -0.6997
vn 0.8344 -0.0845 -0.5447
vn 0.9262 -0.0810 -0.3683
vn 0.9810 -0.0769 -0.1779
vn 0.9967 -0.0738 -0.0352
vn 0.6790 0.0972 -0.7277
vn 0.9892 -0.0763 0.1249
vn 0.9263 -0.0817 0.3678
vn 0.8346 -0.0853 0.5443
vn 0.7093 -0.0879 0.6994
vn 0.5553 -0.0893 0.8268
vn 0.3790 -0.0893 0.9211
vn 0.1876 -0.0879 0.9783
vn 0.0185 -0.0859 0.9961
vn 0.6483 0.0966 0.7552
vn -0.1598 -0.0867 0.9833
vn -0.3790 -0.0883 0.9212
vn -0.5552 -0.0883 0.8270
vn -0.7091 -0.0870 0.6997
vn -0.8344 -0.0845 0.5447
vn -0.9262 -0.0810 0.3683
vn -0.9810 -0.0769 0.1779
vn -0.9967 -0.0738 0.0352
vn -0.6790 0.0972 0.7277
vn -0.9892 -0.0763 -0.1249
vn -0.9263 -0.0817 -0.3678
vn -0.8346 -0.0853 -0.5443
vn -0.7093 -0.0879 -0.6994
vn -0.5553 -0.0893 -0.8268
vn -0.3790 -0.0893 -0.9211
vn -0.1876 -0.0879 -0.9783
vt 1.000000 0.500000
vt 1.000000 1.000000
vt 0.968750 1.000000
vt 0.968750 0.500000
vt 0.937500 1.000000
vt 0.937500 0.500000
vt 0.906250 1.000000
vt 0.906250 0.500000
vt 0.875000 1.000000
vt 0.875000 0.500000
vt 0.843750 1.000000
vt 0.843750 0.500000
vt 0.812500 1.000000
vt 0.812500 0.500000
vt 0.781250 1.000000
vt 0.781250 0.500000
vt 0.750000 1.000000
vt 0.750000 0.500000
vt 0.718750 1.000000
vt 0.718750 0.500000
vt 0.687500 1.000000
vt 0.687500 0.500000
vt 0.656250 1.000000
vt 0.656250 0.500000
vt 0.625000 1.000000
vt 0.625000 0.500000
vt 0.593750 1.000000
vt 0.593750 0.500000
vt 0.562500 1.000000
vt 0.562500 0.500000
vt 0.531250 1.000000
vt 0.531250 0.500000
vt 0.500000 1.000000
vt 0.500000 0.500000
vt 0.468750 1.000000
vt 0.468750 0.500000
vt 0.437500 1.000000
vt 0.437500 0.500000
vt 0.406250 1.000000
vt 0.406250 0.500000
vt 0.375000 1.000000
vt 0.375000 0.500000
vt 0.343750 1.000000
vt 0.343750 0.500000
vt 0.312500 1.000000
vt 0.312500 0.500000
vt 0.281250 1.000000
vt 0.281250 0.500000
vt 0.250000 1.000000
vt 0.250000 0.500000
vt 0.218750 1.000000
vt 0.218750 0.500000
vt 0.187500 1.000000
vt 0.187500 0.500000
vt 0.156250 1.000000
vt 0.156250 0.500000
vt 0.125000 1.000000
vt 0.125000 0.500000
vt 0.093750 1.000000
vt 0.093750 0.500000
vt 0.062500 1.000000
vt 0.062500 0.500000
vt 0.296822 0.485388
vt 0.014612 0.296822
vt 0.203178 0.014612
vt 0.485388 0.203178
vt 0.031250 1.000000
vt 0.031250 0.500000
vt 0.000000 1.000000
vt 0.000000 0.500000
vt 0.750000 0.490000
vt 0.796822 0.485388
vt 0.841844 0.471731
vt 0.883337 0.449553
vt 0.919706 0.419706
vt 0.949553 0.383337
vt 0.971731 0.341844
vt 0.985388 0.296822
vt 0.990000 0.250000
vt 0.985388 0.203178
vt 0.971731 0.158156
vt 0.949553 0.116663
vt 0.919706 0.080294
vt 0.883337 0.050447
vt 0.841844 0.028269
vt 0.796822 0.014612
vt 0.750000 0.010000
vt 0.703178 0.014612
vt 0.658156 0.028269
vt 0.616663 0.050447
vt 0.580294 0.080294
vt 0.550447 0.116663
vt 0.528269 0.158156
vt 0.514612 0.203178
vt 0.510000 0.250000
vt 0.514612 0.296822
vt 0.528269 0.341844
vt 0.550447 0.383337
vt 0.580294 0.419706
vt 0.616663 0.449553
vt 0.658156 0.471731
vt 0.703178 0.485388
s 1
usemtl マテリアル.001
f 289/362/257 290/363/258 299/364/267 291/365/259
f 291/365/259 299/366/267 292/367/260
f 292/367/260 299/368/267 293/369/261
f 293/369/261 299/370/267 294/371/262
f 294/371/262 299/372/267 295/373/263
f 295/373/263 299/374/267 296/375/264
f 296/375/264 299/376/267 297/377/265
f 297/377/265 299/378/267 298/379/266
f 298/379/266 299/378/267 308/380/276 300/381/268
f 300/381/268 308/382/276 301/383/269
f 301/383/269 308/384/276 302/385/270
f 302/385/270 308/386/276 303/387/271
f 303/387/271 308/388/276 304/389/272
f 304/389/272 308/390/276 305/391/273
f 305/391/273 308/392/276 306/393/274
f 306/393/274 308/394/276 307/395/275
f 307/395/275 308/394/276 317/396/285 309/397/277
f 309/397/277 317/398/285 310/399/278
f 310/399/278 317/400/285 311/401/279
f 311/401/279 317/402/285 312/403/280
f 312/403/280 317/404/285 313/405/281
f 313/405/281 317/406/285 314/407/282
f 314/407/282 317/408/285 315/409/283
f 315/409/283 317/410/285 316/411/284
f 316/411/284 317/410/285 290/412/258 318/413/286
f 318/413/286 290/414/258 319/415/287
f 319/415/287 290/416/258 320/417/288
f 320/417/288 290/418/258 321/419/289
f 321/419/289 290/420/258 322/421/290
f 322/421/290 290/422/258 323/423/291
f 299/424/267 290/425/258 317/426/285 308/427/276
f 323/423/291 290/428/258 324/429/292
f 324/429/292 290/430/258 289/431/257
f 289/432/257 291/433/259 292/434/260 293/435/261 294/436/262 295/437/263 296/438/264 297/439/265 298/440/266 300/441/268 301/442/269 302/443/270 303/444/271 304/445/272 305/446/273 306/447/274 307/448/275 309/449/277 310/450/278 311/451/279 312/452/280 313/453/281 314/454/282 315/455/283 316/456/284 318/457/286 319/458/287 320/459/288 321/460/289 322/461/290 323/462/291 324/463/292
