# Blender 4.5.3 LTS
# www.blender.org
mtllib kuensan.mtl
o 円柱
v 0.000000 0.026148 -0.895177
v 0.000000 0.192815 -1.000000
v 0.000000 0.038835 -0.935291
v 0.000000 0.074963 -0.969298
v 0.000000 0.129034 -0.992021
v 0.174640 0.026148 -0.877977
v 0.195090 0.192815 -0.980785
v 0.182466 0.038835 -0.917320
v 0.189101 0.074963 -0.950673
v 0.193534 0.129034 -0.972959
v 0.342569 0.026148 -0.827036
v 0.382683 0.192815 -0.923880
v 0.357920 0.038835 -0.864096
v 0.370934 0.074963 -0.895515
v 0.379630 0.129034 -0.916508
v 0.497334 0.026148 -0.744313
v 0.555570 0.192815 -0.831470
v 0.519620 0.038835 -0.777666
v 0.538513 0.074963 -0.805942
v 0.551137 0.129034 -0.824835
v 0.632986 0.026148 -0.632986
v 0.707107 0.192815 -0.707107
v 0.661351 0.038835 -0.661351
v 0.685397 0.074963 -0.685397
v 0.701465 0.129034 -0.701465
v 0.744313 0.026148 -0.497334
v 0.831470 0.192815 -0.555570
v 0.777666 0.038835 -0.519620
v 0.805942 0.074963 -0.538513
v 0.824835 0.129034 -0.551137
v 0.827036 0.026148 -0.342569
v 0.923880 0.192815 -0.382683
v 0.864096 0.038835 -0.357920
v 0.895515 0.074963 -0.370934
v 0.916508 0.129034 -0.379630
v 0.877977 0.026148 -0.174640
v 0.980785 0.192815 -0.195090
v 0.917320 0.038835 -0.182466
v 0.950673 0.074963 -0.189101
v 0.972959 0.129034 -0.193534
v 0.895177 0.026148 0.000000
v 1.000000 0.192815 0.000000
v 0.935291 0.038835 0.000000
v 0.969298 0.074963 0.000000
v 0.992021 0.129034 0.000000
v 0.877977 0.026148 0.174640
v 0.980785 0.192815 0.195090
v 0.917320 0.038835 0.182466
v 0.950673 0.074963 0.189101
v 0.972959 0.129034 0.193534
v 0.827036 0.026148 0.342569
v 0.923880 0.192815 0.382683
v 0.864096 0.038835 0.357920
v 0.895515 0.074963 0.370934
v 0.916508 0.129034 0.379630
v 0.744313 0.026148 0.497334
v 0.831470 0.192815 0.555570
v 0.777666 0.038835 0.519620
v 0.805942 0.074963 0.538513
v 0.824835 0.129034 0.551137
v 0.632986 0.026148 0.632986
v 0.707107 0.192815 0.707107
v 0.661351 0.038835 0.661351
v 0.685397 0.074963 0.685397
v 0.701465 0.129034 0.701465
v 0.497334 0.026148 0.744313
v 0.555570 0.192815 0.831470
v 0.519620 0.038835 0.777666
v 0.538513 0.074963 0.805942
v 0.551137 0.129034 0.824835
v 0.342569 0.026148 0.827036
v 0.382683 0.192815 0.923880
v 0.357920 0.038835 0.864096
v 0.370934 0.074963 0.895515
v 0.379630 0.129034 0.916508
v 0.174640 0.026148 0.877977
v 0.195090 0.192815 0.980785
v 0.182466 0.038835 0.917320
v 0.189101 0.074963 0.950673
v 0.193534 0.129034 0.972959
v 0.000000 0.026148 0.895177
v 0.000000 0.192815 1.000000
v 0.000000 0.038835 0.935291
v 0.000000 0.074963 0.969298
v 0.000000 0.129034 0.992021
v -0.174640 0.026148 0.877977
v -0.195090 0.192815 0.980785
v -0.182466 0.038835 0.917320
v -0.189101 0.074963 0.950673
v -0.193534 0.129034 0.972959
v -0.342569 0.026148 0.827036
v -0.382683 0.192815 0.923880
v -0.357920 0.038835 0.864096
v -0.370934 0.074963 0.895515
v -0.379630 0.129034 0.916508
v -0.497334 0.026148 0.744313
v -0.555570 0.192815 0.831470
v -0.519620 0.038835 0.777666
v -0.538513 0.074963 0.805942
v -0.551137 0.129034 0.824835
v -0.632986 0.026148 0.632986
v -0.707107 0.192815 0.707107
v -0.661351 0.038835 0.661351
v -0.685397 0.074963 0.685397
v -0.701465 0.129034 0.701465
v -0.744313 0.026148 0.497334
v -0.831470 0.192815 0.555570
v -0.777666 0.038835 0.519620
v -0.805942 0.074963 0.538513
v -0.824835 0.129034 0.551137
v -0.827036 0.026148 0.342569
v -0.923880 0.192815 0.382683
v -0.864096 0.038835 0.357920
v -0.895515 0.074963 0.370934
v -0.916508 0.129034 0.379630
v -0.877977 0.026148 0.174640
v -0.980785 0.192815 0.195090
v -0.917320 0.038835 0.182466
v -0.950673 0.074963 0.189101
v -0.972959 0.129034 0.193534
v -0.895177 0.026148 0.000000
v -1.000000 0.192815 0.000000
v -0.935291 0.038835 0.000000
v -0.969298 0.074963 0.000000
v -0.992021 0.129034 0.000000
v -0.877977 0.026148 -0.174640
v -0.980785 0.192815 -0.195090
v -0.917320 0.038835 -0.182466
v -0.950673 0.074963 -0.189101
v -0.972959 0.129034 -0.193534
v -0.827036 0.026148 -0.342569
v -0.923880 0.192815 -0.382683
v -0.864096 0.038835 -0.357920
v -0.895515 0.074963 -0.370934
v -0.916508 0.129034 -0.379630
v -0.744313 0.026148 -0.497334
v -0.831470 0.192815 -0.555570
v -0.777666 0.038835 -0.519620
v -0.805942 0.074963 -0.538513
v -0.824835 0.129034 -0.551137
v -0.632986 0.026148 -0.632986
v -0.707107 0.192815 -0.707107
v -0.661351 0.038835 -0.661351
v -0.685397 0.074963 -0.685397
v -0.701465 0.129034 -0.701465
v -0.497334 0.026148 -0.744313
v -0.555570 0.192815 -0.831470
v -0.519620 0.038835 -0.777666
v -0.538513 0.074963 -0.805942
v -0.551137 0.129034 -0.824835
v -0.342569 0.026148 -0.827036
v -0.382683 0.192815 -0.923880
v -0.357920 0.038835 -0.864096
v -0.370934 0.074963 -0.895515
v -0.379630 0.129034 -0.916508
v -0.174640 0.026148 -0.877977
v -0.195090 0.192815 -0.980785
v -0.182466 0.038835 -0.917320
v -0.189101 0.074963 -0.950673
v -0.193534 0.129034 -0.972959
v 0.138509 3.649777 -0.696331
v 0.000000 3.649777 -0.709973
v 0.271695 3.649777 -0.655929
v 0.394440 3.649777 -0.590321
v 0.502027 3.649777 -0.502027
v 0.590321 3.649777 -0.394440
v 0.655929 3.649777 -0.271695
v 0.696331 3.649777 -0.138509
v 0.709973 3.649777 0.000000
v 0.696331 3.649777 0.138509
v 0.655929 3.649777 0.271695
v 0.590321 3.649777 0.394440
v 0.502027 3.649777 0.502027
v 0.394440 3.649777 0.590321
v 0.271695 3.649777 0.655929
v 0.138509 3.649777 0.696331
v 0.000000 3.649777 0.709973
v -0.138509 3.649777 0.696331
v -0.271695 3.649777 0.655929
v -0.394440 3.649777 0.590321
v -0.502027 3.649777 0.502027
v -0.590321 3.649777 0.394440
v -0.655929 3.649777 0.271695
v -0.696331 3.649777 0.138509
v -0.709973 3.649777 0.000000
v -0.696331 3.649777 -0.138509
v -0.655929 3.649777 -0.271695
v -0.590321 3.649777 -0.394440
v -0.502027 3.649777 -0.502027
v -0.394440 3.649777 -0.590321
v -0.271695 3.649777 -0.655929
v -0.138509 3.649777 -0.696331
v 0.138509 3.659825 -0.696331
v 0.000000 3.659825 -0.709973
v 0.271695 3.659825 -0.655929
v 0.394440 3.659825 -0.590321
v 0.502027 3.659825 -0.502027
v 0.590321 3.659825 -0.394440
v 0.655929 3.659825 -0.271695
v 0.696331 3.659825 -0.138509
v 0.709973 3.659825 0.000000
v 0.696331 3.659825 0.138509
v 0.655929 3.659825 0.271695
v 0.590321 3.659825 0.394440
v 0.502027 3.659825 0.502027
v 0.394440 3.659825 0.590321
v 0.271695 3.659825 0.655929
v 0.138509 3.659825 0.696331
v 0.000000 3.659825 0.709973
v -0.138509 3.659825 0.696331
v -0.271695 3.659825 0.655929
v -0.394440 3.659825 0.590321
v -0.502027 3.659825 0.502027
v -0.590321 3.659825 0.394440
v -0.655929 3.659825 0.271695
v -0.696331 3.659825 0.138509
v -0.709973 3.659825 0.000000
v -0.696331 3.659825 -0.138509
v -0.655929 3.659825 -0.271695
v -0.590321 3.659825 -0.394440
v -0.502027 3.659825 -0.502027
v -0.394440 3.659825 -0.590321
v -0.271695 3.659825 -0.655929
v -0.138509 3.659825 -0.696331
v 0.150666 3.221503 -0.757452
v 0.195090 2.859449 -0.980785
v 0.167667 3.193944 -0.842918
v 0.182079 3.115460 -0.915372
v 0.191709 2.998002 -0.963785
v 0.000000 2.859449 -1.000000
v 0.000000 3.221503 -0.772291
v 0.000000 2.998002 -0.982667
v 0.000000 3.115460 -0.933306
v 0.000000 3.193944 -0.859431
v 0.295543 3.221503 -0.713504
v 0.382683 2.859449 -0.923880
v 0.328890 3.193944 -0.794011
v 0.357161 3.115460 -0.862262
v 0.376050 2.998002 -0.907866
v 0.429062 3.221503 -0.642136
v 0.555570 2.859449 -0.831470
v 0.477475 3.193944 -0.714591
v 0.518517 3.115460 -0.776015
v 0.545940 2.998002 -0.817058
v 0.546092 3.221503 -0.546092
v 0.707107 2.859449 -0.707107
v 0.607710 3.193944 -0.607710
v 0.659947 3.115460 -0.659947
v 0.694850 2.998002 -0.694850
v 0.642136 3.221503 -0.429062
v 0.831470 2.859449 -0.555570
v 0.714591 3.193944 -0.477475
v 0.776015 3.115460 -0.518517
v 0.817058 2.998002 -0.545940
v 0.713504 3.221503 -0.295543
v 0.923880 2.859449 -0.382683
v 0.794011 3.193944 -0.328890
v 0.862262 3.115460 -0.357161
v 0.907866 2.998002 -0.376050
v 0.757452 3.221503 -0.150666
v 0.980785 2.859449 -0.195090
v 0.842918 3.193944 -0.167667
v 0.915372 3.115460 -0.182079
v 0.963785 2.998002 -0.191709
v 0.772291 3.221503 0.000000
v 1.000000 2.859449 0.000000
v 0.859431 3.193944 0.000000
v 0.933306 3.115460 0.000000
v 0.982667 2.998002 0.000000
v 0.757452 3.221503 0.150666
v 0.980785 2.859449 0.195090
v 0.842918 3.193944 0.167667
v 0.915372 3.115460 0.182079
v 0.963785 2.998002 0.191709
v 0.713504 3.221503 0.295543
v 0.923880 2.859449 0.382683
v 0.794011 3.193944 0.328890
v 0.862262 3.115460 0.357161
v 0.907866 2.998002 0.376050
v 0.642136 3.221503 0.429062
v 0.831470 2.859449 0.555570
v 0.714591 3.193944 0.477475
v 0.776015 3.115460 0.518517
v 0.817058 2.998002 0.545940
v 0.546092 3.221503 0.546092
v 0.707107 2.859449 0.707107
v 0.607710 3.193944 0.607710
v 0.659947 3.115460 0.659947
v 0.694850 2.998002 0.694850
v 0.429062 3.221503 0.642136
v 0.555570 2.859449 0.831470
v 0.477475 3.193944 0.714591
v 0.518517 3.115460 0.776015
v 0.545940 2.998002 0.817058
v 0.295543 3.221503 0.713504
v 0.382683 2.859449 0.923880
v 0.328890 3.193944 0.794011
v 0.357161 3.115460 0.862262
v 0.376050 2.998002 0.907866
v 0.150666 3.221503 0.757452
v 0.195090 2.859449 0.980785
v 0.167667 3.193944 0.842918
v 0.182079 3.115460 0.915372
v 0.191709 2.998002 0.963785
v 0.000000 3.221503 0.772291
v 0.000000 2.859449 1.000000
v 0.000000 3.193944 0.859431
v 0.000000 3.115460 0.933306
v 0.000000 2.998002 0.982667
v -0.150666 3.221503 0.757452
v -0.195090 2.859449 0.980785
v -0.167667 3.193944 0.842918
v -0.182079 3.115460 0.915372
v -0.191709 2.998002 0.963785
v -0.295543 3.221503 0.713504
v -0.382683 2.859449 0.923880
v -0.328890 3.193944 0.794011
v -0.357161 3.115460 0.862262
v -0.376050 2.998002 0.907866
v -0.429062 3.221503 0.642136
v -0.555570 2.859449 0.831470
v -0.477475 3.193944 0.714591
v -0.518517 3.115460 0.776015
v -0.545940 2.998002 0.817058
v -0.546092 3.221503 0.546092
v -0.707107 2.859449 0.707107
v -0.607710 3.193944 0.607710
v -0.659947 3.115460 0.659947
v -0.694850 2.998002 0.694850
v -0.642136 3.221503 0.429062
v -0.831470 2.859449 0.555570
v -0.714591 3.193944 0.477475
v -0.776015 3.115460 0.518517
v -0.817058 2.998002 0.545940
v -0.713504 3.221503 0.295543
v -0.923880 2.859449 0.382683
v -0.794011 3.193944 0.328890
v -0.862262 3.115460 0.357161
v -0.907866 2.998002 0.376050
v -0.757452 3.221503 0.150666
v -0.980785 2.859449 0.195090
v -0.842918 3.193944 0.167667
v -0.915372 3.115460 0.182079
v -0.963785 2.998002 0.191709
v -0.772291 3.221503 0.000000
v -1.000000 2.859449 0.000000
v -0.859431 3.193944 0.000000
v -0.933306 3.115460 0.000000
v -0.982667 2.998002 0.000000
v -0.757452 3.221503 -0.150666
v -0.980785 2.859449 -0.195090
v -0.842918 3.193944 -0.167667
v -0.915372 3.115460 -0.182079
v -0.963785 2.998002 -0.191709
v -0.713504 3.221503 -0.295543
v -0.923880 2.859449 -0.382683
v -0.794011 3.193944 -0.328890
v -0.862262 3.115460 -0.357161
v -0.907866 2.998002 -0.376050
v -0.642136 3.221503 -0.429062
v -0.831470 2.859449 -0.555570
v -0.714591 3.193944 -0.477475
v -0.776015 3.115460 -0.518517
v -0.817058 2.998002 -0.545940
v -0.546092 3.221503 -0.546092
v -0.707107 2.859449 -0.707107
v -0.607710 3.193944 -0.607710
v -0.659947 3.115460 -0.659947
v -0.694850 2.998002 -0.694850
v -0.429062 3.221503 -0.642136
v -0.555570 2.859449 -0.831470
v -0.477475 3.193944 -0.714591
v -0.518517 3.115460 -0.776015
v -0.545940 2.998002 -0.817058
v -0.295543 3.221503 -0.713504
v -0.382683 2.859449 -0.923880
v -0.328890 3.193944 -0.794011
v -0.357161 3.115460 -0.862262
v -0.376050 2.998002 -0.907866
v -0.150666 3.221503 -0.757452
v -0.195090 2.859449 -0.980785
v -0.167667 3.193944 -0.842918
v -0.182079 3.115460 -0.915372
v -0.191709 2.998002 -0.963785
v 0.000000 3.221503 -0.755589
v 0.000000 3.294032 -0.709973
v 0.000000 3.227024 -0.738132
v 0.000000 3.242746 -0.723333
v 0.000000 3.266276 -0.713445
v 0.138509 3.294032 -0.696331
v 0.147408 3.221503 -0.741070
v 0.139186 3.266276 -0.699737
v 0.141115 3.242746 -0.709435
v 0.144002 3.227024 -0.723949
v 0.271695 3.294032 -0.655929
v 0.289151 3.221503 -0.698073
v 0.273024 3.266276 -0.659137
v 0.276808 3.242746 -0.668273
v 0.282471 3.227024 -0.681945
v 0.394440 3.294032 -0.590321
v 0.419783 3.221503 -0.628249
v 0.396369 3.266276 -0.593208
v 0.401863 3.242746 -0.601430
v 0.410084 3.227024 -0.613734
v 0.502027 3.294032 -0.502027
v 0.534282 3.221503 -0.534282
v 0.504482 3.266276 -0.504482
v 0.511474 3.242746 -0.511474
v 0.521938 3.227024 -0.521938
v 0.590321 3.294032 -0.394440
v 0.628249 3.221503 -0.419782
v 0.593208 3.266276 -0.396369
v 0.601430 3.242746 -0.401863
v 0.613734 3.227024 -0.410084
v 0.655929 3.294032 -0.271695
v 0.698073 3.221503 -0.289151
v 0.659137 3.266276 -0.273024
v 0.668273 3.242746 -0.276808
v 0.681945 3.227024 -0.282471
v 0.696331 3.294032 -0.138509
v 0.741070 3.221503 -0.147408
v 0.699737 3.266276 -0.139186
v 0.709435 3.242746 -0.141115
v 0.723949 3.227024 -0.144002
v 0.709973 3.294032 0.000000
v 0.755589 3.221503 0.000000
v 0.713445 3.266276 0.000000
v 0.723333 3.242746 0.000000
v 0.738132 3.227024 0.000000
v 0.696331 3.294032 0.138509
v 0.741070 3.221503 0.147408
v 0.699737 3.266276 0.139186
v 0.709435 3.242746 0.141115
v 0.723949 3.227024 0.144002
v 0.655929 3.294032 0.271695
v 0.698073 3.221503 0.289151
v 0.659137 3.266276 0.273024
v 0.668273 3.242746 0.276808
v 0.681945 3.227024 0.282471
v 0.590321 3.294032 0.394440
v 0.628249 3.221503 0.419783
v 0.593208 3.266276 0.396369
v 0.601430 3.242746 0.401863
v 0.613734 3.227024 0.410084
v 0.502027 3.294032 0.502027
v 0.534282 3.221503 0.534282
v 0.504482 3.266276 0.504482
v 0.511474 3.242746 0.511474
v 0.521938 3.227024 0.521938
v 0.394440 3.294032 0.590321
v 0.419782 3.221503 0.628249
v 0.396369 3.266276 0.593208
v 0.401863 3.242746 0.601430
v 0.410084 3.227024 0.613734
v 0.271695 3.294032 0.655929
v 0.289151 3.221503 0.698073
v 0.273024 3.266276 0.659137
v 0.276808 3.242746 0.668273
v 0.282471 3.227024 0.681945
v 0.138509 3.294032 0.696331
v 0.147408 3.221503 0.741070
v 0.139186 3.266276 0.699737
v 0.141115 3.242746 0.709435
v 0.144002 3.227024 0.723949
v 0.000000 3.294032 0.709973
v 0.000000 3.221503 0.755589
v 0.000000 3.266276 0.713445
v 0.000000 3.242746 0.723333
v 0.000000 3.227024 0.738132
v -0.138509 3.294032 0.696331
v -0.147408 3.221503 0.741070
v -0.139186 3.266276 0.699737
v -0.141115 3.242746 0.709435
v -0.144002 3.227024 0.723949
v -0.271695 3.294032 0.655929
v -0.289151 3.221503 0.698073
v -0.273024 3.266276 0.659137
v -0.276808 3.242746 0.668273
v -0.282471 3.227024 0.681945
v -0.394440 3.294032 0.590321
v -0.419783 3.221503 0.628249
v -0.396369 3.266276 0.593208
v -0.401863 3.242746 0.601430
v -0.410084 3.227024 0.613734
v -0.502027 3.294032 0.502027
v -0.534282 3.221503 0.534282
v -0.504482 3.266276 0.504482
v -0.511474 3.242746 0.511474
v -0.521938 3.227024 0.521938
v -0.590321 3.294032 0.394440
v -0.628249 3.221503 0.419782
v -0.593208 3.266276 0.396369
v -0.601430 3.242746 0.401863
v -0.613734 3.227024 0.410084
v -0.655929 3.294032 0.271695
v -0.698073 3.221503 0.289151
v -0.659137 3.266276 0.273024
v -0.668273 3.242746 0.276808
v -0.681945 3.227024 0.282471
v -0.696331 3.294032 0.138509
v -0.741070 3.221503 0.147408
v -0.699737 3.266276 0.139186
v -0.709435 3.242746 0.141115
v -0.723949 3.227024 0.144002
v -0.709973 3.294032 0.000000
v -0.755589 3.221503 0.000000
v -0.713445 3.266276 0.000000
v -0.723333 3.242746 0.000000
v -0.738132 3.227024 0.000000
v -0.696331 3.294032 -0.138509
v -0.741070 3.221503 -0.147408
v -0.699737 3.266276 -0.139186
v -0.709435 3.242746 -0.141115
v -0.723949 3.227024 -0.144002
v -0.655929 3.294032 -0.271695
v -0.698073 3.221503 -0.289151
v -0.659137 3.266276 -0.273024
v -0.668273 3.242746 -0.276808
v -0.681945 3.227024 -0.282471
v -0.590321 3.294032 -0.394440
v -0.628249 3.221503 -0.419783
v -0.593208 3.266276 -0.396369
v -0.601430 3.242746 -0.401863
v -0.613734 3.227024 -0.410084
v -0.502027 3.294032 -0.502027
v -0.534282 3.221503 -0.534282
v -0.504482 3.266276 -0.504482
v -0.511474 3.242746 -0.511474
v -0.521938 3.227024 -0.521938
v -0.394440 3.294032 -0.590321
v -0.419782 3.221503 -0.628249
v -0.396369 3.266276 -0.593208
v -0.401863 3.242746 -0.601430
v -0.410084 3.227024 -0.613734
v -0.271695 3.294032 -0.655929
v -0.289151 3.221503 -0.698073
v -0.273024 3.266276 -0.659137
v -0.276808 3.242746 -0.668273
v -0.282471 3.227024 -0.681945
v -0.138509 3.294032 -0.696331
v -0.147408 3.221503 -0.741070
v -0.139186 3.266276 -0.699737
v -0.141115 3.242746 -0.709435
v -0.144002 3.227024 -0.723949
vn -0.0000 -0.0614 -0.9981
vn 0.1947 -0.0614 -0.9789
vn 0.1889 -0.2489 -0.9499
vn -0.0000 -0.2489 -0.9685
vn 0.1660 -0.5258 -0.8343
vn -0.0000 -0.5258 -0.8506
vn 0.1097 -0.8270 -0.5514
vn -0.0000 -0.8270 -0.5622
vn 0.0320 -0.9864 -0.1610
vn -0.0000 -0.9864 -0.1641
vn 0.3820 -0.0614 -0.9221
vn 0.3706 -0.2489 -0.8948
vn 0.3255 -0.5258 -0.7859
vn 0.2151 -0.8270 -0.5194
vn 0.0628 -0.9864 -0.1516
vn 0.5545 -0.0614 -0.8299
vn 0.5381 -0.2489 -0.8053
vn 0.4726 -0.5258 -0.7073
vn 0.3123 -0.8270 -0.4674
vn 0.0912 -0.9864 -0.1365
vn 0.7058 -0.0614 -0.7058
vn 0.6848 -0.2489 -0.6848
vn 0.6015 -0.5258 -0.6015
vn 0.3975 -0.8270 -0.3975
vn 0.1161 -0.9864 -0.1161
vn 0.8299 -0.0614 -0.5545
vn 0.8053 -0.2489 -0.5381
vn 0.7073 -0.5258 -0.4726
vn 0.4674 -0.8270 -0.3123
vn 0.1365 -0.9864 -0.0912
vn 0.9221 -0.0614 -0.3820
vn 0.8948 -0.2489 -0.3706
vn 0.7859 -0.5258 -0.3255
vn 0.5194 -0.8270 -0.2151
vn 0.1516 -0.9864 -0.0628
vn 0.9789 -0.0614 -0.1947
vn 0.9499 -0.2489 -0.1889
vn 0.8343 -0.5258 -0.1660
vn 0.5514 -0.8270 -0.1097
vn 0.1610 -0.9864 -0.0320
vn 0.9981 -0.0614 -0.0000
vn 0.9685 -0.2489 -0.0000
vn 0.8506 -0.5258 -0.0000
vn 0.5622 -0.8270 -0.0000
vn 0.1641 -0.9864 -0.0000
vn 0.9789 -0.0614 0.1947
vn 0.9499 -0.2489 0.1889
vn 0.8343 -0.5258 0.1660
vn 0.5514 -0.8270 0.1097
vn 0.1610 -0.9864 0.0320
vn 0.9221 -0.0614 0.3820
vn 0.8948 -0.2489 0.3706
vn 0.7859 -0.5258 0.3255
vn 0.5194 -0.8270 0.2151
vn 0.1516 -0.9864 0.0628
vn 0.8299 -0.0614 0.5545
vn 0.8053 -0.2489 0.5381
vn 0.7073 -0.5258 0.4726
vn 0.4674 -0.8270 0.3123
vn 0.1365 -0.9864 0.0912
vn 0.7058 -0.0614 0.7058
vn 0.6848 -0.2489 0.6848
vn 0.6015 -0.5258 0.6015
vn 0.3975 -0.8270 0.3975
vn 0.1161 -0.9864 0.1161
vn 0.5545 -0.0614 0.8299
vn 0.5381 -0.2489 0.8053
vn 0.4726 -0.5258 0.7073
vn 0.3123 -0.8270 0.4674
vn 0.0912 -0.9864 0.1365
vn 0.3820 -0.0614 0.9221
vn 0.3706 -0.2489 0.8948
vn 0.3255 -0.5258 0.7859
vn 0.2151 -0.8270 0.5194
vn 0.0628 -0.9864 0.1516
vn 0.1947 -0.0614 0.9789
vn 0.1889 -0.2489 0.9499
vn 0.1660 -0.5258 0.8343
vn 0.1097 -0.8270 0.5514
vn 0.0320 -0.9864 0.1610
vn -0.0000 -0.0614 0.9981
vn -0.0000 -0.2489 0.9685
vn -0.0000 -0.5258 0.8506
vn -0.0000 -0.8270 0.5622
vn -0.0000 -0.9864 0.1641
vn -0.1947 -0.0614 0.9789
vn -0.1889 -0.2489 0.9499
vn -0.1660 -0.5258 0.8343
vn -0.1097 -0.8270 0.5514
vn -0.0320 -0.9864 0.1610
vn -0.3820 -0.0614 0.9221
vn -0.3706 -0.2489 0.8948
vn -0.3255 -0.5258 0.7859
vn -0.2151 -0.8270 0.5194
vn -0.0628 -0.9864 0.1516
vn -0.5545 -0.0614 0.8299
vn -0.5381 -0.2489 0.8053
vn -0.4726 -0.5258 0.7073
vn -0.3123 -0.8270 0.4674
vn -0.0912 -0.9864 0.1365
vn -0.7058 -0.0614 0.7058
vn -0.6848 -0.2489 0.6848
vn -0.6015 -0.5258 0.6015
vn -0.3975 -0.8270 0.3975
vn -0.1161 -0.9864 0.1161
vn -0.8299 -0.0614 0.5545
vn -0.8053 -0.2489 0.5381
vn -0.7073 -0.5258 0.4726
vn -0.4674 -0.8270 0.3123
vn -0.1365 -0.9864 0.0912
vn -0.9221 -0.0614 0.3820
vn -0.8948 -0.2489 0.3706
vn -0.7859 -0.5258 0.3255
vn -0.5194 -0.8270 0.2151
vn -0.1516 -0.9864 0.0628
vn -0.9789 -0.0614 0.1947
vn -0.9499 -0.2489 0.1889
vn -0.8343 -0.5258 0.1660
vn -0.5514 -0.8270 0.1097
vn -0.1610 -0.9864 0.0320
vn -0.9981 -0.0614 -0.0000
vn -0.9685 -0.2489 -0.0000
vn -0.8506 -0.5258 -0.0000
vn -0.5622 -0.8270 -0.0000
vn -0.1641 -0.9864 -0.0000
vn -0.9789 -0.0614 -0.1947
vn -0.9499 -0.2489 -0.1889
vn -0.8343 -0.5258 -0.1660
vn -0.5514 -0.8270 -0.1097
vn -0.1610 -0.9864 -0.0320
vn -0.9221 -0.0614 -0.3820
vn -0.8948 -0.2489 -0.3706
vn -0.7859 -0.5258 -0.3255
vn -0.5194 -0.8270 -0.2151
vn -0.1516 -0.9864 -0.0628
vn -0.8299 -0.0614 -0.5545
vn -0.8053 -0.2489 -0.5381
vn -0.7073 -0.5258 -0.4726
vn -0.4674 -0.8270 -0.3123
vn -0.1365 -0.9864 -0.0912
vn -0.7058 -0.0614 -0.7058
vn -0.6848 -0.2489 -0.6848
vn -0.6015 -0.5258 -0.6015
vn -0.3975 -0.8270 -0.3975
vn -0.1161 -0.9864 -0.1161
vn -0.5545 -0.0614 -0.8299
vn -0.5381 -0.2489 -0.8053
vn -0.4726 -0.5258 -0.7073
vn -0.3123 -0.8270 -0.4674
vn -0.0912 -0.9864 -0.1365
vn -0.3820 -0.0614 -0.9221
vn -0.3706 -0.2489 -0.8948
vn -0.3255 -0.5258 -0.7859
vn -0.2151 -0.8270 -0.5194
vn -0.0628 -0.9864 -0.1516
vn -0.1947 -0.0614 -0.9789
vn -0.1889 -0.2489 -0.9499
vn -0.1660 -0.5258 -0.8343
vn -0.1097 -0.8270 -0.5514
vn -0.0320 -0.9864 -0.1610
vn 0.9239 -0.0000 0.3827
vn 0.9808 -0.0000 0.1951
vn -0.0000 1.0000 -0.0000
vn -1.0000 -0.0000 -0.0000
vn -0.9808 -0.0000 0.1951
vn 0.8315 -0.0000 0.5556
vn -0.9808 -0.0000 -0.1951
vn 0.7071 -0.0000 0.7071
vn -0.9239 -0.0000 -0.3827
vn 0.5556 -0.0000 0.8315
vn -0.8315 -0.0000 -0.5556
vn 0.3827 -0.0000 0.9239
vn 0.1951 -0.0000 -0.9808
vn -0.0000 -0.0000 -1.0000
vn -0.7071 -0.0000 -0.7071
vn 0.1951 -0.0000 0.9808
vn 0.3827 -0.0000 -0.9239
vn -0.5556 -0.0000 -0.8315
vn -0.0000 -0.0000 1.0000
vn 0.5556 -0.0000 -0.8315
vn -0.3827 -0.0000 -0.9239
vn -0.1951 -0.0000 0.9808
vn 0.7071 -0.0000 -0.7071
vn -0.1951 -0.0000 -0.9808
vn -0.3827 -0.0000 0.9239
vn 0.8315 -0.0000 -0.5556
vn -0.5556 -0.0000 0.8315
vn 0.9239 -0.0000 -0.3827
vn -0.7071 -0.0000 0.7071
vn 0.9808 -0.0000 -0.1951
vn -0.8315 -0.0000 0.5556
vn 1.0000 -0.0000 -0.0000
vn -0.9239 -0.0000 0.3827
vn 0.1947 0.0614 -0.9789
vn -0.0000 0.0614 -0.9981
vn -0.0000 0.2489 -0.9685
vn 0.1889 0.2489 -0.9499
vn -0.0000 0.5258 -0.8506
vn 0.1660 0.5258 -0.8343
vn -0.0000 0.8270 -0.5622
vn 0.1097 0.8270 -0.5514
vn -0.0000 0.9864 -0.1641
vn 0.0320 0.9864 -0.1610
vn 0.3820 0.0614 -0.9221
vn 0.3706 0.2489 -0.8948
vn 0.3255 0.5258 -0.7859
vn 0.2151 0.8270 -0.5194
vn 0.0628 0.9864 -0.1516
vn 0.5545 0.0614 -0.8299
vn 0.5381 0.2489 -0.8053
vn 0.4726 0.5258 -0.7073
vn 0.3123 0.8270 -0.4674
vn 0.0912 0.9864 -0.1365
vn 0.7058 0.0614 -0.7058
vn 0.6848 0.2489 -0.6848
vn 0.6015 0.5258 -0.6015
vn 0.3975 0.8270 -0.3975
vn 0.1161 0.9864 -0.1161
vn 0.8299 0.0614 -0.5545
vn 0.8053 0.2489 -0.5381
vn 0.7073 0.5258 -0.4726
vn 0.4674 0.8270 -0.3123
vn 0.1365 0.9864 -0.0912
vn 0.9221 0.0614 -0.3820
vn 0.8948 0.2489 -0.3706
vn 0.7859 0.5258 -0.3255
vn 0.5194 0.8270 -0.2151
vn 0.1516 0.9864 -0.0628
vn 0.9789 0.0614 -0.1947
vn 0.9499 0.2489 -0.1889
vn 0.8343 0.5258 -0.1660
vn 0.5514 0.8270 -0.1097
vn 0.1610 0.9864 -0.0320
vn 0.9981 0.0614 -0.0000
vn 0.9685 0.2489 -0.0000
vn 0.8506 0.5258 -0.0000
vn 0.5622 0.8270 -0.0000
vn 0.1641 0.9864 -0.0000
vn 0.9789 0.0614 0.1947
vn 0.9499 0.2489 0.1889
vn 0.8343 0.5258 0.1660
vn 0.5514 0.8270 0.1097
vn 0.1610 0.9864 0.0320
vn 0.9221 0.0614 0.3820
vn 0.8948 0.2489 0.3706
vn 0.7859 0.5258 0.3255
vn 0.5194 0.8270 0.2151
vn 0.1516 0.9864 0.0628
vn 0.8299 0.0614 0.5545
vn 0.8053 0.2489 0.5381
vn 0.7073 0.5258 0.4726
vn 0.4674 0.8270 0.3123
vn 0.1365 0.9864 0.0912
vn 0.7058 0.0614 0.7058
vn 0.6848 0.2489 0.6848
vn 0.6015 0.5258 0.6015
vn 0.3975 0.8270 0.3975
vn 0.1161 0.9864 0.1161
vn 0.5545 0.0614 0.8299
vn 0.5381 0.2489 0.8053
vn 0.4726 0.5258 0.7073
vn 0.3123 0.8270 0.4674
vn 0.0912 0.9864 0.1365
vn 0.3820 0.0614 0.9221
vn 0.3706 0.2489 0.8948
vn 0.3255 0.5258 0.7859
vn 0.2151 0.8270 0.5194
vn 0.0628 0.9864 0.1516
vn 0.1947 0.0614 0.9789
vn 0.1889 0.2489 0.9499
vn 0.1660 0.5258 0.8343
vn 0.1097 0.8270 0.5514
vn 0.0320 0.9864 0.1610
vn -0.0000 0.0614 0.9981
vn -0.0000 0.2489 0.9685
vn -0.0000 0.5258 0.8506
vn -0.0000 0.8270 0.5622
vn -0.0000 0.9864 0.1641
vn -0.1947 0.0614 0.9789
vn -0.1889 0.2489 0.9499
vn -0.1660 0.5258 0.8343
vn -0.1097 0.8270 0.5514
vn -0.0320 0.9864 0.1610
vn -0.3820 0.0614 0.9221
vn -0.3706 0.2489 0.8948
vn -0.3255 0.5258 0.7859
vn -0.2151 0.8270 0.5194
vn -0.0628 0.9864 0.1516
vn -0.5545 0.0614 0.8299
vn -0.5381 0.2489 0.8053
vn -0.4726 0.5258 0.7073
vn -0.3123 0.8270 0.4674
vn -0.0912 0.9864 0.1365
vn -0.7058 0.0614 0.7058
vn -0.6848 0.2489 0.6848
vn -0.6015 0.5258 0.6015
vn -0.3975 0.8270 0.3975
vn -0.1161 0.9864 0.1161
vn -0.8299 0.0614 0.5545
vn -0.8053 0.2489 0.5381
vn -0.7073 0.5258 0.4726
vn -0.4674 0.8270 0.3123
vn -0.1365 0.9864 0.0912
vn -0.9221 0.0614 0.3820
vn -0.8948 0.2489 0.3706
vn -0.7859 0.5258 0.3255
vn -0.5194 0.8270 0.2151
vn -0.1516 0.9864 0.0628
vn -0.9789 0.0614 0.1947
vn -0.9499 0.2489 0.1889
vn -0.8343 0.5258 0.1660
vn -0.5514 0.8270 0.1097
vn -0.1610 0.9864 0.0320
vn -0.9981 0.0614 -0.0000
vn -0.9685 0.2489 -0.0000
vn -0.8506 0.5258 -0.0000
vn -0.5622 0.8270 -0.0000
vn -0.1641 0.9864 -0.0000
vn -0.9789 0.0614 -0.1947
vn -0.9499 0.2489 -0.1889
vn -0.8343 0.5258 -0.1660
vn -0.5514 0.8270 -0.1097
vn -0.1610 0.9864 -0.0320
vn -0.9221 0.0614 -0.3820
vn -0.8948 0.2489 -0.3706
vn -0.7859 0.5258 -0.3255
vn -0.5194 0.8270 -0.2151
vn -0.1516 0.9864 -0.0628
vn -0.8299 0.0614 -0.5545
vn -0.8053 0.2489 -0.5381
vn -0.7073 0.5258 -0.4726
vn -0.4674 0.8270 -0.3123
vn -0.1365 0.9864 -0.0912
vn -0.7058 0.0614 -0.7058
vn -0.6848 0.2489 -0.6848
vn -0.6015 0.5258 -0.6015
vn -0.3975 0.8270 -0.3975
vn -0.1161 0.9864 -0.1161
vn -0.5545 0.0614 -0.8299
vn -0.5381 0.2489 -0.8053
vn -0.4726 0.5258 -0.7073
vn -0.3123 0.8270 -0.4674
vn -0.0912 0.9864 -0.1365
vn -0.3820 0.0614 -0.9221
vn -0.3706 0.2489 -0.8948
vn -0.3255 0.5258 -0.7859
vn -0.2151 0.8270 -0.5194
vn -0.0628 0.9864 -0.1516
vn -0.1947 0.0614 -0.9789
vn -0.1889 0.2489 -0.9499
vn -0.1660 0.5258 -0.8343
vn -0.1097 0.8270 -0.5514
vn -0.0320 0.9864 -0.1610
vn 0.0283 0.9894 -0.1425
vn -0.0000 0.9894 -0.1453
vn -0.0000 0.8431 -0.5377
vn 0.1049 0.8431 -0.5274
vn -0.0000 0.5389 -0.8424
vn 0.1643 0.5389 -0.8262
vn -0.0000 0.2552 -0.9669
vn 0.1886 0.2552 -0.9483
vn -0.0000 0.0622 -0.9981
vn 0.1947 0.0622 -0.9789
vn 0.0556 0.9894 -0.1342
vn 0.2058 0.8431 -0.4968
vn 0.3224 0.5389 -0.7782
vn 0.3700 0.2552 -0.8933
vn 0.3819 0.0622 -0.9221
vn 0.0807 0.9894 -0.1208
vn 0.2987 0.8431 -0.4471
vn 0.4680 0.5389 -0.7004
vn 0.5372 0.2552 -0.8039
vn 0.5545 0.0622 -0.8299
vn 0.1027 0.9894 -0.1027
vn 0.3802 0.8431 -0.3802
vn 0.5956 0.5389 -0.5956
vn 0.6837 0.2552 -0.6837
vn 0.7057 0.0622 -0.7057
vn 0.1208 0.9894 -0.0807
vn 0.4471 0.8431 -0.2987
vn 0.7004 0.5389 -0.4680
vn 0.8039 0.2552 -0.5372
vn 0.8299 0.0622 -0.5545
vn 0.1342 0.9894 -0.0556
vn 0.4968 0.8431 -0.2058
vn 0.7782 0.5389 -0.3224
vn 0.8933 0.2552 -0.3700
vn 0.9221 0.0622 -0.3819
vn 0.1425 0.9894 -0.0283
vn 0.5274 0.8431 -0.1049
vn 0.8262 0.5389 -0.1643
vn 0.9483 0.2552 -0.1886
vn 0.9789 0.0622 -0.1947
vn 0.1453 0.9894 -0.0000
vn 0.5377 0.8431 -0.0000
vn 0.8424 0.5389 -0.0000
vn 0.9669 0.2552 -0.0000
vn 0.9981 0.0622 -0.0000
vn 0.1425 0.9894 0.0283
vn 0.5274 0.8431 0.1049
vn 0.8262 0.5389 0.1643
vn 0.9483 0.2552 0.1886
vn 0.9789 0.0622 0.1947
vn 0.1342 0.9894 0.0556
vn 0.4968 0.8431 0.2058
vn 0.7782 0.5389 0.3224
vn 0.8933 0.2552 0.3700
vn 0.9221 0.0622 0.3819
vn 0.1208 0.9894 0.0807
vn 0.4471 0.8431 0.2987
vn 0.7004 0.5389 0.4680
vn 0.8039 0.2552 0.5372
vn 0.8299 0.0622 0.5545
vn 0.1027 0.9894 0.1027
vn 0.3802 0.8431 0.3802
vn 0.5956 0.5389 0.5956
vn 0.6837 0.2552 0.6837
vn 0.7057 0.0622 0.7057
vn 0.0807 0.9894 0.1208
vn 0.2987 0.8431 0.4471
vn 0.4680 0.5389 0.7004
vn 0.5372 0.2552 0.8039
vn 0.5545 0.0622 0.8299
vn 0.0556 0.9894 0.1342
vn 0.2058 0.8431 0.4968
vn 0.3224 0.5389 0.7782
vn 0.3700 0.2552 0.8933
vn 0.3819 0.0622 0.9221
vn 0.0283 0.9894 0.1425
vn 0.1049 0.8431 0.5274
vn 0.1643 0.5389 0.8262
vn 0.1886 0.2552 0.9483
vn 0.1947 0.0622 0.9789
vn -0.0000 0.9894 0.1453
vn -0.0000 0.8431 0.5377
vn -0.0000 0.5389 0.8424
vn -0.0000 0.2552 0.9669
vn -0.0000 0.0622 0.9981
vn -0.0283 0.9894 0.1425
vn -0.1049 0.8431 0.5274
vn -0.1643 0.5389 0.8262
vn -0.1886 0.2552 0.9483
vn -0.1947 0.0622 0.9789
vn -0.0556 0.9894 0.1342
vn -0.2058 0.8431 0.4968
vn -0.3224 0.5389 0.7782
vn -0.3700 0.2552 0.8933
vn -0.3819 0.0622 0.9221
vn -0.0807 0.9894 0.1208
vn -0.2987 0.8431 0.4471
vn -0.4680 0.5389 0.7004
vn -0.5372 0.2552 0.8039
vn -0.5545 0.0622 0.8299
vn -0.1027 0.9894 0.1027
vn -0.3802 0.8431 0.3802
vn -0.5956 0.5389 0.5956
vn -0.6837 0.2552 0.6837
vn -0.7057 0.0622 0.7057
vn -0.1208 0.9894 0.0807
vn -0.4471 0.8431 0.2987
vn -0.7004 0.5389 0.4680
vn -0.8039 0.2552 0.5372
vn -0.8299 0.0622 0.5545
vn -0.1342 0.9894 0.0556
vn -0.4968 0.8431 0.2058
vn -0.7782 0.5389 0.3224
vn -0.8933 0.2552 0.3700
vn -0.9221 0.0622 0.3819
vn -0.1425 0.9894 0.0283
vn -0.5274 0.8431 0.1049
vn -0.8262 0.5389 0.1643
vn -0.9483 0.2552 0.1886
vn -0.9789 0.0622 0.1947
vn -0.1453 0.9894 -0.0000
vn -0.5377 0.8431 -0.0000
vn -0.8424 0.5389 -0.0000
vn -0.9669 0.2552 -0.0000
vn -0.9981 0.0622 -0.0000
vn -0.1425 0.9894 -0.0283
vn -0.5274 0.8431 -0.1049
vn -0.8262 0.5389 -0.1643
vn -0.9483 0.2552 -0.1886
vn -0.9789 0.0622 -0.1947
vn -0.1342 0.9894 -0.0556
vn -0.4968 0.8431 -0.2058
vn -0.7782 0.5389 -0.3224
vn -0.8933 0.2552 -0.3700
vn -0.9221 0.0622 -0.3819
vn -0.1208 0.9894 -0.0807
vn -0.4471 0.8431 -0.2987
vn -0.7004 0.5389 -0.4680
vn -0.8039 0.2552 -0.5372
vn -0.8299 0.0622 -0.5545
vn -0.1027 0.9894 -0.1027
vn -0.3802 0.8431 -0.3802
vn -0.5956 0.5389 -0.5956
vn -0.6837 0.2552 -0.6837
vn -0.7057 0.0622 -0.7057
vn -0.0807 0.9894 -0.1208
vn -0.2987 0.8431 -0.4471
vn -0.4680 0.5389 -0.7004
vn -0.5372 0.2552 -0.8039
vn -0.5545 0.0622 -0.8299
vn -0.0556 0.9894 -0.1342
vn -0.2058 0.8431 -0.4968
vn -0.3224 0.5389 -0.7782
vn -0.3700 0.2552 -0.8933
vn -0.3819 0.0622 -0.9221
vn -0.0283 0.9894 -0.1425
vn -0.1049 0.8431 -0.5274
vn -0.1643 0.5389 -0.8262
vn -0.1886 0.2552 -0.9483
vn -0.1947 0.0622 -0.9789
vt 1.000000 0.526080
vt 0.968750 0.526080
vt 0.968750 0.516099
vt 0.999876 0.516099
vt 0.968750 0.500000
vt 0.999520 0.500000
vt 0.750000 0.489929
vt 0.796808 0.485319
vt 0.793792 0.470157
vt 0.750000 0.474470
vt 0.791914 0.460714
vt 0.750000 0.464843
vt 0.937500 0.526080
vt 0.937500 0.516099
vt 0.937500 0.500000
vt 0.841817 0.471666
vt 0.835901 0.457383
vt 0.832217 0.448489
vt 0.906250 0.526080
vt 0.906250 0.516099
vt 0.906250 0.500000
vt 0.883298 0.449494
vt 0.874709 0.436640
vt 0.869360 0.428635
vt 0.875000 0.526080
vt 0.875000 0.516099
vt 0.875000 0.500000
vt 0.919656 0.419656
vt 0.908724 0.408724
vt 0.901917 0.401917
vt 0.843750 0.526080
vt 0.843750 0.516099
vt 0.843750 0.500000
vt 0.949494 0.383298
vt 0.936640 0.374709
vt 0.928635 0.369360
vt 0.812500 0.526080
vt 0.812500 0.516099
vt 0.812500 0.500000
vt 0.971666 0.341817
vt 0.957383 0.335901
vt 0.948489 0.332217
vt 0.781250 0.526080
vt 0.781250 0.516099
vt 0.781250 0.500000
vt 0.985319 0.296808
vt 0.970157 0.293792
vt 0.960714 0.291914
vt 0.750000 0.526080
vt 0.750000 0.516099
vt 0.750000 0.500000
vt 0.989929 0.250000
vt 0.974470 0.250000
vt 0.964842 0.250000
vt 0.718750 0.526080
vt 0.718750 0.516099
vt 0.718750 0.500000
vt 0.985319 0.203192
vt 0.970157 0.206208
vt 0.960715 0.208086
vt 0.687500 0.526080
vt 0.687500 0.516099
vt 0.687500 0.500000
vt 0.971666 0.158183
vt 0.957383 0.164099
vt 0.948489 0.167783
vt 0.656250 0.526080
vt 0.656250 0.516099
vt 0.656250 0.500000
vt 0.949494 0.116702
vt 0.936640 0.125291
vt 0.928635 0.130640
vt 0.625000 0.526080
vt 0.625000 0.516099
vt 0.625000 0.500000
vt 0.919656 0.080344
vt 0.908724 0.091276
vt 0.901917 0.098083
vt 0.593750 0.526080
vt 0.593750 0.516099
vt 0.593750 0.500000
vt 0.883298 0.050506
vt 0.874709 0.063360
vt 0.869360 0.071365
vt 0.562500 0.526080
vt 0.562500 0.516099
vt 0.562500 0.500000
vt 0.841817 0.028334
vt 0.835901 0.042617
vt 0.832217 0.051511
vt 0.531250 0.526080
vt 0.531250 0.516099
vt 0.531250 0.500000
vt 0.796808 0.014681
vt 0.793792 0.029843
vt 0.791914 0.039286
vt 0.500000 0.526080
vt 0.500000 0.516099
vt 0.500000 0.500000
vt 0.750000 0.010071
vt 0.750000 0.025530
vt 0.750000 0.035157
vt 0.468750 0.526080
vt 0.468750 0.516099
vt 0.468750 0.500000
vt 0.703192 0.014681
vt 0.706208 0.029843
vt 0.708087 0.039286
vt 0.437500 0.526080
vt 0.437500 0.516099
vt 0.437500 0.500000
vt 0.658183 0.028334
vt 0.664099 0.042617
vt 0.667783 0.051511
vt 0.406250 0.526080
vt 0.406250 0.516099
vt 0.406250 0.500000
vt 0.616702 0.050506
vt 0.625291 0.063360
vt 0.630640 0.071365
vt 0.375000 0.526080
vt 0.375000 0.516099
vt 0.375000 0.500000
vt 0.580344 0.080344
vt 0.591276 0.091276
vt 0.598083 0.098083
vt 0.343750 0.526080
vt 0.343750 0.516099
vt 0.343750 0.500000
vt 0.550506 0.116702
vt 0.563360 0.125291
vt 0.571365 0.130640
vt 0.312500 0.526080
vt 0.312500 0.516099
vt 0.312500 0.500000
vt 0.528334 0.158183
vt 0.542617 0.164099
vt 0.551512 0.167783
vt 0.281250 0.526080
vt 0.281250 0.516099
vt 0.281250 0.500000
vt 0.514681 0.203192
vt 0.529843 0.206208
vt 0.539286 0.208086
vt 0.250000 0.526080
vt 0.250000 0.516099
vt 0.250000 0.500000
vt 0.510071 0.250000
vt 0.525530 0.250000
vt 0.535158 0.250000
vt 0.218750 0.526080
vt 0.218750 0.516099
vt 0.218750 0.500000
vt 0.514681 0.296808
vt 0.529843 0.293792
vt 0.539286 0.291914
vt 0.187500 0.526080
vt 0.187500 0.516099
vt 0.187500 0.500000
vt 0.528334 0.341817
vt 0.542617 0.335901
vt 0.551511 0.332217
vt 0.156250 0.526080
vt 0.156250 0.516099
vt 0.156250 0.500000
vt 0.550506 0.383298
vt 0.563360 0.374709
vt 0.571365 0.369360
vt 0.125000 0.526080
vt 0.125000 0.516099
vt 0.125000 0.500000
vt 0.580344 0.419656
vt 0.591276 0.408724
vt 0.598083 0.401917
vt 0.093750 0.526080
vt 0.093750 0.516099
vt 0.093750 0.500000
vt 0.616702 0.449494
vt 0.625291 0.436640
vt 0.630640 0.428635
vt 0.062500 0.526080
vt 0.062500 0.516099
vt 0.062500 0.500000
vt 0.658183 0.471666
vt 0.664099 0.457383
vt 0.667783 0.448489
vt 0.031250 0.526080
vt 0.031250 0.516099
vt 0.031250 0.500000
vt 0.703192 0.485319
vt 0.706208 0.470157
vt 0.708086 0.460714
vt 0.000000 0.526080
vt 0.000125 0.516099
vt 0.000480 0.500000
vt 0.407423 0.184793
vt 0.417119 0.216758
vt 0.283242 0.417120
vt 0.250000 0.420394
vt 0.216758 0.417120
vt 0.184793 0.407423
vt 0.155334 0.391677
vt 0.129514 0.370486
vt 0.108323 0.344665
vt 0.092577 0.315207
vt 0.082881 0.283242
vt 0.079607 0.250000
vt 0.082881 0.216758
vt 0.092577 0.184793
vt 0.108323 0.155334
vt 0.129514 0.129514
vt 0.155334 0.108323
vt 0.184793 0.092577
vt 0.216758 0.082881
vt 0.250000 0.079607
vt 0.283242 0.082881
vt 0.315207 0.092577
vt 0.344665 0.108323
vt 0.370486 0.129514
vt 0.391677 0.155334
vt 0.420394 0.250000
vt 0.417119 0.283242
vt 0.407423 0.315207
vt 0.391677 0.344666
vt 0.370486 0.370486
vt 0.344665 0.391677
vt 0.315207 0.407423
vt 0.968750 0.943347
vt 1.000000 0.943347
vt 0.999729 0.965027
vt 0.968750 0.965027
vt 0.998958 1.000000
vt 0.968750 1.000000
vt 0.296792 0.485238
vt 0.250000 0.489846
vt 0.250000 0.456264
vt 0.290240 0.452300
vt 0.250000 0.435350
vt 0.286160 0.431788
vt 0.937500 0.943347
vt 0.937500 0.965027
vt 0.937500 1.000000
vt 0.341785 0.471589
vt 0.328934 0.440563
vt 0.320930 0.421241
vt 0.906250 0.943347
vt 0.906250 0.965027
vt 0.906250 1.000000
vt 0.383251 0.449425
vt 0.364594 0.421502
vt 0.352975 0.404113
vt 0.875000 0.943347
vt 0.875000 0.965027
vt 0.875000 1.000000
vt 0.419597 0.419597
vt 0.395850 0.395850
vt 0.381062 0.381062
vt 0.843750 0.943347
vt 0.843750 0.965027
vt 0.843750 1.000000
vt 0.449425 0.383251
vt 0.421502 0.364594
vt 0.404113 0.352975
vt 0.812500 0.943347
vt 0.812500 0.965027
vt 0.812500 1.000000
vt 0.471589 0.341785
vt 0.440563 0.328934
vt 0.421241 0.320930
vt 0.781250 0.943347
vt 0.781250 0.965027
vt 0.781250 1.000000
vt 0.485238 0.296792
vt 0.452300 0.290240
vt 0.431788 0.286160
vt 0.750000 0.943347
vt 0.750000 0.965027
vt 0.750000 1.000000
vt 0.489846 0.250000
vt 0.456264 0.250000
vt 0.435350 0.250000
vt 0.718750 0.943347
vt 0.718750 0.965027
vt 0.718750 1.000000
vt 0.485238 0.203208
vt 0.452300 0.209760
vt 0.431788 0.213840
vt 0.687500 0.943347
vt 0.687500 0.965027
vt 0.687500 1.000000
vt 0.471589 0.158215
vt 0.440563 0.171066
vt 0.421241 0.179070
vt 0.656250 0.943347
vt 0.656250 0.965027
vt 0.656250 1.000000
vt 0.449425 0.116749
vt 0.421502 0.135406
vt 0.404113 0.147025
vt 0.625000 0.943347
vt 0.625000 0.965027
vt 0.625000 1.000000
vt 0.419597 0.080403
vt 0.395850 0.104150
vt 0.381062 0.118938
vt 0.593750 0.943347
vt 0.593750 0.965027
vt 0.593750 1.000000
vt 0.383251 0.050575
vt 0.364594 0.078498
vt 0.352975 0.095887
vt 0.562500 0.943347
vt 0.562500 0.965027
vt 0.562500 1.000000
vt 0.341785 0.028411
vt 0.328934 0.059437
vt 0.320930 0.078759
vt 0.531250 0.943347
vt 0.531250 0.965027
vt 0.531250 1.000000
vt 0.296792 0.014762
vt 0.290240 0.047700
vt 0.286160 0.068212
vt 0.500000 0.943347
vt 0.500000 0.965027
vt 0.500000 1.000000
vt 0.250000 0.010154
vt 0.250000 0.043736
vt 0.250000 0.064650
vt 0.468750 0.943347
vt 0.468750 0.965027
vt 0.468750 1.000000
vt 0.203208 0.014762
vt 0.209760 0.047700
vt 0.213840 0.068212
vt 0.437500 0.943347
vt 0.437500 0.965027
vt 0.437500 1.000000
vt 0.158215 0.028411
vt 0.171066 0.059437
vt 0.179070 0.078759
vt 0.406250 0.943347
vt 0.406250 0.965027
vt 0.406250 1.000000
vt 0.116749 0.050575
vt 0.135406 0.078498
vt 0.147025 0.095887
vt 0.375000 0.943347
vt 0.375000 0.965027
vt 0.375000 1.000000
vt 0.080403 0.080403
vt 0.104150 0.104150
vt 0.118938 0.118938
vt 0.343750 0.943347
vt 0.343750 0.965027
vt 0.343750 1.000000
vt 0.050575 0.116749
vt 0.078498 0.135406
vt 0.095887 0.147025
vt 0.312500 0.943347
vt 0.312500 0.965027
vt 0.312500 1.000000
vt 0.028411 0.158215
vt 0.059437 0.171066
vt 0.078759 0.179070
vt 0.281250 0.943347
vt 0.281250 0.965027
vt 0.281250 1.000000
vt 0.014762 0.203208
vt 0.047700 0.209760
vt 0.068212 0.213840
vt 0.250000 0.943347
vt 0.250000 0.965027
vt 0.250000 1.000000
vt 0.010154 0.250000
vt 0.043736 0.250000
vt 0.064650 0.250000
vt 0.218750 0.943347
vt 0.218750 0.965027
vt 0.218750 1.000000
vt 0.014762 0.296792
vt 0.047700 0.290240
vt 0.068212 0.286160
vt 0.187500 0.943347
vt 0.187500 0.965027
vt 0.187500 1.000000
vt 0.028411 0.341785
vt 0.059437 0.328934
vt 0.078759 0.320930
vt 0.156250 0.943347
vt 0.156250 0.965027
vt 0.156250 1.000000
vt 0.050575 0.383251
vt 0.078498 0.364594
vt 0.095887 0.352975
vt 0.125000 0.943347
vt 0.125000 0.965027
vt 0.125000 1.000000
vt 0.080403 0.419597
vt 0.104150 0.395850
vt 0.118938 0.381062
vt 0.093750 0.943347
vt 0.093750 0.965027
vt 0.093750 1.000000
vt 0.116749 0.449425
vt 0.135406 0.421502
vt 0.147025 0.404113
vt 0.062500 0.943347
vt 0.062500 0.965027
vt 0.062500 1.000000
vt 0.158215 0.471589
vt 0.171066 0.440563
vt 0.179070 0.421241
vt 0.031250 0.943347
vt 0.031250 0.965027
vt 0.031250 1.000000
vt 0.203208 0.485238
vt 0.209760 0.452300
vt 0.213840 0.431788
vt 0.000000 0.943347
vt 0.000271 0.965027
vt 0.001042 1.000000
vt 0.285378 0.427857
vt 0.250000 0.431341
vt 0.250000 0.427152
vt 0.284561 0.423748
vt 0.250000 0.420394
vt 0.283242 0.417119
vt 0.250000 0.420402
vt 0.283244 0.417127
vt 0.250000 0.420394
vt 0.319396 0.417537
vt 0.317793 0.413667
vt 0.315207 0.407423
vt 0.315210 0.407430
vt 0.315207 0.407423
vt 0.350748 0.400780
vt 0.348420 0.397296
vt 0.344665 0.391677
vt 0.344670 0.391684
vt 0.344665 0.391677
vt 0.378228 0.378228
vt 0.375265 0.375265
vt 0.370486 0.370486
vt 0.370492 0.370492
vt 0.400780 0.350748
vt 0.397296 0.348420
vt 0.391684 0.344670
vt 0.417537 0.319396
vt 0.413667 0.317793
vt 0.407423 0.315207
vt 0.407430 0.315210
vt 0.407423 0.315207
vt 0.427857 0.285378
vt 0.423748 0.284561
vt 0.417127 0.283244
vt 0.417120 0.283242
vt 0.431341 0.250000
vt 0.427152 0.250000
vt 0.420394 0.250000
vt 0.420402 0.250000
vt 0.420394 0.250000
vt 0.427857 0.214622
vt 0.423748 0.215439
vt 0.417127 0.216756
vt 0.417119 0.216758
vt 0.417538 0.180604
vt 0.413667 0.182207
vt 0.407431 0.184790
vt 0.400780 0.149252
vt 0.397296 0.151580
vt 0.391684 0.155330
vt 0.391677 0.155334
vt 0.378228 0.121772
vt 0.375265 0.124735
vt 0.370492 0.129508
vt 0.370486 0.129514
vt 0.350748 0.099220
vt 0.348420 0.102704
vt 0.344665 0.108323
vt 0.344670 0.108316
vt 0.319396 0.082463
vt 0.317793 0.086333
vt 0.315207 0.092577
vt 0.315210 0.092570
vt 0.315207 0.092577
vt 0.285378 0.072143
vt 0.284561 0.076252
vt 0.283244 0.082873
vt 0.283242 0.082881
vt 0.250000 0.068659
vt 0.250000 0.072848
vt 0.250000 0.079606
vt 0.250000 0.079598
vt 0.250000 0.079607
vt 0.214622 0.072143
vt 0.215439 0.076252
vt 0.216756 0.082873
vt 0.180604 0.082463
vt 0.182207 0.086333
vt 0.184790 0.092570
vt 0.184793 0.092577
vt 0.149252 0.099220
vt 0.151580 0.102704
vt 0.155330 0.108316
vt 0.155334 0.108323
vt 0.121772 0.121772
vt 0.124735 0.124735
vt 0.129514 0.129514
vt 0.129508 0.129508
vt 0.129514 0.129514
vt 0.099220 0.149252
vt 0.102704 0.151580
vt 0.108323 0.155334
vt 0.108316 0.155330
vt 0.082463 0.180604
vt 0.086333 0.182207
vt 0.092570 0.184790
vt 0.092577 0.184793
vt 0.072143 0.214622
vt 0.076252 0.215439
vt 0.082873 0.216756
vt 0.082881 0.216758
vt 0.068659 0.250000
vt 0.072848 0.250000
vt 0.079607 0.250000
vt 0.079599 0.250000
vt 0.079607 0.250000
vt 0.072143 0.285378
vt 0.076252 0.284561
vt 0.082873 0.283244
vt 0.082881 0.283242
vt 0.082463 0.319396
vt 0.086333 0.317793
vt 0.092570 0.315210
vt 0.092577 0.315207
vt 0.099220 0.350748
vt 0.102704 0.348420
vt 0.108323 0.344665
vt 0.108316 0.344670
vt 0.108323 0.344665
vt 0.121772 0.378228
vt 0.124735 0.375265
vt 0.129508 0.370492
vt 0.129514 0.370486
vt 0.149252 0.400780
vt 0.151580 0.397296
vt 0.155334 0.391677
vt 0.155330 0.391684
vt 0.180604 0.417538
vt 0.182207 0.413667
vt 0.184793 0.407423
vt 0.184790 0.407430
vt 0.214622 0.427857
vt 0.215439 0.423748
vt 0.216758 0.417120
vt 0.216756 0.417127
vt 0.216758 0.417120
s 1
usemtl siro
f 2/1/1 7/2/2 10/3/3 5/4/4
f 5/4/4 10/3/3 9/5/5 4/6/6
f 4/7/6 9/8/5 8/9/7 3/10/8
f 3/10/8 8/9/7 6/11/9 1/12/10
f 7/2/2 12/13/11 15/14/12 10/3/3
f 10/3/3 15/14/12 14/15/13 9/5/5
f 9/8/5 14/16/13 13/17/14 8/9/7
f 8/9/7 13/17/14 11/18/15 6/11/9
f 12/13/11 17/19/16 20/20/17 15/14/12
f 15/14/12 20/20/17 19/21/18 14/15/13
f 14/16/13 19/22/18 18/23/19 13/17/14
f 13/17/14 18/23/19 16/24/20 11/18/15
f 17/19/16 22/25/21 25/26/22 20/20/17
f 20/20/17 25/26/22 24/27/23 19/21/18
f 19/22/18 24/28/23 23/29/24 18/23/19
f 18/23/19 23/29/24 21/30/25 16/24/20
f 22/25/21 27/31/26 30/32/27 25/26/22
f 25/26/22 30/32/27 29/33/28 24/27/23
f 24/28/23 29/34/28 28/35/29 23/29/24
f 23/29/24 28/35/29 26/36/30 21/30/25
f 27/31/26 32/37/31 35/38/32 30/32/27
f 30/32/27 35/38/32 34/39/33 29/33/28
f 29/34/28 34/40/33 33/41/34 28/35/29
f 28/35/29 33/41/34 31/42/35 26/36/30
f 32/37/31 37/43/36 40/44/37 35/38/32
f 35/38/32 40/44/37 39/45/38 34/39/33
f 34/40/33 39/46/38 38/47/39 33/41/34
f 33/41/34 38/47/39 36/48/40 31/42/35
f 37/43/36 42/49/41 45/50/42 40/44/37
f 40/44/37 45/50/42 44/51/43 39/45/38
f 39/46/38 44/52/43 43/53/44 38/47/39
f 38/47/39 43/53/44 41/54/45 36/48/40
f 42/49/41 47/55/46 50/56/47 45/50/42
f 45/50/42 50/56/47 49/57/48 44/51/43
f 44/52/43 49/58/48 48/59/49 43/53/44
f 43/53/44 48/59/49 46/60/50 41/54/45
f 47/55/46 52/61/51 55/62/52 50/56/47
f 50/56/47 55/62/52 54/63/53 49/57/48
f 49/58/48 54/64/53 53/65/54 48/59/49
f 48/59/49 53/65/54 51/66/55 46/60/50
f 52/61/51 57/67/56 60/68/57 55/62/52
f 55/62/52 60/68/57 59/69/58 54/63/53
f 54/64/53 59/70/58 58/71/59 53/65/54
f 53/65/54 58/71/59 56/72/60 51/66/55
f 57/67/56 62/73/61 65/74/62 60/68/57
f 60/68/57 65/74/62 64/75/63 59/69/58
f 59/70/58 64/76/63 63/77/64 58/71/59
f 58/71/59 63/77/64 61/78/65 56/72/60
f 62/73/61 67/79/66 70/80/67 65/74/62
f 65/74/62 70/80/67 69/81/68 64/75/63
f 64/76/63 69/82/68 68/83/69 63/77/64
f 63/77/64 68/83/69 66/84/70 61/78/65
f 67/79/66 72/85/71 75/86/72 70/80/67
f 70/80/67 75/86/72 74/87/73 69/81/68
f 69/82/68 74/88/73 73/89/74 68/83/69
f 68/83/69 73/89/74 71/90/75 66/84/70
f 72/85/71 77/91/76 80/92/77 75/86/72
f 75/86/72 80/92/77 79/93/78 74/87/73
f 74/88/73 79/94/78 78/95/79 73/89/74
f 73/89/74 78/95/79 76/96/80 71/90/75
f 77/91/76 82/97/81 85/98/82 80/92/77
f 80/92/77 85/98/82 84/99/83 79/93/78
f 79/94/78 84/100/83 83/101/84 78/95/79
f 78/95/79 83/101/84 81/102/85 76/96/80
f 82/97/81 87/103/86 90/104/87 85/98/82
f 85/98/82 90/104/87 89/105/88 84/99/83
f 84/100/83 89/106/88 88/107/89 83/101/84
f 83/101/84 88/107/89 86/108/90 81/102/85
f 87/103/86 92/109/91 95/110/92 90/104/87
f 90/104/87 95/110/92 94/111/93 89/105/88
f 89/106/88 94/112/93 93/113/94 88/107/89
f 88/107/89 93/113/94 91/114/95 86/108/90
f 92/109/91 97/115/96 100/116/97 95/110/92
f 95/110/92 100/116/97 99/117/98 94/111/93
f 94/112/93 99/118/98 98/119/99 93/113/94
f 93/113/94 98/119/99 96/120/100 91/114/95
f 97/115/96 102/121/101 105/122/102 100/116/97
f 100/116/97 105/122/102 104/123/103 99/117/98
f 99/118/98 104/124/103 103/125/104 98/119/99
f 98/119/99 103/125/104 101/126/105 96/120/100
f 102/121/101 107/127/106 110/128/107 105/122/102
f 105/122/102 110/128/107 109/129/108 104/123/103
f 104/124/103 109/130/108 108/131/109 103/125/104
f 103/125/104 108/131/109 106/132/110 101/126/105
f 107/127/106 112/133/111 115/134/112 110/128/107
f 110/128/107 115/134/112 114/135/113 109/129/108
f 109/130/108 114/136/113 113/137/114 108/131/109
f 108/131/109 113/137/114 111/138/115 106/132/110
f 112/133/111 117/139/116 120/140/117 115/134/112
f 115/134/112 120/140/117 119/141/118 114/135/113
f 114/136/113 119/142/118 118/143/119 113/137/114
f 113/137/114 118/143/119 116/144/120 111/138/115
f 117/139/116 122/145/121 125/146/122 120/140/117
f 120/140/117 125/146/122 124/147/123 119/141/118
f 119/142/118 124/148/123 123/149/124 118/143/119
f 118/143/119 123/149/124 121/150/125 116/144/120
f 122/145/121 127/151/126 130/152/127 125/146/122
f 125/146/122 130/152/127 129/153/128 124/147/123
f 124/148/123 129/154/128 128/155/129 123/149/124
f 123/149/124 128/155/129 126/156/130 121/150/125
f 127/151/126 132/157/131 135/158/132 130/152/127
f 130/152/127 135/158/132 134/159/133 129/153/128
f 129/154/128 134/160/133 133/161/134 128/155/129
f 128/155/129 133/161/134 131/162/135 126/156/130
f 132/157/131 137/163/136 140/164/137 135/158/132
f 135/158/132 140/164/137 139/165/138 134/159/133
f 134/160/133 139/166/138 138/167/139 133/161/134
f 133/161/134 138/167/139 136/168/140 131/162/135
f 137/163/136 142/169/141 145/170/142 140/164/137
f 140/164/137 145/170/142 144/171/143 139/165/138
f 139/166/138 144/172/143 143/173/144 138/167/139
f 138/167/139 143/173/144 141/174/145 136/168/140
f 142/169/141 147/175/146 150/176/147 145/170/142
f 145/170/142 150/176/147 149/177/148 144/171/143
f 144/172/143 149/178/148 148/179/149 143/173/144
f 143/173/144 148/179/149 146/180/150 141/174/145
f 147/175/146 152/181/151 155/182/152 150/176/147
f 150/176/147 155/182/152 154/183/153 149/177/148
f 149/178/148 154/184/153 153/185/154 148/179/149
f 148/179/149 153/185/154 151/186/155 146/180/150
f 152/181/151 157/187/156 160/188/157 155/182/152
f 155/182/152 160/188/157 159/189/158 154/183/153
f 154/184/153 159/190/158 158/191/159 153/185/154
f 153/185/154 158/191/159 156/192/160 151/186/155
f 157/187/156 2/193/1 5/194/4 160/188/157
f 160/188/157 5/194/4 4/195/6 159/189/158
f 159/190/158 4/7/6 3/10/8 158/191/159
f 158/191/159 3/10/8 1/12/10 156/192/160
f 1/12/10 6/11/9 11/18/15 16/24/20 21/30/25 26/36/30 31/42/35 36/48/40 41/54/45 46/60/50 51/66/55 56/72/60 61/78/65 66/84/70 71/90/75 76/96/80 81/102/85 86/108/90 91/114/95 96/120/100 101/126/105 106/132/110 111/138/115 116/144/120 121/150/125 126/156/130 131/162/135 136/168/140 141/174/145 146/180/150 151/186/155 156/192/160
f 171/196/161 170/197/162 202/197/162 203/196/161
f 193/198/163 194/199/163 224/200/163 223/201/163 222/202/163 221/203/163 220/204/163 219/205/163 218/206/163 217/207/163 216/208/163 215/209/163 214/210/163 213/211/163 212/212/163 211/213/163 210/214/163 209/215/163 208/216/163 207/217/163 206/218/163 205/219/163 204/220/163 203/196/163 202/197/163 201/221/163 200/222/163 199/223/163 198/224/163 197/225/163 196/226/163 195/227/163
f 185/207/164 184/208/165 216/208/165 217/207/164
f 172/220/166 171/196/161 203/196/161 204/220/166
f 186/206/167 185/207/164 217/207/164 218/206/167
f 173/219/168 172/220/166 204/220/166 205/219/168
f 187/205/169 186/206/167 218/206/167 219/205/169
f 174/218/170 173/219/168 205/219/168 206/218/170
f 188/204/171 187/205/169 219/205/169 220/204/171
f 175/217/172 174/218/170 206/218/170 207/217/172
f 161/198/173 162/199/174 194/199/174 193/198/173
f 189/203/175 188/204/171 220/204/171 221/203/175
f 176/216/176 175/217/172 207/217/172 208/216/176
f 163/227/177 161/198/173 193/198/173 195/227/177
f 190/202/178 189/203/175 221/203/175 222/202/178
f 177/215/179 176/216/176 208/216/176 209/215/179
f 164/226/180 163/227/177 195/227/177 196/226/180
f 191/201/181 190/202/178 222/202/178 223/201/181
f 178/214/182 177/215/179 209/215/179 210/214/182
f 165/225/183 164/226/180 196/226/180 197/225/183
f 192/200/184 191/201/181 223/201/181 224/200/184
f 179/213/185 178/214/182 210/214/182 211/213/185
f 166/224/186 165/225/183 197/225/183 198/224/186
f 162/199/174 192/200/184 224/200/184 194/199/174
f 180/212/187 179/213/185 211/213/185 212/212/187
f 167/223/188 166/224/186 198/224/186 199/223/188
f 181/211/189 180/212/187 212/212/187 213/211/189
f 168/222/190 167/223/188 199/223/188 200/222/190
f 182/210/191 181/211/189 213/211/189 214/210/191
f 169/221/192 168/222/190 200/222/190 201/221/192
f 183/209/193 182/210/191 214/210/191 215/209/193
f 170/197/162 169/221/192 201/221/192 202/197/162
f 184/208/165 183/209/193 215/209/193 216/208/165
f 226/228/194 230/229/195 232/230/196 229/231/197
f 229/231/197 232/230/196 233/232/198 228/233/199
f 228/234/199 233/235/198 234/236/200 227/237/201
f 227/237/201 234/236/200 231/238/202 225/239/203
f 236/240/204 226/228/194 229/231/197 239/241/205
f 239/241/205 229/231/197 228/233/199 238/242/206
f 238/243/206 228/234/199 227/237/201 237/244/207
f 237/244/207 227/237/201 225/239/203 235/245/208
f 241/246/209 236/240/204 239/241/205 244/247/210
f 244/247/210 239/241/205 238/242/206 243/248/211
f 243/249/211 238/243/206 237/244/207 242/250/212
f 242/250/212 237/244/207 235/245/208 240/251/213
f 246/252/214 241/246/209 244/247/210 249/253/215
f 249/253/215 244/247/210 243/248/211 248/254/216
f 248/255/216 243/249/211 242/250/212 247/256/217
f 247/256/217 242/250/212 240/251/213 245/257/218
f 251/258/219 246/252/214 249/253/215 254/259/220
f 254/259/220 249/253/215 248/254/216 253/260/221
f 253/261/221 248/255/216 247/256/217 252/262/222
f 252/262/222 247/256/217 245/257/218 250/263/223
f 256/264/224 251/258/219 254/259/220 259/265/225
f 259/265/225 254/259/220 253/260/221 258/266/226
f 258/267/226 253/261/221 252/262/222 257/268/227
f 257/268/227 252/262/222 250/263/223 255/269/228
f 261/270/229 256/264/224 259/265/225 264/271/230
f 264/271/230 259/265/225 258/266/226 263/272/231
f 263/273/231 258/267/226 257/268/227 262/274/232
f 262/274/232 257/268/227 255/269/228 260/275/233
f 266/276/234 261/270/229 264/271/230 269/277/235
f 269/277/235 264/271/230 263/272/231 268/278/236
f 268/279/236 263/273/231 262/274/232 267/280/237
f 267/280/237 262/274/232 260/275/233 265/281/238
f 271/282/239 266/276/234 269/277/235 274/283/240
f 274/283/240 269/277/235 268/278/236 273/284/241
f 273/285/241 268/279/236 267/280/237 272/286/242
f 272/286/242 267/280/237 265/281/238 270/287/243
f 276/288/244 271/282/239 274/283/240 279/289/245
f 279/289/245 274/283/240 273/284/241 278/290/246
f 278/291/246 273/285/241 272/286/242 277/292/247
f 277/292/247 272/286/242 270/287/243 275/293/248
f 281/294/249 276/288/244 279/289/245 284/295/250
f 284/295/250 279/289/245 278/290/246 283/296/251
f 283/297/251 278/291/246 277/292/247 282/298/252
f 282/298/252 277/292/247 275/293/248 280/299/253
f 286/300/254 281/294/249 284/295/250 289/301/255
f 289/301/255 284/295/250 283/296/251 288/302/256
f 288/303/256 283/297/251 282/298/252 287/304/257
f 287/304/257 282/298/252 280/299/253 285/305/258
f 291/306/259 286/300/254 289/301/255 294/307/260
f 294/307/260 289/301/255 288/302/256 293/308/261
f 293/309/261 288/303/256 287/304/257 292/310/262
f 292/310/262 287/304/257 285/305/258 290/311/263
f 296/312/264 291/306/259 294/307/260 299/313/265
f 299/313/265 294/307/260 293/308/261 298/314/266
f 298/315/266 293/309/261 292/310/262 297/316/267
f 297/316/267 292/310/262 290/311/263 295/317/268
f 301/318/269 296/312/264 299/313/265 304/319/270
f 304/319/270 299/313/265 298/314/266 303/320/271
f 303/321/271 298/315/266 297/316/267 302/322/272
f 302/322/272 297/316/267 295/317/268 300/323/273
f 306/324/274 301/318/269 304/319/270 309/325/275
f 309/325/275 304/319/270 303/320/271 308/326/276
f 308/327/276 303/321/271 302/322/272 307/328/277
f 307/328/277 302/322/272 300/323/273 305/329/278
f 311/330/279 306/324/274 309/325/275 314/331/280
f 314/331/280 309/325/275 308/326/276 313/332/281
f 313/333/281 308/327/276 307/328/277 312/334/282
f 312/334/282 307/328/277 305/329/278 310/335/283
f 316/336/284 311/330/279 314/331/280 319/337/285
f 319/337/285 314/331/280 313/332/281 318/338/286
f 318/339/286 313/333/281 312/334/282 317/340/287
f 317/340/287 312/334/282 310/335/283 315/341/288
f 321/342/289 316/336/284 319/337/285 324/343/290
f 324/343/290 319/337/285 318/338/286 323/344/291
f 323/345/291 318/339/286 317/340/287 322/346/292
f 322/346/292 317/340/287 315/341/288 320/347/293
f 326/348/294 321/342/289 324/343/290 329/349/295
f 329/349/295 324/343/290 323/344/291 328/350/296
f 328/351/296 323/345/291 322/346/292 327/352/297
f 327/352/297 322/346/292 320/347/293 325/353/298
f 331/354/299 326/348/294 329/349/295 334/355/300
f 334/355/300 329/349/295 328/350/296 333/356/301
f 333/357/301 328/351/296 327/352/297 332/358/302
f 332/358/302 327/352/297 325/353/298 330/359/303
f 336/360/304 331/354/299 334/355/300 339/361/305
f 339/361/305 334/355/300 333/356/301 338/362/306
f 338/363/306 333/357/301 332/358/302 337/364/307
f 337/364/307 332/358/302 330/359/303 335/365/308
f 341/366/309 336/360/304 339/361/305 344/367/310
f 344/367/310 339/361/305 338/362/306 343/368/311
f 343/369/311 338/363/306 337/364/307 342/370/312
f 342/370/312 337/364/307 335/365/308 340/371/313
f 346/372/314 341/366/309 344/367/310 349/373/315
f 349/373/315 344/367/310 343/368/311 348/374/316
f 348/375/316 343/369/311 342/370/312 347/376/317
f 347/376/317 342/370/312 340/371/313 345/377/318
f 351/378/319 346/372/314 349/373/315 354/379/320
f 354/379/320 349/373/315 348/374/316 353/380/321
f 353/381/321 348/375/316 347/376/317 352/382/322
f 352/382/322 347/376/317 345/377/318 350/383/323
f 356/384/324 351/378/319 354/379/320 359/385/325
f 359/385/325 354/379/320 353/380/321 358/386/326
f 358/387/326 353/381/321 352/382/322 357/388/327
f 357/388/327 352/382/322 350/383/323 355/389/328
f 361/390/329 356/384/324 359/385/325 364/391/330
f 364/391/330 359/385/325 358/386/326 363/392/331
f 363/393/331 358/387/326 357/388/327 362/394/332
f 362/394/332 357/388/327 355/389/328 360/395/333
f 366/396/334 361/390/329 364/391/330 369/397/335
f 369/397/335 364/391/330 363/392/331 368/398/336
f 368/399/336 363/393/331 362/394/332 367/400/337
f 367/400/337 362/394/332 360/395/333 365/401/338
f 371/402/339 366/396/334 369/397/335 374/403/340
f 374/403/340 369/397/335 368/398/336 373/404/341
f 373/405/341 368/399/336 367/400/337 372/406/342
f 372/406/342 367/400/337 365/401/338 370/407/343
f 376/408/344 371/402/339 374/403/340 379/409/345
f 379/409/345 374/403/340 373/404/341 378/410/346
f 378/411/346 373/405/341 372/406/342 377/412/347
f 377/412/347 372/406/342 370/407/343 375/413/348
f 381/414/349 376/408/344 379/409/345 384/415/350
f 384/415/350 379/409/345 378/410/346 383/416/351
f 383/417/351 378/411/346 377/412/347 382/418/352
f 382/418/352 377/412/347 375/413/348 380/419/353
f 230/420/195 381/414/349 384/415/350 232/421/196
f 232/421/196 384/415/350 383/416/351 233/422/198
f 233/235/198 383/417/351 382/418/352 234/236/200
f 234/236/200 382/418/352 380/419/353 231/238/202
f 7/2/2 226/228/194 236/240/204 12/13/11
f 2/1/1 230/229/195 226/228/194 7/2/2
f 157/187/156 381/414/349 230/420/195 2/193/1
f 12/13/11 236/240/204 241/246/209 17/19/16
f 17/19/16 241/246/209 246/252/214 22/25/21
f 22/25/21 246/252/214 251/258/219 27/31/26
f 27/31/26 251/258/219 256/264/224 32/37/31
f 32/37/31 256/264/224 261/270/229 37/43/36
f 37/43/36 261/270/229 266/276/234 42/49/41
f 42/49/41 266/276/234 271/282/239 47/55/46
f 47/55/46 271/282/239 276/288/244 52/61/51
f 52/61/51 276/288/244 281/294/249 57/67/56
f 57/67/56 281/294/249 286/300/254 62/73/61
f 62/73/61 286/300/254 291/306/259 67/79/66
f 67/79/66 291/306/259 296/312/264 72/85/71
f 72/85/71 296/312/264 301/318/269 77/91/76
f 77/91/76 301/318/269 306/324/274 82/97/81
f 82/97/81 306/324/274 311/330/279 87/103/86
f 87/103/86 311/330/279 316/336/284 92/109/91
f 92/109/91 316/336/284 321/342/289 97/115/96
f 97/115/96 321/342/289 326/348/294 102/121/101
f 102/121/101 326/348/294 331/354/299 107/127/106
f 107/127/106 331/354/299 336/360/304 112/133/111
f 112/133/111 336/360/304 341/366/309 117/139/116
f 117/139/116 341/366/309 346/372/314 122/145/121
f 122/145/121 346/372/314 351/378/319 127/151/126
f 127/151/126 351/378/319 356/384/324 132/157/131
f 132/157/131 356/384/324 361/390/329 137/163/136
f 137/163/136 361/390/329 366/396/334 142/169/141
f 142/169/141 366/396/334 371/402/339 147/175/146
f 147/175/146 371/402/339 376/408/344 152/181/151
f 152/181/151 376/408/344 381/414/349 157/187/156
f 391/423/354 385/424/355 387/425/356 394/426/357
f 394/426/357 387/425/356 388/427/358 393/428/359
f 393/428/359 388/427/358 389/429/360 392/430/361
f 392/430/361 389/429/360 386/431/362 390/428/363
f 396/432/364 391/423/354 394/426/357 399/433/365
f 399/433/365 394/426/357 393/428/359 398/434/366
f 398/434/366 393/428/359 392/430/361 397/435/367
f 397/435/367 392/430/361 390/428/363 395/436/368
f 401/437/369 396/432/364 399/433/365 404/438/370
f 404/438/370 399/433/365 398/434/366 403/439/371
f 403/439/371 398/434/366 397/435/367 402/440/372
f 402/440/372 397/435/367 395/436/368 400/441/373
f 406/442/374 401/437/369 404/438/370 409/443/375
f 409/443/375 404/438/370 403/439/371 408/444/376
f 408/444/376 403/439/371 402/440/372 407/445/377
f 407/445/377 402/440/372 400/441/373 405/444/378
f 411/446/379 406/442/374 409/443/375 414/447/380
f 414/447/380 409/443/375 408/444/376 413/224/381
f 413/224/381 408/444/376 407/445/377 412/448/382
f 412/448/382 407/445/377 405/444/378 410/224/383
f 416/449/384 411/446/379 414/447/380 419/450/385
f 419/450/385 414/447/380 413/224/381 418/451/386
f 418/451/386 413/224/381 412/448/382 417/452/387
f 417/452/387 412/448/382 410/224/383 415/453/388
f 421/454/389 416/449/384 419/450/385 424/455/390
f 424/455/390 419/450/385 418/451/386 423/222/391
f 423/222/391 418/451/386 417/452/387 422/456/392
f 422/456/392 417/452/387 415/453/388 420/457/393
f 426/458/394 421/454/389 424/455/390 429/459/395
f 429/459/395 424/455/390 423/222/391 428/460/396
f 428/460/396 423/222/391 422/456/392 427/461/397
f 427/461/397 422/456/392 420/457/393 425/462/398
f 431/463/399 426/458/394 429/459/395 434/464/400
f 434/464/400 429/459/395 428/460/396 433/197/401
f 433/197/401 428/460/396 427/461/397 432/465/402
f 432/465/402 427/461/397 425/462/398 430/466/403
f 436/467/404 431/463/399 434/464/400 439/468/405
f 439/468/405 434/464/400 433/197/401 438/196/406
f 438/196/406 433/197/401 432/465/402 437/469/407
f 437/469/407 432/465/402 430/466/403 435/196/408
f 441/470/409 436/467/404 439/468/405 444/471/410
f 444/471/410 439/468/405 438/196/406 443/220/411
f 443/220/411 438/196/406 437/469/407 442/472/412
f 442/472/412 437/469/407 435/196/408 440/473/413
f 446/474/414 441/470/409 444/471/410 449/475/415
f 449/475/415 444/471/410 443/220/411 448/219/416
f 448/219/416 443/220/411 442/472/412 447/476/417
f 447/476/417 442/472/412 440/473/413 445/477/418
f 451/478/419 446/474/414 449/475/415 454/479/420
f 454/479/420 449/475/415 448/219/416 453/480/421
f 453/480/421 448/219/416 447/476/417 452/481/422
f 452/481/422 447/476/417 445/477/418 450/218/423
f 456/482/424 451/478/419 454/479/420 459/483/425
f 459/483/425 454/479/420 453/480/421 458/484/426
f 458/484/426 453/480/421 452/481/422 457/485/427
f 457/485/427 452/481/422 450/218/423 455/486/428
f 461/487/429 456/482/424 459/483/425 464/488/430
f 464/488/430 459/483/425 458/484/426 463/216/431
f 463/216/431 458/484/426 457/485/427 462/489/432
f 462/489/432 457/485/427 455/486/428 460/490/433
f 466/491/434 461/487/429 464/488/430 469/492/435
f 469/492/435 464/488/430 463/216/431 468/493/436
f 468/493/436 463/216/431 462/489/432 467/494/437
f 467/494/437 462/489/432 460/490/433 465/495/438
f 471/496/439 466/491/434 469/492/435 474/497/440
f 474/497/440 469/492/435 468/493/436 473/214/441
f 473/214/441 468/493/436 467/494/437 472/498/442
f 472/498/442 467/494/437 465/495/438 470/214/443
f 476/499/444 471/496/439 474/497/440 479/500/445
f 479/500/445 474/497/440 473/214/441 478/213/446
f 478/213/446 473/214/441 472/498/442 477/501/447
f 477/501/447 472/498/442 470/214/443 475/502/448
f 481/503/449 476/499/444 479/500/445 484/504/450
f 484/504/450 479/500/445 478/213/446 483/212/451
f 483/212/451 478/213/446 477/501/447 482/505/452
f 482/505/452 477/501/447 475/502/448 480/506/453
f 486/507/454 481/503/449 484/504/450 489/508/455
f 489/508/455 484/504/450 483/212/451 488/509/456
f 488/509/456 483/212/451 482/505/452 487/510/457
f 487/510/457 482/505/452 480/506/453 485/511/458
f 491/512/459 486/507/454 489/508/455 494/513/460
f 494/513/460 489/508/455 488/509/456 493/514/461
f 493/514/461 488/509/456 487/510/457 492/515/462
f 492/515/462 487/510/457 485/511/458 490/210/463
f 496/516/464 491/512/459 494/513/460 499/517/465
f 499/517/465 494/513/460 493/514/461 498/209/466
f 498/209/466 493/514/461 492/515/462 497/518/467
f 497/518/467 492/515/462 490/210/463 495/519/468
f 501/520/469 496/516/464 499/517/465 504/521/470
f 504/521/470 499/517/465 498/209/466 503/208/471
f 503/208/471 498/209/466 497/518/467 502/522/472
f 502/522/472 497/518/467 495/519/468 500/523/473
f 506/524/474 501/520/469 504/521/470 509/525/475
f 509/525/475 504/521/470 503/208/471 508/526/476
f 508/526/476 503/208/471 502/522/472 507/527/477
f 507/527/477 502/522/472 500/523/473 505/528/478
f 511/529/479 506/524/474 509/525/475 514/530/480
f 514/530/480 509/525/475 508/526/476 513/206/481
f 513/206/481 508/526/476 507/527/477 512/531/482
f 512/531/482 507/527/477 505/528/478 510/532/483
f 516/533/484 511/529/479 514/530/480 519/534/485
f 519/534/485 514/530/480 513/206/481 518/205/486
f 518/205/486 513/206/481 512/531/482 517/535/487
f 517/535/487 512/531/482 510/532/483 515/536/488
f 521/537/489 516/533/484 519/534/485 524/538/490
f 524/538/490 519/534/485 518/205/486 523/539/491
f 523/539/491 518/205/486 517/535/487 522/540/492
f 522/540/492 517/535/487 515/536/488 520/541/493
f 526/542/494 521/537/489 524/538/490 529/543/495
f 529/543/495 524/538/490 523/539/491 528/203/496
f 528/203/496 523/539/491 522/540/492 527/544/497
f 527/544/497 522/540/492 520/541/493 525/545/498
f 531/546/499 526/542/494 529/543/495 534/547/500
f 534/547/500 529/543/495 528/203/496 533/548/501
f 533/548/501 528/203/496 527/544/497 532/549/502
f 532/549/502 527/544/497 525/545/498 530/202/503
f 536/550/504 531/546/499 534/547/500 539/551/505
f 539/551/505 534/547/500 533/548/501 538/552/506
f 538/552/506 533/548/501 532/549/502 537/553/507
f 537/553/507 532/549/502 530/202/503 535/201/508
f 541/554/509 536/550/504 539/551/505 544/555/510
f 544/555/510 539/551/505 538/552/506 543/556/511
f 543/556/511 538/552/506 537/553/507 542/557/512
f 542/557/512 537/553/507 535/201/508 540/558/513
f 385/424/355 541/554/509 544/555/510 387/425/356
f 387/425/356 544/555/510 543/556/511 388/427/358
f 388/427/358 543/556/511 542/557/512 389/429/360
f 389/429/360 542/557/512 540/558/513 386/431/362
f 385/424/355 391/423/354 225/239/203 231/238/202
f 386/431/362 540/558/513 192/200/184 162/199/174
f 390/428/363 386/431/362 162/199/174 161/198/173
f 541/554/509 385/424/355 231/238/202 380/419/353
f 391/423/354 396/432/364 235/245/208 225/239/203
f 395/436/368 390/428/363 161/198/173 163/227/177
f 396/432/364 401/437/369 240/251/213 235/245/208
f 400/441/373 395/436/368 163/227/177 164/226/180
f 401/437/369 406/442/374 245/257/218 240/251/213
f 405/444/378 400/441/373 164/226/180 165/225/183
f 406/442/374 411/446/379 250/263/223 245/257/218
f 410/224/383 405/444/378 165/225/183 166/224/186
f 411/446/379 416/449/384 255/269/228 250/263/223
f 415/453/388 410/224/383 166/224/186 167/223/188
f 416/449/384 421/454/389 260/275/233 255/269/228
f 420/457/393 415/453/388 167/223/188 168/222/190
f 421/454/389 426/458/394 265/281/238 260/275/233
f 425/462/398 420/457/393 168/222/190 169/221/192
f 426/458/394 431/463/399 270/287/243 265/281/238
f 430/466/403 425/462/398 169/221/192 170/197/162
f 431/463/399 436/467/404 275/293/248 270/287/243
f 435/196/408 430/466/403 170/197/162 171/196/161
f 436/467/404 441/470/409 280/299/253 275/293/248
f 440/473/413 435/196/408 171/196/161 172/220/166
f 441/470/409 446/474/414 285/305/258 280/299/253
f 445/477/418 440/473/413 172/220/166 173/219/168
f 446/474/414 451/478/419 290/311/263 285/305/258
f 450/218/423 445/477/418 173/219/168 174/218/170
f 451/478/419 456/482/424 295/317/268 290/311/263
f 455/486/428 450/218/423 174/218/170 175/217/172
f 456/482/424 461/487/429 300/323/273 295/317/268
f 460/490/433 455/486/428 175/217/172 176/216/176
f 461/487/429 466/491/434 305/329/278 300/323/273
f 465/495/438 460/490/433 176/216/176 177/215/179
f 466/491/434 471/496/439 310/335/283 305/329/278
f 470/214/443 465/495/438 177/215/179 178/214/182
f 471/496/439 476/499/444 315/341/288 310/335/283
f 475/502/448 470/214/443 178/214/182 179/213/185
f 476/499/444 481/503/449 320/347/293 315/341/288
f 480/506/453 475/502/448 179/213/185 180/212/187
f 481/503/449 486/507/454 325/353/298 320/347/293
f 485/511/458 480/506/453 180/212/187 181/211/189
f 486/507/454 491/512/459 330/359/303 325/353/298
f 490/210/463 485/511/458 181/211/189 182/210/191
f 491/512/459 496/516/464 335/365/308 330/359/303
f 495/519/468 490/210/463 182/210/191 183/209/193
f 496/516/464 501/520/469 340/371/313 335/365/308
f 500/523/473 495/519/468 183/209/193 184/208/165
f 501/520/469 506/524/474 345/377/318 340/371/313
f 505/528/478 500/523/473 184/208/165 185/207/164
f 506/524/474 511/529/479 350/383/323 345/377/318
f 510/532/483 505/528/478 185/207/164 186/206/167
f 511/529/479 516/533/484 355/389/328 350/383/323
f 515/536/488 510/532/483 186/206/167 187/205/169
f 516/533/484 521/537/489 360/395/333 355/389/328
f 520/541/493 515/536/488 187/205/169 188/204/171
f 521/537/489 526/542/494 365/401/338 360/395/333
f 525/545/498 520/541/493 188/204/171 189/203/175
f 526/542/494 531/546/499 370/407/343 365/401/338
f 530/202/503 525/545/498 189/203/175 190/202/178
f 531/546/499 536/550/504 375/413/348 370/407/343
f 535/201/508 530/202/503 190/202/178 191/201/181
f 536/550/504 541/554/509 380/419/353 375/413/348
f 540/558/513 535/201/508 191/201/181 192/200/184
o 円柱.001
v 0.000000 3.437907 -0.841183
v 0.000000 3.912322 -0.841183
v 0.164107 3.437907 -0.825020
v 0.164107 3.912322 -0.825020
v 0.321907 3.437907 -0.777152
v 0.321907 3.912322 -0.777152
v 0.467336 3.437907 -0.699418
v 0.467336 3.912322 -0.699418
v 0.594806 3.437907 -0.594806
v 0.594806 3.912322 -0.594806
v 0.699418 3.437907 -0.467336
v 0.699418 3.912322 -0.467336
v 0.777152 3.437907 -0.321907
v 0.777152 3.912322 -0.321907
v 0.825020 3.437907 -0.164107
v 0.825020 3.912322 -0.164107
v 0.841183 3.437907 0.000000
v 0.841183 3.912322 0.000000
v 0.825020 3.437907 0.164107
v 0.825020 3.912322 0.164107
v 0.777152 3.437907 0.321907
v 0.777152 3.912322 0.321907
v 0.699418 3.437907 0.467336
v 0.699418 3.912322 0.467336
v 0.594806 3.437907 0.594806
v 0.594806 3.912322 0.594806
v 0.467336 3.437907 0.699418
v 0.467336 3.912322 0.699418
v 0.321907 3.437907 0.777152
v 0.321907 3.912322 0.777152
v 0.164107 3.437907 0.825020
v 0.164107 3.912322 0.825020
v 0.000000 3.437907 0.841183
v 0.000000 3.912322 0.841183
v -0.164107 3.437907 0.825020
v -0.164107 3.912322 0.825020
v -0.321907 3.437907 0.777152
v -0.321907 3.912322 0.777152
v -0.467336 3.437907 0.699418
v -0.467336 3.912322 0.699418
v -0.594806 3.437907 0.594806
v -0.594806 3.912322 0.594806
v -0.699418 3.437907 0.467336
v -0.699418 3.912322 0.467336
v -0.777152 3.437907 0.321907
v -0.777152 3.912322 0.321907
v -0.825020 3.437907 0.164107
v -0.825020 3.912322 0.164107
v -0.841183 3.437907 0.000000
v -0.841183 3.912322 0.000000
v -0.825020 3.437907 -0.164107
v -0.825020 3.912322 -0.164107
v -0.777152 3.437907 -0.321907
v -0.777152 3.912322 -0.321907
v -0.699418 3.437907 -0.467336
v -0.699418 3.912322 -0.467336
v -0.594806 3.437907 -0.594806
v -0.594806 3.912322 -0.594806
v -0.467336 3.437907 -0.699418
v -0.467336 3.912322 -0.699418
v -0.321907 3.437907 -0.777152
v -0.321907 3.912322 -0.777152
v -0.164107 3.437907 -0.825020
v -0.164107 3.912322 -0.825020
vn -0.0000 -0.0000 -1.0000
vn 0.1951 -0.0000 -0.9808
vn 0.3827 -0.0000 -0.9239
vn 0.5556 -0.0000 -0.8315
vn 0.7071 -0.0000 -0.7071
vn 0.8315 -0.0000 -0.5556
vn 0.9239 -0.0000 -0.3827
vn 0.9808 -0.0000 -0.1951
vn 1.0000 -0.0000 -0.0000
vn 0.9808 -0.0000 0.1951
vn 0.9239 -0.0000 0.3827
vn 0.8315 -0.0000 0.5556
vn 0.7071 -0.0000 0.7071
vn 0.5556 -0.0000 0.8315
vn 0.3827 -0.0000 0.9239
vn 0.1951 -0.0000 0.9808
vn -0.0000 -0.0000 1.0000
vn -0.1951 -0.0000 0.9808
vn -0.3827 -0.0000 0.9239
vn -0.5556 -0.0000 0.8315
vn -0.7071 -0.0000 0.7071
vn -0.8315 -0.0000 0.5556
vn -0.9239 -0.0000 0.3827
vn -0.9808 -0.0000 0.1951
vn -1.0000 -0.0000 -0.0000
vn -0.9808 -0.0000 -0.1951
vn -0.9239 -0.0000 -0.3827
vn -0.8315 -0.0000 -0.5556
vn -0.7071 -0.0000 -0.7071
vn -0.5556 -0.0000 -0.8315
vn -0.3827 -0.0000 -0.9239
vn -0.0000 1.0000 -0.0000
vn -0.1951 -0.0000 -0.9808
vn -0.0000 -1.0000 -0.0000
vt 1.000000 0.500000
vt 1.000000 1.000000
vt 0.968750 1.000000
vt 0.968750 0.500000
vt 0.937500 1.000000
vt 0.937500 0.500000
vt 0.906250 1.000000
vt 0.906250 0.500000
vt 0.875000 1.000000
vt 0.875000 0.500000
vt 0.843750 1.000000
vt 0.843750 0.500000
vt 0.812500 1.000000
vt 0.812500 0.500000
vt 0.781250 1.000000
vt 0.781250 0.500000
vt 0.750000 1.000000
vt 0.750000 0.500000
vt 0.718750 1.000000
vt 0.718750 0.500000
vt 0.687500 1.000000
vt 0.687500 0.500000
vt 0.656250 1.000000
vt 0.656250 0.500000
vt 0.625000 1.000000
vt 0.625000 0.500000
vt 0.593750 1.000000
vt 0.593750 0.500000
vt 0.562500 1.000000
vt 0.562500 0.500000
vt 0.531250 1.000000
vt 0.531250 0.500000
vt 0.500000 1.000000
vt 0.500000 0.500000
vt 0.468750 1.000000
vt 0.468750 0.500000
vt 0.437500 1.000000
vt 0.437500 0.500000
vt 0.406250 1.000000
vt 0.406250 0.500000
vt 0.375000 1.000000
vt 0.375000 0.500000
vt 0.343750 1.000000
vt 0.343750 0.500000
vt 0.312500 1.000000
vt 0.312500 0.500000
vt 0.281250 1.000000
vt 0.281250 0.500000
vt 0.250000 1.000000
vt 0.250000 0.500000
vt 0.218750 1.000000
vt 0.218750 0.500000
vt 0.187500 1.000000
vt 0.187500 0.500000
vt 0.156250 1.000000
vt 0.156250 0.500000
vt 0.125000 1.000000
vt 0.125000 0.500000
vt 0.093750 1.000000
vt 0.093750 0.500000
vt 0.062500 1.000000
vt 0.062500 0.500000
vt 0.296822 0.485388
vt 0.250000 0.490000
vt 0.203178 0.485388
vt 0.158156 0.471731
vt 0.116663 0.449553
vt 0.080294 0.419706
vt 0.050447 0.383337
vt 0.028269 0.341844
vt 0.014612 0.296822
vt 0.010000 0.250000
vt 0.014612 0.203178
vt 0.028269 0.158156
vt 0.050447 0.116663
vt 0.080294 0.080294
vt 0.116663 0.050447
vt 0.158156 0.028269
vt 0.203178 0.014612
vt 0.250000 0.010000
vt 0.296822 0.014612
vt 0.341844 0.028269
vt 0.383337 0.050447
vt 0.419706 0.080294
vt 0.449553 0.116663
vt 0.471731 0.158156
vt 0.485388 0.203178
vt 0.490000 0.250000
vt 0.485388 0.296822
vt 0.471731 0.341844
vt 0.449553 0.383337
vt 0.419706 0.419706
vt 0.383337 0.449553
vt 0.341844 0.471731
vt 0.031250 1.000000
vt 0.031250 0.500000
vt 0.000000 1.000000
vt 0.000000 0.500000
vt 0.750000 0.490000
vt 0.796822 0.485388
vt 0.841844 0.471731
vt 0.883337 0.449553
vt 0.919706 0.419706
vt 0.949553 0.383337
vt 0.971731 0.341844
vt 0.985388 0.296822
vt 0.990000 0.250000
vt 0.985388 0.203178
vt 0.971731 0.158156
vt 0.949553 0.116663
vt 0.919706 0.080294
vt 0.883337 0.050447
vt 0.841844 0.028269
vt 0.796822 0.014612
vt 0.750000 0.010000
vt 0.703178 0.014612
vt 0.658156 0.028269
vt 0.616663 0.050447
vt 0.580294 0.080294
vt 0.550447 0.116663
vt 0.528269 0.158156
vt 0.514612 0.203178
vt 0.510000 0.250000
vt 0.514612 0.296822
vt 0.528269 0.341844
vt 0.550447 0.383337
vt 0.580294 0.419706
vt 0.616663 0.449553
vt 0.658156 0.471731
vt 0.703178 0.485388
s 1
usemtl huta
f 545/559/514 546/560/514 548/561/515 547/562/515
f 547/562/515 548/561/515 550/563/516 549/564/516
f 549/564/516 550/563/516 552/565/517 551/566/517
f 551/566/517 552/565/517 554/567/518 553/568/518
f 553/568/518 554/567/518 556/569/519 555/570/519
f 555/570/519 556/569/519 558/571/520 557/572/520
f 557/572/520 558/571/520 560/573/521 559/574/521
f 559/574/521 560/573/521 562/575/522 561/576/522
f 561/576/522 562/575/522 564/577/523 563/578/523
f 563/578/523 564/577/523 566/579/524 565/580/524
f 565/580/524 566/579/524 568/581/525 567/582/525
f 567/582/525 568/581/525 570/583/526 569/584/526
f 569/584/526 570/583/526 572/585/527 571/586/527
f 571/586/527 572/585/527 574/587/528 573/588/528
f 573/588/528 574/587/528 576/589/529 575/590/529
f 575/590/529 576/589/529 578/591/530 577/592/530
f 577/592/530 578/591/530 580/593/531 579/594/531
f 579/594/531 580/593/531 582/595/532 581/596/532
f 581/596/532 582/595/532 584/597/533 583/598/533
f 583/598/533 584/597/533 586/599/534 585/600/534
f 585/600/534 586/599/534 588/601/535 587/602/535
f 587/602/535 588/601/535 590/603/536 589/604/536
f 589/604/536 590/603/536 592/605/537 591/606/537
f 591/606/537 592/605/537 594/607/538 593/608/538
f 593/608/538 594/607/538 596/609/539 595/610/539
f 595/610/539 596/609/539 598/611/540 597/612/540
f 597/612/540 598/611/540 600/613/541 599/614/541
f 599/614/541 600/613/541 602/615/542 601/616/542
f 601/616/542 602/615/542 604/617/543 603/618/543
f 603/618/543 604/617/543 606/619/544 605/620/544
f 548/621/545 546/622/545 608/623/545 606/624/545 604/625/545 602/626/545 600/627/545 598/628/545 596/629/545 594/630/545 592/631/545 590/632/545 588/633/545 586/634/545 584/635/545 582/636/545 580/637/545 578/638/545 576/639/545 574/640/545 572/641/545 570/642/545 568/643/545 566/644/545 564/645/545 562/646/545 560/647/545 558/648/545 556/649/545 554/650/545 552/651/545 550/652/545
f 605/620/544 606/619/544 608/653/546 607/654/546
f 607/654/546 608/653/546 546/655/514 545/656/514
f 545/657/547 547/658/547 549/659/547 551/660/547 553/661/547 555/662/547 557/663/547 559/664/547 561/665/547 563/666/547 565/667/547 567/668/547 569/669/547 571/670/547 573/671/547 575/672/547 577/673/547 579/674/547 581/675/547 583/676/547 585/677/547 587/678/547 589/679/547 591/680/547 593/681/547 595/682/547 597/683/547 599/684/547 601/685/547 603/686/547 605/687/547 607/688/547
o 円柱.002
v 0.003436 0.751595 -1.000000
v 0.003436 2.751595 -1.000000
v 0.198526 0.751595 -0.980785
v 0.198526 2.751595 -0.980785
v 0.386120 0.751595 -0.923880
v 0.386120 2.751595 -0.923880
v 0.559006 0.751595 -0.831470
v 0.559006 2.751595 -0.831470
v 0.710543 0.751595 -0.707107
v 0.710543 2.751595 -0.707107
v 0.834906 0.751595 -0.555570
v 0.834906 2.751595 -0.555570
v 0.927316 0.751595 -0.382683
v 0.927316 2.751595 -0.382683
v 0.984221 0.751595 -0.195090
v 0.984221 2.751595 -0.195090
v 1.003436 0.751595 0.000000
v 1.003436 2.751595 0.000000
v 0.984221 0.751595 0.195090
v 0.984221 2.751595 0.195090
v 0.927316 0.751595 0.382683
v 0.927316 2.751595 0.382683
v 0.834906 0.751595 0.555570
v 0.834906 2.751595 0.555570
v 0.710543 0.751595 0.707107
v 0.710543 2.751595 0.707107
v 0.559006 0.751595 0.831470
v 0.559006 2.751595 0.831470
v 0.386120 0.751595 0.923880
v 0.386120 2.751595 0.923880
v 0.198526 0.751595 0.980785
v 0.198526 2.751595 0.980785
v 0.003436 0.751595 1.000000
v 0.003436 2.751595 1.000000
vn 0.0980 -0.0000 -0.9952
vn 0.1951 -0.0000 -0.9808
vn 0.3827 -0.0000 -0.9239
vn 0.5556 -0.0000 -0.8315
vn 0.7071 -0.0000 -0.7071
vn 0.8315 -0.0000 -0.5556
vn 0.9239 -0.0000 -0.3827
vn 0.9808 -0.0000 -0.1951
vn 1.0000 -0.0000 -0.0000
vn 0.9808 -0.0000 0.1951
vn 0.9239 -0.0000 0.3827
vn 0.8315 -0.0000 0.5556
vn 0.7071 -0.0000 0.7071
vn 0.5556 -0.0000 0.8315
vn 0.3827 -0.0000 0.9239
vn 0.1951 -0.0000 0.9808
vn 0.0980 -0.0000 0.9952
vt 0.995750 0.178785
vt 0.998872 0.816319
vt 0.936382 0.816625
vt 0.933260 0.179091
vt 0.873893 0.816931
vt 0.870771 0.179397
vt 0.811404 0.817237
vt 0.808282 0.179703
vt 0.748914 0.817543
vt 0.745793 0.180009
vt 0.686425 0.817849
vt 0.683303 0.180315
vt 0.623936 0.818155
vt 0.620814 0.180621
vt 0.561447 0.818461
vt 0.558325 0.180927
vt 0.498957 0.818767
vt 0.495836 0.181233
vt 0.436468 0.819073
vt 0.433346 0.181539
vt 0.373979 0.819379
vt 0.370857 0.181845
vt 0.311490 0.819685
vt 0.308368 0.182151
vt 0.249000 0.819991
vt 0.245879 0.182457
vt 0.186511 0.820297
vt 0.183389 0.182763
vt 0.124022 0.820603
vt 0.120900 0.183069
vt 0.061532 0.820909
vt 0.058411 0.183375
vt -0.000957 0.821215
vt -0.004079 0.183681
s 1
usemtl マテリアル
f 609/689/548 610/690/548 612/691/549 611/692/549
f 611/692/549 612/691/549 614/693/550 613/694/550
f 613/694/550 614/693/550 616/695/551 615/696/551
f 615/696/551 616/695/551 618/697/552 617/698/552
f 617/698/552 618/697/552 620/699/553 619/700/553
f 619/700/553 620/699/553 622/701/554 621/702/554
f 621/702/554 622/701/554 624/703/555 623/704/555
f 623/704/555 624/703/555 626/705/556 625/706/556
f 625/706/556 626/705/556 628/707/557 627/708/557
f 627/708/557 628/707/557 630/709/558 629/710/558
f 629/710/558 630/709/558 632/711/559 631/712/559
f 631/712/559 632/711/559 634/713/560 633/714/560
f 633/714/560 634/713/560 636/715/561 635/716/561
f 635/716/561 636/715/561 638/717/562 637/718/562
f 637/718/562 638/717/562 640/719/563 639/720/563
f 639/720/563 640/719/563 642/721/564 641/722/564
