# Blender 3.6.0
# www.blender.org
mtllib tegami.mtl
o 平面
v -0.604140 0.035236 0.699355
v 0.155412 0.051585 0.599629
v -0.561834 0.022965 -0.643869
v 0.211679 0.035236 -0.699355
v -0.565168 0.035236 -0.524516
v -0.604140 0.035236 -0.349678
v -0.604140 0.035236 -0.174839
v -0.565885 0.035236 0.000000
v -0.604140 0.035236 0.174839
v -0.604140 0.035236 0.349678
v -0.572047 0.035236 0.524516
v 0.211679 0.035236 0.524516
v 0.168705 0.035236 0.349678
v 0.211679 0.035236 0.174839
v 0.242493 0.035236 0.000000
v 0.211679 0.035236 -0.174839
v 0.180844 0.035236 -0.349678
v 0.211679 0.035236 -0.524516
v -0.468170 0.035236 0.699355
v -0.332200 0.035236 0.721850
v -0.196230 0.035236 0.669651
v -0.060260 0.035236 0.699355
v 0.075709 0.035236 0.639038
v 0.075709 0.035236 -0.699355
v -0.060260 0.035236 -0.699355
v -0.196230 0.035236 -0.656736
v -0.332200 0.035236 -0.699355
v -0.468170 0.035236 -0.636097
v 0.075709 0.035236 0.524516
v -0.060260 0.035236 0.524516
v -0.196230 0.035236 0.524516
v -0.332200 0.035236 0.524516
v -0.468170 0.035236 0.524516
v 0.075709 0.035236 0.349678
v -0.060260 0.035236 0.349678
v -0.196230 0.035236 0.349678
v -0.332200 0.035236 0.349678
v -0.468170 0.035236 0.349678
v 0.096109 0.015955 0.224238
v -0.060260 0.035236 0.174839
v -0.196230 0.035236 0.174839
v -0.332200 0.035236 0.124352
v -0.468170 0.035236 0.174839
v 0.075709 0.035236 0.000000
v -0.060260 0.035236 0.000000
v -0.196230 0.035236 0.174031
v -0.332200 0.035236 0.000000
v -0.468170 0.035236 0.000000
v 0.075709 0.035236 -0.174839
v -0.060260 0.035236 -0.174839
v -0.196230 0.035236 -0.174839
v -0.332200 0.035236 -0.174839
v -0.479919 0.046341 -0.203290
v 0.075709 0.035236 -0.349678
v -0.060260 0.035236 -0.349678
v -0.196230 0.035236 -0.349678
v -0.332200 0.035236 -0.349678
v -0.468170 0.035236 -0.349678
v 0.075709 0.035236 -0.524516
v -0.060260 0.035236 -0.524516
v -0.196230 0.035236 -0.524516
v -0.332200 0.035236 -0.524516
v -0.468170 0.035236 -0.524516
vn -0.0000 1.0000 -0.0000
vn -0.0957 0.9889 -0.1137
vn -0.1122 0.9899 -0.0872
vn -0.0599 0.9971 0.0466
vn -0.0466 0.9983 -0.0362
vn 0.0424 0.9986 -0.0330
vn -0.0454 0.9983 0.0353
vn 0.0363 0.9989 0.0282
vn 0.0581 0.9973 0.0452
vn 0.0756 0.9954 -0.0588
vn -0.0619 0.9966 -0.0539
vt 0.833333 0.875000
vt 1.000000 0.875000
vt 1.000000 1.000000
vt 0.833333 1.000000
vt 0.833333 0.000000
vt 1.000000 0.000000
vt 1.000000 0.125000
vt 0.833333 0.125000
vt 1.000000 0.250000
vt 0.833333 0.250000
vt 1.000000 0.375000
vt 0.833333 0.375000
vt 1.000000 0.500000
vt 0.833333 0.500000
vt 1.000000 0.625000
vt 0.833333 0.625000
vt 1.000000 0.750000
vt 0.833333 0.750000
vt 0.000000 0.750000
vt 0.166667 0.750000
vt 0.166667 0.875000
vt 0.000000 0.875000
vt 0.333333 0.750000
vt 0.333333 0.875000
vt 0.500000 0.750000
vt 0.500000 0.875000
vt 0.666667 0.750000
vt 0.666667 0.875000
vt 0.000000 0.625000
vt 0.166667 0.625000
vt 0.333333 0.625000
vt 0.500000 0.625000
vt 0.666667 0.625000
vt 0.000000 0.500000
vt 0.166667 0.500000
vt 0.333333 0.500000
vt 0.500000 0.500000
vt 0.666667 0.500000
vt 0.000000 0.375000
vt 0.166667 0.375000
vt 0.333333 0.375000
vt 0.500000 0.375000
vt 0.666667 0.375000
vt 0.000000 0.250000
vt 0.166667 0.250000
vt 0.333333 0.250000
vt 0.500000 0.250000
vt 0.666667 0.250000
vt 0.000000 0.125000
vt 0.166667 0.125000
vt 0.333333 0.125000
vt 0.500000 0.125000
vt 0.666667 0.125000
vt 0.000000 0.000000
vt 0.166667 0.000000
vt 0.333333 0.000000
vt 0.500000 0.000000
vt 0.666667 0.000000
vt 0.166667 1.000000
vt 0.000000 1.000000
vt 0.333333 1.000000
vt 0.500000 1.000000
vt 0.666667 1.000000
s 0
usemtl マテリアル
f 59/1/1 18/2/1 4/3/1 24/4/1
f 23/5/2 2/6/2 12/7/2 29/8/2
f 29/8/1 12/7/1 13/9/1 34/10/1
f 34/10/3 13/9/3 14/11/3 39/12/3
f 39/12/4 14/11/4 15/13/4 44/14/4
f 44/14/1 15/13/1 16/15/1 49/16/1
f 49/16/1 16/15/1 17/17/1 54/18/1
f 54/18/1 17/17/1 18/2/1 59/1/1
f 6/19/1 58/20/1 63/21/1 5/22/1
f 58/20/1 57/23/1 62/24/1 63/21/1
f 57/23/1 56/25/1 61/26/1 62/24/1
f 56/25/1 55/27/1 60/28/1 61/26/1
f 55/27/1 54/18/1 59/1/1 60/28/1
f 7/29/5 53/30/5 58/20/5 6/19/5
f 53/30/6 52/31/6 57/23/6 58/20/6
f 52/31/1 51/32/1 56/25/1 57/23/1
f 51/32/1 50/33/1 55/27/1 56/25/1
f 50/33/1 49/16/1 54/18/1 55/27/1
f 8/34/7 48/35/7 53/30/7 7/29/7
f 48/35/8 47/36/8 52/31/8 53/30/8
f 47/36/1 46/37/1 51/32/1 52/31/1
f 46/37/1 45/38/1 50/33/1 51/32/1
f 45/38/1 44/14/1 49/16/1 50/33/1
f 9/39/1 43/40/1 48/35/1 8/34/1
f 43/40/1 42/41/1 47/36/1 48/35/1
f 42/41/1 41/42/1 46/37/1 47/36/1
f 41/42/1 40/43/1 45/38/1 46/37/1
f 40/43/9 39/12/9 44/14/9 45/38/9
f 10/44/1 38/45/1 43/40/1 9/39/1
f 38/45/1 37/46/1 42/41/1 43/40/1
f 37/46/1 36/47/1 41/42/1 42/41/1
f 36/47/1 35/48/1 40/43/1 41/42/1
f 35/48/10 34/10/10 39/12/10 40/43/10
f 11/49/1 33/50/1 38/45/1 10/44/1
f 33/50/1 32/51/1 37/46/1 38/45/1
f 32/51/1 31/52/1 36/47/1 37/46/1
f 31/52/1 30/53/1 35/48/1 36/47/1
f 30/53/1 29/8/1 34/10/1 35/48/1
f 1/54/1 19/55/1 33/50/1 11/49/1
f 19/55/1 20/56/1 32/51/1 33/50/1
f 20/56/1 21/57/1 31/52/1 32/51/1
f 21/57/1 22/58/1 30/53/1 31/52/1
f 22/58/1 23/5/1 29/8/1 30/53/1
f 5/22/11 63/21/11 28/59/11 3/60/11
f 63/21/1 62/24/1 27/61/1 28/59/1
f 62/24/1 61/26/1 26/62/1 27/61/1
f 61/26/1 60/28/1 25/63/1 26/62/1
f 60/28/1 59/1/1 24/4/1 25/63/1
o 平面.003
v 0.091213 0.045565 -0.355726
v 0.411120 0.051151 -0.985416
v -0.311946 0.038006 -0.560614
v 0.007961 0.043592 -1.190304
v -0.231314 0.039518 -0.519637
v -0.131174 0.039418 -0.504032
v -0.070051 0.042541 -0.437681
v 0.017261 0.049142 -0.408500
v 0.315567 0.049672 -0.993462
v 0.249857 0.048127 -1.067372
v 0.143310 0.053033 -1.079637
v 0.088593 0.045104 -1.149327
v 0.155194 0.046682 -0.481664
v 0.209646 0.070081 -0.631603
v 0.283157 0.048917 -0.733540
v 0.347139 0.050034 -0.859478
v -0.056020 0.042475 -1.064366
v -0.092402 0.041357 -0.938428
v -0.183983 0.040240 -0.812490
v -0.219787 0.034692 -0.692322
v 0.266507 0.048522 -0.900456
v 0.202526 0.047405 -0.774518
v 0.138544 0.046288 -0.648580
v 0.074563 0.045170 -0.522642
v 0.185875 0.047010 -0.941434
v 0.121894 0.045893 -0.815495
v 0.057912 0.044776 -0.689557
v -0.006069 0.043659 -0.563619
v 0.105244 0.045498 -0.982411
v 0.041262 0.044381 -0.856473
v -0.022719 0.043264 -0.730535
v -0.086701 0.042147 -0.604597
v 0.024612 0.043986 -1.023389
v -0.039370 0.042869 -0.897451
v -0.103351 0.041752 -0.771513
v -0.167333 0.040635 -0.645575
vn -0.0185 0.9998 -0.0005
vn -0.0174 0.9998 0.0014
vn -0.0206 0.9998 -0.0003
vn 0.0063 0.9991 0.0416
vn -0.0736 0.9973 0.0050
vn -0.0114 0.9999 0.0115
vn -0.0334 0.9994 0.0010
vn -0.0357 0.9989 -0.0299
vn 0.0157 0.9999 -0.0039
vn -0.1699 0.9854 0.0146
vn -0.1064 0.9828 -0.1506
vn -0.0360 0.9989 -0.0303
vn -0.0582 0.9983 0.0034
vn -0.0203 0.9998 -0.0037
vn -0.0225 0.9997 -0.0001
vt 0.800000 0.800000
vt 1.000000 0.800000
vt 1.000000 1.000000
vt 0.800000 1.000000
vt 0.800000 0.000000
vt 1.000000 0.000000
vt 1.000000 0.200000
vt 0.800000 0.200000
vt 1.000000 0.400000
vt 0.800000 0.400000
vt 1.000000 0.600000
vt 0.800000 0.600000
vt 0.000000 0.600000
vt 0.200000 0.600000
vt 0.200000 0.800000
vt 0.000000 0.800000
vt 0.400000 0.600000
vt 0.400000 0.800000
vt 0.600000 0.600000
vt 0.600000 0.800000
vt 0.000000 0.400000
vt 0.200000 0.400000
vt 0.400000 0.400000
vt 0.600000 0.400000
vt 0.000000 0.200000
vt 0.200000 0.200000
vt 0.400000 0.200000
vt 0.600000 0.200000
vt 0.000000 0.000000
vt 0.200000 0.000000
vt 0.400000 0.000000
vt 0.600000 0.000000
vt 0.200000 1.000000
vt 0.000000 1.000000
vt 0.400000 1.000000
vt 0.600000 1.000000
s 0
usemtl マテリアル.003
f 96/64/12 75/65/12 67/66/12 80/67/12
f 79/68/13 65/69/13 72/70/13 84/71/13
f 84/71/14 72/70/14 73/72/14 88/73/14
f 88/73/15 73/72/15 74/74/15 92/75/15
f 92/75/16 74/74/16 75/65/16 96/64/16
f 69/76/17 95/77/17 99/78/17 68/79/17
f 95/77/12 94/80/12 98/81/12 99/78/12
f 94/80/12 93/82/12 97/83/12 98/81/12
f 93/82/12 92/75/12 96/64/12 97/83/12
f 70/84/18 91/85/18 95/77/18 69/76/18
f 91/85/12 90/86/12 94/80/12 95/77/12
f 90/86/12 89/87/12 93/82/12 94/80/12
f 89/87/12 88/73/12 92/75/12 93/82/12
f 71/88/19 87/89/19 91/85/19 70/84/19
f 87/89/12 86/90/12 90/86/12 91/85/12
f 86/90/12 85/91/12 89/87/12 90/86/12
f 85/91/12 84/71/12 88/73/12 89/87/12
f 64/92/20 76/93/20 87/89/20 71/88/20
f 76/93/21 77/94/21 86/90/21 87/89/21
f 77/94/22 78/95/22 85/91/22 86/90/22
f 78/95/12 79/68/12 84/71/12 85/91/12
f 68/79/23 99/78/23 83/96/23 66/97/23
f 99/78/24 98/81/24 82/98/24 83/96/24
f 98/81/25 97/83/25 81/99/25 82/98/25
f 97/83/26 96/64/26 80/67/26 81/99/26
