# Blender v3.6.0 OBJ File: 'toireltutope-pa.blend'
# www.blender.org
mtllib toireltutope-pa.mtl
o 円柱
v 0.927424 1.193503 0.282092
v 1.632778 1.176458 0.123689
v 0.930056 1.168857 0.296464
v 1.635410 1.151812 0.138061
v 0.933757 1.147533 0.315238
v 1.639111 1.130488 0.156835
v 0.938384 1.130349 0.337692
v 1.643738 1.113304 0.179289
v 0.943760 1.117967 0.362964
v 1.649114 1.100921 0.204561
v 0.949678 1.110860 0.390081
v 1.655032 1.093815 0.231678
v 0.955911 1.109304 0.418003
v 1.661265 1.092259 0.259600
v 0.962219 1.113357 0.445655
v 1.667573 1.096312 0.287252
v 0.968360 1.122865 0.471976
v 1.673713 1.105819 0.313573
v 0.974097 1.137460 0.495954
v 1.679451 1.120415 0.337551
v 0.979211 1.156584 0.516667
v 1.684564 1.139539 0.358264
v 0.983504 1.179500 0.533319
v 1.688858 1.162454 0.374916
v 0.986813 1.205328 0.545271
v 1.692166 1.188283 0.386868
v 0.989008 1.233075 0.552063
v 1.694362 1.216030 0.393660
v 0.990007 1.261676 0.553434
v 1.695361 1.244631 0.395032
v 0.989771 1.290031 0.549332
v 1.695125 1.272986 0.390929
v 0.988309 1.317050 0.539914
v 1.693663 1.300005 0.381511
v 0.985677 1.341696 0.525541
v 1.691031 1.324650 0.367139
v 0.981976 1.363020 0.506767
v 1.687330 1.345975 0.348364
v 0.977349 1.380204 0.484313
v 1.682703 1.363158 0.325910
v 0.971973 1.392586 0.459042
v 1.677327 1.375541 0.300639
v 0.966055 1.399693 0.431924
v 1.671409 1.382648 0.273521
v 0.959822 1.401249 0.404003
v 1.665176 1.384204 0.245600
v 0.953514 1.397196 0.376350
v 1.658868 1.380150 0.217947
v 0.947373 1.387688 0.350029
v 1.652727 1.370643 0.191626
v 0.941636 1.373093 0.326052
v 1.646990 1.356048 0.167649
v 0.936522 1.353969 0.305339
v 1.641876 1.336924 0.146936
v 0.932229 1.331053 0.288686
v 1.637583 1.314008 0.130283
v 0.928921 1.305225 0.276734
v 1.634274 1.288180 0.118331
v 0.926725 1.277478 0.269942
v 1.632078 1.260432 0.111539
v 0.925726 1.248877 0.268571
v 1.631079 1.231832 0.110168
v 0.925962 1.220522 0.272673
v 1.631315 1.203477 0.114271
v 0.882556 1.102458 0.092096
v 0.889068 1.041489 0.127651
v 1.594421 1.024444 -0.030751
v 1.587910 1.085412 -0.066306
v 0.898223 0.988736 0.174095
v 1.603576 0.971691 0.015693
v 0.909670 0.946226 0.229644
v 1.615024 0.929181 0.071241
v 0.922970 0.915592 0.292161
v 1.628323 0.898547 0.133758
v 0.937610 0.898013 0.359246
v 1.642964 0.880968 0.200843
v 0.953029 0.894163 0.428320
v 1.658383 0.877118 0.269917
v 0.968634 0.904190 0.496728
v 1.673988 0.887145 0.338325
v 0.983825 0.927709 0.561842
v 1.689179 0.910664 0.403439
v 0.998019 0.963817 0.621159
v 1.703372 0.946772 0.462756
v 1.010669 1.011125 0.672400
v 1.716023 0.994080 0.513997
v 1.021291 1.067816 0.713596
v 1.726644 1.050771 0.555193
v 1.029474 1.131711 0.743163
v 1.734828 1.114666 0.584760
v 1.034907 1.200354 0.759965
v 1.740260 1.183309 0.601562
v 1.037378 1.271108 0.763357
v 1.742732 1.254063 0.604954
v 1.036794 1.341254 0.753208
v 1.742148 1.324209 0.594806
v 1.033177 1.408095 0.729909
v 1.738531 1.391050 0.571506
v 1.026666 1.469064 0.694354
v 1.732019 1.452019 0.535951
v 1.017510 1.521817 0.647910
v 1.722864 1.504772 0.489507
v 1.006063 1.564327 0.592362
v 1.711417 1.547282 0.433959
v 0.992764 1.594961 0.529844
v 1.698117 1.577916 0.371441
v 0.978123 1.612540 0.462759
v 1.683477 1.595495 0.304357
v 0.962704 1.616390 0.393686
v 1.668058 1.599345 0.235283
v 0.947099 1.606363 0.325277
v 1.652453 1.589318 0.166875
v 0.931908 1.582844 0.260164
v 1.637262 1.565799 0.101761
v 0.917715 1.546736 0.200846
v 1.623068 1.529691 0.042444
v 0.905064 1.499428 0.149605
v 1.610418 1.482383 -0.008797
v 0.894443 1.442737 0.108410
v 1.599796 1.425692 -0.049993
v 0.886259 1.378842 0.078843
v 1.591612 1.361797 -0.079560
v 0.880827 1.310199 0.062040
v 1.586180 1.293154 -0.096363
v 0.878355 1.239445 0.058648
v 1.583709 1.222400 -0.099755
v 0.878939 1.169299 0.068797
v 1.584293 1.152254 -0.089606
v 1.209998 1.162093 0.233597
v 1.207366 1.186738 0.219225
v 1.213699 1.140768 0.252371
v 1.218326 1.123585 0.274825
v 1.223702 1.111202 0.300096
v 1.229620 1.104095 0.327214
v 1.235853 1.102539 0.355136
v 1.242161 1.106592 0.382788
v 1.248302 1.116100 0.409109
v 1.254039 1.130695 0.433087
v 1.259153 1.149819 0.453800
v 1.263446 1.172735 0.470452
v 1.266754 1.198563 0.482404
v 1.268950 1.226310 0.489196
v 1.269949 1.254911 0.490567
v 1.269713 1.283266 0.486465
v 1.268251 1.310285 0.477046
v 1.265619 1.334931 0.462674
v 1.261918 1.356255 0.443900
v 1.257291 1.373439 0.421446
v 1.251915 1.385822 0.396175
v 1.245997 1.392928 0.369057
v 1.239764 1.394484 0.341136
v 1.233456 1.390431 0.313483
v 1.227315 1.380924 0.287162
v 1.221578 1.366328 0.263184
v 1.216464 1.347204 0.242471
v 1.212171 1.324288 0.225819
v 1.208863 1.298460 0.213867
v 1.206667 1.270713 0.207075
v 1.205668 1.242112 0.205704
v 1.205904 1.213757 0.209806
v 1.283820 1.184890 0.202055
v 1.286452 1.160245 0.216427
v 1.290153 1.138921 0.235201
v 1.294780 1.121737 0.257656
v 1.300156 1.109354 0.282927
v 1.306074 1.102248 0.310044
v 1.312307 1.100692 0.337966
v 1.318615 1.104745 0.365619
v 1.324756 1.114252 0.391939
v 1.330493 1.128848 0.415917
v 1.335607 1.147971 0.436630
v 1.339900 1.170887 0.453283
v 1.343209 1.196715 0.465235
v 1.345405 1.224463 0.472027
v 1.346403 1.253064 0.473398
v 1.346167 1.281419 0.469295
v 1.344705 1.308438 0.459877
v 1.342073 1.333083 0.445505
v 1.338372 1.354407 0.426731
v 1.333745 1.371591 0.404277
v 1.328369 1.383974 0.379005
v 1.322451 1.391080 0.351888
v 1.316218 1.392636 0.323966
v 1.309910 1.388583 0.296313
v 1.303770 1.379076 0.269993
v 1.298032 1.364480 0.246015
v 1.292918 1.345357 0.225302
v 1.288625 1.322441 0.208649
v 1.285317 1.296613 0.196698
v 1.283121 1.268865 0.189906
v 1.282122 1.240264 0.188534
v 1.282358 1.211910 0.192637
vt 1.000000 0.500000
vt 1.000000 1.000000
vt 0.968750 1.000000
vt 0.968750 0.500000
vt 0.937500 1.000000
vt 0.937500 0.500000
vt 0.906250 1.000000
vt 0.906250 0.500000
vt 0.875000 1.000000
vt 0.875000 0.500000
vt 0.843750 1.000000
vt 0.843750 0.500000
vt 0.812500 1.000000
vt 0.812500 0.500000
vt 0.781250 1.000000
vt 0.781250 0.500000
vt 0.750000 1.000000
vt 0.750000 0.500000
vt 0.718750 1.000000
vt 0.718750 0.500000
vt 0.687500 1.000000
vt 0.687500 0.500000
vt 0.656250 1.000000
vt 0.656250 0.500000
vt 0.625000 1.000000
vt 0.625000 0.500000
vt 0.593750 1.000000
vt 0.593750 0.500000
vt 0.562500 1.000000
vt 0.562500 0.500000
vt 0.531250 1.000000
vt 0.531250 0.500000
vt 0.500000 1.000000
vt 0.500000 0.500000
vt 0.468750 1.000000
vt 0.468750 0.500000
vt 0.437500 1.000000
vt 0.437500 0.500000
vt 0.406250 1.000000
vt 0.406250 0.500000
vt 0.375000 1.000000
vt 0.375000 0.500000
vt 0.343750 1.000000
vt 0.343750 0.500000
vt 0.312500 1.000000
vt 0.312500 0.500000
vt 0.281250 1.000000
vt 0.281250 0.500000
vt 0.250000 1.000000
vt 0.250000 0.500000
vt 0.218750 1.000000
vt 0.218750 0.500000
vt 0.187500 1.000000
vt 0.187500 0.500000
vt 0.156250 1.000000
vt 0.156250 0.500000
vt 0.125000 1.000000
vt 0.125000 0.500000
vt 0.093750 1.000000
vt 0.093750 0.500000
vt 0.062500 1.000000
vt 0.062500 0.500000
vt 0.212874 0.160370
vt 0.231073 0.154849
vt 0.231073 0.154849
vt 0.212874 0.160370
vt 0.031250 1.000000
vt 0.031250 0.500000
vt 0.000000 1.000000
vt 0.000000 0.500000
vt 0.652985 0.250000
vt 0.654849 0.268927
vt 0.654849 0.268927
vt 0.652985 0.250000
vt 0.768927 0.345151
vt 0.750000 0.347015
vt 0.750000 0.490000
vt 0.796822 0.485388
vt 0.250000 0.347015
vt 0.268927 0.345151
vt 0.296822 0.485388
vt 0.250000 0.490000
vt 0.787126 0.339630
vt 0.841844 0.471731
vt 0.287126 0.339630
vt 0.341844 0.471731
vt 0.803899 0.330665
vt 0.883337 0.449553
vt 0.303898 0.330665
vt 0.383337 0.449553
vt 0.818600 0.318600
vt 0.919706 0.419706
vt 0.318600 0.318600
vt 0.419706 0.419706
vt 0.830665 0.303899
vt 0.949553 0.383337
vt 0.330665 0.303898
vt 0.449553 0.383337
vt 0.839630 0.287126
vt 0.971731 0.341844
vt 0.339630 0.287126
vt 0.471731 0.341844
vt 0.845151 0.268927
vt 0.985388 0.296822
vt 0.345151 0.268927
vt 0.485388 0.296822
vt 0.847015 0.250000
vt 0.990000 0.250000
vt 0.347015 0.250000
vt 0.490000 0.250000
vt 0.845151 0.231073
vt 0.985388 0.203178
vt 0.345151 0.231073
vt 0.485388 0.203178
vt 0.839630 0.212874
vt 0.971731 0.158156
vt 0.339630 0.212874
vt 0.471731 0.158156
vt 0.830665 0.196101
vt 0.949553 0.116663
vt 0.330665 0.196101
vt 0.449553 0.116663
vt 0.818600 0.181400
vt 0.919706 0.080294
vt 0.318600 0.181400
vt 0.419706 0.080294
vt 0.803899 0.169335
vt 0.883337 0.050447
vt 0.303899 0.169335
vt 0.383337 0.050447
vt 0.787126 0.160370
vt 0.841844 0.028269
vt 0.287126 0.160370
vt 0.341844 0.028269
vt 0.768927 0.154849
vt 0.796822 0.014612
vt 0.268927 0.154849
vt 0.296822 0.014612
vt 0.750000 0.152985
vt 0.750000 0.010000
vt 0.250000 0.152985
vt 0.250000 0.010000
vt 0.731073 0.154849
vt 0.703178 0.014612
vt 0.203178 0.014612
vt 0.712874 0.160370
vt 0.658156 0.028269
vt 0.158156 0.028269
vt 0.696101 0.169335
vt 0.616663 0.050447
vt 0.196101 0.169335
vt 0.116663 0.050447
vt 0.681400 0.181400
vt 0.580294 0.080294
vt 0.181400 0.181400
vt 0.080294 0.080294
vt 0.669335 0.196101
vt 0.550447 0.116663
vt 0.169335 0.196102
vt 0.050447 0.116663
vt 0.660370 0.212874
vt 0.528269 0.158156
vt 0.160370 0.212874
vt 0.028269 0.158156
vt 0.654849 0.231073
vt 0.514612 0.203178
vt 0.154849 0.231073
vt 0.014612 0.203178
vt 0.510000 0.250000
vt 0.152985 0.250000
vt 0.010000 0.250000
vt 0.514612 0.296822
vt 0.154849 0.268927
vt 0.014612 0.296822
vt 0.660370 0.287126
vt 0.528269 0.341844
vt 0.160370 0.287126
vt 0.028269 0.341844
vt 0.669335 0.303898
vt 0.550447 0.383337
vt 0.169335 0.303899
vt 0.050447 0.383337
vt 0.681400 0.318600
vt 0.580294 0.419706
vt 0.181400 0.318600
vt 0.080294 0.419706
vt 0.696101 0.330665
vt 0.616663 0.449553
vt 0.196102 0.330665
vt 0.116663 0.449553
vt 0.712874 0.339630
vt 0.658156 0.471731
vt 0.212874 0.339630
vt 0.158156 0.471731
vt 0.731073 0.345151
vt 0.703178 0.485388
vt 0.231073 0.345151
vt 0.203178 0.485388
vt 0.152985 0.250000
vt 0.154849 0.268927
vt 0.318600 0.318600
vt 0.330665 0.303898
vt 0.231073 0.345151
vt 0.250000 0.347015
vt 0.330665 0.196101
vt 0.318600 0.181400
vt 0.196101 0.169335
vt 0.160370 0.287126
vt 0.339630 0.287126
vt 0.303899 0.169335
vt 0.181400 0.181400
vt 0.169335 0.303899
vt 0.345151 0.268927
vt 0.287126 0.160370
vt 0.169335 0.196102
vt 0.268927 0.345151
vt 0.181400 0.318600
vt 0.347015 0.250000
vt 0.268927 0.154849
vt 0.160370 0.212874
vt 0.287126 0.339630
vt 0.196102 0.330665
vt 0.345151 0.231073
vt 0.250000 0.152985
vt 0.154849 0.231073
vt 0.303898 0.330665
vt 0.212874 0.339630
vt 0.339630 0.212874
vt 0.830665 0.303899
vt 0.818600 0.318600
vt 0.750000 0.347015
vt 0.731073 0.345151
vt 0.818600 0.181400
vt 0.830665 0.196101
vt 0.696101 0.169335
vt 0.712874 0.160370
vt 0.660370 0.287126
vt 0.839630 0.287126
vt 0.803899 0.169335
vt 0.681400 0.181400
vt 0.669335 0.303898
vt 0.845151 0.268927
vt 0.787126 0.160370
vt 0.669335 0.196101
vt 0.768927 0.345151
vt 0.681400 0.318600
vt 0.847015 0.250000
vt 0.768927 0.154849
vt 0.660370 0.212874
vt 0.787126 0.339630
vt 0.696101 0.330665
vt 0.845151 0.231073
vt 0.750000 0.152985
vt 0.654849 0.231073
vt 0.803899 0.330665
vt 0.712874 0.339630
vt 0.839630 0.212874
vt 0.731073 0.154849
vn -0.2083 -0.4227 -0.8820
vn -0.1903 -0.5913 -0.7837
vn -0.1650 -0.7372 -0.6552
vn -0.1333 -0.8548 -0.5016
vn -0.0965 -0.9395 -0.3287
vn -0.0560 -0.9881 -0.1431
vn -0.0134 -0.9988 0.0479
vn 0.0298 -0.9710 0.2371
vn 0.0718 -0.9060 0.4172
vn 0.1111 -0.8061 0.5812
vn 0.1460 -0.6753 0.7230
vn 0.1754 -0.5185 0.8369
vn 0.1981 -0.3418 0.9187
vn 0.2131 -0.1519 0.9652
vn 0.2199 0.0438 0.9745
vn 0.2183 0.2378 0.9465
vn 0.2083 0.4227 0.8820
vn 0.1903 0.5913 0.7837
vn 0.1650 0.7372 0.6552
vn 0.1333 0.8548 0.5016
vn 0.0965 0.9395 0.3287
vn 0.0560 0.9881 0.1431
vn 0.0134 0.9988 -0.0479
vn -0.0298 0.9710 -0.2371
vn -0.0718 0.9060 -0.4172
vn -0.1111 0.8061 -0.5812
vn -0.1460 0.6753 -0.7230
vn -0.1754 0.5185 -0.8369
vn -0.1981 0.3418 -0.9187
vn -0.2131 0.1519 -0.9652
vn -0.2199 -0.0438 -0.9745
vn -0.2183 -0.2378 -0.9465
vn -0.9754 0.0236 0.2191
vn 0.9754 -0.0236 -0.2191
usemtl マテリアル
s 1
f 65/1/1 68/2/1 67/3/2 66/4/2
f 66/4/2 67/3/2 70/5/3 69/6/3
f 69/6/3 70/5/3 72/7/4 71/8/4
f 71/8/4 72/7/4 74/9/5 73/10/5
f 73/10/5 74/9/5 76/11/6 75/12/6
f 75/12/6 76/11/6 78/13/7 77/14/7
f 77/14/7 78/13/7 80/15/8 79/16/8
f 79/16/8 80/15/8 82/17/9 81/18/9
f 81/18/9 82/17/9 84/19/10 83/20/10
f 83/20/10 84/19/10 86/21/11 85/22/11
f 85/22/11 86/21/11 88/23/12 87/24/12
f 87/24/12 88/23/12 90/25/13 89/26/13
f 89/26/13 90/25/13 92/27/14 91/28/14
f 91/28/14 92/27/14 94/29/15 93/30/15
f 93/30/15 94/29/15 96/31/16 95/32/16
f 95/32/16 96/31/16 98/33/17 97/34/17
f 97/34/17 98/33/17 100/35/18 99/36/18
f 99/36/18 100/35/18 102/37/19 101/38/19
f 101/38/19 102/37/19 104/39/20 103/40/20
f 103/40/20 104/39/20 106/41/21 105/42/21
f 105/42/21 106/41/21 108/43/22 107/44/22
f 107/44/22 108/43/22 110/45/23 109/46/23
f 109/46/23 110/45/23 112/47/24 111/48/24
f 111/48/24 112/47/24 114/49/25 113/50/25
f 113/50/25 114/49/25 116/51/26 115/52/26
f 115/52/26 116/51/26 118/53/27 117/54/27
f 117/54/27 118/53/27 120/55/28 119/56/28
f 119/56/28 120/55/28 122/57/29 121/58/29
f 121/58/29 122/57/29 124/59/30 123/60/30
f 123/60/30 124/59/30 126/61/31 125/62/31
f 38/63/3 36/64/2 146/65/2 147/66/3
f 125/62/31 126/61/31 128/67/32 127/68/32
f 127/68/32 128/67/32 68/69/1 65/70/1
f 49/71/9 51/72/10 186/73/10 185/74/9
f 3/75/33 1/76/33 65/77/33 66/78/33
f 2/79/34 4/80/34 67/81/34 68/82/34
f 5/83/33 3/75/33 66/78/33 69/84/33
f 4/80/34 6/85/34 70/86/34 67/81/34
f 7/87/33 5/83/33 69/84/33 71/88/33
f 6/85/34 8/89/34 72/90/34 70/86/34
f 9/91/33 7/87/33 71/88/33 73/92/33
f 8/89/34 10/93/34 74/94/34 72/90/34
f 11/95/33 9/91/33 73/92/33 75/96/33
f 10/93/34 12/97/34 76/98/34 74/94/34
f 13/99/33 11/95/33 75/96/33 77/100/33
f 12/97/34 14/101/34 78/102/34 76/98/34
f 15/103/33 13/99/33 77/100/33 79/104/33
f 14/101/34 16/105/34 80/106/34 78/102/34
f 17/107/33 15/103/33 79/104/33 81/108/33
f 16/105/34 18/109/34 82/110/34 80/106/34
f 19/111/33 17/107/33 81/108/33 83/112/33
f 18/109/34 20/113/34 84/114/34 82/110/34
f 21/115/33 19/111/33 83/112/33 85/116/33
f 20/113/34 22/117/34 86/118/34 84/114/34
f 23/119/33 21/115/33 85/116/33 87/120/33
f 22/117/34 24/121/34 88/122/34 86/118/34
f 25/123/33 23/119/33 87/120/33 89/124/33
f 24/121/34 26/125/34 90/126/34 88/122/34
f 27/127/33 25/123/33 89/124/33 91/128/33
f 26/125/34 28/129/34 92/130/34 90/126/34
f 29/131/33 27/127/33 91/128/33 93/132/33
f 28/129/34 30/133/34 94/134/34 92/130/34
f 31/135/33 29/131/33 93/132/33 95/136/33
f 30/133/34 32/137/34 96/138/34 94/134/34
f 33/139/33 31/135/33 95/136/33 97/140/33
f 32/137/34 34/141/34 98/142/34 96/138/34
f 35/143/33 33/139/33 97/140/33 99/144/33
f 34/141/34 36/64/34 100/145/34 98/142/34
f 37/146/33 35/143/33 99/144/33 101/147/33
f 36/64/34 38/63/34 102/148/34 100/145/34
f 39/149/33 37/146/33 101/147/33 103/150/33
f 38/63/34 40/151/34 104/152/34 102/148/34
f 41/153/33 39/149/33 103/150/33 105/154/33
f 40/151/34 42/155/34 106/156/34 104/152/34
f 43/157/33 41/153/33 105/154/33 107/158/33
f 42/155/34 44/159/34 108/160/34 106/156/34
f 45/161/33 43/157/33 107/158/33 109/162/33
f 44/159/34 46/163/34 110/164/34 108/160/34
f 47/165/33 45/161/33 109/162/33 111/166/33
f 46/163/34 48/167/34 112/168/34 110/164/34
f 49/71/33 47/165/33 111/166/33 113/169/33
f 48/167/34 50/170/34 114/171/34 112/168/34
f 51/72/33 49/71/33 113/169/33 115/172/33
f 50/170/34 52/173/34 116/174/34 114/171/34
f 53/175/33 51/72/33 115/172/33 117/176/33
f 52/173/34 54/177/34 118/178/34 116/174/34
f 55/179/33 53/175/33 117/176/33 119/180/33
f 54/177/34 56/181/34 120/182/34 118/178/34
f 57/183/33 55/179/33 119/180/33 121/184/33
f 56/181/34 58/185/34 122/186/34 120/182/34
f 59/187/33 57/183/33 121/184/33 123/188/33
f 58/185/34 60/189/34 124/190/34 122/186/34
f 61/191/33 59/187/33 123/188/33 125/192/33
f 60/189/34 62/193/34 126/194/34 124/190/34
f 63/195/33 61/191/33 125/192/33 127/196/33
f 62/193/34 64/197/34 128/198/34 126/194/34
f 1/76/33 63/195/33 127/196/33 65/77/33
f 64/197/34 2/79/34 68/82/34 128/198/34
f 52/173/10 50/170/9 153/199/9 154/200/10
f 12/97/22 10/93/21 133/201/21 134/202/22
f 2/79/17 64/197/16 160/203/16 130/204/17
f 26/125/29 24/121/28 140/205/28 141/206/29
f 40/151/4 38/63/3 147/66/3 148/207/4
f 54/177/11 52/173/10 154/200/10 155/208/11
f 14/101/23 12/97/22 134/202/22 135/209/23
f 28/129/30 26/125/29 141/206/29 142/210/30
f 42/155/5 40/151/4 148/207/4 149/211/5
f 56/181/12 54/177/11 155/208/11 156/212/12
f 16/105/24 14/101/23 135/209/23 136/213/24
f 30/133/31 28/129/30 142/210/30 143/214/31
f 44/159/6 42/155/5 149/211/5 150/215/6
f 4/80/18 2/79/17 130/204/17 129/216/18
f 58/185/13 56/181/12 156/212/12 157/217/13
f 18/109/25 16/105/24 136/213/24 137/218/25
f 32/137/32 30/133/31 143/214/31 144/219/32
f 46/163/7 44/159/6 150/215/6 151/220/7
f 6/85/19 4/80/18 129/216/18 131/221/19
f 60/189/14 58/185/13 157/217/13 158/222/14
f 20/113/26 18/109/25 137/218/25 138/223/26
f 34/141/1 32/137/32 144/219/32 145/224/1
f 48/167/8 46/163/7 151/220/7 152/225/8
f 8/89/20 6/85/19 131/221/19 132/226/20
f 62/193/15 60/189/14 158/222/14 159/227/15
f 22/117/27 20/113/26 138/223/26 139/228/27
f 36/64/2 34/141/1 145/224/1 146/65/2
f 50/170/9 48/167/8 152/225/8 153/199/9
f 10/93/21 8/89/20 132/226/20 133/201/21
f 64/197/16 62/193/15 159/227/15 160/203/16
f 24/121/28 22/117/27 139/228/27 140/205/28
f 9/91/21 11/95/22 166/229/22 165/230/21
f 63/195/16 1/76/17 161/231/17 192/232/16
f 23/119/28 25/123/29 173/233/29 172/234/28
f 37/146/3 39/149/4 180/235/4 179/236/3
f 51/72/10 53/175/11 187/237/11 186/73/10
f 11/95/22 13/99/23 167/238/23 166/229/22
f 25/123/29 27/127/30 174/239/30 173/233/29
f 39/149/4 41/153/5 181/240/5 180/235/4
f 53/175/11 55/179/12 188/241/12 187/237/11
f 13/99/23 15/103/24 168/242/24 167/238/23
f 27/127/30 29/131/31 175/243/31 174/239/30
f 41/153/5 43/157/6 182/244/6 181/240/5
f 1/76/17 3/75/18 162/245/18 161/231/17
f 55/179/12 57/183/13 189/246/13 188/241/12
f 15/103/24 17/107/25 169/247/25 168/242/24
f 29/131/31 31/135/32 176/248/32 175/243/31
f 43/157/6 45/161/7 183/249/7 182/244/6
f 3/75/18 5/83/19 163/250/19 162/245/18
f 57/183/13 59/187/14 190/251/14 189/246/13
f 17/107/25 19/111/26 170/252/26 169/247/25
f 31/135/32 33/139/1 177/253/1 176/248/32
f 45/161/7 47/165/8 184/254/8 183/249/7
f 5/83/19 7/87/20 164/255/20 163/250/19
f 59/187/14 61/191/15 191/256/15 190/251/14
f 19/111/26 21/115/27 171/257/27 170/252/26
f 33/139/1 35/143/2 178/258/2 177/253/1
f 47/165/8 49/71/9 185/74/9 184/254/8
f 7/87/20 9/91/21 165/230/21 164/255/20
f 61/191/15 63/195/16 192/232/16 191/256/15
f 21/115/27 23/119/28 172/234/28 171/257/27
f 35/143/2 37/146/3 179/236/3 178/258/2
o 平面
v 1.022747 0.458548 0.739376
v 1.724449 0.457049 0.574586
v 1.026508 1.158792 0.749027
v 1.728211 1.157294 0.584237
vt 0.000000 0.000000
vt 1.000000 0.000000
vt 1.000000 1.000000
vt 0.000000 1.000000
vn 0.2286 -0.0146 0.9734
usemtl マテリアル.001
s 1
f 193/259/35 194/260/35 196/261/35 195/262/35
o 円柱.001_円柱.002
v 0.273472 0.516400 0.060767
v 0.315702 1.237481 0.026653
v 0.298195 0.515636 0.075225
v 0.340426 1.236717 0.041111
v 0.319638 0.515279 0.094224
v 0.361869 1.236360 0.060110
v 0.336976 0.515343 0.117034
v 0.379207 1.236424 0.082920
v 0.349543 0.515824 0.142777
v 0.391774 1.236906 0.108663
v 0.356856 0.516706 0.170465
v 0.399087 1.237788 0.136351
v 0.358634 0.517954 0.199033
v 0.400865 1.239035 0.164920
v 0.354809 0.519519 0.227385
v 0.397039 1.240600 0.193271
v 0.345527 0.521342 0.254429
v 0.387757 1.242423 0.220315
v 0.331146 0.523353 0.279128
v 0.373376 1.244434 0.245014
v 0.312217 0.525474 0.300531
v 0.354448 1.246555 0.266417
v 0.289469 0.527624 0.317816
v 0.331699 1.248705 0.283702
v 0.263776 0.529720 0.330320
v 0.306006 1.250802 0.296206
v 0.236124 0.531682 0.337561
v 0.278355 1.252764 0.303447
v 0.207578 0.533434 0.339261
v 0.249808 1.254516 0.305147
v 0.179232 0.534909 0.335355
v 0.221463 1.255991 0.301241
v 0.152178 0.536051 0.325993
v 0.194408 1.257133 0.291879
v 0.127455 0.536815 0.311535
v 0.169685 1.257896 0.277421
v 0.106012 0.537172 0.292536
v 0.148242 1.258253 0.258422
v 0.088674 0.537108 0.269726
v 0.130904 1.258190 0.235612
v 0.076107 0.536626 0.243983
v 0.118337 1.257708 0.209869
v 0.068794 0.535745 0.216295
v 0.111024 1.256826 0.182181
v 0.067016 0.534497 0.187726
v 0.109246 1.255579 0.153612
v 0.070841 0.532932 0.159375
v 0.113071 1.254013 0.125261
v 0.080123 0.531109 0.132330
v 0.122353 1.252190 0.098216
v 0.094504 0.529098 0.107632
v 0.136734 1.250180 0.073518
v 0.113433 0.526977 0.086229
v 0.155663 1.248059 0.052115
v 0.136181 0.524827 0.068943
v 0.178411 1.245908 0.034829
v 0.161874 0.522731 0.056440
v 0.204104 1.243812 0.022326
v 0.189526 0.520769 0.049199
v 0.231756 1.241850 0.015085
v 0.218072 0.519017 0.047499
v 0.260303 1.240098 0.013385
v 0.246418 0.517541 0.051405
v 0.288648 1.238623 0.017291
v 0.362856 0.501918 -0.134685
v 0.424019 0.500028 -0.098917
v 0.466249 1.221110 -0.133031
v 0.405086 1.223000 -0.168799
v 0.477065 0.499145 -0.051916
v 0.519295 1.220227 -0.086030
v 0.519957 0.499303 0.004511
v 0.562187 1.220384 -0.029603
v 0.551046 0.500495 0.068196
v 0.593276 1.221577 0.034082
v 0.569137 0.502676 0.136692
v 0.611367 1.223758 0.102578
v 0.573536 0.505762 0.207366
v 0.615766 1.226843 0.173252
v 0.564072 0.509634 0.277503
v 0.606302 1.230716 0.243389
v 0.541110 0.514144 0.344407
v 0.583341 1.235226 0.310293
v 0.505533 0.519119 0.405508
v 0.547763 1.240200 0.371394
v 0.458707 0.524366 0.458456
v 0.500937 1.245447 0.424342
v 0.402431 0.529685 0.501217
v 0.444662 1.250766 0.467103
v 0.338870 0.534871 0.532149
v 0.381100 1.255952 0.498035
v 0.270464 0.539724 0.550062
v 0.312694 1.260806 0.515948
v 0.199844 0.544059 0.554268
v 0.242074 1.265141 0.520154
v 0.129722 0.547709 0.544605
v 0.171952 1.268790 0.510491
v 0.062794 0.550533 0.521444
v 0.105024 1.271614 0.487330
v 0.001631 0.552422 0.485677
v 0.043862 1.273504 0.451563
v -0.051415 0.553306 0.438676
v -0.009185 1.274387 0.404562
v -0.094307 0.553148 0.382249
v -0.052077 1.274229 0.348135
v -0.125396 0.551956 0.318564
v -0.083166 1.273037 0.284450
v -0.143487 0.549775 0.250068
v -0.101257 1.270856 0.215954
v -0.147886 0.546689 0.179394
v -0.105655 1.267770 0.145280
v -0.138422 0.542816 0.109257
v -0.096192 1.263898 0.075143
v -0.115460 0.538306 0.042352
v -0.073230 1.259388 0.008238
v -0.079883 0.533332 -0.018748
v -0.037653 1.254414 -0.052862
v -0.033057 0.528085 -0.071696
v 0.009174 1.249166 -0.105810
v 0.023219 0.522766 -0.114458
v 0.065449 1.243848 -0.148572
v 0.086780 0.517580 -0.145389
v 0.129011 1.238662 -0.179503
v 0.155186 0.512727 -0.163302
v 0.197416 1.233808 -0.197416
v 0.225806 0.508392 -0.167508
v 0.268037 1.229473 -0.201622
v 0.295928 0.504742 -0.157845
v 0.338158 1.225824 -0.191959
v 0.314956 0.801820 0.061686
v 0.290232 0.802584 0.047228
v 0.336399 0.801463 0.080685
v 0.353737 0.801526 0.103494
v 0.366304 0.802008 0.129238
v 0.373617 0.802890 0.156926
v 0.375395 0.804137 0.185494
v 0.371569 0.805703 0.213846
v 0.362288 0.807526 0.240890
v 0.347906 0.809537 0.265589
v 0.328978 0.811658 0.286992
v 0.306230 0.813808 0.304277
v 0.280536 0.815904 0.316781
v 0.252885 0.817866 0.324022
v 0.224338 0.819618 0.325722
v 0.195993 0.821093 0.321816
v 0.168939 0.822235 0.312454
v 0.144215 0.822999 0.297995
v 0.122772 0.823356 0.278996
v 0.105434 0.823292 0.256187
v 0.092867 0.822810 0.230444
v 0.085554 0.821929 0.202756
v 0.083776 0.820681 0.174187
v 0.087601 0.819116 0.145836
v 0.096883 0.817293 0.118791
v 0.111265 0.815282 0.094093
v 0.130193 0.813161 0.072689
v 0.152941 0.811011 0.055404
v 0.178635 0.808915 0.042901
v 0.206286 0.806953 0.035660
v 0.234833 0.805200 0.033960
v 0.263178 0.803725 0.037866
v 0.294810 0.880743 0.043530
v 0.319533 0.879979 0.057988
v 0.340976 0.879622 0.076987
v 0.358314 0.879686 0.099797
v 0.370881 0.880167 0.125540
v 0.378194 0.881049 0.153228
v 0.379972 0.882296 0.181797
v 0.376147 0.883862 0.210148
v 0.366865 0.885685 0.237193
v 0.352484 0.887696 0.261891
v 0.333555 0.889817 0.283294
v 0.310807 0.891967 0.300580
v 0.285114 0.894063 0.313083
v 0.257462 0.896025 0.320324
v 0.228915 0.897777 0.322024
v 0.200570 0.899252 0.318118
v 0.173516 0.900394 0.308756
v 0.148792 0.901158 0.294298
v 0.127349 0.901515 0.275299
v 0.110011 0.901451 0.252489
v 0.097444 0.900969 0.226746
v 0.090131 0.900088 0.199058
v 0.088353 0.898840 0.170489
v 0.092179 0.897275 0.142138
v 0.101461 0.895452 0.115093
v 0.115842 0.893441 0.090395
v 0.134770 0.891320 0.068992
v 0.157519 0.889170 0.051706
v 0.183212 0.887074 0.039203
v 0.210863 0.885112 0.031962
v 0.239410 0.883359 0.030262
v 0.267755 0.881884 0.034168
vt 1.000000 0.500000
vt 1.000000 1.000000
vt 0.968750 1.000000
vt 0.968750 0.500000
vt 0.937500 1.000000
vt 0.937500 0.500000
vt 0.906250 1.000000
vt 0.906250 0.500000
vt 0.875000 1.000000
vt 0.875000 0.500000
vt 0.843750 1.000000
vt 0.843750 0.500000
vt 0.812500 1.000000
vt 0.812500 0.500000
vt 0.781250 1.000000
vt 0.781250 0.500000
vt 0.750000 1.000000
vt 0.750000 0.500000
vt 0.718750 1.000000
vt 0.718750 0.500000
vt 0.687500 1.000000
vt 0.687500 0.500000
vt 0.656250 1.000000
vt 0.656250 0.500000
vt 0.625000 1.000000
vt 0.625000 0.500000
vt 0.593750 1.000000
vt 0.593750 0.500000
vt 0.562500 1.000000
vt 0.562500 0.500000
vt 0.531250 1.000000
vt 0.531250 0.500000
vt 0.500000 1.000000
vt 0.500000 0.500000
vt 0.468750 1.000000
vt 0.468750 0.500000
vt 0.437500 1.000000
vt 0.437500 0.500000
vt 0.406250 1.000000
vt 0.406250 0.500000
vt 0.375000 1.000000
vt 0.375000 0.500000
vt 0.343750 1.000000
vt 0.343750 0.500000
vt 0.312500 1.000000
vt 0.312500 0.500000
vt 0.281250 1.000000
vt 0.281250 0.500000
vt 0.250000 1.000000
vt 0.250000 0.500000
vt 0.218750 1.000000
vt 0.218750 0.500000
vt 0.187500 1.000000
vt 0.187500 0.500000
vt 0.156250 1.000000
vt 0.156250 0.500000
vt 0.125000 1.000000
vt 0.125000 0.500000
vt 0.093750 1.000000
vt 0.093750 0.500000
vt 0.062500 1.000000
vt 0.062500 0.500000
vt 0.212874 0.160370
vt 0.231073 0.154849
vt 0.231073 0.154849
vt 0.212874 0.160370
vt 0.031250 1.000000
vt 0.031250 0.500000
vt 0.000000 1.000000
vt 0.000000 0.500000
vt 0.652985 0.250000
vt 0.654849 0.268927
vt 0.654849 0.268927
vt 0.652985 0.250000
vt 0.768927 0.345151
vt 0.750000 0.347015
vt 0.750000 0.490000
vt 0.796822 0.485388
vt 0.250000 0.347015
vt 0.268927 0.345151
vt 0.296822 0.485388
vt 0.250000 0.490000
vt 0.787126 0.339630
vt 0.841844 0.471731
vt 0.287126 0.339630
vt 0.341844 0.471731
vt 0.803899 0.330665
vt 0.883337 0.449553
vt 0.303898 0.330665
vt 0.383337 0.449553
vt 0.818600 0.318600
vt 0.919706 0.419706
vt 0.318600 0.318600
vt 0.419706 0.419706
vt 0.830665 0.303899
vt 0.949553 0.383337
vt 0.330665 0.303898
vt 0.449553 0.383337
vt 0.839630 0.287126
vt 0.971731 0.341844
vt 0.339630 0.287126
vt 0.471731 0.341844
vt 0.845151 0.268927
vt 0.985388 0.296822
vt 0.345151 0.268927
vt 0.485388 0.296822
vt 0.847015 0.250000
vt 0.990000 0.250000
vt 0.347015 0.250000
vt 0.490000 0.250000
vt 0.845151 0.231073
vt 0.985388 0.203178
vt 0.345151 0.231073
vt 0.485388 0.203178
vt 0.839630 0.212874
vt 0.971731 0.158156
vt 0.339630 0.212874
vt 0.471731 0.158156
vt 0.830665 0.196101
vt 0.949553 0.116663
vt 0.330665 0.196101
vt 0.449553 0.116663
vt 0.818600 0.181400
vt 0.919706 0.080294
vt 0.318600 0.181400
vt 0.419706 0.080294
vt 0.803899 0.169335
vt 0.883337 0.050447
vt 0.303899 0.169335
vt 0.383337 0.050447
vt 0.787126 0.160370
vt 0.841844 0.028269
vt 0.287126 0.160370
vt 0.341844 0.028269
vt 0.768927 0.154849
vt 0.796822 0.014612
vt 0.268927 0.154849
vt 0.296822 0.014612
vt 0.750000 0.152985
vt 0.750000 0.010000
vt 0.250000 0.152985
vt 0.250000 0.010000
vt 0.731073 0.154849
vt 0.703178 0.014612
vt 0.203178 0.014612
vt 0.712874 0.160370
vt 0.658156 0.028269
vt 0.158156 0.028269
vt 0.696101 0.169335
vt 0.616663 0.050447
vt 0.196101 0.169335
vt 0.116663 0.050447
vt 0.681400 0.181400
vt 0.580294 0.080294
vt 0.181400 0.181400
vt 0.080294 0.080294
vt 0.669335 0.196101
vt 0.550447 0.116663
vt 0.169335 0.196102
vt 0.050447 0.116663
vt 0.660370 0.212874
vt 0.528269 0.158156
vt 0.160370 0.212874
vt 0.028269 0.158156
vt 0.654849 0.231073
vt 0.514612 0.203178
vt 0.154849 0.231073
vt 0.014612 0.203178
vt 0.510000 0.250000
vt 0.152985 0.250000
vt 0.010000 0.250000
vt 0.514612 0.296822
vt 0.154849 0.268927
vt 0.014612 0.296822
vt 0.660370 0.287126
vt 0.528269 0.341844
vt 0.160370 0.287126
vt 0.028269 0.341844
vt 0.669335 0.303898
vt 0.550447 0.383337
vt 0.169335 0.303899
vt 0.050447 0.383337
vt 0.681400 0.318600
vt 0.580294 0.419706
vt 0.181400 0.318600
vt 0.080294 0.419706
vt 0.696101 0.330665
vt 0.616663 0.449553
vt 0.196102 0.330665
vt 0.116663 0.449553
vt 0.712874 0.339630
vt 0.658156 0.471731
vt 0.212874 0.339630
vt 0.158156 0.471731
vt 0.731073 0.345151
vt 0.703178 0.485388
vt 0.231073 0.345151
vt 0.203178 0.485388
vt 0.152985 0.250000
vt 0.154849 0.268927
vt 0.318600 0.318600
vt 0.330665 0.303898
vt 0.231073 0.345151
vt 0.250000 0.347015
vt 0.330665 0.196101
vt 0.318600 0.181400
vt 0.196101 0.169335
vt 0.160370 0.287126
vt 0.339630 0.287126
vt 0.303899 0.169335
vt 0.181400 0.181400
vt 0.169335 0.303899
vt 0.345151 0.268927
vt 0.287126 0.160370
vt 0.169335 0.196102
vt 0.268927 0.345151
vt 0.181400 0.318600
vt 0.347015 0.250000
vt 0.268927 0.154849
vt 0.160370 0.212874
vt 0.287126 0.339630
vt 0.196102 0.330665
vt 0.345151 0.231073
vt 0.250000 0.152985
vt 0.154849 0.231073
vt 0.303898 0.330665
vt 0.212874 0.339630
vt 0.339630 0.212874
vt 0.830665 0.303899
vt 0.818600 0.318600
vt 0.750000 0.347015
vt 0.731073 0.345151
vt 0.818600 0.181400
vt 0.830665 0.196101
vt 0.696101 0.169335
vt 0.712874 0.160370
vt 0.660370 0.287126
vt 0.839630 0.287126
vt 0.803899 0.169335
vt 0.681400 0.181400
vt 0.669335 0.303898
vt 0.845151 0.268927
vt 0.787126 0.160370
vt 0.669335 0.196101
vt 0.768927 0.345151
vt 0.681400 0.318600
vt 0.847015 0.250000
vt 0.768927 0.154849
vt 0.660370 0.212874
vt 0.787126 0.339630
vt 0.696101 0.330665
vt 0.845151 0.231073
vt 0.750000 0.152985
vt 0.654849 0.231073
vt 0.803899 0.330665
vt 0.712874 0.339630
vt 0.839630 0.212874
vt 0.731073 0.154849
vn 0.4150 -0.0672 -0.9074
vn 0.5841 -0.0725 -0.8084
vn 0.7308 -0.0749 -0.6784
vn 0.8495 -0.0745 -0.5224
vn 0.9354 -0.0712 -0.3462
vn 0.9855 -0.0651 -0.1568
vn 0.9976 -0.0566 0.0387
vn 0.9715 -0.0459 0.2327
vn 0.9080 -0.0334 0.4177
vn 0.8096 -0.0197 0.5867
vn 0.6801 -0.0051 0.7331
vn 0.5244 0.0096 0.8514
vn 0.3486 0.0239 0.9370
vn 0.1594 0.0373 0.9865
vn -0.0359 0.0493 0.9981
vn -0.2298 0.0594 0.9714
vn -0.4150 0.0672 0.9074
vn -0.5841 0.0725 0.8084
vn -0.7308 0.0749 0.6784
vn -0.8495 0.0745 0.5224
vn -0.9354 0.0712 0.3462
vn -0.9855 0.0651 0.1568
vn -0.9976 0.0566 -0.0387
vn -0.9715 0.0459 -0.2327
vn -0.9080 0.0334 -0.4177
vn -0.8096 0.0197 -0.5867
vn -0.6801 0.0051 -0.7331
vn -0.5244 -0.0096 -0.8514
vn -0.3486 -0.0239 -0.9370
vn -0.1594 -0.0373 -0.9865
vn 0.0359 -0.0493 -0.9981
vn 0.2298 -0.0594 -0.9714
vn -0.0584 -0.9972 0.0472
vn 0.0584 0.9972 -0.0472
usemtl マテリアル
s 1
f 261/263/36 264/264/36 263/265/37 262/266/37
f 262/266/37 263/265/37 266/267/38 265/268/38
f 265/268/38 266/267/38 268/269/39 267/270/39
f 267/270/39 268/269/39 270/271/40 269/272/40
f 269/272/40 270/271/40 272/273/41 271/274/41
f 271/274/41 272/273/41 274/275/42 273/276/42
f 273/276/42 274/275/42 276/277/43 275/278/43
f 275/278/43 276/277/43 278/279/44 277/280/44
f 277/280/44 278/279/44 280/281/45 279/282/45
f 279/282/45 280/281/45 282/283/46 281/284/46
f 281/284/46 282/283/46 284/285/47 283/286/47
f 283/286/47 284/285/47 286/287/48 285/288/48
f 285/288/48 286/287/48 288/289/49 287/290/49
f 287/290/49 288/289/49 290/291/50 289/292/50
f 289/292/50 290/291/50 292/293/51 291/294/51
f 291/294/51 292/293/51 294/295/52 293/296/52
f 293/296/52 294/295/52 296/297/53 295/298/53
f 295/298/53 296/297/53 298/299/54 297/300/54
f 297/300/54 298/299/54 300/301/55 299/302/55
f 299/302/55 300/301/55 302/303/56 301/304/56
f 301/304/56 302/303/56 304/305/57 303/306/57
f 303/306/57 304/305/57 306/307/58 305/308/58
f 305/308/58 306/307/58 308/309/59 307/310/59
f 307/310/59 308/309/59 310/311/60 309/312/60
f 309/312/60 310/311/60 312/313/61 311/314/61
f 311/314/61 312/313/61 314/315/62 313/316/62
f 313/316/62 314/315/62 316/317/63 315/318/63
f 315/318/63 316/317/63 318/319/64 317/320/64
f 317/320/64 318/319/64 320/321/65 319/322/65
f 319/322/65 320/321/65 322/323/66 321/324/66
f 234/325/38 232/326/37 342/327/37 343/328/38
f 321/324/66 322/323/66 324/329/67 323/330/67
f 323/330/67 324/329/67 264/331/36 261/332/36
f 245/333/44 247/334/45 382/335/45 381/336/44
f 199/337/68 197/338/68 261/339/68 262/340/68
f 198/341/69 200/342/69 263/343/69 264/344/69
f 201/345/68 199/337/68 262/340/68 265/346/68
f 200/342/69 202/347/69 266/348/69 263/343/69
f 203/349/68 201/345/68 265/346/68 267/350/68
f 202/347/69 204/351/69 268/352/69 266/348/69
f 205/353/68 203/349/68 267/350/68 269/354/68
f 204/351/69 206/355/69 270/356/69 268/352/69
f 207/357/68 205/353/68 269/354/68 271/358/68
f 206/355/69 208/359/69 272/360/69 270/356/69
f 209/361/68 207/357/68 271/358/68 273/362/68
f 208/359/69 210/363/69 274/364/69 272/360/69
f 211/365/68 209/361/68 273/362/68 275/366/68
f 210/363/69 212/367/69 276/368/69 274/364/69
f 213/369/68 211/365/68 275/366/68 277/370/68
f 212/367/69 214/371/69 278/372/69 276/368/69
f 215/373/68 213/369/68 277/370/68 279/374/68
f 214/371/69 216/375/69 280/376/69 278/372/69
f 217/377/68 215/373/68 279/374/68 281/378/68
f 216/375/69 218/379/69 282/380/69 280/376/69
f 219/381/68 217/377/68 281/378/68 283/382/68
f 218/379/69 220/383/69 284/384/69 282/380/69
f 221/385/68 219/381/68 283/382/68 285/386/68
f 220/383/69 222/387/69 286/388/69 284/384/69
f 223/389/68 221/385/68 285/386/68 287/390/68
f 222/387/69 224/391/69 288/392/69 286/388/69
f 225/393/68 223/389/68 287/390/68 289/394/68
f 224/391/69 226/395/69 290/396/69 288/392/69
f 227/397/68 225/393/68 289/394/68 291/398/68
f 226/395/69 228/399/69 292/400/69 290/396/69
f 229/401/68 227/397/68 291/398/68 293/402/68
f 228/399/69 230/403/69 294/404/69 292/400/69
f 231/405/68 229/401/68 293/402/68 295/406/68
f 230/403/69 232/326/69 296/407/69 294/404/69
f 233/408/68 231/405/68 295/406/68 297/409/68
f 232/326/69 234/325/69 298/410/69 296/407/69
f 235/411/68 233/408/68 297/409/68 299/412/68
f 234/325/69 236/413/69 300/414/69 298/410/69
f 237/415/68 235/411/68 299/412/68 301/416/68
f 236/413/69 238/417/69 302/418/69 300/414/69
f 239/419/68 237/415/68 301/416/68 303/420/68
f 238/417/69 240/421/69 304/422/69 302/418/69
f 241/423/68 239/419/68 303/420/68 305/424/68
f 240/421/69 242/425/69 306/426/69 304/422/69
f 243/427/68 241/423/68 305/424/68 307/428/68
f 242/425/69 244/429/69 308/430/69 306/426/69
f 245/333/68 243/427/68 307/428/68 309/431/68
f 244/429/69 246/432/69 310/433/69 308/430/69
f 247/334/68 245/333/68 309/431/68 311/434/68
f 246/432/69 248/435/69 312/436/69 310/433/69
f 249/437/68 247/334/68 311/434/68 313/438/68
f 248/435/69 250/439/69 314/440/69 312/436/69
f 251/441/68 249/437/68 313/438/68 315/442/68
f 250/439/69 252/443/69 316/444/69 314/440/69
f 253/445/68 251/441/68 315/442/68 317/446/68
f 252/443/69 254/447/69 318/448/69 316/444/69
f 255/449/68 253/445/68 317/446/68 319/450/68
f 254/447/69 256/451/69 320/452/69 318/448/69
f 257/453/68 255/449/68 319/450/68 321/454/68
f 256/451/69 258/455/69 322/456/69 320/452/69
f 259/457/68 257/453/68 321/454/68 323/458/68
f 258/455/69 260/459/69 324/460/69 322/456/69
f 197/338/68 259/457/68 323/458/68 261/339/68
f 260/459/69 198/341/69 264/344/69 324/460/69
f 248/435/45 246/432/44 349/461/44 350/462/45
f 208/359/57 206/355/56 329/463/56 330/464/57
f 198/341/52 260/459/51 356/465/51 326/466/52
f 222/387/64 220/383/63 336/467/63 337/468/64
f 236/413/39 234/325/38 343/328/38 344/469/39
f 250/439/46 248/435/45 350/462/45 351/470/46
f 210/363/58 208/359/57 330/464/57 331/471/58
f 224/391/65 222/387/64 337/468/64 338/472/65
f 238/417/40 236/413/39 344/469/39 345/473/40
f 252/443/47 250/439/46 351/470/46 352/474/47
f 212/367/59 210/363/58 331/471/58 332/475/59
f 226/395/66 224/391/65 338/472/65 339/476/66
f 240/421/41 238/417/40 345/473/40 346/477/41
f 200/342/53 198/341/52 326/466/52 325/478/53
f 254/447/48 252/443/47 352/474/47 353/479/48
f 214/371/60 212/367/59 332/475/59 333/480/60
f 228/399/67 226/395/66 339/476/66 340/481/67
f 242/425/42 240/421/41 346/477/41 347/482/42
f 202/347/54 200/342/53 325/478/53 327/483/54
f 256/451/49 254/447/48 353/479/48 354/484/49
f 216/375/61 214/371/60 333/480/60 334/485/61
f 230/403/36 228/399/67 340/481/67 341/486/36
f 244/429/43 242/425/42 347/482/42 348/487/43
f 204/351/55 202/347/54 327/483/54 328/488/55
f 258/455/50 256/451/49 354/484/49 355/489/50
f 218/379/62 216/375/61 334/485/61 335/490/62
f 232/326/37 230/403/36 341/486/36 342/327/37
f 246/432/44 244/429/43 348/487/43 349/461/44
f 206/355/56 204/351/55 328/488/55 329/463/56
f 260/459/51 258/455/50 355/489/50 356/465/51
f 220/383/63 218/379/62 335/490/62 336/467/63
f 205/353/56 207/357/57 362/491/57 361/492/56
f 259/457/51 197/338/52 357/493/52 388/494/51
f 219/381/63 221/385/64 369/495/64 368/496/63
f 233/408/38 235/411/39 376/497/39 375/498/38
f 247/334/45 249/437/46 383/499/46 382/335/45
f 207/357/57 209/361/58 363/500/58 362/491/57
f 221/385/64 223/389/65 370/501/65 369/495/64
f 235/411/39 237/415/40 377/502/40 376/497/39
f 249/437/46 251/441/47 384/503/47 383/499/46
f 209/361/58 211/365/59 364/504/59 363/500/58
f 223/389/65 225/393/66 371/505/66 370/501/65
f 237/415/40 239/419/41 378/506/41 377/502/40
f 197/338/52 199/337/53 358/507/53 357/493/52
f 251/441/47 253/445/48 385/508/48 384/503/47
f 211/365/59 213/369/60 365/509/60 364/504/59
f 225/393/66 227/397/67 372/510/67 371/505/66
f 239/419/41 241/423/42 379/511/42 378/506/41
f 199/337/53 201/345/54 359/512/54 358/507/53
f 253/445/48 255/449/49 386/513/49 385/508/48
f 213/369/60 215/373/61 366/514/61 365/509/60
f 227/397/67 229/401/36 373/515/36 372/510/67
f 241/423/42 243/427/43 380/516/43 379/511/42
f 201/345/54 203/349/55 360/517/55 359/512/54
f 255/449/49 257/453/50 387/518/50 386/513/49
f 215/373/61 217/377/62 367/519/62 366/514/61
f 229/401/36 231/405/37 374/520/37 373/515/36
f 243/427/43 245/333/44 381/336/44 380/516/43
f 203/349/55 205/353/56 361/492/56 360/517/55
f 257/453/50 259/457/51 388/494/51 387/518/50
f 217/377/62 219/381/63 368/496/63 367/519/62
f 231/405/37 233/408/38 375/498/38 374/520/37
