# Blender 3.6.0
# www.blender.org
mtllib wahuku.mtl
o 立方体
v 0.283585 1.004200 -1.085043
v -1.235489 0.753538 -1.085043
v -0.185834 0.991932 -1.085043
v -0.609304 0.956328 -1.085043
v -0.945372 0.900874 -1.085043
v -1.161140 0.830997 -1.085043
v -1.235489 0.753538 -3.085043
v 0.283585 1.004200 -3.085043
v -1.161140 0.830997 -3.085043
v -0.945372 0.900874 -3.085043
v -0.609304 0.956328 -3.085043
v -0.185834 0.991932 -3.085043
v -1.235489 0.753538 -1.085043
v -0.225241 0.674181 -1.085043
v -1.186044 0.729015 -1.085043
v -1.042549 0.706893 -1.085043
v -0.819050 0.689337 -1.085043
v -0.537425 0.678065 -1.085043
v -0.225241 0.674181 -3.085043
v -1.235489 0.753538 -3.085043
v -0.537425 0.678065 -3.085043
v -0.819050 0.689337 -3.085043
v -1.042549 0.706893 -3.085043
v -1.186044 0.729015 -3.085043
v 0.764511 0.761117 -1.085043
v 0.283585 1.004200 -1.085043
v 0.740973 0.836234 -1.085043
v 0.672662 0.903998 -1.085043
v 0.566266 0.957775 -1.085043
v 0.432200 0.992303 -1.085043
v 0.283585 1.004200 -3.085043
v 0.764511 0.761117 -3.085043
v 0.432200 0.992303 -3.085043
v 0.566266 0.957775 -3.085043
v 0.672662 0.903998 -3.085043
v 0.740973 0.836234 -3.085043
v -0.225241 0.674181 -1.085043
v 0.764511 0.761117 -1.085043
v 0.080609 0.678436 -1.085043
v 0.356521 0.690784 -1.085043
v 0.575485 0.710017 -1.085043
v 0.716069 0.734252 -1.085043
v 0.764511 0.761117 -3.085043
v -0.225241 0.674181 -3.085043
v 0.716069 0.734252 -3.085043
v 0.575485 0.710017 -3.085043
v 0.356521 0.690784 -3.085043
v 0.080609 0.678436 -3.085043
vn -0.0750 0.0171 -0.9970
vn -0.0257 -0.9873 -0.1569
vn -0.0577 -0.9851 -0.1620
vn -0.1099 -0.9778 -0.1782
vn -0.2413 -0.9380 -0.2489
vn -0.2171 0.9489 -0.2288
vn -0.1382 0.9805 -0.1399
vn -0.4154 0.8180 -0.3980
vn -0.2149 0.9462 -0.2420
vn -0.1171 0.9764 -0.1815
vn -0.0529 0.9863 -0.1559
vn -0.0129 0.9965 -0.0827
vn 0.0377 0.9955 -0.0865
vn 0.1426 0.9725 -0.1840
vn 0.3115 0.8950 -0.3194
vn 0.4897 0.7269 -0.4814
vn 0.6486 0.4272 -0.6299
vn 0.1530 0.9763 -0.1532
vn 0.2107 0.9525 -0.2199
vn 0.2633 -0.9273 -0.2660
vn 0.1219 -0.9754 -0.1838
vn 0.0643 -0.9845 -0.1633
vn 0.0287 -0.9873 -0.1565
vn 0.0837 0.0213 -0.9963
vn -0.0129 0.9965 0.0827
vn 0.0377 0.9955 0.0865
vn -0.0529 0.9863 0.1559
vn -0.1171 0.9764 0.1815
vn -0.2149 0.9462 0.2420
vn -0.4154 0.8180 0.3980
vn -0.1382 0.9805 0.1399
vn -0.2171 0.9489 0.2288
vn -0.0750 0.0171 0.9970
vn -0.0257 -0.9873 0.1569
vn -0.0577 -0.9851 0.1620
vn -0.1099 -0.9778 0.1782
vn -0.2413 -0.9380 0.2489
vn 0.0837 0.0213 0.9963
vn 0.0287 -0.9873 0.1565
vn 0.0643 -0.9845 0.1633
vn 0.1219 -0.9754 0.1838
vn 0.2633 -0.9273 0.2660
vn 0.2107 0.9525 0.2199
vn 0.1530 0.9763 0.1532
vn 0.6486 0.4272 0.6299
vn 0.4897 0.7269 0.4814
vn 0.3115 0.8950 0.3194
vn 0.1426 0.9725 0.1840
vt 0.375000 0.376281
vt 0.377942 0.337258
vt 0.386481 0.302055
vt 0.399781 0.274118
vt 0.416539 0.256181
vt 0.435116 0.250000
vt 0.493793 0.259294
vt 0.546727 0.286265
vt 0.588735 0.328273
vt 0.615706 0.381207
vt 0.625000 0.439884
vt 0.615987 0.458461
vt 0.589832 0.475219
vt 0.549094 0.488519
vt 0.497760 0.497058
vt 0.440857 0.500000
vt 0.420506 0.493945
vt 0.402147 0.476372
vt 0.387578 0.449001
vt 0.378223 0.414512
vt 0.685116 0.500000
vt 0.685116 0.750000
vt 0.743793 0.500000
vt 0.743793 0.750000
vt 0.875000 0.500000
vt 0.875000 0.750000
vt 0.625000 0.000000
vt 0.625000 0.250000
vt 0.546727 0.250000
vt 0.546727 0.000000
vt 0.493793 0.250000
vt 0.493793 0.000000
vt 0.435116 0.000000
vt 0.251281 0.500000
vt 0.251281 0.750000
vt 0.212258 0.750000
vt 0.212258 0.500000
vt 0.177055 0.750000
vt 0.177055 0.500000
vt 0.125000 0.750000
vt 0.125000 0.500000
vt 0.375000 0.250000
vt 0.375000 0.000000
vt 0.416539 0.000000
vt 0.416539 0.250000
vt 0.375000 0.873719
vt 0.378223 0.835488
vt 0.387578 0.800999
vt 0.402147 0.773628
vt 0.420506 0.756055
vt 0.440857 0.750000
vt 0.497760 0.752942
vt 0.549094 0.761481
vt 0.589832 0.774781
vt 0.615987 0.791539
vt 0.625000 0.810116
vt 0.615706 0.868793
vt 0.588735 0.921727
vt 0.546727 0.963735
vt 0.493793 0.990706
vt 0.435116 1.000000
vt 0.416539 0.993819
vt 0.399781 0.975883
vt 0.386481 0.947945
vt 0.377942 0.912742
vt 0.666539 0.750000
vt 0.666539 0.500000
vt 0.649781 0.750000
vt 0.649781 0.500000
vt 0.549094 0.750000
vt 0.549094 0.500000
vt 0.497760 0.750000
vt 0.497760 0.500000
vt 0.289512 0.500000
vt 0.289512 0.750000
vt 0.324001 0.500000
vt 0.324001 0.750000
vt 0.402147 0.500000
vt 0.402147 0.750000
vt 0.420506 0.500000
vt 0.420506 0.750000
s 1
usemtl マテリアル
f 19/1/1 21/2/2 22/3/3 23/4/4 24/5/5 20/6/6 7/6/7 9/7/8 10/8/9 11/9/10 12/10/11 8/11/12 31/11/13 33/12/14 34/13/15 35/14/16 36/15/17 32/16/18 43/16/19 45/17/20 46/18/21 47/19/22 48/20/23 44/1/24
f 31/21/13 8/21/12 1/22/25 26/22/26
f 1/22/25 8/21/12 12/23/11 3/24/27
f 3/24/27 12/23/11 11/25/10 4/26/28
f 4/27/28 11/28/10 10/29/9 5/30/29
f 5/30/29 10/29/9 9/31/8 6/32/30
f 6/32/30 9/31/8 7/6/7 2/33/31
f 13/33/32 2/33/31 7/6/7 20/6/6
f 19/34/1 14/35/33 18/36/34 21/37/2
f 21/37/2 18/36/34 17/38/35 22/39/3
f 22/39/3 17/38/35 16/40/36 23/41/4
f 23/42/4 16/43/36 15/44/37 24/45/5
f 24/45/5 15/44/37 13/33/32 20/6/6
f 37/46/38 39/47/39 40/48/40 41/49/41 42/50/42 38/51/43 25/51/44 27/52/45 28/53/46 29/54/47 30/55/48 26/56/26 1/56/25 3/57/27 4/58/28 5/59/29 6/60/30 2/61/31 13/61/32 15/62/37 16/63/36 17/64/35 18/65/34 14/46/33
f 31/21/13 26/22/26 30/66/48 33/67/14
f 33/67/14 30/66/48 29/68/47 34/69/15
f 34/69/15 29/68/47 28/70/46 35/71/16
f 35/71/16 28/70/46 27/72/45 36/73/17
f 36/73/17 27/72/45 25/51/44 32/16/18
f 19/34/1 44/34/24 37/35/38 14/35/33
f 37/35/38 44/34/24 48/74/23 39/75/39
f 39/75/39 48/74/23 47/76/22 40/77/40
f 40/77/40 47/76/22 46/78/21 41/79/41
f 41/79/41 46/78/21 45/80/20 42/81/42
f 42/81/42 45/80/20 43/16/19 38/51/43
f 43/16/19 32/16/18 25/51/44 38/51/43
o 立方体.001
v 0.283585 0.727478 -1.106557
v -1.235489 0.476816 -1.106557
v -0.185834 0.715210 -1.106557
v -0.609304 0.679606 -1.106557
v -0.945372 0.624152 -1.106557
v -1.161140 0.554275 -1.106557
v -1.235489 0.476816 -3.106557
v 0.283585 0.727478 -3.106557
v -1.161140 0.554275 -3.106557
v -0.945372 0.624152 -3.106557
v -0.609304 0.679606 -3.106557
v -0.185834 0.715210 -3.106557
v -1.235489 0.476816 -1.106557
v -0.225241 0.397459 -1.106557
v -1.186044 0.452294 -1.106557
v -1.042549 0.430171 -1.106557
v -0.819050 0.412615 -1.106557
v -0.537425 0.401343 -1.106557
v -0.225241 0.397459 -3.106557
v -1.235489 0.476816 -3.106557
v -0.537425 0.401343 -3.106557
v -0.819050 0.412615 -3.106557
v -1.042549 0.430171 -3.106557
v -1.186044 0.452294 -3.106557
v 0.764511 0.484396 -1.106557
v 0.283585 0.727478 -1.106557
v 0.740973 0.559512 -1.106557
v 0.672662 0.627276 -1.106557
v 0.566266 0.681054 -1.106557
v 0.432200 0.715581 -1.106557
v 0.283585 0.727478 -3.106557
v 0.764511 0.484396 -3.106557
v 0.432200 0.715581 -3.106557
v 0.566266 0.681054 -3.106557
v 0.672662 0.627276 -3.106557
v 0.740973 0.559512 -3.106557
v -0.225241 0.397459 -1.106557
v 0.764511 0.484396 -1.106557
v 0.080609 0.401714 -1.106557
v 0.356521 0.414062 -1.106557
v 0.575485 0.433296 -1.106557
v 0.716069 0.457531 -1.106557
v 0.764511 0.484396 -3.106557
v -0.225241 0.397459 -3.106557
v 0.716069 0.457531 -3.106557
v 0.575485 0.433296 -3.106557
v 0.356521 0.414062 -3.106557
v 0.080609 0.401714 -3.106557
vn -0.0750 0.0171 -0.9970
vn -0.0257 -0.9873 -0.1569
vn -0.0577 -0.9851 -0.1620
vn -0.1099 -0.9778 -0.1782
vn -0.2413 -0.9380 -0.2489
vn -0.2171 0.9489 -0.2288
vn -0.1382 0.9805 -0.1399
vn -0.4154 0.8180 -0.3980
vn -0.2149 0.9462 -0.2420
vn -0.1171 0.9764 -0.1815
vn -0.0529 0.9863 -0.1559
vn -0.0129 0.9965 -0.0827
vn 0.0377 0.9955 -0.0865
vn 0.1426 0.9725 -0.1840
vn 0.3115 0.8950 -0.3194
vn 0.4897 0.7269 -0.4814
vn 0.6486 0.4272 -0.6299
vn 0.1530 0.9763 -0.1532
vn 0.2107 0.9525 -0.2199
vn 0.2633 -0.9273 -0.2660
vn 0.1219 -0.9754 -0.1838
vn 0.0643 -0.9845 -0.1633
vn 0.0287 -0.9873 -0.1565
vn 0.0837 0.0213 -0.9963
vn -0.0129 0.9965 0.0827
vn 0.0377 0.9955 0.0865
vn -0.0529 0.9863 0.1559
vn -0.1171 0.9764 0.1815
vn -0.2149 0.9462 0.2420
vn -0.4154 0.8180 0.3980
vn -0.1382 0.9805 0.1399
vn -0.2171 0.9489 0.2288
vn -0.0750 0.0171 0.9970
vn -0.0257 -0.9873 0.1569
vn -0.0577 -0.9851 0.1620
vn -0.1099 -0.9778 0.1782
vn -0.2413 -0.9380 0.2489
vn 0.0837 0.0213 0.9963
vn 0.0287 -0.9873 0.1565
vn 0.0643 -0.9845 0.1633
vn 0.1219 -0.9754 0.1838
vn 0.2633 -0.9273 0.2660
vn 0.2107 0.9525 0.2199
vn 0.1530 0.9763 0.1532
vn 0.6486 0.4272 0.6299
vn 0.4897 0.7269 0.4814
vn 0.3115 0.8950 0.3194
vn 0.1426 0.9725 0.1840
vt 0.375000 0.376281
vt 0.377942 0.337258
vt 0.386481 0.302055
vt 0.399781 0.274118
vt 0.416539 0.256181
vt 0.435116 0.250000
vt 0.493793 0.259294
vt 0.546727 0.286265
vt 0.588735 0.328273
vt 0.615706 0.381207
vt 0.625000 0.439884
vt 0.615987 0.458461
vt 0.589832 0.475219
vt 0.549094 0.488519
vt 0.497760 0.497058
vt 0.440857 0.500000
vt 0.420506 0.493945
vt 0.402147 0.476372
vt 0.387578 0.449001
vt 0.378223 0.414512
vt 0.685116 0.500000
vt 0.685116 0.750000
vt 0.743793 0.500000
vt 0.743793 0.750000
vt 0.875000 0.500000
vt 0.875000 0.750000
vt 0.625000 0.000000
vt 0.625000 0.250000
vt 0.546727 0.250000
vt 0.546727 0.000000
vt 0.493793 0.250000
vt 0.493793 0.000000
vt 0.435116 0.000000
vt 0.251281 0.500000
vt 0.251281 0.750000
vt 0.212258 0.750000
vt 0.212258 0.500000
vt 0.177055 0.750000
vt 0.177055 0.500000
vt 0.125000 0.750000
vt 0.125000 0.500000
vt 0.375000 0.250000
vt 0.375000 0.000000
vt 0.416539 0.000000
vt 0.416539 0.250000
vt 0.375000 0.873719
vt 0.378223 0.835488
vt 0.387578 0.800999
vt 0.402147 0.773628
vt 0.420506 0.756055
vt 0.440857 0.750000
vt 0.497760 0.752942
vt 0.549094 0.761481
vt 0.589832 0.774781
vt 0.615987 0.791539
vt 0.625000 0.810116
vt 0.615706 0.868793
vt 0.588735 0.921727
vt 0.546727 0.963735
vt 0.493793 0.990706
vt 0.435116 1.000000
vt 0.416539 0.993819
vt 0.399781 0.975883
vt 0.386481 0.947945
vt 0.377942 0.912742
vt 0.666539 0.750000
vt 0.666539 0.500000
vt 0.649781 0.750000
vt 0.649781 0.500000
vt 0.549094 0.750000
vt 0.549094 0.500000
vt 0.497760 0.750000
vt 0.497760 0.500000
vt 0.289512 0.500000
vt 0.289512 0.750000
vt 0.324001 0.500000
vt 0.324001 0.750000
vt 0.402147 0.500000
vt 0.402147 0.750000
vt 0.420506 0.500000
vt 0.420506 0.750000
s 1
usemtl マテリアル.001
f 67/82/49 69/83/50 70/84/51 71/85/52 72/86/53 68/87/54 55/87/55 57/88/56 58/89/57 59/90/58 60/91/59 56/92/60 79/92/61 81/93/62 82/94/63 83/95/64 84/96/65 80/97/66 91/97/67 93/98/68 94/99/69 95/100/70 96/101/71 92/82/72
f 79/102/61 56/102/60 49/103/73 74/103/74
f 49/103/73 56/102/60 60/104/59 51/105/75
f 51/105/75 60/104/59 59/106/58 52/107/76
f 52/108/76 59/109/58 58/110/57 53/111/77
f 53/111/77 58/110/57 57/112/56 54/113/78
f 54/113/78 57/112/56 55/87/55 50/114/79
f 61/114/80 50/114/79 55/87/55 68/87/54
f 67/115/49 62/116/81 66/117/82 69/118/50
f 69/118/50 66/117/82 65/119/83 70/120/51
f 70/120/51 65/119/83 64/121/84 71/122/52
f 71/123/52 64/124/84 63/125/85 72/126/53
f 72/126/53 63/125/85 61/114/80 68/87/54
f 85/127/86 87/128/87 88/129/88 89/130/89 90/131/90 86/132/91 73/132/92 75/133/93 76/134/94 77/135/95 78/136/96 74/137/74 49/137/73 51/138/75 52/139/76 53/140/77 54/141/78 50/142/79 61/142/80 63/143/85 64/144/84 65/145/83 66/146/82 62/127/81
f 79/102/61 74/103/74 78/147/96 81/148/62
f 81/148/62 78/147/96 77/149/95 82/150/63
f 82/150/63 77/149/95 76/151/94 83/152/64
f 83/152/64 76/151/94 75/153/93 84/154/65
f 84/154/65 75/153/93 73/132/92 80/97/66
f 67/115/49 92/115/72 85/116/86 62/116/81
f 85/116/86 92/115/72 96/155/71 87/156/87
f 87/156/87 96/155/71 95/157/70 88/158/88
f 88/158/88 95/157/70 94/159/69 89/160/89
f 89/160/89 94/159/69 93/161/68 90/162/90
f 90/162/90 93/161/68 91/97/67 86/132/91
f 91/97/67 80/97/66 73/132/92 86/132/91
o 立方体.002
v 0.145189 0.976370 3.320079
v -1.373885 0.725708 3.320079
v -0.324230 0.964101 3.320079
v -0.747700 0.928497 3.320079
v -1.083768 0.873043 3.320079
v -1.299536 0.803167 3.320079
v -1.373885 0.725708 1.320079
v 0.145189 0.976370 1.320079
v -1.299536 0.803167 1.320079
v -1.083768 0.873043 1.320079
v -0.747700 0.928497 1.320079
v -0.324230 0.964101 1.320079
v -1.373885 0.725708 3.320079
v -0.363637 0.646350 3.320079
v -1.324440 0.701185 3.320079
v -1.180945 0.679063 3.320079
v -0.957446 0.661506 3.320079
v -0.675821 0.650234 3.320079
v -0.363637 0.646350 1.320079
v -1.373885 0.725708 1.320079
v -0.675821 0.650234 1.320079
v -0.957446 0.661506 1.320079
v -1.180945 0.679063 1.320079
v -1.324440 0.701185 1.320079
v 0.626115 0.733287 3.320079
v 0.145189 0.976370 3.320079
v 0.602577 0.808404 3.320079
v 0.534266 0.876167 3.320079
v 0.427870 0.929945 3.320079
v 0.293804 0.964472 3.320079
v 0.145189 0.976370 1.320079
v 0.626115 0.733287 1.320079
v 0.293804 0.964472 1.320079
v 0.427870 0.929945 1.320079
v 0.534266 0.876167 1.320079
v 0.602577 0.808404 1.320079
v -0.363637 0.646350 3.320079
v 0.626115 0.733287 3.320079
v -0.057787 0.650605 3.320079
v 0.218125 0.662954 3.320079
v 0.437089 0.682187 3.320079
v 0.577673 0.706422 3.320079
v 0.626115 0.733287 1.320079
v -0.363637 0.646350 1.320079
v 0.577673 0.706422 1.320079
v 0.437089 0.682187 1.320079
v 0.218125 0.662954 1.320079
v -0.057787 0.650605 1.320079
vn -0.0750 0.0171 -0.9970
vn -0.0257 -0.9873 -0.1569
vn -0.0577 -0.9851 -0.1620
vn -0.1099 -0.9778 -0.1782
vn -0.2413 -0.9380 -0.2489
vn -0.2171 0.9489 -0.2288
vn -0.1382 0.9805 -0.1399
vn -0.4154 0.8180 -0.3980
vn -0.2149 0.9462 -0.2420
vn -0.1171 0.9764 -0.1815
vn -0.0529 0.9863 -0.1559
vn -0.0129 0.9965 -0.0827
vn 0.0377 0.9955 -0.0865
vn 0.1426 0.9725 -0.1840
vn 0.3115 0.8950 -0.3194
vn 0.4897 0.7269 -0.4814
vn 0.6486 0.4272 -0.6299
vn 0.1530 0.9763 -0.1532
vn 0.2107 0.9525 -0.2199
vn 0.2633 -0.9273 -0.2660
vn 0.1219 -0.9754 -0.1838
vn 0.0643 -0.9845 -0.1633
vn 0.0287 -0.9873 -0.1565
vn 0.0837 0.0213 -0.9963
vn -0.0129 0.9965 0.0827
vn 0.0377 0.9955 0.0865
vn -0.0529 0.9863 0.1559
vn -0.1171 0.9764 0.1815
vn -0.2149 0.9462 0.2420
vn -0.4154 0.8180 0.3980
vn -0.1382 0.9805 0.1399
vn -0.2171 0.9489 0.2288
vn -0.0750 0.0171 0.9970
vn -0.0257 -0.9873 0.1569
vn -0.0577 -0.9851 0.1620
vn -0.1099 -0.9778 0.1782
vn -0.2413 -0.9380 0.2489
vn 0.0837 0.0213 0.9963
vn 0.0287 -0.9873 0.1565
vn 0.0643 -0.9845 0.1633
vn 0.1219 -0.9754 0.1838
vn 0.2633 -0.9273 0.2660
vn 0.2107 0.9525 0.2199
vn 0.1530 0.9763 0.1532
vn 0.6486 0.4272 0.6299
vn 0.4897 0.7269 0.4814
vn 0.3115 0.8950 0.3194
vn 0.1426 0.9725 0.1840
vt 0.375000 0.376281
vt 0.377942 0.337258
vt 0.386481 0.302055
vt 0.399781 0.274118
vt 0.416539 0.256181
vt 0.435116 0.250000
vt 0.493793 0.259294
vt 0.546727 0.286265
vt 0.588735 0.328273
vt 0.615706 0.381207
vt 0.625000 0.439884
vt 0.615987 0.458461
vt 0.589832 0.475219
vt 0.549094 0.488519
vt 0.497760 0.497058
vt 0.440857 0.500000
vt 0.420506 0.493945
vt 0.402147 0.476372
vt 0.387578 0.449001
vt 0.378223 0.414512
vt 0.685116 0.500000
vt 0.685116 0.750000
vt 0.743793 0.500000
vt 0.743793 0.750000
vt 0.875000 0.500000
vt 0.875000 0.750000
vt 0.625000 0.000000
vt 0.625000 0.250000
vt 0.546727 0.250000
vt 0.546727 0.000000
vt 0.493793 0.250000
vt 0.493793 0.000000
vt 0.435116 0.000000
vt 0.251281 0.500000
vt 0.251281 0.750000
vt 0.212258 0.750000
vt 0.212258 0.500000
vt 0.177055 0.750000
vt 0.177055 0.500000
vt 0.125000 0.750000
vt 0.125000 0.500000
vt 0.375000 0.250000
vt 0.375000 0.000000
vt 0.416539 0.000000
vt 0.416539 0.250000
vt 0.375000 0.873719
vt 0.378223 0.835488
vt 0.387578 0.800999
vt 0.402147 0.773628
vt 0.420506 0.756055
vt 0.440857 0.750000
vt 0.497760 0.752942
vt 0.549094 0.761481
vt 0.589832 0.774781
vt 0.615987 0.791539
vt 0.625000 0.810116
vt 0.615706 0.868793
vt 0.588735 0.921727
vt 0.546727 0.963735
vt 0.493793 0.990706
vt 0.435116 1.000000
vt 0.416539 0.993819
vt 0.399781 0.975883
vt 0.386481 0.947945
vt 0.377942 0.912742
vt 0.666539 0.750000
vt 0.666539 0.500000
vt 0.649781 0.750000
vt 0.649781 0.500000
vt 0.549094 0.750000
vt 0.549094 0.500000
vt 0.497760 0.750000
vt 0.497760 0.500000
vt 0.289512 0.500000
vt 0.289512 0.750000
vt 0.324001 0.500000
vt 0.324001 0.750000
vt 0.402147 0.500000
vt 0.402147 0.750000
vt 0.420506 0.500000
vt 0.420506 0.750000
s 1
usemtl マテリアル
f 115/163/97 117/164/98 118/165/99 119/166/100 120/167/101 116/168/102 103/168/103 105/169/104 106/170/105 107/171/106 108/172/107 104/173/108 127/173/109 129/174/110 130/175/111 131/176/112 132/177/113 128/178/114 139/178/115 141/179/116 142/180/117 143/181/118 144/182/119 140/163/120
f 127/183/109 104/183/108 97/184/121 122/184/122
f 97/184/121 104/183/108 108/185/107 99/186/123
f 99/186/123 108/185/107 107/187/106 100/188/124
f 100/189/124 107/190/106 106/191/105 101/192/125
f 101/192/125 106/191/105 105/193/104 102/194/126
f 102/194/126 105/193/104 103/168/103 98/195/127
f 109/195/128 98/195/127 103/168/103 116/168/102
f 115/196/97 110/197/129 114/198/130 117/199/98
f 117/199/98 114/198/130 113/200/131 118/201/99
f 118/201/99 113/200/131 112/202/132 119/203/100
f 119/204/100 112/205/132 111/206/133 120/207/101
f 120/207/101 111/206/133 109/195/128 116/168/102
f 133/208/134 135/209/135 136/210/136 137/211/137 138/212/138 134/213/139 121/213/140 123/214/141 124/215/142 125/216/143 126/217/144 122/218/122 97/218/121 99/219/123 100/220/124 101/221/125 102/222/126 98/223/127 109/223/128 111/224/133 112/225/132 113/226/131 114/227/130 110/208/129
f 127/183/109 122/184/122 126/228/144 129/229/110
f 129/229/110 126/228/144 125/230/143 130/231/111
f 130/231/111 125/230/143 124/232/142 131/233/112
f 131/233/112 124/232/142 123/234/141 132/235/113
f 132/235/113 123/234/141 121/213/140 128/178/114
f 115/196/97 140/196/120 133/197/134 110/197/129
f 133/197/134 140/196/120 144/236/119 135/237/135
f 135/237/135 144/236/119 143/238/118 136/239/136
f 136/239/136 143/238/118 142/240/117 137/241/137
f 137/241/137 142/240/117 141/242/116 138/243/138
f 138/243/138 141/242/116 139/178/115 134/213/139
f 139/178/115 128/178/114 121/213/140 134/213/139
o 立方体.003
v 0.145189 0.699648 3.357757
v -1.373885 0.448986 3.357757
v -0.324230 0.687380 3.357757
v -0.747700 0.651776 3.357757
v -1.083768 0.596321 3.357757
v -1.299536 0.526445 3.357757
v -1.373885 0.448986 1.357757
v 0.145189 0.699648 1.357757
v -1.299536 0.526445 1.357757
v -1.083768 0.596321 1.357757
v -0.747700 0.651776 1.357757
v -0.324230 0.687380 1.357757
v -1.373885 0.448986 3.357757
v -0.363637 0.369629 3.357757
v -1.324440 0.424463 3.357757
v -1.180945 0.402341 3.357757
v -0.957446 0.384785 3.357757
v -0.675821 0.373513 3.357757
v -0.363637 0.369629 1.357757
v -1.373885 0.448986 1.357757
v -0.675821 0.373513 1.357757
v -0.957446 0.384785 1.357757
v -1.180945 0.402341 1.357757
v -1.324440 0.424463 1.357757
v 0.626115 0.456565 3.357757
v 0.145189 0.699648 3.357757
v 0.602577 0.531682 3.357757
v 0.534266 0.599446 3.357757
v 0.427870 0.653223 3.357757
v 0.293804 0.687751 3.357757
v 0.145189 0.699648 1.357757
v 0.626115 0.456565 1.357757
v 0.293804 0.687751 1.357757
v 0.427870 0.653223 1.357757
v 0.534266 0.599446 1.357757
v 0.602577 0.531682 1.357757
v -0.363637 0.369629 3.357757
v 0.626115 0.456565 3.357757
v -0.057787 0.373884 3.357757
v 0.218125 0.386232 3.357757
v 0.437089 0.405465 3.357757
v 0.577673 0.429700 3.357757
v 0.626115 0.456565 1.357757
v -0.363637 0.369629 1.357757
v 0.577673 0.429700 1.357757
v 0.437089 0.405465 1.357757
v 0.218125 0.386232 1.357757
v -0.057787 0.373884 1.357757
vn -0.0750 0.0171 -0.9970
vn -0.0257 -0.9873 -0.1569
vn -0.0577 -0.9851 -0.1620
vn -0.1099 -0.9778 -0.1782
vn -0.2413 -0.9380 -0.2489
vn -0.2171 0.9489 -0.2288
vn -0.1382 0.9805 -0.1399
vn -0.4154 0.8180 -0.3980
vn -0.2149 0.9462 -0.2420
vn -0.1171 0.9764 -0.1815
vn -0.0529 0.9863 -0.1559
vn -0.0129 0.9965 -0.0827
vn 0.0377 0.9955 -0.0865
vn 0.1426 0.9725 -0.1840
vn 0.3115 0.8950 -0.3194
vn 0.4897 0.7269 -0.4814
vn 0.6486 0.4272 -0.6299
vn 0.1530 0.9763 -0.1532
vn 0.2107 0.9525 -0.2199
vn 0.2633 -0.9273 -0.2660
vn 0.1219 -0.9754 -0.1838
vn 0.0643 -0.9845 -0.1633
vn 0.0287 -0.9873 -0.1565
vn 0.0837 0.0213 -0.9963
vn -0.0129 0.9965 0.0827
vn 0.0377 0.9955 0.0865
vn -0.0529 0.9863 0.1559
vn -0.1171 0.9764 0.1815
vn -0.2149 0.9462 0.2420
vn -0.4154 0.8180 0.3980
vn -0.1382 0.9805 0.1399
vn -0.2171 0.9489 0.2288
vn -0.0750 0.0171 0.9970
vn -0.0257 -0.9873 0.1569
vn -0.0577 -0.9851 0.1620
vn -0.1099 -0.9778 0.1782
vn -0.2413 -0.9380 0.2489
vn 0.0837 0.0213 0.9963
vn 0.0287 -0.9873 0.1565
vn 0.0643 -0.9845 0.1633
vn 0.1219 -0.9754 0.1838
vn 0.2633 -0.9273 0.2660
vn 0.2107 0.9525 0.2199
vn 0.1530 0.9763 0.1532
vn 0.6486 0.4272 0.6299
vn 0.4897 0.7269 0.4814
vn 0.3115 0.8950 0.3194
vn 0.1426 0.9725 0.1840
vt 0.375000 0.376281
vt 0.377942 0.337258
vt 0.386481 0.302055
vt 0.399781 0.274118
vt 0.416539 0.256181
vt 0.435116 0.250000
vt 0.493793 0.259294
vt 0.546727 0.286265
vt 0.588735 0.328273
vt 0.615706 0.381207
vt 0.625000 0.439884
vt 0.615987 0.458461
vt 0.589832 0.475219
vt 0.549094 0.488519
vt 0.497760 0.497058
vt 0.440857 0.500000
vt 0.420506 0.493945
vt 0.402147 0.476372
vt 0.387578 0.449001
vt 0.378223 0.414512
vt 0.685116 0.500000
vt 0.685116 0.750000
vt 0.743793 0.500000
vt 0.743793 0.750000
vt 0.875000 0.500000
vt 0.875000 0.750000
vt 0.625000 0.000000
vt 0.625000 0.250000
vt 0.546727 0.250000
vt 0.546727 0.000000
vt 0.493793 0.250000
vt 0.493793 0.000000
vt 0.435116 0.000000
vt 0.251281 0.500000
vt 0.251281 0.750000
vt 0.212258 0.750000
vt 0.212258 0.500000
vt 0.177055 0.750000
vt 0.177055 0.500000
vt 0.125000 0.750000
vt 0.125000 0.500000
vt 0.375000 0.250000
vt 0.375000 0.000000
vt 0.416539 0.000000
vt 0.416539 0.250000
vt 0.375000 0.873719
vt 0.378223 0.835488
vt 0.387578 0.800999
vt 0.402147 0.773628
vt 0.420506 0.756055
vt 0.440857 0.750000
vt 0.497760 0.752942
vt 0.549094 0.761481
vt 0.589832 0.774781
vt 0.615987 0.791539
vt 0.625000 0.810116
vt 0.615706 0.868793
vt 0.588735 0.921727
vt 0.546727 0.963735
vt 0.493793 0.990706
vt 0.435116 1.000000
vt 0.416539 0.993819
vt 0.399781 0.975883
vt 0.386481 0.947945
vt 0.377942 0.912742
vt 0.666539 0.750000
vt 0.666539 0.500000
vt 0.649781 0.750000
vt 0.649781 0.500000
vt 0.549094 0.750000
vt 0.549094 0.500000
vt 0.497760 0.750000
vt 0.497760 0.500000
vt 0.289512 0.500000
vt 0.289512 0.750000
vt 0.324001 0.500000
vt 0.324001 0.750000
vt 0.402147 0.500000
vt 0.402147 0.750000
vt 0.420506 0.500000
vt 0.420506 0.750000
s 1
usemtl マテリアル.001
f 163/244/145 165/245/146 166/246/147 167/247/148 168/248/149 164/249/150 151/249/151 153/250/152 154/251/153 155/252/154 156/253/155 152/254/156 175/254/157 177/255/158 178/256/159 179/257/160 180/258/161 176/259/162 187/259/163 189/260/164 190/261/165 191/262/166 192/263/167 188/244/168
f 175/264/157 152/264/156 145/265/169 170/265/170
f 145/265/169 152/264/156 156/266/155 147/267/171
f 147/267/171 156/266/155 155/268/154 148/269/172
f 148/270/172 155/271/154 154/272/153 149/273/173
f 149/273/173 154/272/153 153/274/152 150/275/174
f 150/275/174 153/274/152 151/249/151 146/276/175
f 157/276/176 146/276/175 151/249/151 164/249/150
f 163/277/145 158/278/177 162/279/178 165/280/146
f 165/280/146 162/279/178 161/281/179 166/282/147
f 166/282/147 161/281/179 160/283/180 167/284/148
f 167/285/148 160/286/180 159/287/181 168/288/149
f 168/288/149 159/287/181 157/276/176 164/249/150
f 181/289/182 183/290/183 184/291/184 185/292/185 186/293/186 182/294/187 169/294/188 171/295/189 172/296/190 173/297/191 174/298/192 170/299/170 145/299/169 147/300/171 148/301/172 149/302/173 150/303/174 146/304/175 157/304/176 159/305/181 160/306/180 161/307/179 162/308/178 158/289/177
f 175/264/157 170/265/170 174/309/192 177/310/158
f 177/310/158 174/309/192 173/311/191 178/312/159
f 178/312/159 173/311/191 172/313/190 179/314/160
f 179/314/160 172/313/190 171/315/189 180/316/161
f 180/316/161 171/315/189 169/294/188 176/259/162
f 163/277/145 188/277/168 181/278/182 158/278/177
f 181/278/182 188/277/168 192/317/167 183/318/183
f 183/318/183 192/317/167 191/319/166 184/320/184
f 184/320/184 191/319/166 190/321/165 185/322/185
f 185/322/185 190/321/165 189/323/164 186/324/186
f 186/324/186 189/323/164 187/259/163 182/294/187
f 187/259/163 176/259/162 169/294/188 182/294/187
o 立方体.004
v 0.145189 0.976370 1.021104
v -1.373885 0.725708 1.021104
v -0.324230 0.964101 1.021104
v -0.747700 0.928497 1.021104
v -1.083768 0.873043 1.021104
v -1.299536 0.803167 1.021104
v -1.373885 0.725708 -0.978896
v 0.145189 0.976370 -0.978896
v -1.299536 0.803167 -0.978896
v -1.083768 0.873043 -0.978896
v -0.747700 0.928497 -0.978896
v -0.324230 0.964101 -0.978896
v -1.373885 0.725708 1.021104
v -0.363637 0.646350 1.021104
v -1.324440 0.701185 1.021104
v -1.180945 0.679063 1.021104
v -0.957446 0.661506 1.021104
v -0.675821 0.650234 1.021104
v -0.363637 0.646350 -0.978896
v -1.373885 0.725708 -0.978896
v -0.675821 0.650234 -0.978896
v -0.957446 0.661506 -0.978896
v -1.180945 0.679063 -0.978896
v -1.324440 0.701185 -0.978896
v 0.626115 0.733287 1.021104
v 0.145189 0.976370 1.021104
v 0.602577 0.808404 1.021104
v 0.534266 0.876167 1.021104
v 0.427870 0.929945 1.021104
v 0.293804 0.964472 1.021104
v 0.145189 0.976370 -0.978896
v 0.626115 0.733287 -0.978896
v 0.293804 0.964472 -0.978896
v 0.427870 0.929945 -0.978896
v 0.534266 0.876167 -0.978896
v 0.602577 0.808404 -0.978896
v -0.363637 0.646350 1.021104
v 0.626115 0.733287 1.021104
v -0.057787 0.650605 1.021104
v 0.218125 0.662954 1.021104
v 0.437089 0.682187 1.021104
v 0.577673 0.706422 1.021104
v 0.626115 0.733287 -0.978896
v -0.363637 0.646350 -0.978896
v 0.577673 0.706422 -0.978896
v 0.437089 0.682187 -0.978896
v 0.218125 0.662954 -0.978896
v -0.057787 0.650605 -0.978896
vn -0.0750 0.0171 -0.9970
vn -0.0257 -0.9873 -0.1569
vn -0.0577 -0.9851 -0.1620
vn -0.1099 -0.9778 -0.1782
vn -0.2413 -0.9380 -0.2489
vn -0.2171 0.9489 -0.2288
vn -0.1382 0.9805 -0.1399
vn -0.4154 0.8180 -0.3980
vn -0.2149 0.9462 -0.2420
vn -0.1171 0.9764 -0.1815
vn -0.0529 0.9863 -0.1559
vn -0.0129 0.9965 -0.0827
vn 0.0377 0.9955 -0.0865
vn 0.1426 0.9725 -0.1840
vn 0.3115 0.8950 -0.3194
vn 0.4897 0.7269 -0.4814
vn 0.6486 0.4272 -0.6299
vn 0.1530 0.9763 -0.1532
vn 0.2107 0.9525 -0.2199
vn 0.2633 -0.9273 -0.2660
vn 0.1219 -0.9754 -0.1838
vn 0.0643 -0.9845 -0.1633
vn 0.0287 -0.9873 -0.1565
vn 0.0837 0.0213 -0.9963
vn -0.0129 0.9965 0.0827
vn 0.0377 0.9955 0.0865
vn -0.0529 0.9863 0.1559
vn -0.1171 0.9764 0.1815
vn -0.2149 0.9462 0.2420
vn -0.4154 0.8180 0.3980
vn -0.1382 0.9805 0.1399
vn -0.2171 0.9489 0.2288
vn -0.0750 0.0171 0.9970
vn -0.0257 -0.9873 0.1569
vn -0.0577 -0.9851 0.1620
vn -0.1099 -0.9778 0.1782
vn -0.2413 -0.9380 0.2489
vn 0.0837 0.0213 0.9963
vn 0.0287 -0.9873 0.1565
vn 0.0643 -0.9845 0.1633
vn 0.1219 -0.9754 0.1838
vn 0.2633 -0.9273 0.2660
vn 0.2107 0.9525 0.2199
vn 0.1530 0.9763 0.1532
vn 0.6486 0.4272 0.6299
vn 0.4897 0.7269 0.4814
vn 0.3115 0.8950 0.3194
vn 0.1426 0.9725 0.1840
vt 0.375000 0.376281
vt 0.377942 0.337258
vt 0.386481 0.302055
vt 0.399781 0.274118
vt 0.416539 0.256181
vt 0.435116 0.250000
vt 0.493793 0.259294
vt 0.546727 0.286265
vt 0.588735 0.328273
vt 0.615706 0.381207
vt 0.625000 0.439884
vt 0.615987 0.458461
vt 0.589832 0.475219
vt 0.549094 0.488519
vt 0.497760 0.497058
vt 0.440857 0.500000
vt 0.420506 0.493945
vt 0.402147 0.476372
vt 0.387578 0.449001
vt 0.378223 0.414512
vt 0.685116 0.500000
vt 0.685116 0.750000
vt 0.743793 0.500000
vt 0.743793 0.750000
vt 0.875000 0.500000
vt 0.875000 0.750000
vt 0.625000 0.000000
vt 0.625000 0.250000
vt 0.546727 0.250000
vt 0.546727 0.000000
vt 0.493793 0.250000
vt 0.493793 0.000000
vt 0.435116 0.000000
vt 0.251281 0.500000
vt 0.251281 0.750000
vt 0.212258 0.750000
vt 0.212258 0.500000
vt 0.177055 0.750000
vt 0.177055 0.500000
vt 0.125000 0.750000
vt 0.125000 0.500000
vt 0.375000 0.250000
vt 0.375000 0.000000
vt 0.416539 0.000000
vt 0.416539 0.250000
vt 0.375000 0.873719
vt 0.378223 0.835488
vt 0.387578 0.800999
vt 0.402147 0.773628
vt 0.420506 0.756055
vt 0.440857 0.750000
vt 0.497760 0.752942
vt 0.549094 0.761481
vt 0.589832 0.774781
vt 0.615987 0.791539
vt 0.625000 0.810116
vt 0.615706 0.868793
vt 0.588735 0.921727
vt 0.546727 0.963735
vt 0.493793 0.990706
vt 0.435116 1.000000
vt 0.416539 0.993819
vt 0.399781 0.975883
vt 0.386481 0.947945
vt 0.377942 0.912742
vt 0.666539 0.750000
vt 0.666539 0.500000
vt 0.649781 0.750000
vt 0.649781 0.500000
vt 0.549094 0.750000
vt 0.549094 0.500000
vt 0.497760 0.750000
vt 0.497760 0.500000
vt 0.289512 0.500000
vt 0.289512 0.750000
vt 0.324001 0.500000
vt 0.324001 0.750000
vt 0.402147 0.500000
vt 0.402147 0.750000
vt 0.420506 0.500000
vt 0.420506 0.750000
s 1
usemtl マテリアル
f 211/325/193 213/326/194 214/327/195 215/328/196 216/329/197 212/330/198 199/330/199 201/331/200 202/332/201 203/333/202 204/334/203 200/335/204 223/335/205 225/336/206 226/337/207 227/338/208 228/339/209 224/340/210 235/340/211 237/341/212 238/342/213 239/343/214 240/344/215 236/325/216
f 223/345/205 200/345/204 193/346/217 218/346/218
f 193/346/217 200/345/204 204/347/203 195/348/219
f 195/348/219 204/347/203 203/349/202 196/350/220
f 196/351/220 203/352/202 202/353/201 197/354/221
f 197/354/221 202/353/201 201/355/200 198/356/222
f 198/356/222 201/355/200 199/330/199 194/357/223
f 205/357/224 194/357/223 199/330/199 212/330/198
f 211/358/193 206/359/225 210/360/226 213/361/194
f 213/361/194 210/360/226 209/362/227 214/363/195
f 214/363/195 209/362/227 208/364/228 215/365/196
f 215/366/196 208/367/228 207/368/229 216/369/197
f 216/369/197 207/368/229 205/357/224 212/330/198
f 229/370/230 231/371/231 232/372/232 233/373/233 234/374/234 230/375/235 217/375/236 219/376/237 220/377/238 221/378/239 222/379/240 218/380/218 193/380/217 195/381/219 196/382/220 197/383/221 198/384/222 194/385/223 205/385/224 207/386/229 208/387/228 209/388/227 210/389/226 206/370/225
f 223/345/205 218/346/218 222/390/240 225/391/206
f 225/391/206 222/390/240 221/392/239 226/393/207
f 226/393/207 221/392/239 220/394/238 227/395/208
f 227/395/208 220/394/238 219/396/237 228/397/209
f 228/397/209 219/396/237 217/375/236 224/340/210
f 211/358/193 236/358/216 229/359/230 206/359/225
f 229/359/230 236/358/216 240/398/215 231/399/231
f 231/399/231 240/398/215 239/400/214 232/401/232
f 232/401/232 239/400/214 238/402/213 233/403/233
f 233/403/233 238/402/213 237/404/212 234/405/234
f 234/405/234 237/404/212 235/340/211 230/375/235
f 235/340/211 224/340/210 217/375/236 230/375/235
o 立方体.005
v 0.145189 0.699648 0.999590
v -1.373885 0.448986 0.999590
v -0.324230 0.687380 0.999590
v -0.747700 0.651776 0.999590
v -1.083768 0.596321 0.999590
v -1.299536 0.526445 0.999590
v -1.373885 0.448986 -1.000410
v 0.145189 0.699648 -1.000410
v -1.299536 0.526445 -1.000410
v -1.083768 0.596321 -1.000410
v -0.747700 0.651776 -1.000410
v -0.324230 0.687380 -1.000410
v -1.373885 0.448986 0.999590
v -0.363637 0.369629 0.999590
v -1.324440 0.424463 0.999590
v -1.180945 0.402341 0.999590
v -0.957446 0.384785 0.999590
v -0.675821 0.373513 0.999590
v -0.363637 0.369629 -1.000410
v -1.373885 0.448986 -1.000410
v -0.675821 0.373513 -1.000410
v -0.957446 0.384785 -1.000410
v -1.180945 0.402341 -1.000410
v -1.324440 0.424463 -1.000410
v 0.626115 0.456565 0.999590
v 0.145189 0.699648 0.999590
v 0.602577 0.531682 0.999590
v 0.534266 0.599446 0.999590
v 0.427870 0.653223 0.999590
v 0.293804 0.687751 0.999590
v 0.145189 0.699648 -1.000410
v 0.626115 0.456565 -1.000410
v 0.293804 0.687751 -1.000410
v 0.427870 0.653223 -1.000410
v 0.534266 0.599446 -1.000410
v 0.602577 0.531682 -1.000410
v -0.363637 0.369629 0.999590
v 0.626115 0.456565 0.999590
v -0.057787 0.373884 0.999590
v 0.218125 0.386232 0.999590
v 0.437089 0.405465 0.999590
v 0.577673 0.429700 0.999590
v 0.626115 0.456565 -1.000410
v -0.363637 0.369629 -1.000410
v 0.577673 0.429700 -1.000410
v 0.437089 0.405465 -1.000410
v 0.218125 0.386232 -1.000410
v -0.057787 0.373884 -1.000410
vn -0.0750 0.0171 -0.9970
vn -0.0257 -0.9873 -0.1569
vn -0.0577 -0.9851 -0.1620
vn -0.1099 -0.9778 -0.1782
vn -0.2413 -0.9380 -0.2489
vn -0.2171 0.9489 -0.2288
vn -0.1382 0.9805 -0.1399
vn -0.4154 0.8180 -0.3980
vn -0.2149 0.9462 -0.2420
vn -0.1171 0.9764 -0.1815
vn -0.0529 0.9863 -0.1559
vn -0.0129 0.9965 -0.0827
vn 0.0377 0.9955 -0.0865
vn 0.1426 0.9725 -0.1840
vn 0.3115 0.8950 -0.3194
vn 0.4897 0.7269 -0.4814
vn 0.6486 0.4272 -0.6299
vn 0.1530 0.9763 -0.1532
vn 0.2107 0.9525 -0.2199
vn 0.2633 -0.9273 -0.2660
vn 0.1219 -0.9754 -0.1838
vn 0.0643 -0.9845 -0.1633
vn 0.0287 -0.9873 -0.1565
vn 0.0837 0.0213 -0.9963
vn -0.0129 0.9965 0.0827
vn 0.0377 0.9955 0.0865
vn -0.0529 0.9863 0.1559
vn -0.1171 0.9764 0.1815
vn -0.2149 0.9462 0.2420
vn -0.4154 0.8180 0.3980
vn -0.1382 0.9805 0.1399
vn -0.2171 0.9489 0.2288
vn -0.0750 0.0171 0.9970
vn -0.0257 -0.9873 0.1569
vn -0.0577 -0.9851 0.1620
vn -0.1099 -0.9778 0.1782
vn -0.2413 -0.9380 0.2489
vn 0.0837 0.0213 0.9963
vn 0.0287 -0.9873 0.1565
vn 0.0643 -0.9845 0.1633
vn 0.1219 -0.9754 0.1838
vn 0.2633 -0.9273 0.2660
vn 0.2107 0.9525 0.2199
vn 0.1530 0.9763 0.1532
vn 0.6486 0.4272 0.6299
vn 0.4897 0.7269 0.4814
vn 0.3115 0.8950 0.3194
vn 0.1426 0.9725 0.1840
vt 0.375000 0.376281
vt 0.377942 0.337258
vt 0.386481 0.302055
vt 0.399781 0.274118
vt 0.416539 0.256181
vt 0.435116 0.250000
vt 0.493793 0.259294
vt 0.546727 0.286265
vt 0.588735 0.328273
vt 0.615706 0.381207
vt 0.625000 0.439884
vt 0.615987 0.458461
vt 0.589832 0.475219
vt 0.549094 0.488519
vt 0.497760 0.497058
vt 0.440857 0.500000
vt 0.420506 0.493945
vt 0.402147 0.476372
vt 0.387578 0.449001
vt 0.378223 0.414512
vt 0.685116 0.500000
vt 0.685116 0.750000
vt 0.743793 0.500000
vt 0.743793 0.750000
vt 0.875000 0.500000
vt 0.875000 0.750000
vt 0.625000 0.000000
vt 0.625000 0.250000
vt 0.546727 0.250000
vt 0.546727 0.000000
vt 0.493793 0.250000
vt 0.493793 0.000000
vt 0.435116 0.000000
vt 0.251281 0.500000
vt 0.251281 0.750000
vt 0.212258 0.750000
vt 0.212258 0.500000
vt 0.177055 0.750000
vt 0.177055 0.500000
vt 0.125000 0.750000
vt 0.125000 0.500000
vt 0.375000 0.250000
vt 0.375000 0.000000
vt 0.416539 0.000000
vt 0.416539 0.250000
vt 0.375000 0.873719
vt 0.378223 0.835488
vt 0.387578 0.800999
vt 0.402147 0.773628
vt 0.420506 0.756055
vt 0.440857 0.750000
vt 0.497760 0.752942
vt 0.549094 0.761481
vt 0.589832 0.774781
vt 0.615987 0.791539
vt 0.625000 0.810116
vt 0.615706 0.868793
vt 0.588735 0.921727
vt 0.546727 0.963735
vt 0.493793 0.990706
vt 0.435116 1.000000
vt 0.416539 0.993819
vt 0.399781 0.975883
vt 0.386481 0.947945
vt 0.377942 0.912742
vt 0.666539 0.750000
vt 0.666539 0.500000
vt 0.649781 0.750000
vt 0.649781 0.500000
vt 0.549094 0.750000
vt 0.549094 0.500000
vt 0.497760 0.750000
vt 0.497760 0.500000
vt 0.289512 0.500000
vt 0.289512 0.750000
vt 0.324001 0.500000
vt 0.324001 0.750000
vt 0.402147 0.500000
vt 0.402147 0.750000
vt 0.420506 0.500000
vt 0.420506 0.750000
s 1
usemtl マテリアル.001
f 259/406/241 261/407/242 262/408/243 263/409/244 264/410/245 260/411/246 247/411/247 249/412/248 250/413/249 251/414/250 252/415/251 248/416/252 271/416/253 273/417/254 274/418/255 275/419/256 276/420/257 272/421/258 283/421/259 285/422/260 286/423/261 287/424/262 288/425/263 284/406/264
f 271/426/253 248/426/252 241/427/265 266/427/266
f 241/427/265 248/426/252 252/428/251 243/429/267
f 243/429/267 252/428/251 251/430/250 244/431/268
f 244/432/268 251/433/250 250/434/249 245/435/269
f 245/435/269 250/434/249 249/436/248 246/437/270
f 246/437/270 249/436/248 247/411/247 242/438/271
f 253/438/272 242/438/271 247/411/247 260/411/246
f 259/439/241 254/440/273 258/441/274 261/442/242
f 261/442/242 258/441/274 257/443/275 262/444/243
f 262/444/243 257/443/275 256/445/276 263/446/244
f 263/447/244 256/448/276 255/449/277 264/450/245
f 264/450/245 255/449/277 253/438/272 260/411/246
f 277/451/278 279/452/279 280/453/280 281/454/281 282/455/282 278/456/283 265/456/284 267/457/285 268/458/286 269/459/287 270/460/288 266/461/266 241/461/265 243/462/267 244/463/268 245/464/269 246/465/270 242/466/271 253/466/272 255/467/277 256/468/276 257/469/275 258/470/274 254/451/273
f 271/426/253 266/427/266 270/471/288 273/472/254
f 273/472/254 270/471/288 269/473/287 274/474/255
f 274/474/255 269/473/287 268/475/286 275/476/256
f 275/476/256 268/475/286 267/477/285 276/478/257
f 276/478/257 267/477/285 265/456/284 272/421/258
f 259/439/241 284/439/264 277/440/278 254/440/273
f 277/440/278 284/439/264 288/479/263 279/480/279
f 279/480/279 288/479/263 287/481/262 280/482/280
f 280/482/280 287/481/262 286/483/261 281/484/281
f 281/484/281 286/483/261 285/485/260 282/486/282
f 282/486/282 285/485/260 283/421/259 278/456/283
f 283/421/259 272/421/258 265/456/284 278/456/283
