# Blender 4.5.3 LTS
# www.blender.org
mtllib sukoppu.mtl
o 円柱
v 1.488189 0.401421 -0.163183
v -3.320075 0.405965 -0.163183
v 1.488219 0.433257 -0.160048
v -3.320045 0.437800 -0.160048
v 1.488247 0.463869 -0.150762
v -3.320015 0.468412 -0.150762
v 1.488274 0.492081 -0.135682
v -3.319989 0.496624 -0.135682
v 1.488297 0.516809 -0.115388
v -3.319965 0.521353 -0.115388
v 1.488317 0.537103 -0.090660
v -3.319946 0.541646 -0.090660
v 1.488331 0.552183 -0.062447
v -3.319932 0.556726 -0.062447
v 1.488340 0.561469 -0.031835
v -3.319923 0.566012 -0.031835
v 1.488343 0.564604 0.000000
v -3.319921 0.569148 0.000000
v 1.488340 0.561469 0.031835
v -3.319923 0.566012 0.031835
v 1.488331 0.552183 0.062447
v -3.319932 0.556726 0.062447
v 1.488317 0.537103 0.090660
v -3.319946 0.541646 0.090660
v 1.488297 0.516809 0.115388
v -3.319965 0.521353 0.115388
v 1.488274 0.492081 0.135682
v -3.319989 0.496624 0.135682
v 1.488247 0.463869 0.150762
v -3.320015 0.468412 0.150762
v 1.488219 0.433257 0.160048
v -3.320045 0.437800 0.160048
v 1.488189 0.401421 0.163183
v -3.320075 0.405965 0.163183
v 1.488158 0.369586 0.160048
v -3.320105 0.374129 0.160048
v 1.488130 0.338974 0.150762
v -3.320134 0.343517 0.150762
v 1.488103 0.310762 0.135682
v -3.320160 0.315305 0.135682
v 1.488080 0.286033 0.115388
v -3.320184 0.290577 0.115388
v 1.488060 0.265740 0.090660
v -3.320203 0.270283 0.090660
v 1.488046 0.250660 0.062447
v -3.320217 0.255203 0.062447
v 1.488037 0.241374 0.031835
v -3.320226 0.245917 0.031835
v 1.488034 0.238238 0.000000
v -3.320229 0.242782 0.000000
v 1.488037 0.241374 -0.031835
v -3.320226 0.245917 -0.031835
v 1.488046 0.250660 -0.062447
v -3.320217 0.255203 -0.062447
v 1.488060 0.265740 -0.090660
v -3.320203 0.270283 -0.090660
v 1.488080 0.286033 -0.115388
v -3.320184 0.290577 -0.115388
v 1.488103 0.310762 -0.135682
v -3.320160 0.315305 -0.135682
v 1.488130 0.338974 -0.150762
v -3.320134 0.343517 -0.150762
v 1.488158 0.369586 -0.160048
v -3.320105 0.374129 -0.160048
vn -0.0000 -0.0000 -1.0000
vn 0.0002 0.1951 -0.9808
vn 0.0004 0.3827 -0.9239
vn 0.0005 0.5556 -0.8315
vn 0.0007 0.7071 -0.7071
vn 0.0008 0.8315 -0.5556
vn 0.0009 0.9239 -0.3827
vn 0.0009 0.9808 -0.1951
vn 0.0009 1.0000 -0.0000
vn 0.0009 0.9808 0.1951
vn 0.0009 0.9239 0.3827
vn 0.0008 0.8315 0.5556
vn 0.0007 0.7071 0.7071
vn 0.0005 0.5556 0.8315
vn 0.0004 0.3827 0.9239
vn 0.0002 0.1951 0.9808
vn -0.0000 -0.0000 1.0000
vn -0.0002 -0.1951 0.9808
vn -0.0004 -0.3827 0.9239
vn -0.0005 -0.5556 0.8315
vn -0.0007 -0.7071 0.7071
vn -0.0008 -0.8315 0.5556
vn -0.0009 -0.9239 0.3827
vn -0.0009 -0.9808 0.1951
vn -0.0009 -1.0000 -0.0000
vn -0.0009 -0.9808 -0.1951
vn -0.0009 -0.9239 -0.3827
vn -0.0008 -0.8315 -0.5556
vn -0.0007 -0.7071 -0.7071
vn -0.0005 -0.5556 -0.8315
vn -0.0004 -0.3827 -0.9239
vn -1.0000 0.0009 -0.0000
vn -0.0002 -0.1951 -0.9808
vn 1.0000 -0.0009 -0.0000
vt 1.000000 0.500000
vt 1.000000 1.000000
vt 0.968750 1.000000
vt 0.968750 0.500000
vt 0.937500 1.000000
vt 0.937500 0.500000
vt 0.906250 1.000000
vt 0.906250 0.500000
vt 0.875000 1.000000
vt 0.875000 0.500000
vt 0.843750 1.000000
vt 0.843750 0.500000
vt 0.812500 1.000000
vt 0.812500 0.500000
vt 0.781250 1.000000
vt 0.781250 0.500000
vt 0.750000 1.000000
vt 0.750000 0.500000
vt 0.718750 1.000000
vt 0.718750 0.500000
vt 0.687500 1.000000
vt 0.687500 0.500000
vt 0.656250 1.000000
vt 0.656250 0.500000
vt 0.625000 1.000000
vt 0.625000 0.500000
vt 0.593750 1.000000
vt 0.593750 0.500000
vt 0.562500 1.000000
vt 0.562500 0.500000
vt 0.531250 1.000000
vt 0.531250 0.500000
vt 0.500000 1.000000
vt 0.500000 0.500000
vt 0.468750 1.000000
vt 0.468750 0.500000
vt 0.437500 1.000000
vt 0.437500 0.500000
vt 0.406250 1.000000
vt 0.406250 0.500000
vt 0.375000 1.000000
vt 0.375000 0.500000
vt 0.343750 1.000000
vt 0.343750 0.500000
vt 0.312500 1.000000
vt 0.312500 0.500000
vt 0.281250 1.000000
vt 0.281250 0.500000
vt 0.250000 1.000000
vt 0.250000 0.500000
vt 0.218750 1.000000
vt 0.218750 0.500000
vt 0.187500 1.000000
vt 0.187500 0.500000
vt 0.156250 1.000000
vt 0.156250 0.500000
vt 0.125000 1.000000
vt 0.125000 0.500000
vt 0.093750 1.000000
vt 0.093750 0.500000
vt 0.062500 1.000000
vt 0.062500 0.500000
vt 0.296822 0.485388
vt 0.250000 0.490000
vt 0.203178 0.485388
vt 0.158156 0.471731
vt 0.116663 0.449553
vt 0.080294 0.419706
vt 0.050447 0.383337
vt 0.028269 0.341844
vt 0.014612 0.296822
vt 0.010000 0.250000
vt 0.014612 0.203178
vt 0.028269 0.158156
vt 0.050447 0.116663
vt 0.080294 0.080294
vt 0.116663 0.050447
vt 0.158156 0.028269
vt 0.203178 0.014612
vt 0.250000 0.010000
vt 0.296822 0.014612
vt 0.341844 0.028269
vt 0.383337 0.050447
vt 0.419706 0.080294
vt 0.449553 0.116663
vt 0.471731 0.158156
vt 0.485388 0.203178
vt 0.490000 0.250000
vt 0.485388 0.296822
vt 0.471731 0.341844
vt 0.449553 0.383337
vt 0.419706 0.419706
vt 0.383337 0.449553
vt 0.341844 0.471731
vt 0.031250 1.000000
vt 0.031250 0.500000
vt 0.000000 1.000000
vt 0.000000 0.500000
s 1
usemtl マテリアル.001
f 1/1/1 2/2/1 4/3/2 3/4/2
f 3/4/2 4/3/2 6/5/3 5/6/3
f 5/6/3 6/5/3 8/7/4 7/8/4
f 7/8/4 8/7/4 10/9/5 9/10/5
f 9/10/5 10/9/5 12/11/6 11/12/6
f 11/12/6 12/11/6 14/13/7 13/14/7
f 13/14/7 14/13/7 16/15/8 15/16/8
f 15/16/8 16/15/8 18/17/9 17/18/9
f 17/18/9 18/17/9 20/19/10 19/20/10
f 19/20/10 20/19/10 22/21/11 21/22/11
f 21/22/11 22/21/11 24/23/12 23/24/12
f 23/24/12 24/23/12 26/25/13 25/26/13
f 25/26/13 26/25/13 28/27/14 27/28/14
f 27/28/14 28/27/14 30/29/15 29/30/15
f 29/30/15 30/29/15 32/31/16 31/32/16
f 31/32/16 32/31/16 34/33/17 33/34/17
f 33/34/17 34/33/17 36/35/18 35/36/18
f 35/36/18 36/35/18 38/37/19 37/38/19
f 37/38/19 38/37/19 40/39/20 39/40/20
f 39/40/20 40/39/20 42/41/21 41/42/21
f 41/42/21 42/41/21 44/43/22 43/44/22
f 43/44/22 44/43/22 46/45/23 45/46/23
f 45/46/23 46/45/23 48/47/24 47/48/24
f 47/48/24 48/47/24 50/49/25 49/50/25
f 49/50/25 50/49/25 52/51/26 51/52/26
f 51/52/26 52/51/26 54/53/27 53/54/27
f 53/54/27 54/53/27 56/55/28 55/56/28
f 55/56/28 56/55/28 58/57/29 57/58/29
f 57/58/29 58/57/29 60/59/30 59/60/30
f 59/60/30 60/59/30 62/61/31 61/62/31
f 4/63/32 2/64/32 64/65/32 62/66/32 60/67/32 58/68/32 56/69/32 54/70/32 52/71/32 50/72/32 48/73/32 46/74/32 44/75/32 42/76/32 40/77/32 38/78/32 36/79/32 34/80/32 32/81/32 30/82/32 28/83/32 26/84/32 24/85/32 22/86/32 20/87/32 18/88/32 16/89/32 14/90/32 12/91/32 10/92/32 8/93/32 6/94/32
f 61/62/31 62/61/31 64/95/33 63/96/33
f 63/96/33 64/95/33 2/97/1 1/98/1
f 1/98/34 3/4/34 5/6/34 7/8/34 9/10/34 11/12/34 13/14/34 15/16/34 17/18/34 19/20/34 21/22/34 23/24/34 25/26/34 27/28/34 29/30/34 31/32/34 33/34/34 35/36/34 37/38/34 39/40/34 41/42/34 43/44/34 45/46/34 47/48/34 49/50/34 51/52/34 53/54/34 55/56/34 57/58/34 59/60/34 61/62/34 63/96/34
o 円柱.001
v -3.090617 0.405748 0.707221
v -3.092758 0.405750 -0.707745
v -3.093912 0.439537 0.707226
v -3.096054 0.439539 -0.707740
v -3.103737 0.472035 0.707241
v -3.105878 0.472037 -0.707725
v -3.119713 0.501991 0.707265
v -3.121854 0.501993 -0.707701
v -3.141226 0.528255 0.707298
v -3.143367 0.528257 -0.707668
v -3.167450 0.549817 0.707337
v -3.169591 0.549819 -0.707628
v -3.197376 0.565849 0.707383
v -3.199518 0.565851 -0.707583
v -3.229856 0.575735 0.707432
v -3.231997 0.575737 -0.707534
v -3.263640 0.579094 0.707483
v -3.265781 0.579096 -0.707483
v -3.297430 0.575799 0.707534
v -3.299571 0.575801 -0.707432
v -3.329928 0.565974 0.707583
v -3.332069 0.565976 -0.707383
v -3.359885 0.549999 0.707628
v -3.362026 0.550001 -0.707337
v -3.386149 0.528486 0.707668
v -3.388290 0.528488 -0.707298
v -3.407712 0.502263 0.707701
v -3.409853 0.502265 -0.707265
v -3.423744 0.472337 0.707725
v -3.425886 0.472339 -0.707241
v -3.433630 0.439858 0.707740
v -3.435772 0.439860 -0.707226
v -3.436990 0.406075 0.707745
v -3.439131 0.406077 -0.707221
v -3.433694 0.372286 0.707740
v -3.435836 0.372288 -0.707226
v -3.423870 0.339788 0.707725
v -3.426011 0.339790 -0.707241
v -3.407894 0.309832 0.707701
v -3.410035 0.309834 -0.707265
v -3.386381 0.283568 0.707668
v -3.388522 0.283570 -0.707298
v -3.360157 0.262006 0.707628
v -3.362298 0.262008 -0.707337
v -3.330230 0.245974 0.707583
v -3.332371 0.245976 -0.707383
v -3.297751 0.236088 0.707534
v -3.299892 0.236090 -0.707432
v -3.263967 0.232729 0.707483
v -3.266108 0.232731 -0.707483
v -3.230177 0.236024 0.707432
v -3.232318 0.236026 -0.707534
v -3.197679 0.245849 0.707383
v -3.199820 0.245851 -0.707583
v -3.167722 0.261824 0.707337
v -3.169863 0.261826 -0.707628
v -3.141458 0.283337 0.707298
v -3.143599 0.283339 -0.707668
v -3.119895 0.309560 0.707265
v -3.122036 0.309562 -0.707701
v -3.103862 0.339486 0.707241
v -3.106004 0.339488 -0.707725
v -3.093976 0.371965 0.707226
v -3.096117 0.371967 -0.707740
vn 1.0000 -0.0009 -0.0015
vn 0.9810 0.1942 -0.0015
vn 0.9242 0.3818 -0.0014
vn 0.8320 0.5548 -0.0013
vn 0.7078 0.7064 -0.0011
vn 0.5563 0.8310 -0.0008
vn 0.3835 0.9235 -0.0006
vn 0.1960 0.9806 -0.0003
vn 0.0009 1.0000 -0.0000
vn -0.1942 0.9810 0.0003
vn -0.3818 0.9242 0.0006
vn -0.5548 0.8320 0.0008
vn -0.7064 0.7078 0.0011
vn -0.8309 0.5564 0.0013
vn -0.9235 0.3836 0.0014
vn -0.9806 0.1960 0.0015
vn -1.0000 0.0009 0.0015
vn -0.9810 -0.1942 0.0015
vn -0.9242 -0.3818 0.0014
vn -0.8320 -0.5548 0.0013
vn -0.7078 -0.7064 0.0011
vn -0.5563 -0.8310 0.0008
vn -0.3835 -0.9235 0.0006
vn -0.1960 -0.9806 0.0003
vn -0.0009 -1.0000 -0.0000
vn 0.1942 -0.9810 -0.0003
vn 0.3818 -0.9242 -0.0006
vn 0.5548 -0.8320 -0.0008
vn 0.7064 -0.7078 -0.0011
vn 0.8309 -0.5564 -0.0013
vn 0.9235 -0.3836 -0.0014
vn -0.0015 -0.0000 -1.0000
vn 0.9806 -0.1960 -0.0015
vn 0.0015 -0.0000 1.0000
vt 1.000000 0.500000
vt 1.000000 1.000000
vt 0.968750 1.000000
vt 0.968750 0.500000
vt 0.937500 1.000000
vt 0.937500 0.500000
vt 0.906250 1.000000
vt 0.906250 0.500000
vt 0.875000 1.000000
vt 0.875000 0.500000
vt 0.843750 1.000000
vt 0.843750 0.500000
vt 0.812500 1.000000
vt 0.812500 0.500000
vt 0.781250 1.000000
vt 0.781250 0.500000
vt 0.750000 1.000000
vt 0.750000 0.500000
vt 0.718750 1.000000
vt 0.718750 0.500000
vt 0.687500 1.000000
vt 0.687500 0.500000
vt 0.656250 1.000000
vt 0.656250 0.500000
vt 0.625000 1.000000
vt 0.625000 0.500000
vt 0.593750 1.000000
vt 0.593750 0.500000
vt 0.562500 1.000000
vt 0.562500 0.500000
vt 0.531250 1.000000
vt 0.531250 0.500000
vt 0.500000 1.000000
vt 0.500000 0.500000
vt 0.468750 1.000000
vt 0.468750 0.500000
vt 0.437500 1.000000
vt 0.437500 0.500000
vt 0.406250 1.000000
vt 0.406250 0.500000
vt 0.375000 1.000000
vt 0.375000 0.500000
vt 0.343750 1.000000
vt 0.343750 0.500000
vt 0.312500 1.000000
vt 0.312500 0.500000
vt 0.281250 1.000000
vt 0.281250 0.500000
vt 0.250000 1.000000
vt 0.250000 0.500000
vt 0.218750 1.000000
vt 0.218750 0.500000
vt 0.187500 1.000000
vt 0.187500 0.500000
vt 0.156250 1.000000
vt 0.156250 0.500000
vt 0.125000 1.000000
vt 0.125000 0.500000
vt 0.093750 1.000000
vt 0.093750 0.500000
vt 0.062500 1.000000
vt 0.062500 0.500000
vt 0.296822 0.485388
vt 0.250000 0.490000
vt 0.203178 0.485388
vt 0.158156 0.471731
vt 0.116663 0.449553
vt 0.080294 0.419706
vt 0.050447 0.383337
vt 0.028269 0.341844
vt 0.014612 0.296822
vt 0.010000 0.250000
vt 0.014612 0.203178
vt 0.028269 0.158156
vt 0.050447 0.116663
vt 0.080294 0.080294
vt 0.116663 0.050447
vt 0.158156 0.028269
vt 0.203178 0.014612
vt 0.250000 0.010000
vt 0.296822 0.014612
vt 0.341844 0.028269
vt 0.383337 0.050447
vt 0.419706 0.080294
vt 0.449553 0.116663
vt 0.471731 0.158156
vt 0.485388 0.203178
vt 0.490000 0.250000
vt 0.485388 0.296822
vt 0.471731 0.341844
vt 0.449553 0.383337
vt 0.419706 0.419706
vt 0.383337 0.449553
vt 0.341844 0.471731
vt 0.031250 1.000000
vt 0.031250 0.500000
vt 0.000000 1.000000
vt 0.000000 0.500000
vt 0.750000 0.490000
vt 0.796822 0.485388
vt 0.841844 0.471731
vt 0.883337 0.449553
vt 0.919706 0.419706
vt 0.949553 0.383337
vt 0.971731 0.341844
vt 0.985388 0.296822
vt 0.990000 0.250000
vt 0.985388 0.203178
vt 0.971731 0.158156
vt 0.949553 0.116663
vt 0.919706 0.080294
vt 0.883337 0.050447
vt 0.841844 0.028269
vt 0.796822 0.014612
vt 0.750000 0.010000
vt 0.703178 0.014612
vt 0.658156 0.028269
vt 0.616663 0.050447
vt 0.580294 0.080294
vt 0.550447 0.116663
vt 0.528269 0.158156
vt 0.514612 0.203178
vt 0.510000 0.250000
vt 0.514612 0.296822
vt 0.528269 0.341844
vt 0.550447 0.383337
vt 0.580294 0.419706
vt 0.616663 0.449553
vt 0.658156 0.471731
vt 0.703178 0.485388
s 1
usemtl マテリアル.001
f 65/99/35 66/100/35 68/101/36 67/102/36
f 67/102/36 68/101/36 70/103/37 69/104/37
f 69/104/37 70/103/37 72/105/38 71/106/38
f 71/106/38 72/105/38 74/107/39 73/108/39
f 73/108/39 74/107/39 76/109/40 75/110/40
f 75/110/40 76/109/40 78/111/41 77/112/41
f 77/112/41 78/111/41 80/113/42 79/114/42
f 79/114/42 80/113/42 82/115/43 81/116/43
f 81/116/43 82/115/43 84/117/44 83/118/44
f 83/118/44 84/117/44 86/119/45 85/120/45
f 85/120/45 86/119/45 88/121/46 87/122/46
f 87/122/46 88/121/46 90/123/47 89/124/47
f 89/124/47 90/123/47 92/125/48 91/126/48
f 91/126/48 92/125/48 94/127/49 93/128/49
f 93/128/49 94/127/49 96/129/50 95/130/50
f 95/130/50 96/129/50 98/131/51 97/132/51
f 97/132/51 98/131/51 100/133/52 99/134/52
f 99/134/52 100/133/52 102/135/53 101/136/53
f 101/136/53 102/135/53 104/137/54 103/138/54
f 103/138/54 104/137/54 106/139/55 105/140/55
f 105/140/55 106/139/55 108/141/56 107/142/56
f 107/142/56 108/141/56 110/143/57 109/144/57
f 109/144/57 110/143/57 112/145/58 111/146/58
f 111/146/58 112/145/58 114/147/59 113/148/59
f 113/148/59 114/147/59 116/149/60 115/150/60
f 115/150/60 116/149/60 118/151/61 117/152/61
f 117/152/61 118/151/61 120/153/62 119/154/62
f 119/154/62 120/153/62 122/155/63 121/156/63
f 121/156/63 122/155/63 124/157/64 123/158/64
f 123/158/64 124/157/64 126/159/65 125/160/65
f 68/161/66 66/162/66 128/163/66 126/164/66 124/165/66 122/166/66 120/167/66 118/168/66 116/169/66 114/170/66 112/171/66 110/172/66 108/173/66 106/174/66 104/175/66 102/176/66 100/177/66 98/178/66 96/179/66 94/180/66 92/181/66 90/182/66 88/183/66 86/184/66 84/185/66 82/186/66 80/187/66 78/188/66 76/189/66 74/190/66 72/191/66 70/192/66
f 125/160/65 126/159/65 128/193/67 127/194/67
f 127/194/67 128/193/67 66/195/35 65/196/35
f 65/197/68 67/198/68 69/199/68 71/200/68 73/201/68 75/202/68 77/203/68 79/204/68 81/205/68 83/206/68 85/207/68 87/208/68 89/209/68 91/210/68 93/211/68 95/212/68 97/213/68 99/214/68 101/215/68 103/216/68 105/217/68 107/218/68 109/219/68 111/220/68 113/221/68 115/222/68 117/223/68 119/224/68 121/225/68 123/226/68 125/227/68 127/228/68
o 立方体
v 3.790919 0.388923 0.000000
v 1.897674 0.385036 0.000000
v 3.790938 0.409567 0.000000
v 1.897741 0.456533 0.000000
v 1.897741 0.456533 0.431066
v 1.897674 0.385036 0.431066
v 1.897674 0.385036 -0.431066
v 1.897741 0.456533 -0.431066
v 3.321564 0.472590 0.625391
v 2.883142 0.540023 0.804753
v 3.275499 0.488197 0.662305
v 3.218667 0.502868 0.698128
v 3.153918 0.515869 0.731066
v 3.084497 0.526546 0.759466
v 3.013887 0.534365 0.781905
v 2.945628 0.538934 0.797257
v 2.883142 0.540023 -0.804753
v 3.321564 0.472590 -0.625391
v 2.945628 0.538934 -0.797257
v 3.013887 0.534365 -0.781905
v 3.084497 0.526546 -0.759466
v 3.153918 0.515869 -0.731066
v 3.218667 0.502868 -0.698128
v 3.275499 0.488197 -0.662305
v 2.883213 0.614290 0.804753
v 3.321607 0.518731 0.625391
v 2.945696 0.611195 0.797257
v 3.013952 0.603641 0.781905
v 3.084559 0.592007 0.759466
v 3.153975 0.576876 0.731066
v 3.218720 0.559007 0.698128
v 3.275547 0.539296 0.662305
v 3.321607 0.518731 -0.625391
v 2.883213 0.614290 -0.804753
v 3.275547 0.539296 -0.662305
v 3.218720 0.559007 -0.698128
v 3.153975 0.576876 -0.731066
v 3.084559 0.592007 -0.759466
v 3.013952 0.603641 -0.781905
v 2.945696 0.611195 -0.797257
v 3.689112 0.389019 0.252279
v 3.354186 0.459647 0.595240
v 3.296875 0.383747 0.431066
v 3.649656 0.390819 0.296179
v 3.603272 0.396063 0.346110
v 3.552285 0.404488 0.399569
v 3.499253 0.415671 0.453874
v 3.446833 0.429052 0.506302
v 3.397655 0.443960 0.554226
v 3.354226 0.501831 0.595240
v 3.689131 0.409663 0.252279
v 3.296905 0.415677 0.431066
v 3.397691 0.481351 0.554226
v 3.446864 0.461891 0.506302
v 3.499280 0.444426 0.453874
v 3.552309 0.429832 0.399569
v 3.603294 0.418841 0.346110
v 3.649676 0.412004 0.296179
v 3.689131 0.409663 -0.252279
v 3.354226 0.501831 -0.595240
v 3.296905 0.415677 -0.431066
v 3.649676 0.412004 -0.296179
v 3.603294 0.418841 -0.346110
v 3.552309 0.429832 -0.399569
v 3.499280 0.444426 -0.453874
v 3.446864 0.461891 -0.506302
v 3.397691 0.481351 -0.554226
v 3.354186 0.459647 -0.595240
v 3.689112 0.389019 -0.252279
v 3.296875 0.383747 -0.431066
v 3.397655 0.443960 -0.554226
v 3.446833 0.429052 -0.506302
v 3.499253 0.415671 -0.453874
v 3.552285 0.404488 -0.399569
v 3.603272 0.396063 -0.346110
v 3.649656 0.390819 -0.296179
v 1.959532 0.514424 0.858537
v 1.897780 0.497017 0.809139
v 1.935905 0.512575 0.855878
v 1.915873 0.508617 0.845558
v 1.902485 0.503154 0.829145
v 1.897780 0.497017 -0.809139
v 1.959532 0.514424 -0.858537
v 1.902485 0.503154 -0.829145
v 1.915873 0.508617 -0.845558
v 1.935905 0.512575 -0.855878
v 1.897847 0.568514 0.809139
v 1.959600 0.586095 0.858537
v 1.902552 0.574664 0.829145
v 1.915940 0.580165 0.845558
v 1.935973 0.584179 0.855878
v 1.959600 0.586095 -0.858537
v 1.897847 0.568514 -0.809139
v 1.935973 0.584179 -0.855878
v 1.915940 0.580165 -0.845558
v 1.902552 0.574664 -0.829145
vn 0.0608 -0.9981 -0.0000
vn -0.0478 -0.9989 -0.0000
vn 0.0910 0.9959 -0.0000
vn -0.0295 0.9996 -0.0000
vn -0.1116 0.9917 -0.0638
vn -0.0439 -0.9980 0.0451
vn -0.0439 -0.9980 -0.0451
vn -0.1116 0.9917 0.0638
vn 0.2149 -0.8244 0.5236
vn 0.0545 -0.6960 0.7159
vn 0.2013 -0.8178 0.5392
vn 0.1758 -0.8103 0.5591
vn 0.1535 -0.8038 0.5747
vn 0.1327 -0.7963 0.5901
vn 0.1123 -0.7824 0.6126
vn 0.0909 -0.7342 0.6728
vn 0.0545 -0.6960 -0.7159
vn 0.2149 -0.8244 -0.5236
vn 0.0909 -0.7342 -0.6728
vn 0.1123 -0.7824 -0.6126
vn 0.1327 -0.7963 -0.5901
vn 0.1535 -0.8038 -0.5747
vn 0.1758 -0.8103 -0.5591
vn 0.2013 -0.8178 -0.5392
vn 0.0315 0.9995 0.0019
vn 0.2377 0.9653 -0.1079
vn 0.0525 0.9986 -0.0009
vn 0.0914 0.9958 -0.0107
vn 0.1240 0.9920 -0.0232
vn 0.1531 0.9875 -0.0379
vn 0.1806 0.9820 -0.0556
vn 0.2087 0.9749 -0.0780
vn 0.2377 0.9653 0.1079
vn 0.0315 0.9995 -0.0019
vn 0.2087 0.9749 0.0780
vn 0.1806 0.9820 0.0556
vn 0.1531 0.9875 0.0379
vn 0.1240 0.9920 0.0232
vn 0.0914 0.9958 0.0107
vn 0.0525 0.9986 0.0009
vn 0.0510 -0.9981 0.0332
vn 0.2165 -0.8257 0.5209
vn 0.0119 -0.9988 0.0470
vn 0.1391 -0.9733 0.1825
vn 0.2395 -0.9082 0.3432
vn 0.2843 -0.8539 0.4359
vn 0.2980 -0.8169 0.4939
vn 0.2917 -0.7929 0.5350
vn 0.2664 -0.7785 0.5683
vn 0.2548 0.9585 -0.1280
vn 0.0856 0.9955 0.0414
vn 0.0113 0.9987 -0.0499
vn 0.2920 0.9436 -0.1562
vn 0.2309 0.9619 -0.1465
vn 0.1839 0.9744 -0.1292
vn 0.1408 0.9845 -0.1046
vn 0.0957 0.9930 -0.0694
vn 0.0530 0.9985 -0.0156
vn 0.0856 0.9955 -0.0414
vn 0.2548 0.9585 0.1280
vn 0.0113 0.9987 0.0499
vn 0.0530 0.9985 0.0156
vn 0.0957 0.9930 0.0694
vn 0.1408 0.9845 0.1046
vn 0.1839 0.9744 0.1292
vn 0.2309 0.9619 0.1465
vn 0.2920 0.9436 0.1562
vn 0.2165 -0.8257 -0.5209
vn 0.0510 -0.9981 -0.0332
vn 0.0119 -0.9988 -0.0470
vn 0.2664 -0.7785 -0.5683
vn 0.2917 -0.7929 -0.5350
vn 0.2980 -0.8169 -0.4939
vn 0.2843 -0.8539 -0.4359
vn 0.2395 -0.9082 -0.3432
vn 0.1391 -0.9733 -0.1825
vn -0.0087 -0.7467 0.6651
vn -0.2757 -0.8991 0.3400
vn -0.1229 -0.7836 0.6090
vn -0.2109 -0.8327 0.5120
vn -0.2662 -0.8756 0.4032
vn -0.2757 -0.8991 -0.3400
vn -0.0087 -0.7467 -0.6651
vn -0.2662 -0.8756 -0.4032
vn -0.2109 -0.8327 -0.5120
vn -0.1229 -0.7836 -0.6090
vn -0.3291 0.8932 -0.3063
vn 0.0054 1.0000 0.0055
vn -0.2955 0.9397 -0.1722
vn -0.1996 0.9782 -0.0581
vn -0.0668 0.9978 0.0009
vn 0.0054 1.0000 -0.0055
vn -0.3291 0.8932 0.3063
vn -0.0668 0.9978 -0.0009
vn -0.1996 0.9782 0.0581
vn -0.2955 0.9397 0.1722
vt 0.625000 0.562500
vt 0.875000 0.562500
vt 0.875000 0.625000
vt 0.625000 0.625000
vt 0.875000 0.687500
vt 0.625000 0.687500
vt 0.125000 0.661578
vt 0.146350 0.667993
vt 0.125000 0.687500
vt 0.209322 0.675379
vt 0.310763 0.687500
vt 0.375000 0.687500
vt 0.375000 0.716122
vt 0.386813 0.709039
vt 0.410942 0.687500
vt 0.428149 0.700883
vt 0.410942 0.687500
vt 0.508782 0.692064
vt 0.636352 0.683024
vt 0.805169 0.674215
vt 0.980412 0.666080
vt 1.143607 0.659026
vt 0.375000 0.588422
vt 0.402888 0.582007
vt 0.410942 0.562500
vt 0.485153 0.574621
vt 0.617671 0.566634
vt 0.793796 0.558446
vt 1.004697 0.550468
vt 1.239797 0.543100
vt 1.487310 0.536712
vt 0.203305 0.542843
vt 0.786992 0.543100
vt 0.125000 0.562500
vt 0.607026 0.550468
vt 0.375000 0.562500
vt 0.310763 0.562500
vt 0.209322 0.562500
vt 0.125000 0.582007
vt 0.125000 0.588422
vt 0.375000 0.528622
vt 0.125000 0.528622
vt 0.116302 0.521730
vt 0.375955 0.522252
vt 0.093428 0.514140
vt 0.378751 0.516181
vt 0.060088 0.506231
vt 0.383241 0.510691
vt 0.125000 0.500000
vt 0.391391 0.504770
vt 0.393390 0.243966
vt 0.403695 0.246469
vt 0.403221 0.501690
vt 0.415358 0.249116
vt 0.415163 0.500473
vt 0.427321 0.250000
vt 0.427321 0.500000
vt 0.125000 0.721378
vt 0.375000 0.721378
vt 0.375955 0.727748
vt 0.116302 0.728270
vt 0.378751 0.733819
vt 0.093428 0.735860
vt 0.383241 0.739309
vt 0.060088 0.743770
vt 0.391391 0.745230
vt 0.125000 0.750000
vt 0.375000 1.000000
vt 0.403221 0.748310
vt 0.400848 1.021279
vt 0.415163 0.749527
vt 0.414723 1.005552
vt 0.427321 0.750000
vt 0.427321 1.000000
vt 0.125000 0.716122
vt 0.140206 0.709039
vt 0.386813 0.709039
vt 0.193488 0.700883
vt 0.428149 0.700883
vt 0.297903 0.692064
vt 0.508782 0.692064
vt 0.310763 0.683366
vt 0.617671 0.683366
vt 0.209322 0.675379
vt 0.485153 0.675379
vt 0.146350 0.667993
vt 0.402888 0.667993
vt 0.375000 0.661578
vt 0.125000 0.588422
vt 0.146350 0.582007
vt 0.209322 0.574621
vt 0.310763 0.566634
vt 0.617671 0.566634
vt 0.297903 0.557936
vt 0.508782 0.557936
vt 0.193489 0.549117
vt 0.428149 0.549116
vt 0.140205 0.540961
vt 0.386813 0.540961
vt 0.375000 0.533878
vt 0.125000 0.625000
vt 0.375000 0.625000
vt 0.375000 0.088422
vt 0.410942 0.062500
vt 0.625000 0.062500
vt 0.625000 0.125000
vt 0.375000 0.125000
vt 0.625000 0.187500
vt 0.410942 0.187500
vt 0.375000 0.161578
vt 0.875000 0.507683
vt 0.625000 0.507683
vt 0.624119 0.504697
vt 0.874246 0.504783
vt 0.621725 0.501956
vt 0.875000 0.500000
vt 0.621657 0.247846
vt 0.617546 0.500358
vt 0.617603 0.249433
vt 0.612614 0.500000
vt 0.612614 0.250000
vt 0.625000 0.742317
vt 0.875000 0.742317
vt 0.874246 0.745217
vt 0.624119 0.745303
vt 0.875000 0.750000
vt 0.621725 0.748044
vt 0.625000 1.000000
vt 0.617290 1.004173
vt 0.617546 0.749642
vt 0.612614 1.000000
vt 0.612614 0.750000
vt 0.375000 0.028622
vt 0.376185 0.022242
vt 0.379774 0.016168
vt 0.385704 0.010714
vt 0.393790 0.006165
vt 0.403818 0.002764
vt 0.415384 0.000692
vt 0.427321 0.000000
vt 0.612614 0.000000
vt 0.617609 0.000506
vt 0.621631 0.002171
vt 0.624134 0.004720
vt 0.625000 0.007683
vt 0.375000 0.033878
vt 0.375000 0.216122
vt 0.625000 0.242317
vt 0.624134 0.245280
vt 0.385704 0.239286
vt 0.379774 0.233832
vt 0.376185 0.227758
vt 0.375000 0.221378
s 1
usemtl マテリアル
f 136/229/76 135/230/75 130/231/70 132/232/72
f 132/232/72 130/231/70 134/233/74 133/234/73
f 169/235/109 172/236/112 171/237/111
f 172/236/112 173/238/113 171/237/111
f 173/238/113 174/239/114 171/237/111
f 174/239/114 175/240/115 171/237/111
f 175/240/115 176/240/116 171/237/111
f 176/240/116 177/240/117 171/237/111
f 177/240/117 170/240/110 171/237/111
f 178/241/118 181/242/121 180/243/120
f 181/242/121 182/244/122 180/245/120
f 182/244/122 183/246/123 180/245/120
f 183/246/123 184/247/124 180/245/120
f 184/247/124 185/248/125 180/245/120
f 185/248/125 186/249/126 180/245/120
f 186/249/126 179/250/119 180/245/120
f 187/251/127 190/252/130 189/253/129
f 190/252/130 191/254/131 189/253/129
f 191/254/131 192/255/132 189/253/129
f 192/255/132 193/256/133 189/253/129
f 193/256/133 194/257/134 189/253/129
f 194/257/134 195/258/135 189/253/129
f 195/258/135 188/259/128 189/253/129
f 196/260/136 199/261/139 198/262/138
f 199/261/139 200/263/140 198/262/138
f 200/263/140 201/264/141 198/262/138
f 201/264/141 202/265/142 198/262/138
f 202/265/142 203/266/143 198/262/138
f 203/266/143 204/267/144 198/262/138
f 204/267/144 197/268/137 198/262/138
f 161/269/101 146/270/86 152/271/92 163/272/103
f 163/272/103 152/271/92 151/273/91 164/274/104
f 164/274/104 151/273/91 150/275/90 165/276/105
f 165/276/105 150/275/90 149/277/89 166/278/106
f 166/278/106 149/279/89 148/280/88 167/281/107
f 167/281/107 148/280/88 147/282/87 168/283/108
f 168/283/108 147/282/87 145/284/85 162/285/102
f 137/286/77 154/287/94 160/288/100 139/289/79
f 139/289/79 160/288/100 159/290/99 140/291/80
f 140/291/80 159/290/99 158/292/98 141/293/81
f 141/293/81 158/292/98 157/294/97 142/295/82
f 142/296/82 157/294/97 156/297/96 143/298/83
f 143/298/83 156/297/96 155/299/95 144/300/84
f 144/300/84 155/299/95 153/301/93 138/302/78
f 178/241/118 170/303/110 177/304/117 181/305/121
f 181/305/121 177/304/117 176/306/116 182/307/122
f 182/307/122 176/306/116 175/308/115 183/309/123
f 183/309/123 175/308/115 174/310/114 184/311/124
f 184/311/124 174/310/114 173/312/113 185/313/125
f 185/313/125 173/312/113 172/314/112 186/315/126
f 186/315/126 172/314/112 169/235/109 179/316/119
f 187/251/127 197/317/137 204/318/144 190/252/130
f 190/252/130 204/318/144 203/319/143 191/254/131
f 191/254/131 203/319/143 202/320/142 192/321/132
f 192/321/132 202/320/142 201/322/141 193/323/133
f 193/323/133 201/322/141 200/324/140 194/325/134
f 194/325/134 200/324/140 199/326/139 195/327/135
f 195/327/135 199/326/139 196/260/136 188/328/128
f 170/303/110 178/241/118 154/287/94 137/286/77
f 146/270/86 161/269/101 188/328/128 196/260/136
f 129/329/69 131/330/71 179/316/119 169/235/109
f 169/331/109 171/332/111 134/333/74 130/334/70 129/335/69
f 131/330/71 132/232/72 133/234/73 180/243/120 179/316/119
f 197/317/137 187/251/127 131/330/71 129/329/69
f 187/251/127 189/253/129 136/229/76 132/232/72 131/330/71
f 129/335/69 130/334/70 135/336/75 198/337/138 197/338/137
f 210/339/150 221/340/161 224/341/164 212/342/152
f 212/342/152 224/341/164 223/343/163 213/344/153
f 213/345/153 223/343/163 222/346/162 214/347/154
f 214/347/154 222/346/162 220/348/160 211/349/151
f 215/350/155 206/351/146 209/352/149 217/353/157
f 217/353/157 209/352/149 208/354/148 218/355/158
f 218/355/158 208/356/148 207/357/147 219/358/159
f 219/358/159 207/357/147 205/359/145 216/360/156
f 153/301/93 216/360/156 205/359/145 138/302/78
f 133/234/73 134/233/74 206/351/146 215/350/155
f 137/361/77 139/362/79 140/363/80 141/364/81 142/365/82 143/366/83 144/367/84 138/368/78 205/369/145 207/370/147 208/371/148 209/372/149 206/373/146 134/333/74 171/332/111 170/374/110
f 196/375/136 198/337/138 135/336/75 210/376/150 212/377/152 213/345/153 214/347/154 211/349/151 145/284/85 147/282/87 148/280/88 149/279/89 150/378/90 151/379/91 152/380/92 146/381/86
f 221/340/161 210/339/150 135/230/75 136/229/76
f 145/284/85 211/349/151 220/348/160 162/285/102
f 178/241/118 180/243/120 133/234/73 215/350/155 217/353/157 218/355/158 219/358/159 216/360/156 153/301/93 155/299/95 156/297/96 157/294/97 158/292/98 159/290/99 160/288/100 154/287/94
f 161/269/101 163/272/103 164/274/104 165/276/105 166/278/106 167/281/107 168/283/108 162/285/102 220/348/160 222/346/162 223/343/163 224/341/164 221/340/161 136/229/76 189/253/129 188/328/128
o 円柱.002
v 1.479383 0.401429 -0.163183
v 1.479413 0.433265 -0.160048
v 1.479442 0.463877 -0.150762
v 1.479469 0.492089 -0.135682
v 1.479492 0.516817 -0.115388
v 1.479511 0.537111 -0.090660
v 1.479526 0.552191 -0.062447
v 1.479535 0.561477 -0.031835
v 1.479537 0.564613 0.000000
v 1.479535 0.561477 0.031835
v 1.479526 0.552191 0.062447
v 1.479511 0.537111 0.090660
v 1.479492 0.516817 0.115388
v 1.479469 0.492089 0.135682
v 1.479442 0.463877 0.150762
v 1.479413 0.433265 0.160048
v 1.479383 0.401429 0.163183
v 1.479353 0.369594 0.160048
v 1.479324 0.338982 0.150762
v 1.479298 0.310770 0.135682
v 1.479274 0.286042 0.115388
v 1.479255 0.265748 0.090660
v 1.479241 0.250668 0.062447
v 1.479232 0.241382 0.031835
v 1.479229 0.238246 0.000000
v 1.479232 0.241382 -0.031835
v 1.479241 0.250668 -0.062447
v 1.479255 0.265748 -0.090660
v 1.479274 0.286042 -0.115388
v 1.479298 0.310770 -0.135682
v 1.479324 0.338982 -0.150762
v 1.479353 0.369594 -0.160048
v 1.481958 0.401427 -0.178365
v 1.481991 0.436224 -0.174938
v 1.482023 0.469684 -0.164788
v 1.482052 0.500521 -0.148305
v 1.482077 0.527550 -0.126123
v 1.482098 0.549732 -0.099094
v 1.482114 0.566215 -0.068257
v 1.482123 0.576365 -0.034797
v 1.482126 0.579792 0.000000
v 1.482123 0.576365 0.034797
v 1.482114 0.566215 0.068257
v 1.482098 0.549732 0.099094
v 1.482077 0.527550 0.126123
v 1.482052 0.500521 0.148305
v 1.482023 0.469684 0.164788
v 1.481991 0.436224 0.174938
v 1.481958 0.401427 0.178365
v 1.481925 0.366630 0.174938
v 1.481894 0.333170 0.164788
v 1.481864 0.302333 0.148305
v 1.481839 0.275304 0.126123
v 1.481818 0.253122 0.099094
v 1.481802 0.236639 0.068257
v 1.481793 0.226489 0.034797
v 1.481789 0.223062 0.000000
v 1.481793 0.226489 -0.034797
v 1.481802 0.236639 -0.068257
v 1.481818 0.253122 -0.099094
v 1.481839 0.275304 -0.126123
v 1.481864 0.302333 -0.148305
v 1.481894 0.333170 -0.164788
v 1.481925 0.366630 -0.174938
v 1.934334 0.400999 -0.160051
v 1.934364 0.432224 -0.156976
v 1.934392 0.462248 -0.147868
v 1.934418 0.489919 -0.133078
v 1.934441 0.514173 -0.113173
v 1.934460 0.534077 -0.088920
v 1.934474 0.548867 -0.061249
v 1.934483 0.557975 -0.031224
v 1.934486 0.561050 0.000000
v 1.934483 0.557975 0.031224
v 1.934474 0.548867 0.061249
v 1.934460 0.534077 0.088920
v 1.934441 0.514173 0.113173
v 1.934418 0.489919 0.133078
v 1.934392 0.462248 0.147868
v 1.934364 0.432224 0.156976
v 1.934334 0.400999 0.160051
v 1.934305 0.369775 0.156976
v 1.934276 0.339751 0.147868
v 1.934250 0.312080 0.133078
v 1.934227 0.287826 0.113173
v 1.934209 0.267922 0.088920
v 1.934195 0.253132 0.061249
v 1.934186 0.244024 0.031224
v 1.934183 0.240949 0.000000
v 1.934186 0.244024 -0.031224
v 1.934195 0.253132 -0.061249
v 1.934209 0.267922 -0.088920
v 1.934227 0.287826 -0.113173
v 1.934250 0.312080 -0.133078
v 1.934276 0.339751 -0.147868
v 1.934305 0.369775 -0.156976
v 2.653324 0.400320 -0.054528
v 2.653334 0.410958 -0.053480
v 2.653343 0.421187 -0.050377
v 2.653352 0.430614 -0.045338
v 2.653360 0.438877 -0.038557
v 2.653366 0.445658 -0.030294
v 2.653371 0.450697 -0.020867
v 2.653374 0.453800 -0.010638
v 2.653375 0.454848 0.000000
v 2.653374 0.453800 0.010638
v 2.653371 0.450697 0.020867
v 2.653366 0.445658 0.030294
v 2.653360 0.438877 0.038557
v 2.653352 0.430614 0.045338
v 2.653343 0.421187 0.050377
v 2.653334 0.410958 0.053480
v 2.653324 0.400320 0.054528
v 2.653313 0.389682 0.053480
v 2.653304 0.379453 0.050377
v 2.653295 0.370026 0.045338
v 2.653287 0.361763 0.038557
v 2.653281 0.354982 0.030294
v 2.653276 0.349943 0.020867
v 2.653273 0.346840 0.010638
v 2.653272 0.345792 0.000000
v 2.653273 0.346840 -0.010638
v 2.653276 0.349943 -0.020867
v 2.653281 0.354982 -0.030294
v 2.653287 0.361763 -0.038557
v 2.653295 0.370026 -0.045338
v 2.653304 0.379453 -0.050377
v 2.653313 0.389682 -0.053480
vn -0.9960 0.0009 -0.0897
vn -0.9959 0.0184 -0.0880
vn -0.9959 0.0353 -0.0829
vn -0.9959 0.0508 -0.0746
vn -0.9959 0.0644 -0.0634
vn -0.9959 0.0755 -0.0498
vn -0.9959 0.0838 -0.0343
vn -0.9959 0.0889 -0.0175
vn -0.9959 0.0907 -0.0000
vn -0.9959 0.0889 0.0175
vn -0.9959 0.0838 0.0343
vn -0.9959 0.0755 0.0498
vn -0.9959 0.0644 0.0634
vn -0.9959 0.0508 0.0746
vn -0.9959 0.0353 0.0829
vn -0.9959 0.0184 0.0880
vn -0.9960 0.0009 0.0897
vn -0.9960 -0.0166 0.0880
vn -0.9960 -0.0334 0.0829
vn -0.9960 -0.0489 0.0746
vn -0.9960 -0.0625 0.0634
vn -0.9960 -0.0737 0.0498
vn -0.9960 -0.0820 0.0343
vn -0.9960 -0.0871 0.0175
vn -0.9961 -0.0888 -0.0000
vn -0.9960 -0.0871 -0.0175
vn -0.9960 -0.0820 -0.0343
vn -0.9960 -0.0737 -0.0498
vn -0.9960 -0.0625 -0.0634
vn -0.9960 -0.0489 -0.0746
vn -0.9960 -0.0334 -0.0829
vn -0.9960 -0.0166 -0.0880
vn -0.0267 -0.0000 -0.9996
vn -0.0266 0.1950 -0.9804
vn -0.0264 0.3826 -0.9235
vn -0.0262 0.5554 -0.8312
vn -0.0261 0.7069 -0.7069
vn -0.0259 0.8312 -0.5554
vn -0.0259 0.9236 -0.3825
vn -0.0258 0.9805 -0.1950
vn -0.0258 0.9997 -0.0000
vn -0.0258 0.9805 0.1950
vn -0.0259 0.9236 0.3825
vn -0.0259 0.8312 0.5554
vn -0.0261 0.7069 0.7069
vn -0.0262 0.5554 0.8312
vn -0.0264 0.3826 0.9235
vn -0.0266 0.1950 0.9804
vn -0.0267 -0.0000 0.9996
vn -0.0269 -0.1950 0.9804
vn -0.0271 -0.3825 0.9235
vn -0.0273 -0.5553 0.8312
vn -0.0274 -0.7068 0.7069
vn -0.0275 -0.8311 0.5554
vn -0.0276 -0.9235 0.3825
vn -0.0277 -0.9804 0.1950
vn -0.0277 -0.9996 -0.0000
vn -0.0277 -0.9804 -0.1950
vn -0.0276 -0.9235 -0.3825
vn -0.0275 -0.8311 -0.5554
vn -0.0274 -0.7068 -0.7069
vn -0.0273 -0.5553 -0.8312
vn -0.0271 -0.3825 -0.9235
vn -0.0269 -0.1950 -0.9804
vn 0.0707 -0.0001 -0.9975
vn 0.0709 0.1945 -0.9783
vn 0.0711 0.3817 -0.9216
vn 0.0713 0.5541 -0.8294
vn 0.0714 0.7053 -0.7053
vn 0.0715 0.8293 -0.5542
vn 0.0716 0.9215 -0.3817
vn 0.0717 0.9783 -0.1946
vn 0.0717 0.9974 -0.0000
vn 0.0717 0.9783 0.1946
vn 0.0716 0.9215 0.3817
vn 0.0715 0.8293 0.5542
vn 0.0714 0.7053 0.7053
vn 0.0713 0.5541 0.8294
vn 0.0711 0.3817 0.9216
vn 0.0709 0.1945 0.9783
vn 0.0707 -0.0001 0.9975
vn 0.0705 -0.1947 0.9783
vn 0.0704 -0.3818 0.9216
vn 0.0702 -0.5542 0.8294
vn 0.0701 -0.7054 0.7053
vn 0.0699 -0.8295 0.5542
vn 0.0699 -0.9216 0.3817
vn 0.0698 -0.9784 0.1946
vn 0.0698 -0.9976 -0.0000
vn 0.0698 -0.9784 -0.1946
vn 0.0699 -0.9216 -0.3817
vn 0.0699 -0.8295 -0.5542
vn 0.0701 -0.7054 -0.7053
vn 0.0702 -0.5542 -0.8294
vn 0.0704 -0.3818 -0.9216
vn 0.0705 -0.1947 -0.9783
vn 0.2750 -0.0003 -0.9614
vn 0.2752 0.1873 -0.9430
vn 0.2754 0.3677 -0.8883
vn 0.2755 0.5339 -0.7994
vn 0.2757 0.6796 -0.6798
vn 0.2758 0.7991 -0.5341
vn 0.2758 0.8880 -0.3679
vn 0.2759 0.9427 -0.1876
vn 0.2759 0.9612 -0.0000
vn 0.2759 0.9427 0.1876
vn 0.2758 0.8880 0.3679
vn 0.2758 0.7991 0.5341
vn 0.2757 0.6796 0.6798
vn 0.2755 0.5339 0.7994
vn 0.2754 0.3677 0.8883
vn 0.2752 0.1873 0.9430
vn 0.2750 -0.0003 0.9614
vn 0.2748 -0.1878 0.9430
vn 0.2747 -0.3682 0.8883
vn 0.2745 -0.5344 0.7994
vn 0.2744 -0.6801 0.6798
vn 0.2743 -0.7997 0.5341
vn 0.2742 -0.8885 0.3679
vn 0.2741 -0.9432 0.1876
vn 0.2741 -0.9617 -0.0000
vn 0.2741 -0.9432 -0.1876
vn 0.2742 -0.8885 -0.3679
vn 0.2743 -0.7997 -0.5341
vn 0.2744 -0.6801 -0.6798
vn 0.2745 -0.5344 -0.7994
vn 0.2747 -0.3682 -0.8883
vn 0.2748 -0.1878 -0.9430
vt 0.031250 0.500000
vt 0.000000 0.500000
vt 0.968750 0.500000
vt 0.937500 0.500000
vt 0.718750 0.500000
vt 0.687500 0.500000
vt 0.437500 0.500000
vt 0.406250 0.500000
vt 0.156250 0.500000
vt 0.125000 0.500000
vt 0.843750 0.500000
vt 0.812500 0.500000
vt 0.562500 0.500000
vt 0.531250 0.500000
vt 0.281250 0.500000
vt 0.250000 0.500000
vt 0.656250 0.500000
vt 0.375000 0.500000
vt 0.093750 0.500000
vt 0.781250 0.500000
vt 0.500000 0.500000
vt 0.218750 0.500000
vt 0.906250 0.500000
vt 0.625000 0.500000
vt 0.343750 0.500000
vt 0.062500 0.500000
vt 0.750000 0.500000
vt 0.468750 0.500000
vt 0.187500 0.500000
vt 0.875000 0.500000
vt 0.593750 0.500000
vt 0.312500 0.500000
vt 1.000000 0.500000
vt 0.750000 0.490000
vt 0.796822 0.485388
vt 0.841844 0.471731
vt 0.883337 0.449553
vt 0.919706 0.419706
vt 0.949553 0.383337
vt 0.971731 0.341844
vt 0.985388 0.296822
vt 0.990000 0.250000
vt 0.985388 0.203178
vt 0.971731 0.158156
vt 0.949553 0.116663
vt 0.919706 0.080294
vt 0.883337 0.050447
vt 0.841844 0.028269
vt 0.796822 0.014612
vt 0.750000 0.010000
vt 0.703178 0.014612
vt 0.658156 0.028269
vt 0.616663 0.050447
vt 0.580294 0.080294
vt 0.550447 0.116663
vt 0.528269 0.158156
vt 0.514612 0.203178
vt 0.510000 0.250000
vt 0.514612 0.296822
vt 0.528269 0.341844
vt 0.550447 0.383337
vt 0.580294 0.419706
vt 0.616663 0.449553
vt 0.658156 0.471731
vt 0.703178 0.485388
s 1
usemtl マテリアル
f 256/382/196 225/383/165 257/383/197 288/382/228
f 258/384/198 259/385/199 291/385/231 290/384/230
f 234/386/174 235/387/175 267/387/207 266/386/206
f 243/388/183 244/389/184 276/389/216 275/388/215
f 252/390/192 253/391/193 285/391/225 284/390/224
f 230/392/170 231/393/171 263/393/203 262/392/202
f 239/394/179 240/395/180 272/395/212 271/394/211
f 248/396/188 249/397/189 281/397/221 280/396/220
f 226/384/166 227/385/167 259/385/199 258/384/198
f 235/387/175 236/398/176 268/398/208 267/387/207
f 244/389/184 245/399/185 277/399/217 276/389/216
f 253/391/193 254/400/194 286/400/226 285/391/225
f 231/393/171 232/401/172 264/401/204 263/393/203
f 240/395/180 241/402/181 273/402/213 272/395/212
f 249/397/189 250/403/190 282/403/222 281/397/221
f 227/385/167 228/404/168 260/404/200 259/385/199
f 236/398/176 237/405/177 269/405/209 268/398/208
f 245/399/185 246/406/186 278/406/218 277/399/217
f 254/400/194 255/407/195 287/407/227 286/400/226
f 232/401/172 233/408/173 265/408/205 264/401/204
f 241/402/181 242/409/182 274/409/214 273/402/213
f 250/403/190 251/410/191 283/410/223 282/403/222
f 228/404/168 229/411/169 261/411/201 260/404/200
f 237/405/177 238/412/178 270/412/210 269/405/209
f 246/406/186 247/413/187 279/413/219 278/406/218
f 255/407/195 256/382/196 288/382/228 287/407/227
f 233/408/173 234/386/174 266/386/206 265/408/205
f 242/409/182 243/388/183 275/388/215 274/409/214
f 251/410/191 252/390/192 284/390/224 283/410/223
f 229/411/169 230/392/170 262/392/202 261/411/201
f 238/412/178 239/394/179 271/394/211 270/412/210
f 247/413/187 248/396/188 280/396/220 279/413/219
f 225/414/165 226/384/166 258/384/198 257/414/197
f 293/411/233 294/392/234 326/392/266 325/411/265
f 285/391/225 286/400/226 318/400/258 317/391/257
f 272/395/212 273/402/213 305/402/245 304/395/244
f 259/385/199 260/404/200 292/404/232 291/385/231
f 286/400/226 287/407/227 319/407/259 318/400/258
f 273/402/213 274/409/214 306/409/246 305/402/245
f 260/404/200 261/411/201 293/411/233 292/404/232
f 287/407/227 288/382/228 320/382/260 319/407/259
f 274/409/214 275/388/215 307/388/247 306/409/246
f 261/411/201 262/392/202 294/392/234 293/411/233
f 288/382/228 257/383/197 289/383/229 320/382/260
f 275/388/215 276/389/216 308/389/248 307/388/247
f 262/392/202 263/393/203 295/393/235 294/392/234
f 276/389/216 277/399/217 309/399/249 308/389/248
f 263/393/203 264/401/204 296/401/236 295/393/235
f 277/399/217 278/406/218 310/406/250 309/399/249
f 264/401/204 265/408/205 297/408/237 296/401/236
f 278/406/218 279/413/219 311/413/251 310/406/250
f 265/408/205 266/386/206 298/386/238 297/408/237
f 279/413/219 280/396/220 312/396/252 311/413/251
f 266/386/206 267/387/207 299/387/239 298/386/238
f 280/396/220 281/397/221 313/397/253 312/396/252
f 267/387/207 268/398/208 300/398/240 299/387/239
f 281/397/221 282/403/222 314/403/254 313/397/253
f 268/398/208 269/405/209 301/405/241 300/398/240
f 282/403/222 283/410/223 315/410/255 314/403/254
f 269/405/209 270/412/210 302/412/242 301/405/241
f 283/410/223 284/390/224 316/390/256 315/410/255
f 270/412/210 271/394/211 303/394/243 302/412/242
f 257/414/197 258/384/198 290/384/230 289/414/229
f 284/390/224 285/391/225 317/391/257 316/390/256
f 271/394/211 272/395/212 304/395/244 303/394/243
f 321/415/261 322/416/262 323/417/263 324/418/264 325/419/265 326/420/266 327/421/267 328/422/268 329/423/269 330/424/270 331/425/271 332/426/272 333/427/273 334/428/274 335/429/275 336/430/276 337/431/277 338/432/278 339/433/279 340/434/280 341/435/281 342/436/282 343/437/283 344/438/284 345/439/285 346/440/286 347/441/287 348/442/288 349/443/289 350/444/290 351/445/291 352/446/292
f 320/382/260 289/383/229 321/383/261 352/382/292
f 307/388/247 308/389/248 340/389/280 339/388/279
f 294/392/234 295/393/235 327/393/267 326/392/266
f 308/389/248 309/399/249 341/399/281 340/389/280
f 295/393/235 296/401/236 328/401/268 327/393/267
f 309/399/249 310/406/250 342/406/282 341/399/281
f 296/401/236 297/408/237 329/408/269 328/401/268
f 310/406/250 311/413/251 343/413/283 342/406/282
f 297/408/237 298/386/238 330/386/270 329/408/269
f 311/413/251 312/396/252 344/396/284 343/413/283
f 298/386/238 299/387/239 331/387/271 330/386/270
f 312/396/252 313/397/253 345/397/285 344/396/284
f 299/387/239 300/398/240 332/398/272 331/387/271
f 313/397/253 314/403/254 346/403/286 345/397/285
f 300/398/240 301/405/241 333/405/273 332/398/272
f 314/403/254 315/410/255 347/410/287 346/403/286
f 301/405/241 302/412/242 334/412/274 333/405/273
f 315/410/255 316/390/256 348/390/288 347/410/287
f 302/412/242 303/394/243 335/394/275 334/412/274
f 289/414/229 290/384/230 322/384/262 321/414/261
f 316/390/256 317/391/257 349/391/289 348/390/288
f 303/394/243 304/395/244 336/395/276 335/394/275
f 290/384/230 291/385/231 323/385/263 322/384/262
f 317/391/257 318/400/258 350/400/290 349/391/289
f 304/395/244 305/402/245 337/402/277 336/395/276
f 291/385/231 292/404/232 324/404/264 323/385/263
f 318/400/258 319/407/259 351/407/291 350/400/290
f 305/402/245 306/409/246 338/409/278 337/402/277
f 292/404/232 293/411/233 325/411/265 324/404/264
f 319/407/259 320/382/260 352/382/292 351/407/291
f 306/409/246 307/388/247 339/388/279 338/409/278
f 225/383/165 256/382/196 255/407/195 254/400/194 253/391/193 252/390/192 251/410/191 250/403/190 249/397/189 248/396/188 247/413/187 246/406/186 245/399/185 244/389/184 243/388/183 242/409/182 241/402/181 240/395/180 239/394/179 238/412/178 237/405/177 236/398/176 235/387/175 234/386/174 233/408/173 232/401/172 231/393/171 230/392/170 229/411/169 228/404/168 227/385/167 226/384/166
